<svg width="83" height="83" viewBox="0 0 83 83" fill="none" xmlns="http://www.w3.org/2000/svg">
<path d="M41.4585 0C18.5505 0 0 18.592 0 41.5C0 64.408 18.5505 83 41.4585 83C64.408 83 83 64.408 83 41.5C83 18.592 64.408 0 41.4585 0ZM70.218 24.9H57.9755C56.6766 19.76 54.7533 14.7985 52.2485 10.126C59.8186 12.7322 66.1973 17.9767 70.218 24.9ZM41.5 8.466C44.9445 13.446 47.642 18.9655 49.4265 24.9H33.5735C35.358 18.9655 38.0555 13.446 41.5 8.466ZM9.379 49.8C8.715 47.144 8.3 44.3635 8.3 41.5C8.3 38.6365 8.715 35.856 9.379 33.2H23.406C23.074 35.939 22.825 38.678 22.825 41.5C22.825 44.322 23.074 47.061 23.406 49.8H9.379ZM12.782 58.1H25.0245C26.3525 63.2875 28.2615 68.2675 30.7515 72.874C23.1735 70.282 16.7902 65.0339 12.782 58.1ZM25.0245 24.9H12.782C16.7902 17.9661 23.1735 12.718 30.7515 10.126C28.2467 14.7985 26.3234 19.76 25.0245 24.9ZM41.5 74.534C38.0555 69.554 35.358 64.0345 33.5735 58.1H49.4265C47.642 64.0345 44.9445 69.554 41.5 74.534ZM51.211 49.8H31.789C31.4155 47.061 31.125 44.322 31.125 41.5C31.125 38.678 31.4155 35.8975 31.789 33.2H51.211C51.5845 35.8975 51.875 38.678 51.875 41.5C51.875 44.322 51.5845 47.061 51.211 49.8ZM52.2485 72.874C54.7385 68.2675 56.6475 63.2875 57.9755 58.1H70.218C66.1973 65.0233 59.8186 70.2678 52.2485 72.874ZM59.594 49.8C59.926 47.061 60.175 44.322 60.175 41.5C60.175 38.678 59.926 35.939 59.594 33.2H73.621C74.285 35.856 74.7 38.6365 74.7 41.5C74.7 44.3635 74.285 47.144 73.621 49.8H59.594Z" fill="#DDDDDD"/>
</svg>
