<svg width="78" height="79" viewBox="0 0 78 79" fill="none" xmlns="http://www.w3.org/2000/svg">
<path d="M42.1285 5.86968C43.6244 5.86968 44.837 4.65731 44.837 3.16177C44.837 1.66623 43.6244 0.453857 42.1285 0.453857C40.6326 0.453857 39.4199 1.66623 39.4199 3.16177C39.4199 4.65731 40.6326 5.86968 42.1285 5.86968Z" fill="#CEEAF5"/>
<path d="M52.9889 16.7276C54.4848 16.7276 55.6974 15.5152 55.6974 14.0197C55.6974 12.5241 54.4848 11.3118 52.9889 11.3118C51.4929 11.3118 50.2803 12.5241 50.2803 14.0197C50.2803 15.5152 51.4929 16.7276 52.9889 16.7276Z" fill="#CEEAF5"/>
<path d="M63.8492 27.5855C65.345 27.5855 66.5577 26.3731 66.5577 24.8776C66.5577 23.382 65.345 22.1697 63.8492 22.1697C62.3533 22.1697 61.1406 23.382 61.1406 24.8776C61.1406 26.3731 62.3533 27.5855 63.8492 27.5855Z" fill="#CEEAF5"/>
<path d="M74.7095 38.4434C76.2054 38.4434 77.4181 37.231 77.4181 35.7355C77.4181 34.24 76.2054 33.0276 74.7095 33.0276C73.2136 33.0276 72.001 34.24 72.001 35.7355C72.001 37.231 73.2136 38.4434 74.7095 38.4434Z" fill="#CEEAF5"/>
<path d="M28.5523 8.58405C30.0482 8.58405 31.2609 7.37167 31.2609 5.87613C31.2609 4.38059 30.0482 3.16821 28.5523 3.16821C27.0564 3.16821 25.8438 4.38059 25.8438 5.87613C25.8438 7.37167 27.0564 8.58405 28.5523 8.58405Z" fill="#CEEAF5"/>
<path d="M39.7339 19.7632C41.2298 19.7632 42.4425 18.5509 42.4425 17.0553C42.4425 15.5598 41.2298 14.3474 39.7339 14.3474C38.2381 14.3474 37.0254 15.5598 37.0254 17.0553C37.0254 18.5509 38.2381 19.7632 39.7339 19.7632Z" fill="#CEEAF5"/>
<path d="M50.9097 30.9424C52.4056 30.9424 53.6182 29.7301 53.6182 28.2345C53.6182 26.739 52.4056 25.5266 50.9097 25.5266C49.4138 25.5266 48.2012 26.739 48.2012 28.2345C48.2012 29.7301 49.4138 30.9424 50.9097 30.9424Z" fill="#CEEAF5"/>
<path d="M62.0913 42.1151C63.5872 42.1151 64.7999 40.9027 64.7999 39.4071C64.7999 37.9116 63.5872 36.6992 62.0913 36.6992C60.5954 36.6992 59.3828 37.9116 59.3828 39.4071C59.3828 40.9027 60.5954 42.1151 62.0913 42.1151Z" fill="#CEEAF5"/>
<path d="M73.273 53.2943C74.7689 53.2943 75.9816 52.0819 75.9816 50.5863C75.9816 49.0908 74.7689 47.8784 73.273 47.8784C71.7771 47.8784 70.5645 49.0908 70.5645 50.5863C70.5645 52.0819 71.7771 53.2943 73.273 53.2943Z" fill="#CEEAF5"/>
<path d="M13.0816 13.2C14.5775 13.2 15.7902 11.9876 15.7902 10.4921C15.7902 8.99655 14.5775 7.78418 13.0816 7.78418C11.5857 7.78418 10.373 8.99655 10.373 10.4921C10.373 11.9876 11.5857 13.2 13.0816 13.2Z" fill="#CEEAF5"/>
<path d="M23.9419 24.0579C25.4378 24.0579 26.6505 22.8455 26.6505 21.35C26.6505 19.8545 25.4378 18.6421 23.9419 18.6421C22.446 18.6421 21.2334 19.8545 21.2334 21.35C21.2334 22.8455 22.446 24.0579 23.9419 24.0579Z" fill="#CEEAF5"/>
<path d="M34.8023 34.9158C36.2981 34.9158 37.5108 33.7035 37.5108 32.2079C37.5108 30.7124 36.2981 29.5 34.8023 29.5C33.3064 29.5 32.0938 30.7124 32.0938 32.2079C32.0938 33.7035 33.3064 34.9158 34.8023 34.9158Z" fill="#CEEAF5"/>
<path d="M45.6626 45.7737C47.1585 45.7737 48.3712 44.5614 48.3712 43.0658C48.3712 41.5703 47.1585 40.3579 45.6626 40.3579C44.1668 40.3579 42.9541 41.5703 42.9541 43.0658C42.9541 44.5614 44.1668 45.7737 45.6626 45.7737Z" fill="#CEEAF5"/>
<path d="M56.5171 56.6317C58.013 56.6317 59.2256 55.4193 59.2256 53.9237C59.2256 52.4282 58.013 51.2158 56.5171 51.2158C55.0212 51.2158 53.8086 52.4282 53.8086 53.9237C53.8086 55.4193 55.0212 56.6317 56.5171 56.6317Z" fill="#CEEAF5"/>
<path d="M67.3775 67.4895C68.8734 67.4895 70.086 66.2772 70.086 64.7816C70.086 63.2861 68.8734 62.0737 67.3775 62.0737C65.8816 62.0737 64.6689 63.2861 64.6689 64.7816C64.6689 66.2772 65.8816 67.4895 67.3775 67.4895Z" fill="#CEEAF5"/>
<path d="M10.3667 26.7725C11.8626 26.7725 13.0753 25.5601 13.0753 24.0646C13.0753 22.5691 11.8626 21.3567 10.3667 21.3567C8.87085 21.3567 7.6582 22.5691 7.6582 24.0646C7.6582 25.5601 8.87085 26.7725 10.3667 26.7725Z" fill="#CEEAF5"/>
<path d="M21.5415 37.9449C23.0374 37.9449 24.2501 36.7325 24.2501 35.237C24.2501 33.7414 23.0374 32.5291 21.5415 32.5291C20.0457 32.5291 18.833 33.7414 18.833 35.237C18.833 36.7325 20.0457 37.9449 21.5415 37.9449Z" fill="#CEEAF5"/>
<path d="M32.7242 49.1241C34.2201 49.1241 35.4327 47.9117 35.4327 46.4162C35.4327 44.9206 34.2201 43.7083 32.7242 43.7083C31.2283 43.7083 30.0156 44.9206 30.0156 46.4162C30.0156 47.9117 31.2283 49.1241 32.7242 49.1241Z" fill="#CEEAF5"/>
<path d="M43.9058 60.3033C45.4017 60.3033 46.6144 59.0909 46.6144 57.5954C46.6144 56.0998 45.4017 54.8875 43.9058 54.8875C42.4099 54.8875 41.1973 56.0998 41.1973 57.5954C41.1973 59.0909 42.4099 60.3033 43.9058 60.3033Z" fill="#CEEAF5"/>
<path d="M55.0806 71.4759C56.5765 71.4759 57.7891 70.2635 57.7891 68.768C57.7891 67.2724 56.5765 66.0601 55.0806 66.0601C53.5847 66.0601 52.3721 67.2724 52.3721 68.768C52.3721 70.2635 53.5847 71.4759 55.0806 71.4759Z" fill="#CEEAF5"/>
<path d="M5.74957 42.2396C7.24547 42.2396 8.45813 41.0272 8.45813 39.5316C8.45813 38.0361 7.24547 36.8237 5.74957 36.8237C4.25368 36.8237 3.04102 38.0361 3.04102 39.5316C3.04102 41.0272 4.25368 42.2396 5.74957 42.2396Z" fill="#CEEAF5"/>
<path d="M16.6099 53.0975C18.1058 53.0975 19.3184 51.8851 19.3184 50.3896C19.3184 48.894 18.1058 47.6816 16.6099 47.6816C15.114 47.6816 13.9014 48.894 13.9014 50.3896C13.9014 51.8851 15.114 53.0975 16.6099 53.0975Z" fill="#CEEAF5"/>
<path d="M27.4703 63.9554C28.9662 63.9554 30.1788 62.743 30.1788 61.2475C30.1788 59.7519 28.9662 58.5396 27.4703 58.5396C25.9744 58.5396 24.7617 59.7519 24.7617 61.2475C24.7617 62.743 25.9744 63.9554 27.4703 63.9554Z" fill="#CEEAF5"/>
<path d="M38.3306 74.8133C39.8265 74.8133 41.0391 73.6009 41.0391 72.1054C41.0391 70.6098 39.8265 69.3975 38.3306 69.3975C36.8347 69.3975 35.6221 70.6098 35.6221 72.1054C35.6221 73.6009 36.8347 74.8133 38.3306 74.8133Z" fill="#CEEAF5"/>
<path d="M3.35599 56.1333C4.85186 56.1333 6.06451 54.921 6.06451 53.4254C6.06451 51.9299 4.85186 50.7175 3.35599 50.7175C1.86011 50.7175 0.647461 51.9299 0.647461 53.4254C0.647461 54.921 1.86011 56.1333 3.35599 56.1333Z" fill="#CEEAF5"/>
<path d="M14.5376 67.3123C16.0335 67.3123 17.2462 66.0999 17.2462 64.6044C17.2462 63.1089 16.0335 61.8965 14.5376 61.8965C13.0418 61.8965 11.8291 63.1089 11.8291 64.6044C11.8291 66.0999 13.0418 67.3123 14.5376 67.3123Z" fill="#CEEAF5"/>
<path d="M25.7125 78.4849C27.2084 78.4849 28.421 77.2725 28.421 75.777C28.421 74.2815 27.2084 73.0691 25.7125 73.0691C24.2166 73.0691 23.0039 74.2815 23.0039 75.777C23.0039 77.2725 24.2166 78.4849 25.7125 78.4849Z" fill="#CEEAF5"/>
</svg>
