<svg width="117" height="118" viewBox="0 0 117 118" fill="none" xmlns="http://www.w3.org/2000/svg">
<path d="M62.8905 8.18306C65.147 8.18306 66.9762 6.35423 66.9762 4.09824C66.9762 1.84226 65.147 0.0134277 62.8905 0.0134277C60.634 0.0134277 58.8047 1.84226 58.8047 4.09824C58.8047 6.35423 60.634 8.18306 62.8905 8.18306Z" fill="#CEEAF5"/>
<path d="M79.2664 24.5551C81.5229 24.5551 83.3522 22.7263 83.3522 20.4703C83.3522 18.2143 81.5229 16.3855 79.2664 16.3855C77.0099 16.3855 75.1807 18.2143 75.1807 20.4703C75.1807 22.7263 77.0099 24.5551 79.2664 24.5551Z" fill="#CEEAF5"/>
<path d="M95.6483 40.9338C97.9048 40.9338 99.7341 39.105 99.7341 36.849C99.7341 34.593 97.9048 32.7642 95.6483 32.7642C93.3918 32.7642 91.5625 34.593 91.5625 36.849C91.5625 39.105 93.3918 40.9338 95.6483 40.9338Z" fill="#CEEAF5"/>
<path d="M112.024 57.3059C114.281 57.3059 116.11 55.477 116.11 53.221C116.11 50.9651 114.281 49.1362 112.024 49.1362C109.768 49.1362 107.938 50.9651 107.938 53.221C107.938 55.477 109.768 57.3059 112.024 57.3059Z" fill="#CEEAF5"/>
<path d="M42.4217 12.2744C44.6782 12.2744 46.5075 10.4455 46.5075 8.18955C46.5075 5.93357 44.6782 4.10474 42.4217 4.10474C40.1652 4.10474 38.3359 5.93357 38.3359 8.18955C38.3359 10.4455 40.1652 12.2744 42.4217 12.2744Z" fill="#CEEAF5"/>
<path d="M59.2762 29.1318C61.5327 29.1318 63.362 27.303 63.362 25.047C63.362 22.791 61.5327 20.9622 59.2762 20.9622C57.0197 20.9622 55.1904 22.791 55.1904 25.047C55.1904 27.303 57.0197 29.1318 59.2762 29.1318Z" fill="#CEEAF5"/>
<path d="M76.1375 45.989C78.394 45.989 80.2233 44.1601 80.2233 41.9041C80.2233 39.6482 78.394 37.8193 76.1375 37.8193C73.881 37.8193 72.0518 39.6482 72.0518 41.9041C72.0518 44.1601 73.881 45.989 76.1375 45.989Z" fill="#CEEAF5"/>
<path d="M92.9989 62.8396C95.2554 62.8396 97.0846 61.0107 97.0846 58.7547C97.0846 56.4988 95.2554 54.6699 92.9989 54.6699C90.7423 54.6699 88.9131 56.4988 88.9131 58.7547C88.9131 61.0107 90.7423 62.8396 92.9989 62.8396Z" fill="#CEEAF5"/>
<path d="M109.853 79.697C112.11 79.697 113.939 77.8681 113.939 75.6122C113.939 73.3562 112.11 71.5273 109.853 71.5273C107.597 71.5273 105.768 73.3562 105.768 75.6122C105.768 77.8681 107.597 79.697 109.853 79.697Z" fill="#CEEAF5"/>
<path d="M19.0877 19.2312C21.3442 19.2312 23.1735 17.4023 23.1735 15.1463C23.1735 12.8904 21.3442 11.0615 19.0877 11.0615C16.8312 11.0615 15.002 12.8904 15.002 15.1463C15.002 17.4023 16.8312 19.2312 19.0877 19.2312Z" fill="#CEEAF5"/>
<path d="M35.4637 35.6096C37.7202 35.6096 39.5495 33.7807 39.5495 31.5248C39.5495 29.2688 37.7202 27.4399 35.4637 27.4399C33.2072 27.4399 31.3779 29.2688 31.3779 31.5248C31.3779 33.7807 33.2072 35.6096 35.4637 35.6096Z" fill="#CEEAF5"/>
<path d="M51.8397 51.9816C54.0962 51.9816 55.9254 50.1528 55.9254 47.8968C55.9254 45.6408 54.0962 43.812 51.8397 43.812C49.5832 43.812 47.7539 45.6408 47.7539 47.8968C47.7539 50.1528 49.5832 51.9816 51.8397 51.9816Z" fill="#CEEAF5"/>
<path d="M68.2156 68.3537C70.4722 68.3537 72.3014 66.5249 72.3014 64.2689C72.3014 62.0129 70.4722 60.1841 68.2156 60.1841C65.9591 60.1841 64.1299 62.0129 64.1299 64.2689C64.1299 66.5249 65.9591 68.3537 68.2156 68.3537Z" fill="#CEEAF5"/>
<path d="M84.5975 84.7258C86.854 84.7258 88.6833 82.897 88.6833 80.641C88.6833 78.385 86.854 76.5562 84.5975 76.5562C82.341 76.5562 80.5117 78.385 80.5117 80.641C80.5117 82.897 82.341 84.7258 84.5975 84.7258Z" fill="#CEEAF5"/>
<path d="M100.973 101.098C103.23 101.098 105.059 99.269 105.059 97.013C105.059 94.7571 103.23 92.9282 100.973 92.9282C98.717 92.9282 96.8877 94.7571 96.8877 97.013C96.8877 99.269 98.717 101.098 100.973 101.098Z" fill="#CEEAF5"/>
<path d="M14.9891 39.7011C17.2456 39.7011 19.0749 37.8723 19.0749 35.6163C19.0749 33.3603 17.2456 31.5315 14.9891 31.5315C12.7326 31.5315 10.9033 33.3603 10.9033 35.6163C10.9033 37.8723 12.7326 39.7011 14.9891 39.7011Z" fill="#CEEAF5"/>
<path d="M31.8504 56.5583C34.1069 56.5583 35.9362 54.7295 35.9362 52.4735C35.9362 50.2175 34.1069 48.3887 31.8504 48.3887C29.5939 48.3887 27.7646 50.2175 27.7646 52.4735C27.7646 54.7295 29.5939 56.5583 31.8504 56.5583Z" fill="#CEEAF5"/>
<path d="M48.7117 73.4089C50.9683 73.4089 52.7975 71.5801 52.7975 69.3241C52.7975 67.0681 50.9683 65.2393 48.7117 65.2393C46.4552 65.2393 44.626 67.0681 44.626 69.3241C44.626 71.5801 46.4552 73.4089 48.7117 73.4089Z" fill="#CEEAF5"/>
<path d="M65.5662 90.2663C67.8227 90.2663 69.652 88.4375 69.652 86.1815C69.652 83.9255 67.8227 82.0967 65.5662 82.0967C63.3097 82.0967 61.4805 83.9255 61.4805 86.1815C61.4805 88.4375 63.3097 90.2663 65.5662 90.2663Z" fill="#CEEAF5"/>
<path d="M82.4276 107.123C84.6841 107.123 86.5133 105.295 86.5133 103.039C86.5133 100.783 84.6841 98.9539 82.4276 98.9539C80.1711 98.9539 78.3418 100.783 78.3418 103.039C78.3418 105.295 80.1711 107.123 82.4276 107.123Z" fill="#CEEAF5"/>
<path d="M8.03108 63.0297C10.2876 63.0297 12.1169 61.2009 12.1169 58.9449C12.1169 56.6889 10.2876 54.8601 8.03108 54.8601C5.77457 54.8601 3.94531 56.6889 3.94531 58.9449C3.94531 61.2009 5.77457 63.0297 8.03108 63.0297Z" fill="#CEEAF5"/>
<path d="M24.4129 79.4018C26.6694 79.4018 28.4987 77.573 28.4987 75.317C28.4987 73.061 26.6694 71.2322 24.4129 71.2322C22.1564 71.2322 20.3271 73.061 20.3271 75.317C20.3271 77.573 22.1564 79.4018 24.4129 79.4018Z" fill="#CEEAF5"/>
<path d="M40.7889 95.7739C43.0454 95.7739 44.8747 93.9451 44.8747 91.6891C44.8747 89.4331 43.0454 87.6042 40.7889 87.6042C38.5324 87.6042 36.7031 89.4331 36.7031 91.6891C36.7031 93.9451 38.5324 95.7739 40.7889 95.7739Z" fill="#CEEAF5"/>
<path d="M57.1649 112.153C59.4214 112.153 61.2506 110.324 61.2506 108.068C61.2506 105.812 59.4214 103.983 57.1649 103.983C54.9084 103.983 53.0791 105.812 53.0791 108.068C53.0791 110.324 54.9084 112.153 57.1649 112.153Z" fill="#CEEAF5"/>
<path d="M4.42366 83.9785C6.68017 83.9785 8.50943 82.1496 8.50943 79.8937C8.50943 77.6377 6.68017 75.8088 4.42366 75.8088C2.16715 75.8088 0.337891 77.6377 0.337891 79.8937C0.337891 82.1496 2.16715 83.9785 4.42366 83.9785Z" fill="#CEEAF5"/>
<path d="M21.2782 100.836C23.5347 100.836 25.3639 99.0068 25.3639 96.7508C25.3639 94.4948 23.5347 92.666 21.2782 92.666C19.0216 92.666 17.1924 94.4948 17.1924 96.7508C17.1924 99.0068 19.0216 100.836 21.2782 100.836Z" fill="#CEEAF5"/>
<path d="M38.1395 117.686C40.396 117.686 42.2252 115.857 42.2252 113.601C42.2252 111.345 40.396 109.517 38.1395 109.517C35.883 109.517 34.0537 111.345 34.0537 113.601C34.0537 115.857 35.883 117.686 38.1395 117.686Z" fill="#CEEAF5"/>
</svg>
