<svg width="116" height="119" viewBox="0 0 116 119" fill="none" xmlns="http://www.w3.org/2000/svg">
<path d="M62.7791 8.62642C65.0356 8.62642 66.8649 6.79758 66.8649 4.54159C66.8649 2.28561 65.0356 0.456787 62.7791 0.456787C60.5226 0.456787 58.6934 2.28561 58.6934 4.54159C58.6934 6.79758 60.5226 8.62642 62.7791 8.62642Z" fill="#CEEAF5"/>
<path d="M79.1551 25.0051C81.4116 25.0051 83.2409 23.1763 83.2409 20.9203C83.2409 18.6643 81.4116 16.8354 79.1551 16.8354C76.8986 16.8354 75.0693 18.6643 75.0693 20.9203C75.0693 23.1763 76.8986 25.0051 79.1551 25.0051Z" fill="#CEEAF5"/>
<path d="M95.5379 41.3772C97.7944 41.3772 99.6237 39.5483 99.6237 37.2923C99.6237 35.0364 97.7944 33.2075 95.5379 33.2075C93.2814 33.2075 91.4521 35.0364 91.4521 37.2923C91.4521 39.5483 93.2814 41.3772 95.5379 41.3772Z" fill="#CEEAF5"/>
<path d="M111.914 57.7492C114.17 57.7492 116 55.9204 116 53.6644C116 51.4084 114.17 49.5796 111.914 49.5796C109.657 49.5796 107.828 51.4084 107.828 53.6644C107.828 55.9204 109.657 57.7492 111.914 57.7492Z" fill="#CEEAF5"/>
<path d="M42.3114 12.7243C44.5679 12.7243 46.3971 10.8955 46.3971 8.63949C46.3971 6.38351 44.5679 4.55469 42.3114 4.55469C40.0549 4.55469 38.2256 6.38351 38.2256 8.63949C38.2256 10.8955 40.0549 12.7243 42.3114 12.7243Z" fill="#CEEAF5"/>
<path d="M59.1659 29.5749C61.4224 29.5749 63.2516 27.7461 63.2516 25.4901C63.2516 23.2341 61.4224 21.4053 59.1659 21.4053C56.9093 21.4053 55.0801 23.2341 55.0801 25.4901C55.0801 27.7461 56.9093 29.5749 59.1659 29.5749Z" fill="#CEEAF5"/>
<path d="M76.0272 46.4323C78.2837 46.4323 80.1129 44.6035 80.1129 42.3475C80.1129 40.0915 78.2837 38.2627 76.0272 38.2627C73.7707 38.2627 71.9414 40.0915 71.9414 42.3475C71.9414 44.6035 73.7707 46.4323 76.0272 46.4323Z" fill="#CEEAF5"/>
<path d="M92.8885 63.2895C95.145 63.2895 96.9743 61.4606 96.9743 59.2047C96.9743 56.9487 95.145 55.1199 92.8885 55.1199C90.632 55.1199 88.8027 56.9487 88.8027 59.2047C88.8027 61.4606 90.632 63.2895 92.8885 63.2895Z" fill="#CEEAF5"/>
<path d="M109.743 80.1401C112 80.1401 113.829 78.3113 113.829 76.0553C113.829 73.7993 112 71.9705 109.743 71.9705C107.486 71.9705 105.657 73.7993 105.657 76.0553C105.657 78.3113 107.486 80.1401 109.743 80.1401Z" fill="#CEEAF5"/>
<path d="M18.9705 19.6745C21.227 19.6745 23.0563 17.8457 23.0563 15.5897C23.0563 13.3337 21.227 11.5049 18.9705 11.5049C16.714 11.5049 14.8848 13.3337 14.8848 15.5897C14.8848 17.8457 16.714 19.6745 18.9705 19.6745Z" fill="#CEEAF5"/>
<path d="M35.3534 36.0529C37.6099 36.0529 39.4391 34.2241 39.4391 31.9681C39.4391 29.7121 37.6099 27.8833 35.3534 27.8833C33.0968 27.8833 31.2676 29.7121 31.2676 31.9681C31.2676 34.2241 33.0968 36.0529 35.3534 36.0529Z" fill="#CEEAF5"/>
<path d="M51.7293 52.425C53.9858 52.425 55.8151 50.5962 55.8151 48.3402C55.8151 46.0842 53.9858 44.2554 51.7293 44.2554C49.4728 44.2554 47.6436 46.0842 47.6436 48.3402C47.6436 50.5962 49.4728 52.425 51.7293 52.425Z" fill="#CEEAF5"/>
<path d="M68.1053 68.7971C70.3618 68.7971 72.1911 66.9682 72.1911 64.7123C72.1911 62.4563 70.3618 60.6274 68.1053 60.6274C65.8488 60.6274 64.0195 62.4563 64.0195 64.7123C64.0195 66.9682 65.8488 68.7971 68.1053 68.7971Z" fill="#CEEAF5"/>
<path d="M84.4803 85.1692C86.7368 85.1692 88.5661 83.3404 88.5661 81.0844C88.5661 78.8284 86.7368 76.9995 84.4803 76.9995C82.2238 76.9995 80.3945 78.8284 80.3945 81.0844C80.3945 83.3404 82.2238 85.1692 84.4803 85.1692Z" fill="#CEEAF5"/>
<path d="M100.863 101.548C103.12 101.548 104.949 99.719 104.949 97.463C104.949 95.207 103.12 93.3782 100.863 93.3782C98.6066 93.3782 96.7773 95.207 96.7773 97.463C96.7773 99.719 98.6066 101.548 100.863 101.548Z" fill="#CEEAF5"/>
<path d="M14.8787 40.1445C17.1352 40.1445 18.9645 38.3157 18.9645 36.0597C18.9645 33.8037 17.1352 31.9749 14.8787 31.9749C12.6222 31.9749 10.793 33.8037 10.793 36.0597C10.793 38.3157 12.6222 40.1445 14.8787 40.1445Z" fill="#CEEAF5"/>
<path d="M31.7391 57.0016C33.9956 57.0016 35.8249 55.1728 35.8249 52.9168C35.8249 50.6609 33.9956 48.832 31.7391 48.832C29.4826 48.832 27.6533 50.6609 27.6533 52.9168C27.6533 55.1728 29.4826 57.0016 31.7391 57.0016Z" fill="#CEEAF5"/>
<path d="M48.6004 73.8523C50.8569 73.8523 52.6862 72.0234 52.6862 69.7674C52.6862 67.5115 50.8569 65.6826 48.6004 65.6826C46.3439 65.6826 44.5146 67.5115 44.5146 69.7674C44.5146 72.0234 46.3439 73.8523 48.6004 73.8523Z" fill="#CEEAF5"/>
<path d="M65.4549 90.7097C67.7114 90.7097 69.5407 88.8808 69.5407 86.6248C69.5407 84.3689 67.7114 82.54 65.4549 82.54C63.1984 82.54 61.3691 84.3689 61.3691 86.6248C61.3691 88.8808 63.1984 90.7097 65.4549 90.7097Z" fill="#CEEAF5"/>
<path d="M82.3162 107.567C84.5727 107.567 86.402 105.738 86.402 103.482C86.402 101.226 84.5727 99.3972 82.3162 99.3972C80.0597 99.3972 78.2305 101.226 78.2305 103.482C78.2305 105.738 80.0597 107.567 82.3162 107.567Z" fill="#CEEAF5"/>
<path d="M7.91975 63.4731C10.1763 63.4731 12.0055 61.6443 12.0055 59.3883C12.0055 57.1323 10.1763 55.3035 7.91975 55.3035C5.66324 55.3035 3.83398 57.1323 3.83398 59.3883C3.83398 61.6443 5.66324 63.4731 7.91975 63.4731Z" fill="#CEEAF5"/>
<path d="M24.3026 79.8452C26.5591 79.8452 28.3883 78.0163 28.3883 75.7603C28.3883 73.5044 26.5591 71.6755 24.3026 71.6755C22.0461 71.6755 20.2168 73.5044 20.2168 75.7603C20.2168 78.0163 22.0461 79.8452 24.3026 79.8452Z" fill="#CEEAF5"/>
<path d="M40.6785 96.2238C42.935 96.2238 44.7643 94.395 44.7643 92.139C44.7643 89.883 42.935 88.0542 40.6785 88.0542C38.422 88.0542 36.5928 89.883 36.5928 92.139C36.5928 94.395 38.422 96.2238 40.6785 96.2238Z" fill="#CEEAF5"/>
<path d="M57.0545 112.596C59.311 112.596 61.1403 110.767 61.1403 108.511C61.1403 106.255 59.311 104.426 57.0545 104.426C54.798 104.426 52.9688 106.255 52.9688 108.511C52.9688 110.767 54.798 112.596 57.0545 112.596Z" fill="#CEEAF5"/>
<path d="M4.30648 84.4216C6.56298 84.4216 8.39224 82.5928 8.39224 80.3368C8.39224 78.0808 6.56298 76.252 4.30648 76.252C2.04997 76.252 0.220703 78.0808 0.220703 80.3368C0.220703 82.5928 2.04997 84.4216 4.30648 84.4216Z" fill="#CEEAF5"/>
<path d="M21.1678 101.279C23.4243 101.279 25.2536 99.4502 25.2536 97.1942C25.2536 94.9382 23.4243 93.1094 21.1678 93.1094C18.9113 93.1094 17.082 94.9382 17.082 97.1942C17.082 99.4502 18.9113 101.279 21.1678 101.279Z" fill="#CEEAF5"/>
<path d="M38.0291 118.13C40.2856 118.13 42.1149 116.301 42.1149 114.045C42.1149 111.789 40.2856 109.96 38.0291 109.96C35.7726 109.96 33.9434 111.789 33.9434 114.045C33.9434 116.301 35.7726 118.13 38.0291 118.13Z" fill="#CEEAF5"/>
</svg>
