<svg width="200" height="216" viewBox="0 0 200 216" fill="none" xmlns="http://www.w3.org/2000/svg">
<path d="M194.886 0L44.0335 212.758C43.4236 213.623 43.6269 214.817 44.486 215.433C45.3517 216.043 46.5453 215.84 47.1618 214.981L199.588 0H194.886Z" fill="#85CEDE"/>
<path d="M181.96 0L35.4358 206.667C34.8259 207.532 35.0292 208.726 35.8884 209.342C36.7475 209.958 37.9476 209.748 38.5641 208.889L186.662 0H181.96Z" fill="#85CEDE"/>
<path d="M156.114 0L18.2337 194.471C17.6238 195.337 17.8271 196.53 18.6862 197.146C19.5453 197.763 20.7455 197.553 21.362 196.694L160.816 0H156.114Z" fill="#85CEDE"/>
<path d="M143.187 0L9.62921 188.374C9.01929 189.239 9.2226 190.432 10.0817 191.049C10.9474 191.659 12.141 191.455 12.7575 190.596L147.89 0H143.187Z" fill="#85CEDE"/>
<path d="M130.268 0L1.02472 182.282C0.414802 183.148 0.618107 184.341 1.47723 184.958C2.33636 185.574 3.53651 185.364 4.15299 184.505L134.97 0H130.268Z" fill="#85CEDE"/>
<path d="M169.04 0L26.8314 200.569C26.2214 201.435 26.4247 202.628 27.2839 203.244C28.1496 203.854 29.3432 203.651 29.9596 202.792L173.742 0H169.04Z" fill="#85CEDE"/>
</svg>
