<svg width="231" height="262" viewBox="0 0 231 262" fill="none" xmlns="http://www.w3.org/2000/svg">
<path d="M230.054 31.8142C229.188 31.2044 227.995 31.4077 227.378 32.2666L64.6885 261.731H69.3907L230.513 34.4893C231.123 33.6238 230.92 32.424 230.054 31.8142Z" fill="#85CEDE"/>
<path d="M221.456 25.7165C220.59 25.1068 219.397 25.31 218.78 26.1689L51.7686 261.731H56.4708L221.915 28.3917C222.525 27.5262 222.322 26.3263 221.456 25.7165Z" fill="#85CEDE"/>
<path d="M212.852 19.6189C211.986 19.0091 210.793 19.2124 210.176 20.0713L38.8428 261.731H43.545L213.311 22.294C213.921 21.4285 213.718 20.2352 212.852 19.6189Z" fill="#85CEDE"/>
<path d="M204.254 13.5278C203.388 12.918 202.194 13.1213 201.578 13.9802L25.916 261.731H30.6183L204.706 16.1964C205.316 15.3309 205.113 14.1376 204.254 13.5278Z" fill="#85CEDE"/>
<path d="M195.649 7.42991C194.783 6.82014 193.59 7.02339 192.973 7.88232L12.9961 261.731H17.6983L196.108 10.105C196.718 9.23955 196.515 8.03968 195.649 7.42991Z" fill="#85CEDE"/>
<path d="M187.045 1.33225C186.179 0.722482 184.986 0.925731 184.369 1.78466L0.0703125 261.731H4.77255L187.504 4.00737C188.114 3.14189 187.911 1.94203 187.045 1.33225Z" fill="#85CEDE"/>
</svg>
