<svg width="149" height="211" viewBox="0 0 149 211" fill="none" xmlns="http://www.w3.org/2000/svg">
<path opacity="0.43" d="M141.013 77.4261L147.292 15.1694C147.812 10.0336 143.777 5.57468 138.618 5.57468H136.928C135.272 5.57468 133.856 6.77193 133.587 8.41114L130.605 25.7656L132.339 9.28391C132.53 7.29223 130.968 5.57468 128.965 5.57468H123.845C122.244 5.57468 120.862 6.6992 120.532 8.26569L114.466 37.3912L117.516 9.31747C117.734 7.31461 116.167 5.56909 114.153 5.56909H56.3302C53.2805 5.56909 50.8071 8.0419 50.8071 11.091V39.2654L46.7221 10.3245C46.336 7.59993 44.0081 5.57468 41.2549 5.57468H16.3699C11.0594 5.57468 6.97995 10.2797 7.74099 15.5387L16.6721 77.4205C12.671 77.4205 9.42536 80.6654 9.42536 84.6655V95.3176C9.42536 103.721 16.2412 110.529 24.6406 110.529H62.1444C65.7146 110.529 68.5293 113.573 68.2551 117.131L62.1612 195.606C61.5289 203.769 67.9809 210.745 76.1733 210.745H81.3719C89.6147 210.745 96.0892 203.685 95.3729 195.472L88.5515 117.187C88.2381 113.606 91.064 110.529 94.6566 110.529H133.045C141.45 110.529 148.26 103.715 148.26 95.3176V84.6655C148.26 80.671 145.014 77.4261 141.013 77.4261Z" fill="#72635B"/>
<path d="M131.701 0.97044H130.011C128.355 0.97044 126.939 2.16768 126.67 3.8069L123.688 21.1614L125.422 4.67966C125.613 2.68798 124.051 0.97044 122.048 0.97044H116.928C115.327 0.97044 113.945 2.09495 113.615 3.66144L107.549 32.7869L110.599 4.71322C110.817 2.71036 109.25 0.964844 107.236 0.964844H49.4132C46.3635 0.964844 43.8901 3.43766 43.8901 6.48672V34.6611L39.8051 5.72025C39.419 2.99568 37.0911 0.97044 34.3379 0.97044H9.45288C4.14237 0.97044 0.0629557 5.6755 0.823999 10.9344L9.75507 72.8163H134.096L140.375 10.5596C140.895 5.42934 136.866 0.97044 131.701 0.97044Z" fill="#CBBBA0"/>
<path d="M134.096 72.8218H9.76037C5.7593 72.8218 2.51367 76.0666 2.51367 80.0668V90.7189C2.51367 99.122 9.32949 105.931 17.7289 105.931H55.2327C58.8029 105.931 61.6176 108.974 61.3434 112.532L55.2495 191.008C54.6172 199.17 61.0692 206.147 69.2616 206.147H74.4602C82.703 206.147 89.1775 199.086 88.4612 190.873L81.6398 112.588C81.3264 109.008 84.1524 105.931 87.7449 105.931H126.133C134.538 105.931 141.348 99.1164 141.348 90.7189V80.0668C141.348 76.0666 138.102 72.8218 134.096 72.8218Z" fill="#937E6A"/>
<path d="M136.284 102.048C139.39 99.2616 141.343 95.2223 141.343 90.7243V80.0722C141.343 76.072 138.097 72.8271 134.096 72.8271H48.6465C54.2648 79.4512 121.231 74.9083 129.871 80.889C141.096 88.6543 136.295 102.025 136.284 102.048Z" fill="#BAA090"/>
<path d="M88.4554 190.879L86.0883 163.728C84.0906 163.527 81.9138 164.685 81.9138 164.685C75.0028 173.323 80.6155 174.19 78.2652 189.738C75.915 205.285 65.0029 205.492 65.0029 205.492C66.3459 205.917 67.7729 206.152 69.2614 206.152H74.46C82.6972 206.147 89.1717 199.086 88.4554 190.879Z" fill="#BAA090"/>
<path d="M17.7289 105.936H55.2327C58.8029 105.936 61.6176 108.98 61.3434 112.538C62.0429 103.564 58.1538 102.048 30.9353 101.617C3.71679 101.186 2.51367 83.0432 2.51367 83.0432V90.7246C2.51367 99.1221 9.32949 105.936 17.7289 105.936Z" fill="#615044"/>
<path d="M13.2195 0.970459H9.4646C4.15409 0.970459 0.0746744 5.67552 0.835718 10.9344L9.76679 72.8163H16.6777C16.6777 72.8163 5.87763 19.9753 5.01027 10.9065C4.1485 1.83762 13.2195 0.970459 13.2195 0.970459Z" fill="#A59379"/>
<path d="M24.8867 0.970411C24.8867 0.970411 20.9976 0.539625 20.1358 4.85866C19.2741 9.17769 23.1576 45.0279 24.8867 51.0756C24.8867 51.0756 20.1302 3.99709 24.8867 0.970411Z" fill="#A59379"/>
<path d="M34.3438 0.970293C34.3438 0.970293 40.0068 38.1184 42.1668 44.1662C42.1668 44.1662 41.2659 13.1665 39.8109 5.72011C38.7981 0.528318 34.3438 0.970293 34.3438 0.970293Z" fill="#A59379"/>
<path d="M63.7674 0.970459C62.7153 4.81395 63.7674 44.1664 63.7674 44.1664C63.7674 44.1664 64.1983 3.56076 68.0874 0.970459H63.7674Z" fill="#A59379"/>
<path opacity="0.43" d="M88.6904 36.261C90.9288 26.9012 94.152 11.2811 93.5813 0.975831H89.2612C89.2612 0.970237 91.4212 20.7527 88.6904 36.261Z" fill="#A59379"/>
<path opacity="0.43" d="M88.6907 36.261C87.5492 41.022 86.665 44.1718 86.665 44.1718C87.5324 41.7717 88.1927 39.0863 88.6907 36.261Z" fill="#A59379"/>
<path d="M101.36 36.8934C101.36 36.8934 109.228 12.1988 107.242 0.970459H103.52C103.52 0.970459 106.111 15.8017 101.36 36.8934Z" fill="#A59379"/>
<path d="M13.6501 21.5749C13.6501 23.0015 13.2192 43.3043 16.6719 44.1715C20.1301 45.033 20.9919 36.4453 26.6102 35.5558C32.2285 34.6662 35.5972 37.2174 38.2553 35.5558C40.9077 33.8942 40.4377 10.1619 42.1668 22.4141L39.8109 5.71979C39.4248 2.99521 37.0969 0.969971 34.3437 0.969971H9.45875C4.14823 0.969971 0.068815 5.67503 0.829858 10.934L4.38325 35.5502C4.38325 35.5502 9.33004 38.9797 10.1918 27.7513C11.0592 16.523 13.6501 20.1427 13.6501 21.5749Z" fill="#E9E0D0"/>
<path d="M140.38 10.5649C140.901 5.42909 136.866 0.970195 131.707 0.970195H130.017C128.36 0.970195 126.944 2.16744 126.676 3.80666L123.693 21.1611L125.428 4.67941C125.618 2.68774 124.057 0.970195 122.054 0.970195H116.933C115.333 0.970195 113.951 2.09471 113.621 3.6612L107.555 32.7867L110.604 4.71298C110.823 2.71011 109.256 0.9646 107.241 0.9646H49.4131C46.3634 0.9646 43.89 3.43741 43.89 6.48647V34.6609L43.5654 32.3615C43.7445 37.2176 45.7143 44.1605 55.5574 44.1605C64.5221 44.1605 65.423 34.6441 63.3022 26.0116C61.1757 17.3792 78.8924 15.2196 80.6159 19.1079C82.345 22.9961 74.9976 35.2315 83.2068 36.8875C91.416 38.5435 87.4205 19.0855 90.0674 17.2449C92.7143 15.4043 98.327 18.6603 97.8961 26.0116C97.4652 33.3629 85.087 52.0153 104.454 51.9761C123.822 51.937 127.711 40.2611 125.115 26.0116C122.524 11.7622 139.261 21.5639 139.261 21.5639L140.38 10.5649Z" fill="#E9E0D0"/>
</svg>
