<svg width="119" height="116" viewBox="0 0 119 116" fill="none" xmlns="http://www.w3.org/2000/svg">
<path d="M114.421 66.608C116.677 66.608 118.507 64.7797 118.507 62.5244C118.507 60.2692 116.677 58.4409 114.421 58.4409C112.164 58.4409 110.335 60.2692 110.335 62.5244C110.335 64.7797 112.164 66.608 114.421 66.608Z" fill="#B9BADF"/>
<path d="M98.0389 82.9749C100.295 82.9749 102.125 81.1467 102.125 78.8914C102.125 76.6361 100.295 74.8079 98.0389 74.8079C95.7824 74.8079 93.9531 76.6361 93.9531 78.8914C93.9531 81.1467 95.7824 82.9749 98.0389 82.9749Z" fill="#B9BADF"/>
<path d="M81.6629 99.3419C83.9194 99.3419 85.7487 97.5136 85.7487 95.2583C85.7487 93.0031 83.9194 91.1748 81.6629 91.1748C79.4064 91.1748 77.5771 93.0031 77.5771 95.2583C77.5771 97.5136 79.4064 99.3419 81.6629 99.3419Z" fill="#B9BADF"/>
<path d="M65.287 115.715C67.5435 115.715 69.3727 113.887 69.3727 111.632C69.3727 109.376 67.5435 107.548 65.287 107.548C63.0304 107.548 61.2012 109.376 61.2012 111.632C61.2012 113.887 63.0304 115.715 65.287 115.715Z" fill="#B9BADF"/>
<path d="M110.322 46.1446C112.579 46.1446 114.408 44.3163 114.408 42.0611C114.408 39.8058 112.579 37.9775 110.322 37.9775C108.066 37.9775 106.236 39.8058 106.236 42.0611C106.236 44.3163 108.066 46.1446 110.322 46.1446Z" fill="#B9BADF"/>
<path d="M93.4676 62.9964C95.7241 62.9964 97.5534 61.1681 97.5534 58.9129C97.5534 56.6576 95.7241 54.8293 93.4676 54.8293C91.2111 54.8293 89.3818 56.6576 89.3818 58.9129C89.3818 61.1681 91.2111 62.9964 93.4676 62.9964Z" fill="#B9BADF"/>
<path d="M76.6063 79.8484C78.8628 79.8484 80.692 78.0202 80.692 75.7649C80.692 73.5097 78.8628 71.6814 76.6063 71.6814C74.3498 71.6814 72.5205 73.5097 72.5205 75.7649C72.5205 78.0202 74.3498 79.8484 76.6063 79.8484Z" fill="#B9BADF"/>
<path d="M59.745 96.6937C62.0015 96.6937 63.8307 94.8654 63.8307 92.6101C63.8307 90.3549 62.0015 88.5266 59.745 88.5266C57.4884 88.5266 55.6592 90.3549 55.6592 92.6101C55.6592 94.8654 57.4884 96.6937 59.745 96.6937Z" fill="#B9BADF"/>
<path d="M42.8836 113.546C45.1401 113.546 46.9694 111.717 46.9694 109.462C46.9694 107.207 45.1401 105.379 42.8836 105.379C40.6271 105.379 38.7979 107.207 38.7979 109.462C38.7979 111.717 40.6271 113.546 42.8836 113.546Z" fill="#B9BADF"/>
<path d="M103.364 22.8231C105.621 22.8231 107.45 20.9948 107.45 18.7395C107.45 16.4843 105.621 14.656 103.364 14.656C101.108 14.656 99.2783 16.4843 99.2783 18.7395C99.2783 20.9948 101.108 22.8231 103.364 22.8231Z" fill="#B9BADF"/>
<path d="M86.9881 39.19C89.2446 39.19 91.0739 37.3617 91.0739 35.1065C91.0739 32.8512 89.2446 31.0229 86.9881 31.0229C84.7316 31.0229 82.9023 32.8512 82.9023 35.1065C82.9023 37.3617 84.7316 39.19 86.9881 39.19Z" fill="#B9BADF"/>
<path d="M70.6121 55.5635C72.8687 55.5635 74.6979 53.7353 74.6979 51.48C74.6979 49.2247 72.8687 47.3965 70.6121 47.3965C68.3556 47.3965 66.5264 49.2247 66.5264 51.48C66.5264 53.7353 68.3556 55.5635 70.6121 55.5635Z" fill="#B9BADF"/>
<path d="M54.2362 71.9305C56.4927 71.9305 58.3219 70.1022 58.3219 67.847C58.3219 65.5917 56.4927 63.7634 54.2362 63.7634C51.9797 63.7634 50.1504 65.5917 50.1504 67.847C50.1504 70.1022 51.9797 71.9305 54.2362 71.9305Z" fill="#B9BADF"/>
<path d="M37.8534 88.2972C40.1099 88.2972 41.9391 86.4689 41.9391 84.2137C41.9391 81.9584 40.1099 80.1301 37.8534 80.1301C35.5968 80.1301 33.7676 81.9584 33.7676 84.2137C33.7676 86.4689 35.5968 88.2972 37.8534 88.2972Z" fill="#B9BADF"/>
<path d="M21.4783 104.664C23.7348 104.664 25.5641 102.836 25.5641 100.581C25.5641 98.3253 23.7348 96.4971 21.4783 96.4971C19.2218 96.4971 17.3926 98.3253 17.3926 100.581C17.3926 102.836 19.2218 104.664 21.4783 104.664Z" fill="#B9BADF"/>
<path d="M82.8953 18.7332C85.1518 18.7332 86.9811 16.905 86.9811 14.6497C86.9811 12.3944 85.1518 10.5662 82.8953 10.5662C80.6388 10.5662 78.8096 12.3944 78.8096 14.6497C78.8096 16.905 80.6388 18.7332 82.8953 18.7332Z" fill="#B9BADF"/>
<path d="M66.034 35.585C68.2905 35.585 70.1198 33.7568 70.1198 31.5015C70.1198 29.2462 68.2905 27.418 66.034 27.418C63.7775 27.418 61.9482 29.2462 61.9482 31.5015C61.9482 33.7568 63.7775 35.585 66.034 35.585Z" fill="#B9BADF"/>
<path d="M49.1737 52.4305C51.4302 52.4305 53.2594 50.6022 53.2594 48.347C53.2594 46.0917 51.4302 44.2634 49.1737 44.2634C46.9172 44.2634 45.0879 46.0917 45.0879 48.347C45.0879 50.6022 46.9172 52.4305 49.1737 52.4305Z" fill="#B9BADF"/>
<path d="M32.3182 69.2823C34.5747 69.2823 36.404 67.454 36.404 65.1988C36.404 62.9435 34.5747 61.1152 32.3182 61.1152C30.0617 61.1152 28.2324 62.9435 28.2324 65.1988C28.2324 67.454 30.0617 69.2823 32.3182 69.2823Z" fill="#B9BADF"/>
<path d="M15.4578 86.1343C17.7143 86.1343 19.5436 84.3061 19.5436 82.0508C19.5436 79.7955 17.7143 77.9673 15.4578 77.9673C13.2013 77.9673 11.3721 79.7955 11.3721 82.0508C11.3721 84.3061 13.2013 86.1343 15.4578 86.1343Z" fill="#B9BADF"/>
<path d="M59.5614 11.7786C61.8179 11.7786 63.6471 9.95037 63.6471 7.6951C63.6471 5.43983 61.8179 3.61157 59.5614 3.61157C57.3049 3.61157 55.4756 5.43983 55.4756 7.6951C55.4756 9.95037 57.3049 11.7786 59.5614 11.7786Z" fill="#B9BADF"/>
<path d="M43.1854 28.1456C45.4419 28.1456 47.2711 26.3173 47.2711 24.062C47.2711 21.8068 45.4419 19.9785 43.1854 19.9785C40.9289 19.9785 39.0996 21.8068 39.0996 24.062C39.0996 26.3173 40.9289 28.1456 43.1854 28.1456Z" fill="#B9BADF"/>
<path d="M26.8036 44.5189C29.0601 44.5189 30.8893 42.6906 30.8893 40.4353C30.8893 38.1801 29.0601 36.3518 26.8036 36.3518C24.547 36.3518 22.7178 38.1801 22.7178 40.4353C22.7178 42.6906 24.547 44.5189 26.8036 44.5189Z" fill="#B9BADF"/>
<path d="M10.4276 60.8858C12.6841 60.8858 14.5133 59.0575 14.5133 56.8023C14.5133 54.547 12.6841 52.7188 10.4276 52.7188C8.17106 52.7188 6.3418 54.547 6.3418 56.8023C6.3418 59.0575 8.17106 60.8858 10.4276 60.8858Z" fill="#B9BADF"/>
<path d="M38.6082 8.16705C40.8647 8.16705 42.694 6.3388 42.694 4.08353C42.694 1.82826 40.8647 0 38.6082 0C36.3517 0 34.5225 1.82826 34.5225 4.08353C34.5225 6.3388 36.3517 8.16705 38.6082 8.16705Z" fill="#B9BADF"/>
<path d="M21.7469 25.0189C24.0034 25.0189 25.8327 23.1906 25.8327 20.9353C25.8327 18.6801 24.0034 16.8518 21.7469 16.8518C19.4904 16.8518 17.6611 18.6801 17.6611 20.9353C17.6611 23.1906 19.4904 25.0189 21.7469 25.0189Z" fill="#B9BADF"/>
<path d="M4.88558 41.8709C7.14209 41.8709 8.97135 40.0427 8.97135 37.7874C8.97135 35.5321 7.14209 33.7039 4.88558 33.7039C2.62907 33.7039 0.799805 35.5321 0.799805 37.7874C0.799805 40.0427 2.62907 41.8709 4.88558 41.8709Z" fill="#B9BADF"/>
</svg>
