<svg width="117" height="119" viewBox="0 0 117 119" fill="none" xmlns="http://www.w3.org/2000/svg">
<path d="M62.9617 8.58868C65.2183 8.58868 67.0475 6.76044 67.0475 4.50517C67.0475 2.2499 65.2183 0.421631 62.9617 0.421631C60.7052 0.421631 58.876 2.2499 58.876 4.50517C58.876 6.76044 60.7052 8.58868 62.9617 8.58868Z" fill="#B9BADF"/>
<path d="M79.3377 24.9556C81.5942 24.9556 83.4235 23.1274 83.4235 20.8721C83.4235 18.6168 81.5942 16.7886 79.3377 16.7886C77.0812 16.7886 75.252 18.6168 75.252 20.8721C75.252 23.1274 77.0812 24.9556 79.3377 24.9556Z" fill="#B9BADF"/>
<path d="M95.7196 41.3223C97.9761 41.3223 99.8053 39.4941 99.8053 37.2388C99.8053 34.9835 97.9761 33.1553 95.7196 33.1553C93.463 33.1553 91.6338 34.9835 91.6338 37.2388C91.6338 39.4941 93.463 41.3223 95.7196 41.3223Z" fill="#B9BADF"/>
<path d="M112.096 57.6958C114.352 57.6958 116.181 55.8676 116.181 53.6123C116.181 51.357 114.352 49.5288 112.096 49.5288C109.839 49.5288 108.01 51.357 108.01 53.6123C108.01 55.8676 109.839 57.6958 112.096 57.6958Z" fill="#B9BADF"/>
<path d="M42.493 12.6788C44.7495 12.6788 46.5788 10.8505 46.5788 8.59525C46.5788 6.33998 44.7495 4.51172 42.493 4.51172C40.2365 4.51172 38.4072 6.33998 38.4072 8.59525C38.4072 10.8505 40.2365 12.6788 42.493 12.6788Z" fill="#B9BADF"/>
<path d="M59.3475 29.5308C61.604 29.5308 63.4333 27.7025 63.4333 25.4473C63.4333 23.192 61.604 21.3638 59.3475 21.3638C57.091 21.3638 55.2617 23.192 55.2617 25.4473C55.2617 27.7025 57.091 29.5308 59.3475 29.5308Z" fill="#B9BADF"/>
<path d="M76.2088 46.3826C78.4653 46.3826 80.2946 44.5544 80.2946 42.2991C80.2946 40.0438 78.4653 38.2156 76.2088 38.2156C73.9523 38.2156 72.123 40.0438 72.123 42.2991C72.123 44.5544 73.9523 46.3826 76.2088 46.3826Z" fill="#B9BADF"/>
<path d="M93.0702 63.2281C95.3267 63.2281 97.1559 61.3998 97.1559 59.1446C97.1559 56.8893 95.3267 55.061 93.0702 55.061C90.8136 55.061 88.9844 56.8893 88.9844 59.1446C88.9844 61.3998 90.8136 63.2281 93.0702 63.2281Z" fill="#B9BADF"/>
<path d="M109.925 80.0799C112.181 80.0799 114.01 78.2516 114.01 75.9964C114.01 73.7411 112.181 71.9128 109.925 71.9128C107.668 71.9128 105.839 73.7411 105.839 75.9964C105.839 78.2516 107.668 80.0799 109.925 80.0799Z" fill="#B9BADF"/>
<path d="M19.159 19.6331C21.4155 19.6331 23.2448 17.8049 23.2448 15.5496C23.2448 13.2943 21.4155 11.4661 19.159 11.4661C16.9025 11.4661 15.0732 13.2943 15.0732 15.5496C15.0732 17.8049 16.9025 19.6331 19.159 19.6331Z" fill="#B9BADF"/>
<path d="M35.535 36C37.7915 36 39.6208 34.1718 39.6208 31.9165C39.6208 29.6612 37.7915 27.833 35.535 27.833C33.2785 27.833 31.4492 29.6612 31.4492 31.9165C31.4492 34.1718 33.2785 36 35.535 36Z" fill="#B9BADF"/>
<path d="M51.911 52.367C54.1675 52.367 55.9967 50.5387 55.9967 48.2835C55.9967 46.0282 54.1675 44.2 51.911 44.2C49.6545 44.2 47.8252 46.0282 47.8252 48.2835C47.8252 50.5387 49.6545 52.367 51.911 52.367Z" fill="#B9BADF"/>
<path d="M68.2869 68.7403C70.5434 68.7403 72.3727 66.912 72.3727 64.6568C72.3727 62.4015 70.5434 60.5732 68.2869 60.5732C66.0304 60.5732 64.2012 62.4015 64.2012 64.6568C64.2012 66.912 66.0304 68.7403 68.2869 68.7403Z" fill="#B9BADF"/>
<path d="M84.6688 85.1072C86.9253 85.1072 88.7546 83.279 88.7546 81.0237C88.7546 78.7684 86.9253 76.9402 84.6688 76.9402C82.4123 76.9402 80.583 78.7684 80.583 81.0237C80.583 83.279 82.4123 85.1072 84.6688 85.1072Z" fill="#B9BADF"/>
<path d="M101.045 101.474C103.301 101.474 105.131 99.6459 105.131 97.3907C105.131 95.1354 103.301 93.3071 101.045 93.3071C98.7883 93.3071 96.959 95.1354 96.959 97.3907C96.959 99.6459 98.7883 101.474 101.045 101.474Z" fill="#B9BADF"/>
<path d="M15.0604 40.0967C17.3169 40.0967 19.1461 38.2685 19.1461 36.0132C19.1461 33.7579 17.3169 31.9297 15.0604 31.9297C12.8039 31.9297 10.9746 33.7579 10.9746 36.0132C10.9746 38.2685 12.8039 40.0967 15.0604 40.0967Z" fill="#B9BADF"/>
<path d="M31.9217 56.9422C34.1782 56.9422 36.0075 55.114 36.0075 52.8587C36.0075 50.6034 34.1782 48.7751 31.9217 48.7751C29.6652 48.7751 27.8359 50.6034 27.8359 52.8587C27.8359 55.114 29.6652 56.9422 31.9217 56.9422Z" fill="#B9BADF"/>
<path d="M48.783 73.794C51.0395 73.794 52.8688 71.9657 52.8688 69.7105C52.8688 67.4552 51.0395 65.627 48.783 65.627C46.5265 65.627 44.6973 67.4552 44.6973 69.7105C44.6973 71.9657 46.5265 73.794 48.783 73.794Z" fill="#B9BADF"/>
<path d="M65.6375 90.6461C67.894 90.6461 69.7233 88.8178 69.7233 86.5625C69.7233 84.3073 67.894 82.479 65.6375 82.479C63.381 82.479 61.5518 84.3073 61.5518 86.5625C61.5518 88.8178 63.381 90.6461 65.6375 90.6461Z" fill="#B9BADF"/>
<path d="M82.4989 107.491C84.7554 107.491 86.5846 105.663 86.5846 103.408C86.5846 101.152 84.7554 99.3242 82.4989 99.3242C80.2423 99.3242 78.4131 101.152 78.4131 103.408C78.4131 105.663 80.2423 107.491 82.4989 107.491Z" fill="#B9BADF"/>
<path d="M8.10237 63.4181C10.3589 63.4181 12.1881 61.5898 12.1881 59.3345C12.1881 57.0792 10.3589 55.251 8.10237 55.251C5.84586 55.251 4.0166 57.0792 4.0166 59.3345C4.0166 61.5898 5.84586 63.4181 8.10237 63.4181Z" fill="#B9BADF"/>
<path d="M24.4842 79.785C26.7407 79.785 28.57 77.9567 28.57 75.7015C28.57 73.4462 26.7407 71.6179 24.4842 71.6179C22.2277 71.6179 20.3984 73.4462 20.3984 75.7015C20.3984 77.9567 22.2277 79.785 24.4842 79.785Z" fill="#B9BADF"/>
<path d="M40.8602 96.1519C43.1167 96.1519 44.946 94.3237 44.946 92.0684C44.946 89.8131 43.1167 87.9849 40.8602 87.9849C38.6037 87.9849 36.7744 89.8131 36.7744 92.0684C36.7744 94.3237 38.6037 96.1519 40.8602 96.1519Z" fill="#B9BADF"/>
<path d="M57.2362 112.519C59.4927 112.519 61.3219 110.69 61.3219 108.435C61.3219 106.18 59.4927 104.352 57.2362 104.352C54.9796 104.352 53.1504 106.18 53.1504 108.435C53.1504 110.69 54.9796 112.519 57.2362 112.519Z" fill="#B9BADF"/>
<path d="M4.49495 84.3602C6.75146 84.3602 8.58072 82.5319 8.58072 80.2767C8.58072 78.0214 6.75146 76.1931 4.49495 76.1931C2.23844 76.1931 0.40918 78.0214 0.40918 80.2767C0.40918 82.5319 2.23844 84.3602 4.49495 84.3602Z" fill="#B9BADF"/>
<path d="M21.3494 101.205C23.6059 101.205 25.4352 99.3771 25.4352 97.1219C25.4352 94.8666 23.6059 93.0383 21.3494 93.0383C19.0929 93.0383 17.2637 94.8666 17.2637 97.1219C17.2637 99.3771 19.0929 101.205 21.3494 101.205Z" fill="#B9BADF"/>
<path d="M38.2108 118.057C40.4673 118.057 42.2965 116.229 42.2965 113.974C42.2965 111.719 40.4673 109.89 38.2108 109.89C35.9543 109.89 34.125 111.719 34.125 113.974C34.125 116.229 35.9543 118.057 38.2108 118.057Z" fill="#B9BADF"/>
</svg>
