<svg width="79" height="78" viewBox="0 0 79 78" fill="none" xmlns="http://www.w3.org/2000/svg">
<path d="M3.33745 38.3096C4.83333 38.3096 6.04599 37.0976 6.04599 35.6026C6.04599 34.1075 4.83333 32.8955 3.33745 32.8955C1.84156 32.8955 0.628906 34.1075 0.628906 35.6026C0.628906 37.0976 1.84156 38.3096 3.33745 38.3096Z" fill="#B9BADF"/>
<path d="M14.1978 27.4554C15.6937 27.4554 16.9063 26.2434 16.9063 24.7483C16.9063 23.2533 15.6937 22.0413 14.1978 22.0413C12.7019 22.0413 11.4893 23.2533 11.4893 24.7483C11.4893 26.2434 12.7019 27.4554 14.1978 27.4554Z" fill="#B9BADF"/>
<path d="M25.0581 16.6009C26.554 16.6009 27.7667 15.3889 27.7667 13.8938C27.7667 12.3988 26.554 11.1868 25.0581 11.1868C23.5622 11.1868 22.3496 12.3988 22.3496 13.8938C22.3496 15.3889 23.5622 16.6009 25.0581 16.6009Z" fill="#B9BADF"/>
<path d="M35.9185 5.74638C37.4144 5.74638 38.627 4.53439 38.627 3.03933C38.627 1.54427 37.4144 0.332275 35.9185 0.332275C34.4226 0.332275 33.21 1.54427 33.21 3.03933C33.21 4.53439 34.4226 5.74638 35.9185 5.74638Z" fill="#B9BADF"/>
<path d="M6.05228 51.8777C7.54815 51.8777 8.7608 50.6658 8.7608 49.1707C8.7608 47.6756 7.54815 46.4636 6.05228 46.4636C4.5564 46.4636 3.34375 47.6756 3.34375 49.1707C3.34375 50.6658 4.5564 51.8777 6.05228 51.8777Z" fill="#B9BADF"/>
<path d="M17.2339 40.7022C18.7298 40.7022 19.9425 39.4902 19.9425 37.9952C19.9425 36.5001 18.7298 35.2881 17.2339 35.2881C15.738 35.2881 14.5254 36.5001 14.5254 37.9952C14.5254 39.4902 15.738 40.7022 17.2339 40.7022Z" fill="#B9BADF"/>
<path d="M28.4097 29.533C29.9056 29.533 31.1183 28.321 31.1183 26.826C31.1183 25.3309 29.9056 24.1189 28.4097 24.1189C26.9138 24.1189 25.7012 25.3309 25.7012 26.826C25.7012 28.321 26.9138 29.533 28.4097 29.533Z" fill="#B9BADF"/>
<path d="M39.5914 18.3574C41.0873 18.3574 42.2999 17.1454 42.2999 15.6504C42.2999 14.1553 41.0873 12.9434 39.5914 12.9434C38.0955 12.9434 36.8828 14.1553 36.8828 15.6504C36.8828 17.1454 38.0955 18.3574 39.5914 18.3574Z" fill="#B9BADF"/>
<path d="M50.773 7.18196C52.2689 7.18196 53.4815 5.96996 53.4815 4.47489C53.4815 2.97982 52.2689 1.76782 50.773 1.76782C49.2771 1.76782 48.0645 2.97982 48.0645 4.47489C48.0645 5.96996 49.2771 7.18196 50.773 7.18196Z" fill="#B9BADF"/>
<path d="M10.6626 67.3401C12.1585 67.3401 13.3712 66.1281 13.3712 64.6331C13.3712 63.138 12.1585 61.926 10.6626 61.926C9.16676 61.926 7.9541 63.138 7.9541 64.6331C7.9541 66.1281 9.16676 67.3401 10.6626 67.3401Z" fill="#B9BADF"/>
<path d="M21.523 56.4857C23.0189 56.4857 24.2315 55.2737 24.2315 53.7786C24.2315 52.2835 23.0189 51.0715 21.523 51.0715C20.0271 51.0715 18.8145 52.2835 18.8145 53.7786C18.8145 55.2737 20.0271 56.4857 21.523 56.4857Z" fill="#B9BADF"/>
<path d="M32.3843 45.6311C33.8802 45.6311 35.0928 44.4192 35.0928 42.9241C35.0928 41.429 33.8802 40.217 32.3843 40.217C30.8884 40.217 29.6758 41.429 29.6758 42.9241C29.6758 44.4192 30.8884 45.6311 32.3843 45.6311Z" fill="#B9BADF"/>
<path d="M43.2447 34.7769C44.7406 34.7769 45.9532 33.5649 45.9532 32.0699C45.9532 30.5748 44.7406 29.3628 43.2447 29.3628C41.7488 29.3628 40.5361 30.5748 40.5361 32.0699C40.5361 33.5649 41.7488 34.7769 43.2447 34.7769Z" fill="#B9BADF"/>
<path d="M54.105 23.9224C55.6009 23.9224 56.8136 22.7104 56.8136 21.2154C56.8136 19.7203 55.6009 18.5083 54.105 18.5083C52.6091 18.5083 51.3965 19.7203 51.3965 21.2154C51.3965 22.7104 52.6091 23.9224 54.105 23.9224Z" fill="#B9BADF"/>
<path d="M64.9654 13.0679C66.4613 13.0679 67.6739 11.856 67.6739 10.3609C67.6739 8.86581 66.4613 7.65381 64.9654 7.65381C63.4695 7.65381 62.2568 8.86581 62.2568 10.3609C62.2568 11.856 63.4695 13.0679 64.9654 13.0679Z" fill="#B9BADF"/>
<path d="M24.2388 70.0537C25.7347 70.0537 26.9473 68.8418 26.9473 67.3467C26.9473 65.8516 25.7347 64.6396 24.2388 64.6396C22.7429 64.6396 21.5303 65.8516 21.5303 67.3467C21.5303 68.8418 22.7429 70.0537 24.2388 70.0537Z" fill="#B9BADF"/>
<path d="M35.4205 58.8848C36.9163 58.8848 38.129 57.6728 38.129 56.1778C38.129 54.6827 36.9163 53.4707 35.4205 53.4707C33.9246 53.4707 32.7119 54.6827 32.7119 56.1778C32.7119 57.6728 33.9246 58.8848 35.4205 58.8848Z" fill="#B9BADF"/>
<path d="M46.6021 47.709C48.098 47.709 49.3106 46.497 49.3106 45.002C49.3106 43.5069 48.098 42.2949 46.6021 42.2949C45.1062 42.2949 43.8936 43.5069 43.8936 45.002C43.8936 46.497 45.1062 47.709 46.6021 47.709Z" fill="#B9BADF"/>
<path d="M57.7769 36.5335C59.2728 36.5335 60.4854 35.3215 60.4854 33.8264C60.4854 32.3314 59.2728 31.1194 57.7769 31.1194C56.281 31.1194 55.0684 32.3314 55.0684 33.8264C55.0684 35.3215 56.281 36.5335 57.7769 36.5335Z" fill="#B9BADF"/>
<path d="M68.9585 25.3643C70.4544 25.3643 71.6671 24.1523 71.6671 22.6573C71.6671 21.1622 70.4544 19.9502 68.9585 19.9502C67.4627 19.9502 66.25 21.1622 66.25 22.6573C66.25 24.1523 67.4627 25.3643 68.9585 25.3643Z" fill="#B9BADF"/>
<path d="M39.7164 74.6683C41.2123 74.6683 42.4249 73.4563 42.4249 71.9612C42.4249 70.4662 41.2123 69.2542 39.7164 69.2542C38.2205 69.2542 37.0078 70.4662 37.0078 71.9612C37.0078 73.4563 38.2205 74.6683 39.7164 74.6683Z" fill="#B9BADF"/>
<path d="M50.5767 63.8138C52.0726 63.8138 53.2852 62.6018 53.2852 61.1067C53.2852 59.6117 52.0726 58.3997 50.5767 58.3997C49.0808 58.3997 47.8682 59.6117 47.8682 61.1067C47.8682 62.6018 49.0808 63.8138 50.5767 63.8138Z" fill="#B9BADF"/>
<path d="M61.437 52.9593C62.9329 52.9593 64.1456 51.7473 64.1456 50.2522C64.1456 48.7572 62.9329 47.5452 61.437 47.5452C59.9412 47.5452 58.7285 48.7572 58.7285 50.2522C58.7285 51.7473 59.9412 52.9593 61.437 52.9593Z" fill="#B9BADF"/>
<path d="M72.2974 42.1048C73.7933 42.1048 75.006 40.8928 75.006 39.3977C75.006 37.9027 73.7933 36.6907 72.2974 36.6907C70.8015 36.6907 69.5889 37.9027 69.5889 39.3977C69.5889 40.8928 70.8015 42.1048 72.2974 42.1048Z" fill="#B9BADF"/>
<path d="M53.606 77.0606C55.1019 77.0606 56.3145 75.8486 56.3145 74.3535C56.3145 72.8585 55.1019 71.6465 53.606 71.6465C52.1101 71.6465 50.8975 72.8585 50.8975 74.3535C50.8975 75.8486 52.1101 77.0606 53.606 77.0606Z" fill="#B9BADF"/>
<path d="M64.7876 65.8851C66.2835 65.8851 67.4962 64.6731 67.4962 63.178C67.4962 61.6829 66.2835 60.4709 64.7876 60.4709C63.2917 60.4709 62.0791 61.6829 62.0791 63.178C62.0791 64.6731 63.2917 65.8851 64.7876 65.8851Z" fill="#B9BADF"/>
<path d="M75.9693 54.7159C77.4652 54.7159 78.6779 53.5039 78.6779 52.0088C78.6779 50.5137 77.4652 49.3018 75.9693 49.3018C74.4734 49.3018 73.2607 50.5137 73.2607 52.0088C73.2607 53.5039 74.4734 54.7159 75.9693 54.7159Z" fill="#B9BADF"/>
</svg>
