<svg width="24" height="21" viewBox="0 0 24 21" fill="none" xmlns="http://www.w3.org/2000/svg">
<path opacity="0.43" d="M17.8725 5.67828C14.1212 3.98665 6.07423 3.58014 1.34576 8.70091C-0.890597 11.1203 3.68704 9.35658 8.27123 14.084C11.793 17.7164 11.5307 18.0114 13.1768 18.9425C17.8003 21.5586 21.3418 18.9687 23.0403 15.2183C24.7389 11.4678 21.6238 7.3699 17.8725 5.67828Z" fill="#72635B"/>
<path d="M17.8725 1.7442C14.1212 0.0525696 6.07423 -0.353945 1.34576 4.76683C-0.890597 7.18625 3.68704 5.4225 8.27123 10.1499C11.793 13.7823 11.5307 14.0773 13.1768 15.0084C17.8003 17.6245 21.3418 15.0346 23.0403 11.2842C24.7389 7.53375 21.6238 3.43582 17.8725 1.7442Z" fill="#E9E0D0"/>
<path d="M17.8725 1.74417C16.4625 1.10817 14.4557 0.65576 12.239 0.609864C11.4258 0.590193 11.2881 1.76384 12.0816 1.94743C13.1047 2.19003 14.1606 2.57687 15.2492 3.16041C19.9121 5.65196 20.8303 8.53034 20.7385 11.2776C20.6991 12.425 22.2665 12.8119 22.7846 11.7956C22.8699 11.6251 22.9552 11.4546 23.0339 11.2842C24.7259 7.53373 21.6238 3.4358 17.8725 1.74417Z" fill="#FFF8EF"/>
<path d="M11.0391 12.2348C9.20935 9.60556 7.44518 6.3141 1.07715 6.15674C2.05432 6.72061 5.16292 6.94354 8.26496 10.1498C11.7867 13.7822 11.5244 14.0772 13.1705 15.0083C13.8526 15.3951 14.5149 15.6639 15.1445 15.8344C15.138 15.8344 12.8688 14.864 11.0391 12.2348Z" fill="#D1C8BA"/>
<path d="M17.4004 7.12721C17.4004 7.12721 16.502 7.42881 17.4791 8.90407C18.4563 10.3793 18.7055 12.9758 18.7055 12.9758C18.7055 12.9758 19.44 10.7268 18.6465 8.67458C17.8464 6.6289 17.4004 7.12721 17.4004 7.12721Z" fill="#FFF8EF"/>
</svg>
