<svg width="32" height="24" viewBox="0 0 32 24" fill="none" xmlns="http://www.w3.org/2000/svg">
<path opacity="0.43" d="M17.7827 4.77634C12.7066 6.2647 4.51542 12.5985 4.18751 21.5549C4.03011 25.784 7.02066 20.2304 15.448 21.0107C21.9275 21.6139 21.9144 22.1188 24.3016 21.6467C31.0041 20.3222 32.2895 14.8409 30.8073 9.75942C29.312 4.68454 22.8588 3.28797 17.7827 4.77634Z" fill="#72635B"/>
<path d="M13.8481 0.842253C8.77207 2.33062 0.580848 8.66438 0.252937 17.6208C0.0955401 21.8499 3.08609 16.2964 11.5134 17.0766C17.9929 17.6798 17.9798 18.1847 20.367 17.7126C27.0695 16.3882 28.3549 10.9068 26.8728 5.82534C25.3775 0.75046 18.9242 -0.646115 13.8481 0.842253Z" fill="#E9E0D0"/>
<path d="M13.8482 0.842253C11.9463 1.39957 9.60499 2.63879 7.40143 4.44187C6.59477 5.1041 7.44078 6.36298 8.37205 5.88435C9.5722 5.26802 10.9298 4.76315 12.4775 4.41565C19.1144 2.94039 22.4132 4.98608 24.6299 7.74645C25.548 8.89387 27.404 7.96937 27.063 6.53346C27.004 6.29742 26.9449 6.06138 26.8728 5.82534C25.3775 0.75046 18.9242 -0.646115 13.8482 0.842253Z" fill="#FFF8EF"/>
<path d="M15.9664 16.7948C11.9855 15.7654 7.50628 14.0279 1.15137 19.2011C2.58106 18.9323 5.79459 16.5522 11.5068 17.0833C17.9863 17.6865 17.9732 18.1914 20.3604 17.7193C21.3507 17.5226 22.2164 17.2341 22.9771 16.8735C22.9771 16.8735 19.9472 17.8242 15.9664 16.7948Z" fill="#D1C8BA"/>
<path d="M17.8944 6.48752C17.8944 6.48752 17.2714 7.53659 19.4618 8.15292C21.6523 8.76925 24.0657 11.0969 24.0657 11.0969C24.0657 11.0969 22.8983 8.28406 20.4062 6.95305C17.9141 5.62204 17.8944 6.48752 17.8944 6.48752Z" fill="#FFF8EF"/>
</svg>
