<svg width="55" height="56" viewBox="0 0 55 56" fill="none" xmlns="http://www.w3.org/2000/svg">
<path d="M27.5 0.36499C20.0292 0.36499 19.0965 0.399365 16.1631 0.52999C13.2344 0.66749 11.2406 1.12812 9.4875 1.80874C7.67938 2.50999 6.14396 3.45187 4.61542 4.98041C3.08687 6.50895 2.14271 8.04207 1.44375 9.85249C0.763125 11.6056 0.300208 13.5994 0.165 16.5281C0.0275 19.4614 0 20.3942 0 27.865C0 35.3358 0.034375 36.2685 0.165 39.2019C0.3025 42.1283 0.763125 44.1244 1.44375 45.8775C2.13421 47.7128 3.21658 49.3754 4.61542 50.7496C5.98876 52.1494 7.65164 53.2319 9.4875 53.9212C11.2429 54.5996 13.2367 55.0648 16.1631 55.2C19.0965 55.3375 20.0292 55.365 27.5 55.365C34.9708 55.365 35.9035 55.3306 38.8369 55.2C41.7633 55.0625 43.7594 54.5996 45.5125 53.9212C47.3474 53.2299 49.0098 52.1477 50.3846 50.7496C51.7849 49.3766 52.8675 47.7136 53.5563 45.8775C54.2346 44.1244 54.6998 42.1283 54.835 39.2019C54.9725 36.2685 55 35.3358 55 27.865C55 20.3942 54.9656 19.4614 54.835 16.5281C54.6975 13.6017 54.2346 11.6033 53.5563 9.85249C52.8655 8.01737 51.7831 6.35478 50.3846 4.98041C49.0122 3.57938 47.3491 2.49668 45.5125 1.80874C43.7594 1.12812 41.7633 0.665199 38.8369 0.52999C35.9035 0.39249 34.9708 0.36499 27.5 0.36499ZM27.5 5.31499C34.8402 5.31499 35.7156 5.35166 38.6146 5.4777C41.2958 5.60374 42.751 6.04832 43.7181 6.42874C45.006 6.92603 45.9181 7.52187 46.8852 8.48207C47.8454 9.44457 48.4412 10.3589 48.9385 11.6469C49.3144 12.6139 49.7635 14.0692 49.885 16.7504C50.0156 19.6517 50.0454 20.5225 50.0454 27.865C50.0454 35.2075 50.011 36.0806 49.8758 38.9796C49.736 41.6608 49.2892 43.116 48.911 44.0831C48.4637 45.2765 47.7605 46.3575 46.8508 47.2502C45.962 48.1607 44.8817 48.8621 43.6883 49.3035C42.7258 49.6794 41.2477 50.1285 38.5665 50.25C35.6469 50.3806 34.7875 50.4104 27.4313 50.4104C20.0727 50.4104 19.2133 50.376 16.296 50.2408C13.6125 50.101 12.1344 49.6542 11.1719 49.276C9.9777 48.8342 8.8978 48.1302 8.01167 47.2158C7.09175 46.3329 6.38622 45.2511 5.94917 44.0533C5.57104 43.0908 5.12646 41.6127 4.98667 38.9314C4.88354 36.0439 4.84688 35.1525 4.84688 27.8306C4.84688 20.5064 4.88354 19.6127 4.98667 16.6908C5.12646 14.0096 5.57104 12.5337 5.94917 11.5712C6.43042 10.265 7.04688 9.37124 8.01167 8.40645C8.97188 7.44624 9.86792 6.82749 11.1719 6.34853C12.1344 5.96812 13.5804 5.52124 16.2617 5.38374C19.1835 5.28062 20.0429 5.24624 27.3969 5.24624L27.5 5.31499ZM27.5 13.7437C25.6456 13.7437 23.8093 14.109 22.096 14.8187C20.3828 15.5283 18.826 16.5685 17.5148 17.8798C16.2035 19.191 15.1633 20.7478 14.4537 22.461C13.744 24.1743 13.3787 26.0106 13.3787 27.865C13.3787 29.7194 13.744 31.5557 14.4537 33.269C15.1633 34.9822 16.2035 36.5389 17.5148 37.8502C18.826 39.1615 20.3828 40.2017 22.096 40.9113C23.8093 41.621 25.6456 41.9862 27.5 41.9862C31.2452 41.9862 34.837 40.4985 37.4852 37.8502C40.1335 35.202 41.6213 31.6102 41.6213 27.865C41.6213 24.1198 40.1335 20.528 37.4852 17.8798C34.837 15.2315 31.2452 13.7437 27.5 13.7437ZM27.5 37.0317C22.4354 37.0317 18.3333 32.9296 18.3333 27.865C18.3333 22.8004 22.4354 18.6983 27.5 18.6983C32.5646 18.6983 36.6667 22.8004 36.6667 27.865C36.6667 32.9296 32.5646 37.0317 27.5 37.0317ZM45.4804 13.1869C45.4486 14.0408 45.087 14.8491 44.4716 15.442C43.8562 16.0349 43.0349 16.3662 42.1804 16.3662C41.3259 16.3662 40.5046 16.0349 39.8892 15.442C39.2739 14.8491 38.9122 14.0408 38.8804 13.1869C38.8804 12.3117 39.2281 11.4723 39.847 10.8534C40.4658 10.2345 41.3052 9.88687 42.1804 9.88687C43.0556 9.88687 43.895 10.2345 44.5139 10.8534C45.1327 11.4723 45.4804 12.3117 45.4804 13.1869Z" fill="#DDDDDD"/>
</svg>
