<svg width="333" height="113" viewBox="0 0 333 113" fill="none" xmlns="http://www.w3.org/2000/svg">
<path d="M329.964 52.1169L0 108.303V112.19L330.606 55.8924C331.649 55.7154 332.351 54.7256 332.174 53.6835C331.997 52.6413 331.006 51.9399 329.964 52.1169Z" fill="#8374AA"/>
<path d="M328.193 41.728L0 97.6192V101.506L328.836 45.51C329.878 45.333 330.58 44.3433 330.403 43.2945C330.226 42.2524 329.236 41.551 328.193 41.728Z" fill="#8374AA"/>
<path d="M326.422 31.3388L0 86.9286V90.8154L327.065 35.1208C328.108 34.9439 328.809 33.9541 328.632 32.9119C328.455 31.8632 327.465 31.1619 326.422 31.3388Z" fill="#8374AA"/>
<path d="M324.652 20.9562L0 76.2379V80.1248L325.294 24.7317C326.337 24.5547 327.039 23.565 326.862 22.5228C326.685 21.4806 325.694 20.7727 324.652 20.9562Z" fill="#8374AA"/>
<path d="M322.881 10.5674L0 65.5475V69.4344L323.523 14.3428C324.566 14.1659 325.268 13.1761 325.091 12.1274C324.914 11.0917 323.924 10.3904 322.881 10.5674Z" fill="#8374AA"/>
<path d="M323.32 1.74476C323.143 0.702579 322.153 0.00122491 321.11 0.1782L0 54.8568V58.7437L321.753 3.95367C322.796 3.77669 323.497 2.78695 323.32 1.74476Z" fill="#8374AA"/>
</svg>
