<svg width="383" height="374" viewBox="0 0 383 374" fill="none" xmlns="http://www.w3.org/2000/svg">
<path d="M154.82 276.26C151.77 260.264 142.884 246.462 129.807 237.384C116.723 228.307 101.016 225.048 85.5651 228.205C61.503 233.121 43.7433 252.633 39.1788 276.104C31.8664 273.123 23.9834 271.677 15.8906 271.915C10.421 272.078 5.08918 273.022 0.00655822 274.658V279.899C5.10885 278.093 10.4932 277.068 16.0348 276.905C23.8326 276.667 31.427 278.141 38.418 281.162C38.1164 283.871 37.9918 286.614 38.0508 289.391C32.2336 286.675 25.8525 285.331 19.2877 285.521C12.3032 285.731 5.75812 287.68 0.0131164 290.946V296.737C5.62695 292.982 12.2704 290.715 19.4254 290.504C26.1542 290.3 32.6599 291.923 38.4377 295.148C38.4705 295.433 38.5099 295.725 38.5427 296.01C34.247 293.845 29.4005 292.69 24.3048 292.847C14.1985 293.138 5.37774 298.482 0 306.452V318.449C2.62329 306.928 12.4737 298.183 24.4294 297.83C30.0694 297.674 35.3488 299.405 39.6903 302.467C40.0576 304.035 40.4773 305.583 40.9561 307.111C37.677 304.232 33.401 302.542 28.7775 302.677C23.9572 302.82 19.4779 304.898 16.1726 308.53C12.8607 312.162 11.1162 316.908 11.2539 321.898C11.3916 326.888 13.3984 331.525 16.9071 334.947C20.2846 338.247 24.6589 340.046 29.2824 340.046C29.4595 340.046 29.6366 340.046 29.8137 340.039C34.634 339.897 39.1132 337.819 42.4186 334.187C45.678 330.616 47.4159 325.958 47.3372 321.056C48.4587 322.869 49.672 324.614 50.977 326.291C50.9508 326.712 50.918 327.126 50.8721 327.54C42.1825 333.291 35.0406 341.336 30.2465 350.841C28.8299 351.133 27.3806 351.31 25.9115 351.35C19.0123 351.568 12.4344 348.967 7.41735 344.052C3.68572 340.413 1.14769 335.816 0 330.758V342.762C1.1936 344.52 2.56426 346.177 4.10545 347.684C9.84389 353.292 17.2875 356.354 25.1442 356.354C25.4459 356.354 25.7476 356.347 26.0492 356.34C26.6526 356.32 27.2494 356.279 27.8462 356.225C26.2985 360.197 25.1442 364.379 24.4294 368.717C23.485 368.819 22.5406 368.894 21.5831 368.921C13.8378 369.159 6.38115 366.973 0 362.709V368.514C6.22375 372.051 13.2148 373.932 20.4682 373.932C20.8879 373.932 21.3077 373.925 21.7274 373.911C22.4226 373.891 23.1177 373.85 23.8063 373.796C23.7998 373.864 23.7998 373.925 23.7932 373.993H28.6332C28.6594 373.694 28.6791 373.395 28.7119 373.103C28.8955 371.318 29.1578 369.553 29.4923 367.821C30.3646 363.388 31.7418 359.144 33.5584 355.152C34.6536 352.749 35.9128 350.434 37.3163 348.227C40.5036 343.217 44.4516 338.77 48.9768 335.049C50.8524 333.515 52.8265 332.103 54.8857 330.833C55.0235 330.751 55.1612 330.663 55.2989 330.582C56.3023 329.971 57.3254 329.4 58.3747 328.857C58.6961 328.694 59.0174 328.525 59.3388 328.368C60.5717 327.764 61.8243 327.201 63.1032 326.691C64.3492 326.196 65.6084 325.741 66.8938 325.34C68.2645 324.913 69.6483 324.539 71.0649 324.22C71.6748 324.084 72.2847 323.955 72.9012 323.84C73.0782 323.806 73.2619 323.779 73.4389 323.745C74.2259 323.609 75.0195 323.48 75.8196 323.378C78.0231 323.093 80.266 322.944 82.5417 322.944C86.398 322.944 90.1624 323.365 93.7957 324.166C96.8256 324.831 99.7571 325.761 102.577 326.922C104 327.513 105.391 328.165 106.755 328.871C108.604 329.835 110.388 330.901 112.113 332.062C114.992 334.017 117.687 336.244 120.153 338.715C121.36 339.924 122.521 341.193 123.616 342.517C130.764 351.14 135.434 362.023 136.463 373.979H141.297C140.287 361.134 135.421 349.402 127.898 340.026C148.229 327.058 159.712 301.917 154.82 276.26ZM38.9165 330.758C36.4899 333.42 33.2108 334.94 29.6759 335.042C26.1476 335.144 22.7833 333.82 20.2124 331.308C17.6416 328.796 16.1726 325.401 16.0676 321.742C15.9693 318.083 17.2481 314.606 19.6747 311.945C22.1012 309.284 25.3803 307.763 28.9152 307.661C29.0464 307.654 29.171 307.654 29.3021 307.654C36.4243 307.654 42.3136 313.54 42.5235 320.954C42.6219 324.621 41.3365 328.097 38.9165 330.758ZM74.9277 318.7C74.9211 318.673 74.9145 318.639 74.908 318.612C74.9145 318.639 74.9211 318.673 74.9277 318.7ZM74.2981 304.137C73.616 300.546 74.3177 296.9 76.2852 293.858C78.2527 290.816 81.2432 288.753 84.7125 288.046C85.5782 287.87 86.4439 287.782 87.303 287.782C89.9001 287.782 92.4381 288.576 94.6417 290.104C97.5797 292.14 99.5734 295.236 100.255 298.828C101.666 306.235 96.9961 313.452 89.841 314.919C82.6795 316.385 75.7081 311.551 74.2981 304.137ZM102.407 321.531C99.5341 320.466 96.5632 319.624 93.5071 319.026C101.692 315.917 106.728 307.002 104.991 297.871C104.059 292.976 101.338 288.746 97.3305 285.969C93.3235 283.192 88.5163 282.187 83.7813 283.158C79.0528 284.122 74.967 286.94 72.2847 291.088C69.8647 294.829 68.8482 299.249 69.3532 303.669C69.4056 304.151 69.4778 304.633 69.5696 305.108C70.1861 308.353 71.5895 311.232 73.5308 313.588C75.0588 315.441 76.9148 316.969 78.9937 318.083C77.61 318.171 76.2393 318.3 74.8817 318.483C74.8227 318.49 74.7571 318.503 74.6981 318.51C69.9106 314.566 66.6577 309.059 65.4576 302.773C65.0641 300.715 64.9133 298.645 64.9854 296.594C65.1493 291.665 66.6315 286.872 69.3532 282.676C73.1963 276.735 79.0528 272.703 85.8274 271.318C87.5129 270.971 89.2049 270.802 90.8904 270.802C95.9664 270.802 100.924 272.349 105.233 275.344C110.972 279.322 114.867 285.385 116.205 292.398C117.543 299.412 116.159 306.547 112.316 312.488C109.778 316.406 106.368 319.488 102.407 321.531ZM107.975 323.942C111.227 321.674 114.061 318.748 116.31 315.272C120.875 308.224 122.514 299.758 120.927 291.434C119.34 283.111 114.716 275.927 107.909 271.202C101.102 266.477 92.9234 264.779 84.883 266.422C72.3634 268.982 63.1229 279.132 60.7422 291.346C60.3028 293.6 60.0995 295.929 60.152 298.285C60.1913 300.091 60.3684 301.91 60.716 303.737C61.8768 309.827 64.6706 315.299 68.7433 319.651C68.5465 319.698 68.3563 319.746 68.1596 319.8C62.8343 314.443 58.9715 307.423 57.4303 299.33C57.109 297.647 56.9122 295.97 56.8007 294.299C56.6565 291.998 56.6958 289.717 56.9319 287.476C58.6895 270.89 70.6386 256.646 87.2637 253.244C97.1928 251.214 107.292 253.312 115.7 259.144C124.108 264.976 129.82 273.85 131.774 284.136C135.086 301.489 126.731 318.47 112.369 326.379C110.952 325.51 109.483 324.689 107.975 323.942ZM124.606 336.278C122.239 333.779 119.674 331.498 116.926 329.448C131.709 320.051 140.077 301.802 136.522 283.172C134.312 271.582 127.879 261.582 118.402 255.003C108.925 248.424 97.5404 246.061 86.3455 248.349C68.658 251.961 55.6662 266.463 52.5969 283.796C52.2559 285.704 52.046 287.646 51.9542 289.608C51.7903 293.118 52.0329 296.696 52.715 300.294C52.7478 300.457 52.7871 300.62 52.8199 300.79C54.3545 308.387 57.7058 315.136 62.3096 320.635C62.5326 320.9 62.7622 321.158 62.9917 321.423C62.8277 321.484 62.6638 321.538 62.4998 321.599C60.9455 322.183 59.4175 322.835 57.9222 323.548C57.2336 323.874 56.5515 324.22 55.876 324.573C55.8695 324.58 55.8564 324.58 55.8498 324.587C55.8498 324.573 55.8498 324.553 55.8498 324.539C53.0101 321.117 50.5967 317.363 48.6423 313.337C48.498 313.031 48.3538 312.726 48.2095 312.42C46.3273 308.36 44.9107 304.035 43.9991 299.514C43.9597 299.317 43.9204 299.12 43.881 298.923C43.8745 298.889 43.8679 298.855 43.8614 298.814C43.4351 296.567 43.1531 294.327 42.9957 292.1C42.7924 289.173 42.8055 286.274 43.035 283.416C43.1793 281.644 43.4023 279.892 43.704 278.161C47.5536 256.13 64.0344 237.676 86.5029 233.087C100.688 230.188 115.116 233.182 127.131 241.519C139.139 249.856 147.298 262.532 150.098 277.217C154.643 301.102 143.75 324.492 124.606 336.278Z" fill="#70709B"/>
<path d="M111.707 347.175C110.428 346.149 109.096 345.192 107.706 344.316C107.162 343.977 106.611 343.644 106.053 343.325C99.9674 339.862 92.9763 337.894 85.5524 337.894C82.3585 337.894 79.2434 338.26 76.2463 338.953C75.8069 339.055 75.3675 339.163 74.9346 339.279C73.6755 339.611 72.436 340.012 71.2227 340.46C70.3242 340.793 69.4323 341.159 68.5601 341.553C65.4777 342.945 62.579 344.696 59.9229 346.767C53.8893 351.465 49.0953 357.78 46.1375 365.085C44.9898 367.923 44.1307 370.91 43.5732 374.006H48.4853C51.0168 361.602 59.2212 351.343 70.1537 346.292C71.5965 345.627 73.0852 345.043 74.6133 344.567C74.9084 344.472 75.2035 344.391 75.5052 344.303C78.7056 343.386 82.0765 342.891 85.5524 342.891C88.779 342.891 91.9139 343.311 94.911 344.106C98.5508 345.063 101.981 346.57 105.116 348.539C113.949 354.073 120.429 363.231 122.633 374.013H127.551C125.59 363.157 119.806 353.692 111.707 347.175Z" fill="#70709B"/>
<path d="M90.3655 355.329C77.9573 355.329 67.2543 363.001 62.4209 373.999H67.8183C72.2582 365.845 80.6987 360.326 90.3655 360.326C100.032 360.326 108.473 365.845 112.913 373.999H118.31C113.477 363.001 102.774 355.329 90.3655 355.329Z" fill="#70709B"/>
<path d="M86.9424 373.999H99.803C97.8028 373.205 95.6386 372.771 93.3694 372.771C91.1003 372.771 88.9426 373.205 86.9424 373.999Z" fill="#70709B"/>
<path d="M320.665 -12.9932H311.595C305.122 -4.07201 296.989 3.57958 287.546 9.39805C283.906 5.55528 279.951 2.0384 275.721 -1.11865C280.909 -4.41827 285.578 -8.43077 289.644 -12.9932H278.928C275.806 -10.2639 272.403 -7.85368 268.737 -5.83724C266.533 -7.18153 264.27 -8.43756 261.955 -9.59175C263.451 -10.6373 264.88 -11.7779 266.251 -12.9932H191.448C189.225 -12.1445 187.034 -11.2076 184.896 -10.1892C183.834 -9.68001 182.785 -9.15723 181.748 -8.61408C181.735 -8.62766 181.722 -8.64803 181.709 -8.6684C180.542 -10.0738 179.427 -11.5199 178.351 -13H169.281C170.822 -10.583 172.469 -8.24067 174.22 -5.97982C174.18 -5.33483 174.128 -4.69663 174.062 -4.05843C160.683 4.80166 149.692 17.1854 142.314 31.8165C140.13 32.2646 137.907 32.5361 135.638 32.604C125.013 32.9435 114.894 28.931 107.168 21.3745C99.4362 13.8179 95.0094 3.59316 94.7077 -7.41237C94.6552 -9.3066 94.7405 -11.1669 94.9241 -13H87.4674C87.3035 -11.0922 87.2313 -9.15723 87.2838 -7.19511C87.6445 5.8608 92.8976 17.9866 102.073 26.9553C110.907 35.5913 122.364 40.2964 134.464 40.2964C134.923 40.2964 135.388 40.2896 135.854 40.276C136.779 40.2488 137.703 40.1877 138.622 40.1063C136.234 46.2235 134.457 52.6598 133.362 59.3337C131.912 59.4898 130.457 59.6053 128.981 59.646C113.418 60.1077 98.5902 54.2688 87.2641 43.1954C75.9381 32.122 69.452 17.1447 69.006 1.02C68.8749 -3.78686 69.2946 -8.48509 70.1996 -13H62.6315C61.8182 -8.39003 61.4444 -3.62391 61.5821 1.24405C62.0871 19.4191 69.393 36.2974 82.1684 48.783C94.465 60.807 110.415 67.3587 127.256 67.3587C127.899 67.3587 128.548 67.3519 129.191 67.3315C130.266 67.2976 131.329 67.2365 132.398 67.155C132.181 69.7961 132.063 72.4643 132.063 75.1596C132.063 80.143 132.444 85.0381 133.172 89.8178C130.548 90.1573 127.892 90.3746 125.203 90.456C79.2828 91.8343 40.8319 54.2417 39.5137 6.69589C39.3301 0.00159634 39.881 -6.59086 41.1271 -12.9932H33.572C32.4177 -6.5026 31.9128 0.16454 32.0964 6.91994C33.5064 57.7857 73.9313 98.1755 122.77 98.1755C123.649 98.1755 124.528 98.1619 125.407 98.1348C128.522 98.0397 131.598 97.7885 134.628 97.3744C144.294 138.491 180.161 169.104 222.809 169.104C272.849 169.104 313.555 126.956 313.555 75.1529C313.555 52.3814 305.686 31.477 292.615 15.1961C303.935 7.9655 313.457 -1.71611 320.665 -12.9932ZM306.138 75.1596C306.138 122.726 268.756 161.425 222.809 161.425C183.821 161.425 151.01 133.562 141.96 96.064C141.363 93.5927 140.871 91.0807 140.484 88.5347C139.828 84.1759 139.481 79.7085 139.481 75.1664C139.481 72.1044 139.638 69.0764 139.94 66.0959C140.222 63.3462 140.622 60.6304 141.146 57.969C142.484 51.1457 144.609 44.6076 147.41 38.47C149.102 34.763 151.036 31.2054 153.194 27.8108C158.106 20.0981 164.172 13.2476 171.15 7.53098C174.036 5.16829 177.072 2.9957 180.247 1.03358C180.456 0.904579 180.666 0.775582 180.883 0.646584C182.43 -0.290346 184.004 -1.17296 185.611 -2.00805C186.103 -2.26604 186.595 -2.51725 187.093 -2.76167C188.989 -3.6986 190.917 -4.55405 192.891 -5.34162C194.806 -6.10881 196.754 -6.80133 198.728 -7.41916C200.833 -8.07772 202.971 -8.65482 205.142 -9.13686C206.079 -9.34733 207.017 -9.54422 207.962 -9.72075C208.237 -9.77506 208.512 -9.8158 208.794 -9.87011C210.008 -10.0806 211.228 -10.2707 212.454 -10.4336C215.845 -10.8681 219.301 -11.099 222.803 -11.099C222.803 -11.099 222.803 -11.099 222.809 -11.099C228.751 -11.099 234.542 -10.4472 240.136 -9.21833C244.799 -8.19314 249.318 -6.76738 253.653 -4.9682C255.843 -4.05843 257.988 -3.0604 260.08 -1.96731C262.926 -0.487237 265.674 1.15578 268.323 2.94817C272.757 5.95585 276.902 9.38447 280.699 13.1865C282.561 15.0536 284.339 17.0021 286.031 19.0389C298.557 34.1248 306.138 53.7393 306.138 75.1596Z" fill="#70709B"/>
<path d="M121.766 7.34093C126.967 12.4194 133.702 15.1894 140.818 15.1894C141.087 15.1894 141.362 15.1826 141.638 15.1758C149.055 14.9518 155.948 11.754 161.043 6.17316C165.824 0.931784 168.474 -5.8304 168.605 -12.9932H161.194C161.063 -7.79931 159.115 -2.9042 155.646 0.897837C151.914 4.99181 146.858 7.33414 141.421 7.49708C135.984 7.65324 130.81 5.61643 126.855 1.75329C122.901 -2.10984 120.638 -7.34443 120.481 -12.9728C120.481 -12.9796 120.481 -12.9864 120.481 -12.9932H113.063C113.063 -12.9117 113.063 -12.8302 113.063 -12.7487C113.28 -5.07 116.369 2.06561 121.766 7.34093Z" fill="#70709B"/>
<path d="M267.694 26.1747C265.726 24.5928 263.674 23.1195 261.536 21.7752C260.696 21.2456 259.85 20.7432 258.991 20.2544C249.619 14.9247 238.864 11.8899 227.439 11.8899C222.521 11.8899 217.733 12.4534 213.116 13.5193C212.441 13.6755 211.765 13.8384 211.096 14.015C209.155 14.5309 207.247 15.142 205.378 15.8345C203.987 16.3505 202.623 16.9072 201.285 17.5115C196.537 19.6501 192.078 22.3523 187.992 25.5365C178.705 32.7739 171.321 42.4895 166.769 53.7326C163.503 61.8052 161.693 70.6653 161.693 79.9531C161.693 80.1364 161.7 80.3197 161.7 80.503C161.72 83.3206 161.91 86.0974 162.251 88.8267C166.468 122.183 194.091 148.016 227.439 148.016C263.693 148.016 293.186 117.485 293.186 79.9531C293.186 58.105 283.191 38.6331 267.694 26.1747ZM227.439 140.331C196.878 140.331 171.747 115.862 169.321 84.8618C169.196 83.2391 169.111 81.6029 169.111 79.9463C169.111 78.5545 169.176 77.1694 169.262 75.798C170.763 53.0197 184.509 33.6837 203.732 24.7896C205.955 23.7645 208.244 22.8683 210.598 22.135C211.051 21.9924 211.51 21.8634 211.969 21.7344C216.9 20.329 222.081 19.5619 227.439 19.5619C232.411 19.5619 237.231 20.2136 241.841 21.4289C247.442 22.909 252.721 25.2242 257.548 28.2522C274.449 38.8368 285.768 58.0507 285.768 79.9531C285.768 113.248 259.601 140.331 227.439 140.331Z" fill="#70709B"/>
<path d="M234.844 38.7212C208.801 38.7212 187.611 60.6576 187.611 87.6181C187.611 114.579 208.801 136.515 234.844 136.515C260.886 136.515 282.076 114.579 282.076 87.6181C282.076 60.6576 260.886 38.7212 234.844 38.7212ZM234.844 128.829C212.893 128.829 195.035 110.342 195.035 87.6181C195.035 64.8941 212.893 46.4067 234.844 46.4067C256.794 46.4067 274.652 64.8941 274.652 87.6181C274.652 110.342 256.794 128.829 234.844 128.829Z" fill="#70709B"/>
<path d="M239.474 65.5664C224.154 65.5664 211.687 78.4729 211.687 94.3329C211.687 110.193 224.154 123.099 239.474 123.099C254.794 123.099 267.261 110.193 267.261 94.3329C267.261 78.4662 254.794 65.5664 239.474 65.5664ZM239.474 115.407C228.246 115.407 219.11 105.949 219.11 94.3261C219.11 82.7027 228.246 73.2452 239.474 73.2452C250.701 73.2452 259.837 82.7027 259.837 94.3261C259.837 105.949 250.701 115.407 239.474 115.407Z" fill="#70709B"/>
<path d="M366.519 301.965C361.423 307.552 358.734 314.858 358.951 322.536C359.16 330.215 362.256 337.351 367.647 342.626C371.936 346.815 377.268 349.429 383.006 350.216V342.436C379.183 341.709 375.635 339.863 372.743 337.038C368.788 333.175 366.525 327.941 366.368 322.312C366.211 316.684 368.185 311.327 371.916 307.233C374.92 303.94 378.776 301.781 383.006 300.98V293.213C376.704 294.075 370.932 297.124 366.519 301.965Z" fill="#70709B"/>
<path d="M285.394 341.988C284.758 318.958 292.818 297.042 308.098 280.286C323.379 263.53 344.051 253.944 366.296 253.278C371.956 253.109 377.543 253.529 383 254.5V246.72C377.465 245.817 371.805 245.43 366.08 245.6C341.847 246.319 319.339 256.768 302.701 275.011C286.063 293.254 277.275 317.118 277.977 342.205C278.285 353.421 280.495 364.121 284.272 373.993H292.313C288.148 364.162 285.709 353.36 285.394 341.988Z" fill="#70709B"/>
<path d="M314.88 336.319C313.955 303.037 339.362 275.18 371.51 274.23C375.406 274.115 379.249 274.393 383 275.051V267.278C379.164 266.68 375.255 266.429 371.294 266.544C335.053 267.624 306.42 299.018 307.456 336.536C307.836 350.189 312.06 363.116 319.549 373.999H328.987C320.238 363.517 315.267 350.352 314.88 336.319Z" fill="#70709B"/>
<path d="M379.019 277.821C352.99 278.595 332.417 301.15 333.164 328.097C333.525 341.152 338.778 353.278 347.953 362.247C353.803 367.964 360.807 371.949 368.375 373.992H383V367.807C382.508 367.841 382.01 367.868 381.518 367.882C370.894 368.222 360.774 364.209 353.049 356.652C345.317 349.096 340.89 338.871 340.588 327.866C339.959 305.149 357.299 286.138 379.236 285.487C380.508 285.453 381.761 285.487 383.007 285.568V277.862C381.682 277.808 380.357 277.781 379.019 277.821Z" fill="#70709B"/>
</svg>
