<svg width="334" height="106" viewBox="0 0 334 106" fill="none" xmlns="http://www.w3.org/2000/svg">
<path d="M334 47.0752L10.9483 102.088C9.90551 102.265 9.20378 103.255 9.38085 104.297C9.55792 105.339 10.5482 106.041 11.591 105.864L334 50.9621V47.0752Z" fill="#8374AA"/>
<path d="M334 36.3848L9.17776 91.6992C8.135 91.8762 7.43327 92.8659 7.61034 93.9081C7.78742 94.9503 8.77771 95.6516 9.82047 95.4747L334 40.2782V36.3848Z" fill="#8374AA"/>
<path d="M334 25.6941L7.40725 81.31C6.36449 81.487 5.66276 82.4768 5.83984 83.5189C6.01691 84.5611 7.0072 85.2625 8.04995 85.0855L334 29.5875V25.6941Z" fill="#8374AA"/>
<path d="M333.999 15.0034L5.63577 70.9209C4.59301 71.0978 3.89128 72.0876 4.06835 73.1298C4.24542 74.172 5.23572 74.8733 6.27847 74.6963L333.999 18.8969V15.0034Z" fill="#8374AA"/>
<path d="M333.999 4.31299L3.86526 60.5319C2.8225 60.7089 2.12077 61.6987 2.29784 62.7409C2.47492 63.783 3.4652 64.4844 4.50796 64.3074L333.999 8.20643V4.31299Z" fill="#8374AA"/>
<path d="M294.303 0.386719L2.09475 50.1428C1.052 50.3198 0.350264 51.3096 0.527336 52.3517C0.704408 53.3939 1.6947 54.0953 2.73746 53.9183L317.145 0.386719H294.303Z" fill="#8374AA"/>
</svg>
