<svg width="231" height="242" viewBox="0 0 231 242" fill="none" xmlns="http://www.w3.org/2000/svg">
<path d="M176.749 56.2551L74.6387 36.7419L47.3149 179.568L149.425 199.081L176.749 56.2551Z" fill="#83846E"/>
<path d="M107.808 102.819L118.085 105.179C118.085 105.179 112.589 121.146 107.27 123.8C101.952 126.455 95.3083 135.861 76.5583 130.276C57.8084 124.692 57.3887 126.861 57.3887 126.861L63.9141 92.7512L107.808 102.819Z" fill="#69847F"/>
<path d="M126.211 97.3853C126.211 97.3853 128.382 87.7893 134.324 82.9192C140.265 78.0491 135.051 86.0589 136.606 86.6947C138.16 87.3239 143.053 87.927 144.83 85.6001C146.614 83.2732 151.5 80.4219 149.84 83.8303C148.188 87.2387 149.243 90.4439 151.913 86.9503C154.582 83.4567 154.549 87.1207 153.415 89.5722C152.28 92.0236 147.702 98.493 153.054 100.178C158.405 101.869 163.724 103.461 163.822 101.357C163.921 99.2533 166.374 89.1789 170.499 88.897L162.137 132.61L120.978 124.744L126.211 97.3853Z" fill="#5B755F"/>
<path d="M68.5568 69.0168C68.5568 69.0168 72.1966 76.05 76.3742 75.1847C80.5452 74.313 85.4376 71.8615 87.1231 75.0471C88.8086 78.2326 87.3854 84.6365 92.8943 86.0195C98.4032 87.4091 102.279 102.046 107.808 102.826C113.336 103.606 105.657 105.336 96.8424 106.057C88.0216 106.778 108.011 108.738 101.768 109.977C95.5242 111.215 89.3922 107.04 80.7485 108.39C72.1048 109.741 88.0478 109.138 87.9429 111.943C87.8379 114.748 69.1077 106.201 64.7399 109.852C60.3721 113.503 58.7129 120.523 58.7129 120.523L68.5568 69.0168Z" fill="#5B755F"/>
<path d="M71.5414 127.478C71.5414 127.478 79.5884 121.985 84.0021 118.59C88.4157 115.194 89.911 120.458 93.4328 120.392C96.948 120.327 92.1146 124.417 97.2497 125.734C102.385 127.052 100.85 122.719 110.91 123.735C120.971 124.751 134.684 137.296 133.615 140.469C132.546 143.648 117.088 132.341 116.524 138.162C115.96 143.982 104.792 155.708 104.792 155.708C104.792 155.708 69.8953 154.397 63.6388 147.843C57.3822 141.288 62.6616 132.027 66.6359 132.164C70.6167 132.308 71.5414 127.478 71.5414 127.478Z" fill="#6C5D4E"/>
<path d="M60.9689 108.161C60.9689 108.161 66.1303 119.127 70.8391 120.687C75.5479 122.24 77.1218 131.555 79.8697 134.583C82.6176 137.611 76.3611 138.915 69.9865 138.201C63.6119 137.487 61.9658 142.671 77.0956 149.069C92.2254 155.466 122.983 157.839 122.983 157.839L122.098 132.833C122.098 132.833 135.464 142.874 138.92 142.448C142.376 142.029 157.145 147.856 157.854 154.994L154.804 170.928C154.804 170.928 82.7357 173.668 53.709 146.099L60.9689 108.161Z" fill="#766355"/>
<path d="M53.7091 146.093C53.7091 146.093 80.165 163.875 102.653 166.897C125.141 169.919 154.804 170.922 154.804 170.922L149.413 199.093L47.3018 179.574L53.7091 146.093Z" fill="#614A46"/>
<path d="M107.874 102.531C107.874 102.531 110.484 106.391 106.634 108.994C102.784 111.596 96.3115 112.297 94.8687 116.341C93.4259 120.385 95.3934 127.53 104.254 129.228C113.114 130.919 124.381 133.075 128.591 128.539C132.801 124.004 123.122 111.222 124.066 97.8507C125.004 84.4793 107.874 102.531 107.874 102.531Z" fill="#C59D62"/>
<path d="M103.152 70.577C103.152 70.577 98.968 70.4917 97.3547 77.1906C95.7414 83.8894 92.3901 82.9127 92.8951 86.0131C93.4001 89.1134 95.6102 90.9225 94.5871 95.7074C93.5641 100.492 97.3547 104.255 96.4038 107.892C95.4594 111.53 96.312 112.297 94.8692 116.341C93.4264 120.386 91.5376 123.381 90.5801 128.284C90.5801 128.284 93.4854 119.514 97.7154 119.481C101.952 119.448 103.329 114.316 102.542 112.146C101.755 109.977 109.789 113.333 108.792 108.076C107.795 102.819 110.53 98.9847 110.53 98.9847L103.152 70.577Z" fill="#5C3C1E"/>
<path d="M109.756 103.068C109.756 103.068 111.822 104.504 115.684 102.642C119.547 100.787 123.076 100.682 126.879 93.8459C130.69 87.0094 131.411 74.2475 127.227 69.9412C123.049 65.6282 109.756 103.068 109.756 103.068Z" fill="#91662E"/>
<path d="M129.359 80.9201C130.926 72.74 125.555 64.8416 117.37 63.2751C109.186 61.7085 101.283 67.0768 99.7157 75.2569C98.1483 83.4371 98.7582 97.4705 107.874 102.531C112.393 105.041 125.785 99.6139 129.359 80.9201Z" fill="#C59D62"/>
<path d="M94.8683 116.341C94.8683 116.341 87.5559 128.369 89.989 141.845C92.4156 155.322 60.9033 182.169 60.9033 182.169L116.294 192.755C116.294 192.755 131.312 149.095 129.955 124.39C129.706 119.861 129.712 112.88 127.686 116.944C121.049 130.283 98.377 134.294 94.8683 116.341Z" fill="#5A473A"/>
<path d="M127.784 122.293C127.784 122.293 119.652 128.166 112.078 145.07C104.503 161.975 66.4258 183.231 66.4258 183.231L98.3577 189.334C98.3577 189.334 118.8 164.039 121.311 149.173C123.823 134.308 127.837 127.877 132.297 127.818C136.756 127.759 135.287 159.182 131.654 167.166C128.021 175.149 123.358 194.112 123.358 194.112L138.894 197.081C138.894 197.081 145.485 130.506 139.734 124.921C123.607 109.236 131.529 123.256 127.784 122.293Z" fill="#513F39"/>
<path d="M100.378 170.443C100.378 170.443 96.482 170.555 92.9406 172.999C89.3991 175.444 85.9364 178.014 85.0576 181.232C84.1788 184.45 92.9733 178.256 95.354 178.368C97.7346 178.479 101.971 177.017 101.971 177.017L100.378 170.443Z" fill="#C59D62"/>
<path d="M121.371 143.53C121.371 143.53 114.177 160.257 114.491 167.33C114.806 174.396 123.463 170.712 125.299 178.741C127.136 186.764 108.982 182.189 108.982 182.189C108.982 182.189 127.968 190.789 130.231 182.615C132.494 174.441 138.54 141.872 136.337 137.473C134.133 133.075 135.32 125.413 131.621 126.134C127.909 126.848 124.42 131.011 121.371 143.53Z" fill="#473733"/>
<path d="M98.1148 112.979C98.1148 112.979 88.3759 117.849 85.3198 125.61C82.2636 133.37 79.4174 143.451 73.292 147.312C67.1732 151.173 62.3266 153.794 61.3298 159.005C60.3329 164.216 49.3151 169.565 49.3151 169.565L47.3018 179.574L60.9101 182.176C60.9101 182.176 77.2794 171.918 83.0965 172.796C88.9137 173.675 84.1262 166.419 86.3428 160.506C88.5595 154.587 84.5852 129.156 95.6162 119.075L98.1148 112.979Z" fill="#513F39"/>
<path d="M116.078 170.974C116.078 170.974 101.938 171.145 98.4231 170.063C94.9013 168.975 99.0396 174.527 97.1114 176.913C95.1833 179.298 108.988 182.182 108.988 182.182C108.988 182.182 124.754 189.334 125.305 178.735C125.856 168.143 116.078 170.974 116.078 170.974Z" fill="#68513A"/>
<path d="M96.0694 165.639C96.0694 165.639 98.0762 167.762 105.599 167.939C113.114 168.116 114.491 171.295 117.292 173.668C120.092 176.041 123.011 179.947 121.043 180.655C119.076 181.363 115.98 180.518 113.521 180.295C111.062 180.072 106.169 176.841 103.323 174.697C100.477 172.547 88.8488 172.914 88.8488 172.914C88.8488 172.914 85.655 173.183 87.5372 169.683C89.426 166.183 96.0694 165.639 96.0694 165.639Z" fill="#C59D62"/>
<path d="M90.6514 126.625C90.6514 126.625 87.6215 136.058 91.8253 145.87C96.0226 155.682 89.2086 155.715 89.1168 160.034C89.0249 164.354 96.0685 165.639 96.0685 165.639C96.0685 165.639 88.8216 168.483 88.8479 172.908C88.8741 177.339 76.866 169.368 75.2986 164.065C73.7312 158.763 76.9316 154.804 78.5515 153.06C80.1648 151.317 80.1976 143.982 82.493 143.418C84.7883 142.855 87.0575 135.225 90.6514 126.625Z" fill="#68513A"/>
<path d="M115.698 63.0522C115.698 63.0522 112.511 66.7359 112.819 69.1349C113.127 71.5273 117.856 67.765 126.086 75.3421C134.317 82.9193 129.07 62.6524 115.698 63.0522Z" fill="#7F571E"/>
<path d="M114.937 63.0129C114.937 63.0129 112.143 65.1169 112.104 67.9485C112.064 70.7801 105.946 66.7687 100.404 72.8186C99.3742 73.9394 103.663 61.6692 114.937 63.0129Z" fill="#7F571E"/>
<path d="M128.296 71.9075C128.296 71.9075 126.906 79.4256 126.788 84.4858C126.67 89.546 128.067 94.9207 124.059 97.8507C120.052 100.781 120.38 102.616 121.882 108.24C123.384 113.864 123.594 116.243 121.174 118.445C118.747 120.654 118.347 126.081 118.347 126.081C118.347 126.081 116.688 128.926 115.357 131.01C114.032 133.095 120.741 131.869 125.122 124.711C129.503 117.554 134.166 115.922 134.185 111.923C134.205 107.925 133.405 106.824 133.444 103.134C133.484 99.4434 137.117 96.1333 135.727 91.1977C134.336 86.2621 132.487 78.4752 132.913 76.2663C133.333 74.0574 130.447 70.3671 128.119 69.1152C125.791 67.8633 128.296 71.9075 128.296 71.9075Z" fill="#5C3C1E"/>
<path opacity="0.43" d="M223.856 37.5481C221.685 37.0106 219.527 37.2925 217.678 38.1774L213.153 37.3187C211.867 35.9291 210.149 34.9263 208.149 34.5461C206.149 34.1659 204.175 34.4674 202.469 35.2868L195.164 33.8972C193.878 32.5076 192.16 31.5048 190.16 31.1246C188.159 30.7444 186.185 31.0459 184.48 31.8653L177.174 30.4757C175.889 29.0861 174.171 28.0832 172.17 27.7031C170.17 27.3229 168.196 27.6244 166.491 28.4438L159.185 27.0542C157.9 25.6646 156.181 24.6617 154.181 24.2816C152.181 23.9014 150.207 24.2029 148.502 25.0222L141.196 23.6327C139.911 22.2431 138.192 21.2402 136.192 20.8601C134.192 20.4799 132.218 20.7814 130.513 21.6007L123.207 20.2111C121.921 18.8216 120.203 17.8187 118.203 17.4385C116.203 17.0584 114.229 17.3599 112.523 18.1792L105.218 16.7896C103.932 15.4001 102.214 14.3972 100.214 14.017C98.2134 13.6369 96.2393 13.9384 94.5342 14.7577L87.2283 13.3681C85.9429 11.9785 84.2247 10.9757 82.2244 10.5955C80.2242 10.2154 78.2501 10.5169 76.545 11.3362L69.2391 9.94661C67.9734 8.58325 66.2879 7.58695 64.327 7.18712C59.5527 6.22359 54.8373 9.25183 53.6568 13.9122C49.3415 13.65 45.3213 16.5012 44.2326 20.7552C43.3342 24.2488 44.5671 27.7227 47.0461 29.912L46.5674 32.4158C43.6227 33.4777 41.3011 36.0209 40.6715 39.3113C40.042 42.6083 41.2683 45.82 43.6162 47.8913L43.1374 50.3952C40.1928 51.457 37.8712 54.0002 37.2416 57.2906C36.612 60.5876 37.8384 63.7994 40.1862 65.8706L39.7075 68.3745C36.7628 69.4363 34.4412 71.9795 33.8116 75.2699C33.1821 78.5669 34.4084 81.7787 36.7563 83.8499L36.2775 86.3538C33.3329 87.4157 31.0113 89.9589 30.3817 93.2493C29.7521 96.5462 30.9785 99.758 33.3263 101.829L32.8476 104.333C29.903 105.395 27.5813 107.938 26.9517 111.229C26.3222 114.526 27.5485 117.737 29.8964 119.809L29.4176 122.312C26.473 123.374 24.1514 125.918 23.5218 129.208C22.8922 132.505 24.1186 135.717 26.4664 137.788L25.9877 140.292C23.043 141.354 20.7214 143.897 20.0918 147.187C19.4623 150.484 20.6886 153.696 23.0365 155.767L22.5577 158.271C19.6131 159.333 17.2915 161.876 16.6619 165.167C16.0323 168.464 17.2587 171.675 19.6065 173.747L19.1278 176.25C16.1831 177.312 13.8615 179.855 13.232 183.146C12.6024 186.443 13.8287 189.655 16.1766 191.726L15.9208 193.083C11.376 192.912 7.27053 196.157 6.54257 200.824C5.81461 205.471 8.80516 209.98 13.3762 211.108C15.547 211.645 17.7047 211.364 19.5541 210.479L24.0792 211.337C25.3647 212.727 27.0829 213.73 29.0832 214.11C31.0834 214.49 33.0575 214.189 34.7626 213.369L42.0684 214.759C43.3539 216.148 45.0721 217.151 47.0724 217.531C49.0726 217.912 51.0466 217.61 52.7518 216.791L60.0576 218.18C61.343 219.57 63.0613 220.573 65.0616 220.953C67.0618 221.333 69.0358 221.032 70.741 220.212L78.0468 221.602C79.3322 222.991 81.0505 223.994 83.0507 224.374C85.051 224.755 87.025 224.453 88.7302 223.634L96.036 225.023C97.3214 226.413 99.0397 227.416 101.04 227.796C103.04 228.176 105.014 227.875 106.719 227.055L114.025 228.445C115.311 229.834 117.029 230.837 119.029 231.217C121.029 231.598 123.003 231.296 124.709 230.477L132.014 231.866C133.3 233.256 135.018 234.259 137.018 234.639C139.019 235.019 140.993 234.718 142.698 233.898L150.004 235.288C151.289 236.677 153.007 237.68 155.008 238.06C157.008 238.441 158.982 238.139 160.687 237.32L167.993 238.709C169.259 240.073 170.944 241.069 172.905 241.469C177.679 242.432 182.395 239.404 183.575 234.744C187.89 235.006 191.911 232.155 192.999 227.901C193.898 224.407 192.665 220.933 190.186 218.744L190.665 216.24C193.609 215.178 195.931 212.635 196.56 209.345C197.19 206.048 195.964 202.836 193.616 200.765L194.095 198.261C197.039 197.199 199.361 194.656 199.99 191.365C200.62 188.068 199.394 184.857 197.046 182.785L197.524 180.282C200.469 179.22 202.791 176.676 203.42 173.386C204.05 170.089 202.824 166.877 200.476 164.806L200.954 162.302C203.899 161.24 206.221 158.697 206.85 155.407C207.48 152.11 206.253 148.898 203.906 146.827L204.384 144.323C207.329 143.261 209.651 140.718 210.28 137.427C210.91 134.13 209.683 130.919 207.336 128.847L207.814 126.344C210.759 125.282 213.081 122.739 213.71 119.448C214.34 116.151 213.113 112.939 210.766 110.868L211.244 108.364C214.189 107.302 216.511 104.759 217.14 101.469C217.77 98.1718 216.543 94.96 214.195 92.8888L214.674 90.3849C217.619 89.3231 219.94 86.7799 220.57 83.4894C221.2 80.1925 219.973 76.9807 217.625 74.9094L218.104 72.4056C221.049 71.3437 223.37 68.8005 224 65.5101C224.63 62.2131 223.403 59.0014 221.055 56.9301L221.311 55.5733C225.856 55.7437 229.961 52.4992 230.689 47.8323C231.417 43.1851 228.42 38.6821 223.856 37.5481ZM87.2742 53.5545L174.066 70.0852L149.977 195.062L63.1859 178.531L87.2742 53.5545ZM64.8583 25.5335L64.3139 25.0943C64.432 25.0681 64.5435 25.0419 64.6615 25.0157L64.8583 25.5335Z" fill="#72635B"/>
<path d="M56.805 172.167L82.5526 38.6298L47.8793 10.5891L12.3271 197.042L56.805 172.167Z" fill="#7D6B5F"/>
<path d="M12.3271 197.042L168.236 226.734L159.769 191.772L56.805 172.167L12.3271 197.042Z" fill="#847263"/>
<path d="M41.209 180.891L162.825 204.376L159.768 191.772L56.8044 172.167L41.209 180.891Z" fill="#7B6A58"/>
<path d="M56.8044 172.167L82.552 38.6296L70.9046 29.073L41.209 180.891L56.8044 172.167Z" fill="#716051"/>
<path d="M0.181244 194.42C-0.546718 199.067 2.44382 203.577 7.0149 204.704C9.18567 205.242 11.3433 204.96 13.1928 204.075L17.7179 204.933C19.0033 206.323 20.7216 207.326 22.7218 207.706C24.7221 208.086 26.6961 207.785 28.4013 206.965L35.7071 208.355C36.9925 209.745 38.7108 210.747 40.711 211.128C42.7113 211.508 44.6853 211.206 46.3905 210.387L53.6963 211.776C54.9817 213.166 56.7 214.169 58.7002 214.549C60.7005 214.929 62.6745 214.628 64.3797 213.808L71.6855 215.198C72.9709 216.588 74.6892 217.59 76.6894 217.971C78.6897 218.351 80.6637 218.049 82.3689 217.23L89.6747 218.619C90.9601 220.009 92.6784 221.012 94.6786 221.392C96.6789 221.772 98.6529 221.471 100.358 220.651L107.664 222.041C108.949 223.431 110.668 224.433 112.668 224.814C114.668 225.194 116.642 224.892 118.347 224.073L125.653 225.463C126.939 226.852 128.657 227.855 130.657 228.235C132.657 228.615 134.631 228.314 136.336 227.494L143.642 228.884C144.928 230.274 146.646 231.276 148.646 231.657C150.646 232.037 152.62 231.735 154.326 230.916L161.632 232.306C162.897 233.669 164.583 234.665 166.544 235.065C171.495 236.061 176.401 232.771 177.345 227.809C178.289 222.847 175.03 218.056 170.065 217.105C168.065 216.725 166.091 217.027 164.386 217.846L157.08 216.456C155.795 215.067 154.076 214.064 152.076 213.684C150.076 213.304 148.102 213.605 146.397 214.425L139.091 213.035C137.805 211.645 136.087 210.643 134.087 210.262C132.087 209.882 130.113 210.184 128.408 211.003L121.102 209.613C119.816 208.224 118.098 207.221 116.098 206.841C114.098 206.461 112.124 206.762 110.418 207.582L103.113 206.192C101.827 204.802 100.109 203.8 98.1086 203.419C96.1083 203.039 94.1343 203.341 92.4292 204.16L85.1233 202.77C83.8379 201.381 82.1196 200.378 80.1194 199.998C78.1191 199.618 76.1451 199.919 74.44 200.738L67.1341 199.349C65.8487 197.959 64.1304 196.956 62.1302 196.576C60.1299 196.196 58.1559 196.498 56.4508 197.317L49.1449 195.927C47.8595 194.538 46.1412 193.535 44.141 193.155C42.1407 192.775 40.1667 193.076 38.4616 193.895L31.1557 192.506C29.8703 191.116 28.1521 190.113 26.1518 189.733C26.1452 189.733 26.1387 189.733 26.1321 189.727C24.991 189.51 24.2237 188.435 24.4401 187.295L57.769 12.4702L54.5161 11.8541C53.1651 9.65826 50.9025 8.03928 48.1349 7.60667C43.5114 6.87911 39.0125 9.82868 37.8517 14.3579C36.9532 17.8515 38.1861 21.3255 40.6651 23.5147L40.1864 26.0186C37.2417 27.0804 34.9201 29.6236 34.2905 32.914C33.661 36.211 34.8873 39.4228 37.2352 41.4941L36.7564 43.9979C33.8118 45.0598 31.4902 47.603 30.8606 50.8934C30.231 54.1838 31.4574 57.4021 33.8052 59.4734L33.3265 61.9772C30.3818 63.0391 28.0602 65.5823 27.4306 68.8727C26.8011 72.1697 28.0274 75.3814 30.3753 77.4527L29.8965 79.9565C26.9519 81.0184 24.6303 83.5616 24.0007 86.852C23.3711 90.149 24.5975 93.3607 26.9453 95.432L26.4666 97.9359C23.5219 98.9977 21.2003 101.541 20.5708 104.831C19.9412 108.128 21.1675 111.34 23.5154 113.411L23.0366 115.915C20.092 116.977 17.7704 119.52 17.1408 122.811C16.5112 126.108 17.7376 129.319 20.0854 131.391L19.6067 133.895C16.6621 134.956 14.3404 137.5 13.7108 140.79C13.0813 144.08 14.3077 147.299 16.6555 149.37L16.1767 151.874C13.2321 152.936 10.9105 155.479 10.2809 158.769C9.65131 162.066 10.8777 165.278 13.2255 167.349L12.7468 169.853C9.80215 170.915 7.48054 173.458 6.85095 176.749C6.22136 180.046 7.44775 183.257 9.79559 185.329L9.53982 186.685C5.01465 186.502 0.909206 189.746 0.181244 194.42Z" fill="#A0928A"/>
<path d="M47.774 11.1264C49.3414 11.428 50.6727 12.3391 51.5056 13.7024L52.3254 15.033L53.6305 15.2821L20.964 186.633C20.3869 189.668 22.4002 192.617 25.4629 193.194L25.4892 193.201C26.6762 193.43 27.7386 194.013 28.5584 194.905L29.352 195.763L38.9466 197.592L39.9959 197.088C41.0846 196.563 42.2848 196.406 43.4784 196.635C44.6654 196.865 45.7278 197.448 46.5476 198.339L47.3412 199.198L56.9358 201.027L57.9851 200.522C59.0738 199.998 60.274 199.84 61.4676 200.07C62.6546 200.299 63.717 200.883 64.5368 201.774L65.3304 202.633L74.925 204.461L75.9743 203.957C77.063 203.432 78.2632 203.275 79.4567 203.504C80.6438 203.734 81.7062 204.317 82.526 205.209L83.3195 206.067L92.9142 207.896L93.9635 207.391C95.0522 206.867 96.2524 206.71 97.446 206.939C98.6395 207.169 99.6954 207.752 100.515 208.643L101.309 209.502L110.903 211.331L111.953 210.826C113.041 210.302 114.242 210.144 115.435 210.374C116.629 210.603 117.685 211.186 118.504 212.078L119.298 212.937L128.893 214.765L129.942 214.261C131.031 213.736 132.231 213.579 133.424 213.808C134.611 214.038 135.674 214.621 136.494 215.513L137.287 216.371L146.882 218.2L147.931 217.695C149.02 217.171 150.22 217.014 151.414 217.243C152.607 217.472 153.663 218.056 154.483 218.947L155.276 219.806L164.871 221.635L165.92 221.13C167.009 220.605 168.209 220.448 169.403 220.678C172.446 221.254 174.453 224.204 173.869 227.245C173.593 228.7 172.747 229.972 171.495 230.818C170.242 231.67 168.747 231.984 167.298 231.709L167.239 231.696C166.071 231.46 165.035 230.877 164.228 230.005L163.435 229.146L153.84 227.317L152.791 227.822C151.702 228.346 150.502 228.504 149.308 228.274C148.115 228.045 147.059 227.462 146.239 226.57L145.446 225.712L135.851 223.883L134.802 224.387C133.713 224.912 132.513 225.069 131.319 224.84C130.132 224.61 129.07 224.027 128.25 223.136L127.456 222.277L117.862 220.448L116.812 220.953C115.724 221.477 114.524 221.635 113.33 221.405C112.143 221.176 111.08 220.592 110.261 219.701L109.467 218.842L99.8725 217.014L98.8232 217.518C97.7345 218.043 96.5343 218.2 95.3408 217.971C94.1472 217.741 93.0913 217.158 92.2715 216.266L91.478 215.408L81.8833 213.579L80.834 214.084C79.7453 214.608 78.5452 214.765 77.3516 214.536C76.158 214.306 75.1021 213.723 74.2823 212.832L73.4888 211.973L63.8941 210.144L62.8448 210.649C61.7561 211.173 60.556 211.331 59.3624 211.101C58.1688 210.872 57.1129 210.289 56.2931 209.397L55.4996 208.538L45.9049 206.71L44.8556 207.214C43.7669 207.739 42.5668 207.896 41.3732 207.667C40.1796 207.437 39.1237 206.854 38.3039 205.962L37.5104 205.104L27.9157 203.275L26.8664 203.78C25.7777 204.304 24.5776 204.461 23.384 204.232C22.1969 204.003 21.1345 203.419 20.3147 202.528L19.5212 201.669L12.7072 200.371L11.6579 200.876C10.5692 201.4 9.36907 201.558 8.17547 201.328C8.07054 201.309 7.96561 201.282 7.86068 201.263C5.06688 200.575 3.22402 197.802 3.66998 194.957C4.10938 192.139 6.58183 190.094 9.42154 190.205L12.458 190.317L13.6647 183.998L12.1563 182.667C10.6479 181.337 9.97242 179.37 10.3462 177.404C10.7201 175.438 12.0776 173.851 13.9664 173.17L15.8617 172.488L17.0947 166.025L15.5863 164.695C14.0779 163.364 13.4024 161.398 13.7762 159.425C14.15 157.458 15.5076 155.872 17.3963 155.19L19.2916 154.509L20.5246 148.046L19.0162 146.715C17.5078 145.385 16.8323 143.418 17.2061 141.445C17.58 139.479 18.9375 137.893 20.8263 137.211L22.7216 136.529L23.9545 130.067L22.4462 128.736C20.9378 127.405 20.2623 125.439 20.6361 123.473C21.0099 121.506 22.3675 119.92 24.2562 119.238L26.1515 118.557L27.3845 112.094L25.8761 110.763C24.3677 109.433 23.6922 107.466 24.066 105.493C24.4398 103.527 25.7974 101.941 27.6862 101.259L29.5815 100.577L30.8144 94.1145L29.3061 92.7839C27.7977 91.4533 27.1222 89.4869 27.496 87.514C27.8698 85.5476 29.2273 83.9614 31.1161 83.2797L33.0115 82.598L34.2444 76.1352L32.736 74.8046C31.2276 73.474 30.5521 71.5076 30.9259 69.5412C31.2998 67.5748 32.6573 65.9886 34.5461 65.3069L36.4414 64.6252L37.6743 58.1624L36.166 56.8318C34.6576 55.5012 33.9821 53.5348 34.3559 51.5619C34.7297 49.589 36.0873 48.0093 37.976 47.3276L39.8713 46.6459L41.1043 40.1831L39.5959 38.8525C38.0875 37.5219 37.412 35.5555 37.7858 33.5826C38.1597 31.6162 39.5172 30.03 41.406 29.3483L43.3013 28.6666L44.5342 22.2038L43.0258 20.8732C41.4322 19.4639 40.7698 17.3075 41.301 15.2493C42.0093 12.4833 44.7769 10.6676 47.6035 11.1133C47.6494 11.1068 47.715 11.1199 47.774 11.1264Z" fill="#89817D"/>
<path opacity="0.6" d="M46.1219 12.2539C46.9155 12.4046 47.5516 12.8438 47.9779 13.532L49.2567 15.6099L17.0624 184.45C16.1902 189.019 19.2201 193.45 23.8108 194.322L23.8371 194.328C24.4339 194.44 24.9454 194.728 25.3586 195.167L26.7817 196.707L38.2061 198.884L40.0949 197.972C40.6392 197.71 41.2229 197.632 41.8197 197.75C42.4165 197.868 42.9281 198.149 43.3412 198.589L44.7644 200.129L56.1953 202.305L58.0841 201.394C58.6284 201.132 59.2121 201.053 59.8089 201.171C60.4057 201.283 60.9173 201.571 61.3304 202.01L62.7536 203.55L74.1845 205.727L76.0733 204.815C76.6176 204.553 77.2013 204.475 77.7981 204.593C78.3949 204.704 78.9064 204.992 79.3196 205.432L80.7428 206.972L92.1672 209.148L94.0559 208.237C94.6003 207.975 95.1839 207.896 95.7807 208.014C96.3775 208.126 96.8891 208.414 97.3023 208.853L98.7254 210.393L110.15 212.57L112.039 211.658C112.583 211.396 113.167 211.318 113.763 211.436C114.36 211.547 114.872 211.835 115.285 212.275L116.708 213.815L128.139 215.991L130.028 215.08C130.572 214.818 131.156 214.739 131.753 214.857C132.349 214.969 132.861 215.257 133.274 215.696L134.697 217.236L146.128 219.413L148.017 218.502C148.561 218.239 149.145 218.161 149.742 218.279C150.339 218.39 150.85 218.678 151.263 219.118L152.686 220.658L164.111 222.834L166 221.923C166.544 221.661 167.128 221.582 167.724 221.7C169.233 221.989 170.23 223.45 169.941 224.958C169.803 225.672 169.384 226.295 168.754 226.721C168.124 227.147 167.39 227.304 166.675 227.173L166.629 227.167C166.072 227.055 165.554 226.767 165.16 226.334L163.737 224.794L152.306 222.618L150.417 223.529C149.873 223.791 149.289 223.87 148.692 223.752C148.096 223.64 147.584 223.352 147.171 222.913L145.748 221.372L134.317 219.196L132.428 220.107C131.884 220.37 131.3 220.448 130.703 220.33C130.106 220.219 129.595 219.93 129.182 219.491L127.759 217.951L116.328 215.775L114.439 216.686C113.895 216.948 113.311 217.027 112.714 216.909C112.117 216.797 111.606 216.509 111.193 216.07L109.769 214.529L98.3384 212.353L96.4497 213.264C95.9053 213.527 95.3217 213.605 94.7249 213.487C94.1281 213.376 93.6165 213.087 93.2034 212.648L91.7802 211.108L80.3493 208.932L78.4605 209.843C77.9162 210.105 77.3325 210.184 76.7357 210.066C76.1389 209.954 75.6273 209.666 75.2142 209.227L73.791 207.686L62.3601 205.51L60.4713 206.421C59.927 206.684 59.3433 206.762 58.7465 206.644C58.1497 206.533 57.6381 206.244 57.225 205.805L55.8018 204.265L44.3709 202.089L42.4821 203C41.9378 203.262 41.3541 203.341 40.7573 203.223C40.1605 203.111 39.6489 202.823 39.2358 202.384L37.8126 200.843L26.3817 198.667L24.4929 199.578C23.9486 199.841 23.3649 199.919 22.7681 199.801C22.1713 199.69 21.6598 199.401 21.2466 198.962L19.8235 197.422L11.1732 195.777L9.28439 196.688C8.74006 196.95 8.15638 197.022 7.55958 196.911C7.50711 196.897 7.44809 196.891 7.39562 196.878C6.03807 196.544 5.10681 195.141 5.32323 193.751C5.53966 192.349 6.76604 191.333 8.17605 191.385L13.6456 191.588L15.6065 181.298L12.8849 178.899C12.1241 178.23 11.7962 177.273 11.9864 176.283C12.1766 175.293 12.8324 174.527 13.7899 174.179L17.2002 172.947L19.0365 163.318L16.3148 160.919C15.5541 160.251 15.2261 159.294 15.4163 158.304C15.6065 157.314 16.2623 156.547 17.2133 156.2L20.6236 154.968L22.4599 145.339L19.7382 142.94C18.9774 142.271 18.6495 141.314 18.8397 140.325C19.0299 139.335 19.6857 138.568 20.6432 138.221L24.0535 136.988L25.8898 127.36L23.1681 124.961C22.4074 124.292 22.0795 123.335 22.2697 122.345C22.4599 121.356 23.1157 120.589 24.0732 120.241L27.4835 119.009L29.3198 109.38L26.5981 106.981C25.8373 106.313 25.5094 105.356 25.6996 104.366C25.8898 103.376 26.5456 102.609 27.4966 102.262L30.9068 101.03L32.7431 91.4009L30.0215 89.0019C29.2607 88.3333 28.9328 87.3764 29.123 86.3866C29.3132 85.3969 29.969 84.63 30.9265 84.2826L34.3368 83.0503L36.1731 73.4216L33.4514 71.0226C32.6907 70.354 32.3628 69.3971 32.553 68.4073C32.7431 67.4176 33.399 66.6507 34.3565 66.3033L37.7667 65.071L39.603 55.4423L36.8814 53.0433C36.1206 52.3747 35.7927 51.4177 35.9829 50.428C36.1731 49.4382 36.8289 48.6714 37.7864 48.324L41.1967 47.0917L43.033 37.4629L40.3113 35.064C39.5506 34.3954 39.2227 33.4384 39.4129 32.4487C39.603 31.4589 40.2589 30.692 41.2164 30.3446L44.6266 29.1124L46.4629 19.4836L43.7413 17.0846C42.9477 16.3833 42.6198 15.3083 42.8821 14.2793C43.2297 12.9356 44.6266 12.0179 46.0039 12.2342C46.0563 12.2408 46.0891 12.2473 46.1219 12.2539Z" fill="#A0928A"/>
<path d="M47.2431 13.9057C48.0367 14.0565 48.6728 14.4957 49.0991 15.1839L50.378 17.2617L18.1837 186.102C17.3114 190.671 20.3413 195.102 24.9321 195.973L24.9583 195.98C25.5551 196.091 26.0667 196.38 26.4798 196.819L27.903 198.359L39.3274 200.535L41.2161 199.624C41.7605 199.362 42.3442 199.283 42.941 199.401C43.5378 199.519 44.0493 199.801 44.4625 200.24L45.8856 201.781L57.3166 203.957L59.2053 203.046C59.7497 202.784 60.3333 202.705 60.9301 202.823C61.5269 202.934 62.0385 203.223 62.4517 203.662L63.8748 205.202L75.3058 207.378L77.1945 206.467C77.7389 206.205 78.3226 206.126 78.9193 206.244C79.5161 206.356 80.0277 206.644 80.4409 207.083L81.864 208.624L93.2884 210.8L95.1772 209.889C95.7215 209.627 96.3052 209.548 96.902 209.666C97.4988 209.777 98.0103 210.066 98.4235 210.505L99.8466 212.045L111.271 214.221L113.16 213.31C113.704 213.048 114.288 212.97 114.885 213.087C115.481 213.199 115.993 213.487 116.406 213.926L117.829 215.467L129.26 217.643L131.149 216.732C131.693 216.47 132.277 216.391 132.874 216.509C133.471 216.62 133.982 216.909 134.395 217.348L135.818 218.888L147.249 221.064L149.138 220.153C149.683 219.891 150.266 219.813 150.863 219.93C151.46 220.042 151.971 220.33 152.385 220.769L153.808 222.31L165.232 224.486L167.121 223.575C167.665 223.313 168.249 223.234 168.846 223.352C170.354 223.64 171.351 225.102 171.062 226.61C170.925 227.324 170.505 227.947 169.875 228.373C169.246 228.799 168.511 228.956 167.796 228.825L167.75 228.819C167.193 228.707 166.675 228.419 166.281 227.986L164.858 226.446L153.454 224.302L151.565 225.214C151.02 225.476 150.437 225.554 149.84 225.436C149.243 225.325 148.732 225.037 148.318 224.597L146.895 223.057L135.464 220.881L133.576 221.792C133.031 222.054 132.448 222.133 131.851 222.015C131.254 221.903 130.742 221.615 130.329 221.176L128.906 219.636L117.475 217.459L115.586 218.371C115.042 218.633 114.458 218.711 113.862 218.593C113.265 218.482 112.753 218.194 112.34 217.754L110.917 216.214L99.4859 214.038L97.5971 214.949C97.0528 215.211 96.4692 215.29 95.8724 215.172C95.2756 215.06 94.764 214.772 94.3508 214.333L92.9277 212.793L81.4967 210.616L79.608 211.527C79.0636 211.79 78.4799 211.868 77.8832 211.75C77.2864 211.639 76.7748 211.351 76.3616 210.911L74.9385 209.371L63.5075 207.195L61.6188 208.106C61.0744 208.368 60.4907 208.447 59.8939 208.329C59.2971 208.217 58.7856 207.929 58.3724 207.49L56.9493 205.95L45.5183 203.773L43.6296 204.684C43.0852 204.947 42.5016 205.025 41.9048 204.907C41.308 204.796 40.7964 204.507 40.3832 204.068L38.9601 202.528L27.5291 200.352L25.6404 201.263C25.096 201.525 24.5124 201.604 23.9156 201.486C23.3188 201.374 22.8072 201.086 22.3941 200.647L20.9709 199.106L12.3206 197.428L10.4319 198.34C9.88752 198.602 9.30384 198.674 8.70704 198.562C8.65457 198.549 8.59555 198.543 8.54308 198.53C7.18553 198.195 6.25427 196.793 6.47069 195.403C6.68712 194 7.9135 192.984 9.32351 193.037L14.7931 193.24L16.754 182.949L14.0323 180.55C13.2716 179.882 12.9436 178.925 13.1338 177.935C13.324 176.945 13.9798 176.178 14.9373 175.831L18.3476 174.599L20.1839 164.97L17.4623 162.571C16.7015 161.902 16.3736 160.945 16.5638 159.956C16.754 158.966 17.4098 158.199 18.3607 157.852L21.771 156.619L23.6073 146.991L20.8857 144.592C20.1249 143.923 19.797 142.966 19.9872 141.976C20.1774 140.987 20.8332 140.22 21.7907 139.872L25.201 138.64L27.0373 129.011L24.3156 126.612C23.5549 125.944 23.2269 124.987 23.4171 123.997C23.6073 123.007 24.2631 122.24 25.2206 121.893L28.6309 120.661L30.4672 111.032L27.7456 108.633C26.9848 107.965 26.6569 107.008 26.8471 106.018C27.0373 105.028 27.6931 104.261 28.644 103.914L32.0543 102.682L33.8906 93.0528L31.1689 90.6538C30.4082 89.9852 30.0803 89.0282 30.2705 88.0385C30.4607 87.0487 31.1165 86.2818 32.074 85.9344L35.4843 84.7022L37.3206 75.0734L34.5989 72.6745C33.8381 72.0059 33.5102 71.0489 33.7004 70.0592C33.8906 69.0694 34.5464 68.3025 35.5039 67.9551L38.9142 66.7229L40.7505 57.0941L38.0288 54.6951C37.2681 54.0266 36.9402 53.0696 37.1304 52.0798C37.3206 51.0901 37.9764 50.3232 38.9339 49.9758L42.3442 48.7435L44.1805 39.1148L41.4588 36.7158C40.698 36.0472 40.3701 35.0903 40.5603 34.1005C40.7505 33.1108 41.4063 32.3439 42.3638 31.9965L45.7741 30.7642L47.6104 21.1355L44.8887 18.7365C44.0952 18.0352 43.7673 16.9602 44.0296 15.9311C44.3772 14.5874 45.7741 13.6698 47.1513 13.8861C47.1841 13.8926 47.2169 13.8992 47.2431 13.9057Z" fill="#A0928A"/>
<path d="M167.692 63.7142L143.597 188.691L169.974 224.034L211.087 38.2495L167.692 63.7142Z" fill="#7D6B5F"/>
<path d="M212.176 38.4526L54.4834 8.62256L68.2032 44.7713L167.691 63.7142L212.176 38.4526Z" fill="#847263"/>
<path d="M183.286 54.9967L63.2842 31.813L68.2028 44.7715L167.691 63.7143L183.286 54.9967Z" fill="#7B6A58"/>
<path d="M167.692 63.7142L143.597 188.691L154.044 202.685L183.287 54.9966L167.692 63.7142Z" fill="#716051"/>
<path d="M224.315 41.4679C225.043 36.8206 222.053 32.3111 217.481 31.1837C215.311 30.6462 213.153 30.928 211.304 31.8129L206.778 30.9543C205.493 29.5647 203.775 28.5618 201.775 28.1816C199.774 27.8015 197.8 28.103 196.095 28.9223L188.789 27.5327C187.504 26.1432 185.786 25.1403 183.785 24.7601C181.785 24.38 179.811 24.6815 178.106 25.5008L170.8 24.1112C169.515 22.7217 167.796 21.7188 165.796 21.3386C163.796 20.9585 161.822 21.26 160.117 22.0793L152.817 20.6701C151.532 19.2805 149.814 18.2776 147.814 17.8975C145.813 17.5173 143.839 17.8188 142.134 18.6381L134.828 17.2485C133.543 15.859 131.825 14.8561 129.824 14.4759C127.824 14.0958 125.85 14.3973 124.145 15.2166L116.839 13.827C115.554 12.4375 113.835 11.4346 111.835 11.0544C109.835 10.6743 107.861 10.9758 106.156 11.7951L98.8498 10.4055C97.5644 9.01595 95.8462 8.01309 93.8459 7.63292C91.8457 7.25276 89.8717 7.55427 88.1665 8.37359L80.8607 6.98401C79.5752 5.59443 77.857 4.59158 75.8567 4.21141C73.8565 3.83124 71.8825 4.13275 70.1773 4.95208L62.8715 3.56251C61.6057 2.19915 59.9203 1.20284 57.9594 0.803007C53.0079 -0.193295 48.1023 3.09712 47.158 8.05897C46.2136 13.0208 49.473 17.8122 54.4376 18.7627C56.4378 19.1428 58.4119 18.8413 60.117 18.022L67.4229 19.4116C68.7083 20.8012 70.4265 21.804 72.4268 22.1842C74.427 22.5643 76.4011 22.2628 78.1062 21.4435L85.4121 22.8331C86.6975 24.2227 88.4157 25.2255 90.416 25.6057C92.4162 25.9859 94.3903 25.6843 96.0954 24.865L103.401 26.2546C104.687 27.6442 106.405 28.647 108.405 29.0272C110.405 29.4074 112.379 29.1059 114.085 28.2865L121.39 29.6761C122.676 31.0657 124.394 32.0685 126.394 32.4487C128.395 32.8289 130.369 32.5274 132.074 31.708L139.38 33.0976C140.665 34.4872 142.383 35.4901 144.384 35.8702C146.384 36.2504 148.358 35.9489 150.063 35.1295L157.369 36.5191C158.654 37.9087 160.373 38.9116 162.373 39.2917C164.373 39.6719 166.347 39.3704 168.052 38.5511L175.358 39.9406C176.643 41.3302 178.362 42.3331 180.362 42.7132C182.362 43.0934 184.336 42.7919 186.041 41.9726L193.347 43.3621C194.633 44.7517 196.351 45.7546 198.351 46.1348C198.358 46.1348 198.364 46.1348 198.371 46.1413C199.512 46.3576 200.279 47.4326 200.063 48.5731L166.432 219.262L169.98 224.014C171.331 226.21 173.594 227.829 176.361 228.261C180.985 228.989 185.484 226.039 186.645 221.51C187.543 218.017 186.31 214.543 183.831 212.353L184.31 209.849C187.255 208.788 189.576 206.244 190.206 202.954C190.835 199.657 189.609 196.445 187.261 194.374L187.74 191.87C190.685 190.808 193.006 188.265 193.636 184.975C194.265 181.684 193.039 178.466 190.691 176.395L191.17 173.891C194.115 172.829 196.436 170.286 197.066 166.995C197.695 163.698 196.469 160.487 194.121 158.415L194.6 155.912C197.544 154.85 199.866 152.306 200.496 149.016C201.125 145.719 199.899 142.507 197.551 140.436L198.03 137.932C200.974 136.87 203.296 134.327 203.926 131.037C204.555 127.74 203.329 124.528 200.981 122.457L201.46 119.953C204.404 118.891 206.726 116.348 207.356 113.057C207.985 109.76 206.759 106.549 204.411 104.477L204.89 101.974C207.834 100.912 210.156 98.3685 210.786 95.0781C211.415 91.7811 210.189 88.5694 207.841 86.4981L208.32 83.9942C211.264 82.9324 213.586 80.3892 214.215 77.0988C214.845 73.8084 213.619 70.59 211.271 68.5188L211.75 66.0149C214.694 64.9531 217.016 62.4099 217.645 59.1195C218.275 55.8225 217.049 52.6107 214.701 50.5395L214.957 49.1827C219.482 49.3793 223.587 46.1348 224.315 41.4679Z" fill="#A0928A"/>
<path d="M176.722 224.755C175.155 224.453 173.824 223.542 172.991 222.179L172.171 220.848L170.866 220.599L203.532 49.2481C204.109 46.2133 202.096 43.2637 199.033 42.6869L199.007 42.6804C197.82 42.4509 196.758 41.8676 195.938 40.9762L195.144 40.1175L185.55 38.2888L184.5 38.7935C183.412 39.3178 182.211 39.4751 181.018 39.2457C179.824 39.0163 178.768 38.433 177.949 37.5415L177.155 36.6829L167.56 34.8541L166.511 35.3589C165.422 35.8832 164.222 36.0405 163.029 35.8111C161.835 35.5817 160.779 34.9983 159.959 34.1069L159.166 33.2483L149.571 31.4195L148.522 31.9242C147.433 32.4486 146.233 32.6059 145.039 32.3765C143.852 32.1471 142.79 31.5637 141.97 30.6723L141.177 29.8136L131.582 27.9849L130.533 28.4896C129.444 29.014 128.244 29.1713 127.05 28.9419C125.857 28.7125 124.801 28.1291 123.981 27.2377L123.187 26.379L113.593 24.5503L112.543 25.055C111.455 25.5794 110.255 25.7367 109.061 25.5073C107.867 25.2779 106.812 24.6945 105.992 23.8031L105.198 22.9444L95.6036 21.1157L94.5543 21.6204C93.4656 22.1447 92.2655 22.3021 91.0719 22.0726C89.8783 21.8432 88.8224 21.2599 88.0027 20.3684L87.2091 19.5098L77.6144 17.681L76.5651 18.1857C75.4764 18.7101 74.2763 18.8674 73.0827 18.638C71.8891 18.4086 70.8332 17.8253 70.0135 16.9338L69.2199 16.0752L59.6252 14.2464L58.5759 14.7511C57.4872 15.2755 56.2871 15.4328 55.0935 15.2034C52.0505 14.6266 50.0437 11.677 50.6273 8.63567C50.9028 7.18055 51.7488 5.90895 53.0014 5.0634C54.254 4.2113 55.7493 3.89669 57.1987 4.17198L57.2577 4.18509C58.4251 4.42105 59.4613 5.00442 60.2679 5.87618L61.0615 6.73483L70.6562 8.56357L71.7055 8.05887C72.7941 7.5345 73.9943 7.37719 75.1879 7.6066C76.3749 7.83601 77.4374 8.41937 78.2571 9.3108L79.0507 10.1695L88.6453 11.9982L89.6947 11.4935C90.7833 10.9691 91.9835 10.8118 93.1771 11.0412C94.3641 11.2706 95.4265 11.854 96.2463 12.7454L97.0399 13.6041L106.635 15.4328L107.684 14.9281C108.773 14.4037 109.973 14.2464 111.166 14.4758C112.36 14.7053 113.416 15.2886 114.236 16.18L115.029 17.0387L124.624 18.8674L125.673 18.3627C126.762 17.8384 127.962 17.681 129.155 17.9105C130.343 18.1399 131.405 18.7232 132.225 19.6147L133.018 20.4733L142.613 22.3021L143.662 21.7973C144.751 21.273 145.951 21.1157 147.145 21.3451C148.332 21.5745 149.394 22.1579 150.214 23.0493L151.007 23.9079L160.602 25.7367L161.651 25.232C162.74 24.7076 163.94 24.5503 165.134 24.7797C166.321 25.0091 167.383 25.5925 168.203 26.4839L168.997 27.3425L178.591 29.1713L179.641 28.6666C180.729 28.1422 181.929 27.9849 183.123 28.2143C184.317 28.4437 185.373 29.0271 186.192 29.9185L186.986 30.7772L196.581 32.6059L197.63 32.1012C198.719 31.5768 199.919 31.4195 201.112 31.6489C202.306 31.8783 203.362 32.4617 204.182 33.3531L204.975 34.2118L211.789 35.5096L212.838 35.0049C213.927 34.4805 215.127 34.3232 216.321 34.5526C216.426 34.5723 216.531 34.5985 216.636 34.6182C219.429 35.3064 221.272 38.079 220.826 40.9237C220.387 43.7422 217.914 45.7872 215.075 45.6758L212.038 45.5644L210.832 51.883L212.34 53.2136C213.848 54.5442 214.524 56.5106 214.15 58.477C213.776 60.4434 212.419 62.0296 210.53 62.7113L208.635 63.3929L207.402 69.8558L208.91 71.1864C210.418 72.517 211.094 74.4834 210.72 76.4563C210.346 78.4292 208.989 80.0089 207.1 80.6906L205.205 81.3723L203.972 87.8351L205.48 89.1657C206.988 90.4963 207.664 92.4627 207.29 94.4356C206.916 96.402 205.559 97.9882 203.67 98.6699L201.775 99.3516L200.542 105.814L202.05 107.145C203.558 108.476 204.234 110.442 203.86 112.408C203.486 114.375 202.129 115.961 200.24 116.643L198.345 117.324L197.112 123.787L198.62 125.118C200.129 126.448 200.804 128.415 200.43 130.388C200.056 132.354 198.699 133.94 196.81 134.622L194.915 135.304L193.682 141.767L195.19 143.097C196.699 144.428 197.374 146.394 197 148.367C196.626 150.333 195.269 151.92 193.38 152.601L191.485 153.283L190.252 159.746L191.76 161.076C193.269 162.407 193.944 164.373 193.57 166.34C193.197 168.306 191.839 169.892 189.95 170.574L188.055 171.256L186.822 177.719L188.33 179.049C189.839 180.38 190.514 182.346 190.14 184.319C189.767 186.285 188.409 187.872 186.52 188.553L184.625 189.235L183.392 195.698L184.9 197.029C186.409 198.359 187.084 200.325 186.71 202.298C186.337 204.265 184.979 205.851 183.09 206.533L181.195 207.214L179.962 213.677L181.47 215.008C183.064 216.417 183.726 218.574 183.195 220.632C182.487 223.398 179.719 225.213 176.893 224.768C176.847 224.774 176.788 224.768 176.722 224.755Z" fill="#89817D"/>
<path opacity="0.6" d="M178.382 223.627C177.588 223.476 176.952 223.037 176.526 222.349L175.247 220.271L207.441 51.4308C208.313 46.8622 205.283 42.4313 200.693 41.5595L200.666 41.553C200.07 41.4415 199.558 41.1531 199.145 40.714L197.722 39.1736L186.297 36.9975L184.409 37.9086C183.864 38.1708 183.281 38.2494 182.684 38.1314C182.087 38.0135 181.575 37.7316 181.162 37.2925L179.739 35.7521L168.308 33.576L166.419 34.4871C165.875 34.7493 165.291 34.8279 164.695 34.7099C164.098 34.5985 163.586 34.3101 163.173 33.8709L161.75 32.3306L150.319 30.1545L148.43 31.0656C147.886 31.3278 147.302 31.4064 146.705 31.2884C146.109 31.177 145.597 30.8886 145.184 30.4494L143.761 28.9091L132.336 26.733L130.448 27.6441C129.903 27.9062 129.32 27.9849 128.723 27.8669C128.126 27.7555 127.614 27.4671 127.201 27.0279L125.778 25.4876L114.354 23.3115L112.465 24.2225C111.921 24.4847 111.337 24.5634 110.74 24.4454C110.143 24.334 109.632 24.0456 109.219 23.6064L107.796 22.0661L96.3645 19.8899L94.4758 20.801C93.9314 21.0632 93.3477 21.1419 92.7509 21.0239C92.1541 20.9125 91.6426 20.6241 91.2294 20.1849L89.8063 18.6446L78.3753 16.4684L76.4866 17.3795C75.9422 17.6417 75.3585 17.7204 74.7617 17.6024C74.165 17.4844 73.6534 17.2025 73.2402 16.7634L71.8171 15.2231L60.3927 13.0469L58.5039 13.958C57.9596 14.2202 57.3759 14.2988 56.7791 14.1809C55.2707 13.8925 54.2739 12.4308 54.5624 10.9232C54.7002 10.2088 55.1199 9.58608 55.7495 9.16003C56.3791 8.73398 57.1136 8.57667 57.8284 8.70777L57.8743 8.71432C58.4318 8.82575 58.9499 9.11415 59.3434 9.54676L60.7665 11.0871L72.1975 13.2632L74.0863 12.3521C74.6306 12.0899 75.2143 12.0113 75.8111 12.1293C76.4079 12.2473 76.9194 12.5291 77.3326 12.9683L78.7557 14.5086L90.1867 16.6847L92.0755 15.7736C92.6198 15.5115 93.2035 15.4328 93.8003 15.5508C94.3971 15.6622 94.9086 15.9506 95.3218 16.3898L96.7449 17.9301L108.176 20.1062L110.065 19.1952C110.609 18.933 111.193 18.8543 111.789 18.9723C112.386 19.0903 112.898 19.3721 113.311 19.8113L114.734 21.3516L126.165 23.5278L128.054 22.6167C128.598 22.3545 129.182 22.2758 129.779 22.3938C130.375 22.5052 130.887 22.7936 131.3 23.2328L132.723 24.7731L144.154 26.9493L146.043 26.0382C146.587 25.776 147.171 25.6973 147.768 25.8153C148.365 25.9267 148.876 26.2152 149.289 26.6543L150.712 28.1946L162.143 30.3708L164.032 29.4597C164.577 29.1975 165.16 29.1188 165.757 29.2368C166.354 29.3548 166.865 29.6367 167.279 30.0758L168.702 31.6162L180.133 33.7923L182.021 32.8812C182.566 32.619 183.149 32.5404 183.746 32.6583C184.343 32.7763 184.855 33.0582 185.268 33.4973L186.691 35.0377L198.122 37.2138L200.011 36.3027C200.555 36.0405 201.139 35.9619 201.735 36.0798C202.332 36.1978 202.844 36.4797 203.257 36.9188L204.68 38.4592L213.33 40.1044L215.219 39.1933C215.763 38.9311 216.347 38.859 216.944 38.9704C216.996 38.9835 217.055 38.9901 217.108 39.0032C218.465 39.3375 219.397 40.7402 219.18 42.1298C218.964 43.5325 217.737 44.5484 216.327 44.496L210.858 44.2928L208.897 54.5835L211.619 56.9825C212.379 57.6511 212.707 58.6081 212.517 59.5978C212.327 60.5876 211.671 61.3544 210.714 61.7018L207.303 62.9341L205.467 72.5628L208.189 74.9618C208.949 75.6304 209.277 76.5874 209.087 77.5771C208.897 78.5669 208.241 79.3338 207.29 79.6812L203.88 80.9134L202.044 90.5422L204.765 92.9412C205.526 93.6097 205.854 94.5667 205.664 95.5564C205.474 96.5462 204.818 97.3131 203.86 97.6605L200.45 98.8928L198.614 108.521L201.335 110.92C202.096 111.589 202.424 112.546 202.234 113.536C202.044 114.526 201.388 115.292 200.43 115.64L197.02 116.872L195.184 126.501L197.905 128.9C198.666 129.568 198.994 130.525 198.804 131.515C198.614 132.505 197.958 133.272 197.007 133.619L193.597 134.851L191.76 144.48L194.482 146.879C195.243 147.548 195.571 148.505 195.381 149.494C195.19 150.484 194.534 151.251 193.577 151.598L190.167 152.831L188.33 162.459L191.052 164.858C191.813 165.527 192.141 166.484 191.951 167.474C191.76 168.463 191.105 169.23 190.154 169.578L186.743 170.81L184.907 180.439L187.629 182.838C188.389 183.506 188.717 184.463 188.527 185.453C188.337 186.443 187.681 187.21 186.73 187.557L183.32 188.789L181.484 198.418L184.205 200.817C184.966 201.486 185.294 202.443 185.104 203.432C184.914 204.422 184.258 205.189 183.3 205.536L179.89 206.769L178.054 216.397L180.775 218.796C181.569 219.498 181.897 220.573 181.634 221.602C181.287 222.945 179.89 223.863 178.513 223.647C178.441 223.64 178.408 223.634 178.382 223.627Z" fill="#A0928A"/>
<path d="M177.253 221.976C176.459 221.825 175.823 221.386 175.397 220.697L174.118 218.62L206.312 49.7792C207.184 45.2106 204.154 40.7797 199.564 39.9079L199.538 39.9013C198.941 39.7899 198.429 39.5015 198.016 39.0624L196.593 37.522L185.168 35.3459L183.28 36.257C182.735 36.5192 182.152 36.5978 181.555 36.4798C180.958 36.3684 180.447 36.08 180.033 35.6408L178.61 34.1005L167.179 31.9244L165.29 32.8355C164.746 33.0977 164.162 33.1763 163.566 33.0583C162.969 32.9469 162.457 32.6585 162.044 32.2193L160.621 30.679L149.19 28.5029L147.301 29.414C146.757 29.6761 146.173 29.7548 145.576 29.6368C144.98 29.5254 144.468 29.237 144.055 28.7978L142.632 27.2575L131.207 25.0814L129.319 25.9924C128.774 26.2546 128.191 26.3333 127.594 26.2153C126.997 26.0973 126.486 25.8155 126.072 25.3763L124.649 23.836L113.225 21.6598L111.336 22.5709C110.792 22.8331 110.208 22.9118 109.611 22.7938C109.014 22.6824 108.503 22.394 108.09 21.9548L106.667 20.4145L95.2356 18.2383L93.3468 19.1494C92.8025 19.4116 92.2188 19.4903 91.622 19.3723C91.0252 19.2609 90.5137 18.9725 90.1005 18.5333L88.6774 16.993L77.2464 14.8168L75.3576 15.7279C74.8133 15.9901 74.2296 16.0688 73.6328 15.9508C73.036 15.8393 72.5245 15.5509 72.1113 15.1118L70.6882 13.5714L59.2638 11.3953L57.375 12.3064C56.8307 12.5686 56.247 12.6472 55.6502 12.5293C54.1418 12.2409 53.145 10.7792 53.4335 9.27162C53.5713 8.55717 53.991 7.93447 54.6206 7.50842C55.2502 7.08237 55.9847 6.92506 56.6995 7.05615L56.7454 7.06271C57.3029 7.17414 57.821 7.46254 58.2145 7.89514L59.6376 9.43548L71.0686 11.6116L72.9573 10.7005C73.5017 10.4383 74.0854 10.3597 74.6822 10.4777C75.2789 10.5891 75.7905 10.8775 76.2037 11.3167L77.6268 12.857L89.0578 15.0331L90.9465 14.122C91.4909 13.8598 92.0746 13.7812 92.6713 13.8992C93.2681 14.0106 93.7797 14.299 94.1928 14.7382L95.616 16.2785L107.047 18.4546L108.936 17.5435C109.48 17.2814 110.064 17.2027 110.661 17.3207C111.257 17.4321 111.769 17.7205 112.182 18.1597L113.605 19.7L125.036 21.8761L126.925 20.9651C127.469 20.7029 128.053 20.6242 128.65 20.7422C129.247 20.8602 129.758 21.142 130.171 21.5812L131.594 23.1215L143.025 25.2977L144.914 24.3866C145.458 24.1244 146.042 24.0457 146.639 24.1637C147.236 24.2817 147.747 24.5635 148.16 25.0027L149.584 26.543L161.015 28.7192L162.903 27.8081C163.448 27.5459 164.031 27.4672 164.628 27.5852C165.225 27.6967 165.736 27.9851 166.15 28.4242L167.573 29.9645L179.004 32.1407L180.892 31.2296C181.437 30.9674 182.021 30.8888 182.617 31.0067C183.214 31.1182 183.726 31.4066 184.139 31.8457L185.562 33.3861L196.993 35.5622L198.882 34.6511C199.426 34.3889 200.01 34.3103 200.607 34.4282C201.203 34.5397 201.715 34.8281 202.128 35.2672L203.551 36.8076L212.201 38.4528L214.09 37.5417C214.635 37.2795 215.218 37.2074 215.815 37.3188C215.867 37.3319 215.927 37.3385 215.979 37.3516C217.337 37.6859 218.268 39.0886 218.051 40.4782C217.835 41.8808 216.609 42.8968 215.199 42.8444L209.729 42.6412L207.768 52.9319L210.49 55.3309C211.25 55.9995 211.578 56.9565 211.388 57.9462C211.198 58.936 210.542 59.7029 209.585 60.0502L206.174 61.2825L204.338 70.9112L207.06 73.3102C207.821 73.9788 208.148 74.9358 207.958 75.9255C207.768 76.9153 207.112 77.6822 206.161 78.0296L202.751 79.2618L200.915 88.8906L203.636 91.2896C204.397 91.9581 204.725 92.9151 204.535 93.9049C204.345 94.8946 203.689 95.6615 202.731 96.0089L199.321 97.2412L197.485 106.87L200.206 109.269C200.967 109.937 201.295 110.894 201.105 111.884C200.915 112.874 200.259 113.641 199.308 113.988L195.898 115.22L194.061 124.849L196.783 127.248C197.544 127.917 197.872 128.874 197.682 129.863C197.491 130.853 196.836 131.62 195.885 131.968L192.474 133.2L190.638 142.829L193.36 145.228C194.12 145.896 194.448 146.853 194.258 147.843C194.068 148.833 193.412 149.599 192.455 149.947L189.044 151.179L187.208 160.808L189.93 163.207C190.69 163.875 191.018 164.832 190.828 165.822C190.638 166.812 189.982 167.579 189.025 167.926L185.614 169.158L183.778 178.787L186.5 181.186C187.261 181.855 187.588 182.812 187.398 183.801C187.208 184.791 186.552 185.558 185.595 185.905L182.184 187.138L180.348 196.766L183.07 199.165C183.831 199.834 184.158 200.791 183.968 201.781C183.778 202.771 183.122 203.537 182.165 203.885L178.755 205.117L176.918 214.746L179.64 217.145C180.433 217.846 180.761 218.921 180.499 219.95C180.151 221.294 178.755 222.212 177.377 221.995C177.312 221.989 177.285 221.982 177.253 221.976Z" fill="#A0928A"/>
<g clip-path="url(#clip0_118_3)">
<path d="M103.427 88.6543C103.427 89.7752 104.411 90.6797 105.618 90.6797C106.824 90.6797 107.808 89.7686 107.808 88.6543C107.808 88.5626 107.788 88.4708 107.775 88.379C109.362 88.7461 110.385 88.7461 110.385 88.3659L109.999 87.5466C109.999 87.0485 106.772 85.908 106.234 85.908H98.0494C97.5117 85.908 97.0723 86.3078 97.0723 86.8059V87.0485C97.0723 87.5466 97.5117 87.953 98.0494 87.953H103.571C103.486 88.1759 103.427 88.4053 103.427 88.6543Z" fill="#432918"/>
<path d="M123.666 85.908H115.481C114.944 85.908 111.717 87.0485 111.717 87.5466L111.33 88.3659C111.33 88.7592 112.386 88.7527 114.026 88.3659C115.219 88.0775 116.459 87.9596 117.692 87.9596H119.403C119.318 88.1759 119.259 88.4118 119.259 88.6609C119.259 89.7817 120.243 90.6863 121.449 90.6863C122.663 90.6863 123.64 89.7752 123.64 88.6609C123.64 88.4118 123.587 88.1759 123.496 87.9596H123.666C124.204 87.9596 124.643 87.5532 124.643 87.055V86.8059C124.643 86.3078 124.204 85.908 123.666 85.908Z" fill="#432918"/>
<path d="M104.733 84.2824H116.052C116.314 84.2824 116.531 84.0857 116.531 83.8432C116.531 83.6007 116.314 83.4041 116.052 83.4041H104.733C104.47 83.4041 104.254 83.6007 104.254 83.8432C104.254 84.0857 104.47 84.2824 104.733 84.2824Z" fill="#432918"/>
<path d="M105.545 81.949H115.402C115.645 81.949 115.835 81.7721 115.835 81.5492C115.835 81.3264 115.645 81.1428 115.402 81.1428H105.545C105.302 81.1428 105.112 81.3198 105.112 81.5427C105.112 81.7655 105.302 81.949 105.545 81.949Z" fill="#432918"/>
<path d="M101.368 93.8523C101.368 93.8523 101.302 95.0846 102.561 95.0846C103.821 95.0846 119.357 95.0846 121.443 95.0846C123.528 95.0846 123.056 93.8523 123.056 93.8523H101.368Z" fill="#432918"/>
</g>
<defs>
<clipPath id="clip0_118_3">
<rect width="27.5708" height="13.9417" fill="white" transform="translate(97.0723 81.1428)"/>
</clipPath>
</defs>
</svg>
