<svg width="102" height="105" viewBox="0 0 102 105" fill="none" xmlns="http://www.w3.org/2000/svg">
<path opacity="0.43" d="M93.2353 33.0492H67.9122C75.154 31.1193 85.8216 29.7843 87.098 25.6535C87.5345 24.2392 87.4948 22.0317 86.4829 20.0754C87.8718 18.4165 88.4802 17.088 87.7924 16.4866C85.2462 14.2725 81.7873 12.0585 74.2479 11.6487C74.4397 10.3797 74.3604 9.44124 73.9107 9.0513C71.338 6.81079 67.8329 4.57028 60.1215 4.19356C58.6864 4.12086 57.5422 5.07919 56.6296 6.67861C56.2063 6.64557 55.7698 6.61252 55.3135 6.59269C54.1032 6.53321 53.2567 7.14125 52.6946 8.21193C52.1324 7.14786 51.2925 6.53321 50.0822 6.59269C48.9646 6.64556 47.9461 6.7447 46.9937 6.87027C46.0678 5.31051 44.9237 4.37862 43.5018 4.44471C35.7905 4.82143 32.2853 7.06194 29.7127 9.30245C29.2894 9.67256 29.1968 10.5185 29.3622 11.6751C22.1601 12.151 18.7872 14.3122 16.3005 16.48C15.6193 17.0748 16.2079 18.3834 17.5703 20.0225C16.5981 21.959 16.565 24.1334 16.9949 25.528C18.225 29.5067 28.1717 30.8946 35.3738 32.7121C35.7309 32.8377 36.0749 32.95 36.3989 33.036H11.7041C6.79691 33.036 3.09335 36.6049 4.00601 40.4581L18.0332 99.7423C18.7343 102.697 21.9683 104.838 25.7313 104.838H43.5481H60.5382H79.2081C82.9712 104.838 86.2052 102.697 86.9062 99.7423L100.933 40.4581C101.839 36.6115 98.1425 33.0492 93.2353 33.0492ZM43.5415 33.0492H43.4026C43.4026 33.0492 43.3894 32.9897 43.3629 32.8972C43.515 32.95 43.6671 33.0095 43.8126 33.0492H43.5415ZM51.2528 30.3064C51.6695 28.5219 52.225 25.9906 52.6946 23.2412C52.8401 24.0938 52.9922 24.9265 53.1509 25.7262C53.0848 27.2001 53.0583 28.5417 53.0385 29.6653C52.397 31.6943 52.0464 33.0492 52.0464 33.0492C52.0464 33.0492 51.7621 31.9719 51.2528 30.3064ZM60.5382 33.0492H60.0422C60.1612 33.0161 60.2736 32.9699 60.3927 32.9302H60.7101C60.6903 33.0029 60.677 33.0492 60.677 33.0492H60.5382Z" fill="#72635B"/>
<path d="M89.7234 29.5398H8.18557C3.27836 29.5398 -0.425208 33.1087 0.487455 36.9619L14.5147 96.2461C15.2157 99.2004 18.4497 101.342 22.2128 101.342H75.6961C79.4592 101.342 82.6932 99.2004 83.3943 96.2461L97.4215 36.9619C98.3275 33.1021 94.6306 29.5398 89.7234 29.5398Z" fill="#63A061"/>
<path d="M57.0198 29.5398H40.0298V101.342H57.0198V29.5398Z" fill="#CADFA8"/>
<path d="M57.165 29.5397C57.165 29.5397 62.7733 7.75589 70.4846 8.126C78.196 8.50272 81.7011 10.7432 84.2738 12.9837C86.8464 15.2242 71.4171 27.6164 64.1754 29.5397H57.165Z" fill="#9ACCA3"/>
<path d="M39.8905 29.5397C39.8905 29.5397 34.2822 7.75589 26.5709 8.126C18.8595 8.49611 15.3544 10.7432 12.7817 12.9837C10.2091 15.2242 25.6384 27.6164 32.8802 29.5397H39.8905Z" fill="#9ACCA3"/>
<path d="M47.0863 29.4208C47.0863 29.4208 54.2686 2.71976 46.5572 3.09648C38.8459 3.46659 35.3407 5.7071 32.7681 7.94761C30.1954 10.1881 32.8276 27.4909 40.0694 29.4208H47.0863Z" fill="#ADD298"/>
<path d="M51.266 29.4207C51.266 29.4207 44.0838 2.71964 51.7951 3.08975C59.5064 3.46647 63.0116 5.70698 65.5843 7.94749C68.1569 10.188 65.5248 27.4974 58.2764 29.4207H51.266Z" fill="#ADD298"/>
<path d="M49.5197 29.5397C49.5197 29.5397 48.8914 0.320629 56.6027 0.690743C64.314 1.06746 67.8192 3.30797 70.3918 5.54847C72.9645 7.78898 63.7784 27.6165 56.53 29.5397H49.5197Z" fill="#9ACCA3"/>
<path d="M47.3108 29.5398C47.3108 29.5398 47.6944 0.578473 39.9831 0.948586C32.2717 1.3187 28.7666 3.56581 26.1939 5.80631C23.6212 8.04682 33.0587 27.6166 40.3005 29.5398H47.3108Z" fill="#9ACCA3"/>
<path d="M39.6657 29.4208C39.6657 29.4208 29.1436 11.9264 21.4323 12.3031C13.7209 12.6732 12.5569 19.0841 13.4696 22.0318C14.746 26.1625 25.407 27.4976 32.6554 29.4275H39.6657V29.4208Z" fill="#ADD298"/>
<path d="M57.3833 29.5398C57.3833 29.5398 67.9054 12.0453 75.6167 12.4155C83.328 12.7922 84.492 19.1965 83.5793 22.1442C82.2963 26.2749 71.6354 27.6099 64.3936 29.5398H57.3833Z" fill="#ADD298"/>
<path opacity="0.43" d="M48.5278 29.5398C48.5278 29.5398 54.5792 6.89018 62.9056 7.28012C71.232 7.67007 75.0149 9.99649 77.786 12.3295C80.5636 14.656 63.9108 27.5372 56.0937 29.5464H48.5278V29.5398Z" fill="#72635B"/>
<path opacity="0.43" d="M48.5281 29.5398C48.5281 29.5398 42.4767 6.89018 34.1503 7.28012C25.8239 7.67007 22.041 9.99649 19.27 12.3295C16.4923 14.656 33.1451 27.5372 40.9622 29.5464H48.5281V29.5398Z" fill="#72635B"/>
<path d="M48.5278 29.5397C48.5278 29.5397 54.1361 7.75589 61.8474 8.126C69.5587 8.50272 73.0639 10.7432 75.6365 12.9837C78.2092 15.2242 62.7799 27.6164 55.5381 29.5397H48.5278Z" fill="#CADFA8"/>
<path d="M48.5277 29.5397C48.5277 29.5397 42.9194 7.75589 35.2081 8.126C27.4967 8.49611 23.9916 10.7432 21.4189 12.9837C18.8463 15.2242 34.2756 27.6164 41.5174 29.5397H48.5277Z" fill="#CADFA8"/>
</svg>
