<svg width="151" height="157" viewBox="0 0 151 157" fill="none" xmlns="http://www.w3.org/2000/svg">
<path d="M115.187 36.6264L48.9951 23.9785L31.2827 116.554L97.4747 129.202L115.187 36.6264Z" fill="#828281"/>
<path d="M70.4986 66.815L77.1584 68.3417C77.1584 68.3417 73.6004 78.6917 70.1481 80.4101C66.7025 82.1284 62.3905 88.2287 50.2349 84.6069C38.0792 80.9851 37.8081 82.3928 37.8081 82.3928L42.0407 60.2852L70.4986 66.815Z" fill="#828282"/>
<path d="M82.4228 63.2922C82.4228 63.2922 83.8314 57.073 87.6805 53.9138C91.5295 50.7547 88.1501 55.9495 89.1553 56.3592C90.1606 56.769 93.335 57.1589 94.4858 55.6454C95.6431 54.1385 98.8044 52.288 97.733 54.5021C96.6616 56.7161 97.3428 58.7914 99.0756 56.5245C100.808 54.2575 100.788 56.6368 100.048 58.223C99.3136 59.8092 96.3442 64.006 99.8163 65.0965C103.288 66.1871 106.734 67.2247 106.794 65.8632C106.853 64.4951 108.447 57.9653 111.125 57.7868L105.702 86.1203L79.0234 81.018L82.4228 63.2922Z" fill="#727271"/>
<path d="M45.0497 44.9055C45.0497 44.9055 47.4107 49.4658 50.1157 48.9041C52.8206 48.3423 55.9951 46.7495 57.0863 48.8115C58.1775 50.8736 57.2583 55.0241 60.8295 55.923C64.4008 56.8218 66.914 66.306 70.4985 66.8149C74.083 67.3238 69.103 68.4408 63.389 68.91C57.6749 69.3793 70.6307 70.6482 66.5833 71.4479C62.5358 72.2476 58.5611 69.5445 52.9595 70.4169C47.3512 71.2893 57.6881 70.906 57.622 72.7235C57.5559 74.541 45.4135 69.0025 42.5829 71.3686C39.7523 73.7347 38.6743 78.2884 38.6743 78.2884L45.0497 44.9055Z" fill="#727271"/>
<path d="M46.9876 82.7959C46.9876 82.7959 52.2056 79.2335 55.0627 77.0327C57.9263 74.8318 58.8919 78.2422 61.1735 78.2025C63.4552 78.1629 60.3204 80.8065 63.647 81.6657C66.9736 82.5183 65.9815 79.7094 72.5025 80.3703C79.0234 81.0312 87.9119 89.1605 87.2241 91.216C86.5297 93.278 76.5102 85.9485 76.1465 89.7223C75.7828 93.4961 68.541 101.097 68.541 101.097C68.541 101.097 45.9228 100.244 41.8621 96.001C37.808 91.7513 41.2272 85.7502 43.8065 85.8427C46.3857 85.9352 46.9876 82.7959 46.9876 82.7959Z" fill="#6C6C6B"/>
<path d="M40.1294 70.2781C40.1294 70.2781 43.4759 77.3829 46.5247 78.3941C49.5801 79.4053 50.5986 85.4395 52.3776 87.4024C54.1633 89.3653 50.1026 90.2113 45.9758 89.7487C41.8423 89.286 40.7776 92.6501 50.5854 96.794C60.3932 100.938 80.3329 102.478 80.3329 102.478L79.7575 86.2656C79.7575 86.2656 88.4212 92.7691 90.6632 92.4981C92.9051 92.2271 102.475 96.0009 102.938 100.627L100.96 110.957C100.96 110.957 54.2426 112.735 35.4272 94.8642L40.1294 70.2781Z" fill="#757575"/>
<path d="M35.4272 94.8643C35.4272 94.8643 52.576 106.391 67.1522 108.347C81.7283 110.303 100.96 110.958 100.96 110.958L97.4684 129.219L31.2739 116.562L35.4272 94.8643Z" fill="#61605F"/>
<path d="M70.5385 66.6298C70.5385 66.6298 72.2315 69.1347 69.7383 70.8201C67.245 72.5054 63.0454 72.9614 62.1129 75.5853C61.1804 78.2091 62.4502 82.8421 68.1973 83.9392C73.9378 85.0364 81.2457 86.4309 83.9705 83.4964C86.6952 80.562 80.4256 72.2741 81.0341 63.6028C81.6425 54.925 70.5385 66.6298 70.5385 66.6298Z" fill="#C4C4C4"/>
<path d="M67.4762 45.9168C67.4762 45.9168 64.7646 45.8639 63.7197 50.1995C62.6748 54.5351 60.4989 53.9073 60.8296 55.9165C61.1603 57.9256 62.5888 59.0955 61.9275 62.1952C61.2661 65.2949 63.7197 67.7336 63.1047 70.0931C62.4896 72.4526 63.0451 72.9483 62.1126 75.5721C61.1801 78.1959 59.95 80.1324 59.335 83.3114C59.335 83.3114 61.2198 77.6276 63.9644 77.6077C66.709 77.5879 67.6018 74.2635 67.0926 72.8557C66.5834 71.448 71.7882 73.6224 71.1467 70.2187C70.5052 66.815 72.2776 64.3233 72.2776 64.3233L67.4762 45.9168Z" fill="#5B1E1E"/>
<path d="M71.7617 66.9736C71.7617 66.9736 73.1043 67.8988 75.6042 66.696C78.1041 65.4931 80.3923 65.427 82.8658 60.9923C85.3326 56.5641 85.8022 48.2894 83.0906 45.5004C80.3791 42.7113 71.7617 66.9736 71.7617 66.9736Z" fill="#8D8C8D"/>
<path d="M84.4666 52.6185C85.4784 47.318 81.9998 42.1959 76.6957 41.1847C71.3917 40.1735 66.2663 43.6499 65.2544 48.9504C64.2425 54.251 64.6327 63.3518 70.5386 66.63C73.4683 68.2492 82.1452 64.7397 84.4666 52.6185Z" fill="#C4C4C4"/>
<path d="M62.1125 75.5788C62.1125 75.5788 57.3773 83.3776 58.9513 92.1083C60.5253 100.846 40.0962 118.248 40.0962 118.248L76.0009 125.108C76.0009 125.108 85.736 96.8074 84.8564 80.7934C84.6976 77.8589 84.6976 73.3316 83.3882 75.9687C79.0828 84.6135 64.381 87.2175 62.1125 75.5788Z" fill="#5A5A59"/>
<path d="M83.4477 79.4384C83.4477 79.4384 78.1767 83.2453 73.2629 94.2033C68.3557 105.161 43.6675 118.935 43.6675 118.935L64.3677 122.894C64.3677 122.894 77.6146 106.496 79.2481 96.8601C80.875 87.224 83.4807 83.0536 86.3708 83.0205C89.2609 82.9875 88.3086 103.35 85.9542 108.525C83.5998 113.7 80.5774 125.993 80.5774 125.993L90.6498 127.917C90.6498 127.917 94.9221 84.7654 91.1987 81.1435C80.7361 70.972 85.8682 80.0596 83.4477 79.4384Z" fill="#504F4F"/>
<path d="M65.6841 110.647C65.6841 110.647 63.1578 110.72 60.8629 112.299C58.568 113.885 56.3194 115.551 55.7507 117.633C55.1819 119.721 60.8828 115.703 62.4237 115.776C63.9646 115.848 66.7092 114.903 66.7092 114.903L65.6841 110.647Z" fill="#C4C4C4"/>
<path d="M79.2879 93.1989C79.2879 93.1989 74.6253 104.044 74.8303 108.625C75.0354 113.205 80.6502 110.819 81.834 116.02C83.0245 121.222 71.2524 118.254 71.2524 118.254C71.2524 118.254 83.5602 123.826 85.0284 118.532C86.4966 113.238 90.4117 92.1216 88.9832 89.273C87.5547 86.4179 88.3285 81.4544 85.9278 81.9236C83.5271 82.3929 81.2653 85.0894 79.2879 93.1989Z" fill="#444444"/>
<path d="M64.2158 73.3977C64.2158 73.3977 57.8999 76.5569 55.9224 81.5799C53.945 86.6094 52.0932 93.1459 48.1251 95.6442C44.157 98.149 41.0156 99.8476 40.3741 103.225C39.726 106.602 32.5834 110.072 32.5834 110.072L31.2739 116.562L40.0963 118.248C40.0963 118.248 50.7044 111.599 54.4741 112.167C58.2438 112.735 55.142 108.036 56.5772 104.203C58.0123 100.37 55.4397 83.8864 62.5889 77.35L64.2158 73.3977Z" fill="#504F4F"/>
<path d="M75.8556 110.991C75.8556 110.991 66.6893 111.103 64.4077 110.402C62.126 109.702 64.8111 113.297 63.5611 114.844C62.3112 116.39 71.2592 118.261 71.2592 118.261C71.2592 118.261 81.4771 122.894 81.8408 116.027C82.198 109.153 75.8556 110.991 75.8556 110.991Z" fill="#676766"/>
<path d="M62.8864 107.534C62.8864 107.534 64.1892 108.909 69.0634 109.028C73.9375 109.14 74.8303 111.202 76.6424 112.742C78.4545 114.282 80.346 116.813 79.0762 117.269C77.7998 117.725 75.7959 117.177 74.2021 117.038C72.6082 116.893 69.4337 114.804 67.5952 113.409C65.75 112.015 58.2172 112.253 58.2172 112.253C58.2172 112.253 56.1472 112.425 57.3707 110.158C58.581 107.884 62.8864 107.534 62.8864 107.534Z" fill="#C4C4C4"/>
<path d="M59.3746 82.2473C59.3746 82.2473 57.4104 88.3608 60.1352 94.7188C62.8599 101.077 58.4355 101.097 58.376 103.899C58.3165 106.701 62.8798 107.534 62.8798 107.534C62.8798 107.534 58.1842 109.378 58.1974 112.246C58.2106 115.115 50.4266 109.953 49.4147 106.516C48.4029 103.079 50.4729 100.508 51.5244 99.3849C52.5693 98.2547 52.5892 93.5027 54.0772 93.1392C55.5719 92.7625 57.0467 87.8188 59.3746 82.2473Z" fill="#676766"/>
<path d="M75.6107 41.0391C75.6107 41.0391 73.5407 43.425 73.7457 44.9782C73.9441 46.5313 77.0128 44.0859 82.3499 49.0031C87.6803 53.9138 84.281 40.7747 75.6107 41.0391Z" fill="#7C1E1E"/>
<path d="M75.1149 41.0128C75.1149 41.0128 73.3028 42.3743 73.2763 44.2116C73.2499 46.0423 69.2818 43.4516 65.6906 47.3708C65.0293 48.0912 67.807 40.1404 75.1149 41.0128Z" fill="#7C1E1E"/>
<path d="M83.7786 46.776C83.7786 46.776 82.8792 51.6536 82.7998 54.9317C82.7271 58.2099 83.6265 61.6995 81.034 63.5963C78.4349 65.4931 78.6465 66.6828 79.6253 70.3311C80.5975 73.9793 80.7364 75.5192 79.1624 76.9468C77.5884 78.3744 77.3305 81.8971 77.3305 81.8971C77.3305 81.8971 76.2525 83.741 75.3927 85.0959C74.533 86.4442 78.8846 85.6511 81.7218 81.0115C84.5656 76.3718 87.5814 75.3144 87.5946 72.7236C87.6078 70.1328 87.092 69.419 87.1184 67.0265C87.1449 64.634 89.4993 62.4926 88.5998 59.2938C87.7004 56.0949 86.5034 51.0455 86.7745 49.6179C87.0457 48.1838 85.1807 45.7912 83.6662 44.9849C82.1583 44.1654 83.7786 46.776 83.7786 46.776Z" fill="#5B1E1E"/>
<path opacity="0.43" d="M145.721 24.5097C144.312 24.1594 142.916 24.3445 141.719 24.9195L138.783 24.3577C137.95 23.4589 136.832 22.8046 135.536 22.56C134.24 22.3155 132.963 22.5071 131.859 23.0425L127.123 22.1436C126.29 21.2448 125.172 20.5905 123.876 20.3459C122.58 20.1014 121.304 20.2931 120.199 20.8284L115.464 19.9296C114.631 19.0307 113.513 18.3764 112.217 18.1319C110.92 17.8873 109.644 18.079 108.539 18.6143L103.804 17.7155C102.971 16.8166 101.853 16.1623 100.557 15.9178C99.2607 15.6733 97.9843 15.8649 96.8799 16.4003L92.1446 15.5014C91.3113 14.6026 90.1937 13.9483 88.8974 13.7037C87.6012 13.4592 86.3248 13.6509 85.2203 14.1862L80.485 13.2874C79.6517 12.3885 78.5341 11.7342 77.2378 11.4897C75.9416 11.2451 74.6652 11.4368 73.5607 11.9721L68.8254 11.0733C67.9921 10.1744 66.8745 9.52013 65.5782 9.27559C64.282 9.03105 63.0056 9.22272 61.9011 9.75806L57.1659 8.85921C56.3326 7.96037 55.2149 7.30606 53.9186 7.06152C52.6224 6.81698 51.346 7.00865 50.2415 7.54399L45.5063 6.64514C44.6862 5.75952 43.595 5.11182 42.3252 4.86067C39.23 4.23941 36.1746 6.20233 35.4074 9.22272C32.6099 9.05088 30.0042 10.9014 29.2966 13.6575C28.7146 15.9178 29.5082 18.1715 31.1219 19.5925L30.8111 21.2117C28.9064 21.8991 27.3985 23.5448 26.9885 25.6795C26.5784 27.8143 27.372 29.8962 28.8932 31.2379L28.5823 32.8571C26.6776 33.5444 25.1698 35.1901 24.7597 37.3249C24.3497 39.4596 25.1433 41.5415 26.6644 42.8832L26.3536 44.5024C24.4489 45.1898 22.941 46.8355 22.531 48.9702C22.1209 51.105 22.9146 53.1869 24.4357 54.5285L24.1248 56.1478C22.2201 56.8351 20.7123 58.4808 20.3022 60.6156C19.8922 62.7503 20.6858 64.8322 22.2069 66.1739L21.8961 67.7931C19.9914 68.4805 18.4835 70.1262 18.0735 72.2609C17.6634 74.3957 18.457 76.4776 19.9782 77.8192L19.6673 79.4385C17.7626 80.1258 16.2548 81.7715 15.8447 83.9063C15.4347 86.041 16.2283 88.1229 17.7494 89.4646L17.4386 91.0838C15.5339 91.7712 14.026 93.4169 13.616 95.5516C13.2059 97.6864 13.9996 99.7683 15.5207 101.11L15.2098 102.729C13.3051 103.417 11.7973 105.062 11.3872 107.197C10.9772 109.332 11.7708 111.414 13.2919 112.755L12.9811 114.375C11.0764 115.062 9.56852 116.708 9.15848 118.842C8.74845 120.977 9.54207 123.059 11.0632 124.401L10.8978 125.28C7.94822 125.167 5.28959 127.269 4.82003 130.296C4.35047 133.31 6.28822 136.231 9.25106 136.965C10.6597 137.315 12.0618 137.13 13.2522 136.555L16.1886 137.117C17.0219 138.016 18.1396 138.67 19.4359 138.914C20.7321 139.159 22.0085 138.967 23.113 138.432L27.8482 139.331C28.6815 140.23 29.7992 140.884 31.0954 141.128C32.3917 141.373 33.6681 141.181 34.7725 140.646L39.5078 141.545C40.3411 142.444 41.4588 143.098 42.755 143.343C44.0513 143.587 45.3277 143.395 46.4321 142.86L51.1674 143.759C52.0007 144.658 53.1184 145.312 54.4146 145.557C55.7109 145.801 56.9873 145.609 58.0917 145.074L62.827 145.973C63.6603 146.872 64.778 147.526 66.0742 147.771C67.3705 148.015 68.6469 147.824 69.7513 147.288L74.4866 148.187C75.3199 149.086 76.4376 149.74 77.7338 149.985C79.0301 150.229 80.3065 150.038 81.4109 149.502L86.1462 150.401C86.9795 151.3 88.0972 151.954 89.3934 152.199C90.6897 152.443 91.9661 152.252 93.0705 151.716L97.8058 152.615C98.6391 153.514 99.7568 154.168 101.053 154.413C102.349 154.657 103.626 154.466 104.73 153.93L109.465 154.829C110.285 155.715 111.377 156.363 112.646 156.614C115.742 157.235 118.797 155.272 119.564 152.252C122.362 152.424 124.967 150.573 125.675 147.817C126.257 145.557 125.463 143.303 123.85 141.882L124.161 140.263C126.065 139.575 127.573 137.93 127.983 135.795C128.393 133.66 127.6 131.578 126.078 130.237L126.389 128.617C128.294 127.93 129.802 126.284 130.212 124.149C130.622 122.015 129.828 119.933 128.307 118.591L128.618 116.972C130.523 116.285 132.031 114.639 132.441 112.504C132.851 110.369 132.057 108.287 130.536 106.946L130.847 105.327C132.751 104.639 134.259 102.994 134.669 100.859C135.079 98.724 134.286 96.6422 132.765 95.3005L133.076 93.6812C134.98 92.9939 136.488 91.3482 136.898 89.2134C137.308 87.0787 136.515 84.9968 134.993 83.6551L135.304 82.0359C137.209 81.3485 138.717 79.7029 139.127 77.5681C139.537 75.4333 138.743 73.3514 137.222 72.0098L137.533 70.3905C139.438 69.7032 140.946 68.0575 141.356 65.9227C141.766 63.788 140.972 61.7061 139.451 60.3644L139.762 58.7452C141.666 58.0578 143.174 56.4122 143.584 54.2774C143.994 52.1426 143.201 50.0607 141.68 48.7191L141.991 47.0998C143.895 46.4125 145.403 44.7668 145.813 42.632C146.223 40.4973 145.43 38.4154 143.908 37.0737L144.074 36.1947C147.023 36.3071 149.682 34.2054 150.152 31.1784C150.621 28.1646 148.683 25.2433 145.721 24.5097ZM57.1857 34.8861L113.447 45.5996L97.8322 126.608L41.5712 115.895L57.1857 34.8861ZM42.6558 16.7175L42.3053 16.4333C42.3781 16.4201 42.4574 16.4003 42.5302 16.3804L42.6558 16.7175Z" fill="#72635B"/>
<path d="M37.4379 111.764L54.1237 25.2104L31.6511 7.03516L8.60303 127.884L37.4379 111.764Z" fill="#7D6B5F"/>
<path d="M8.60303 127.884L109.664 147.13L104.181 124.473L37.4379 111.764L8.60303 127.884Z" fill="#847263"/>
<path d="M27.3257 117.415L106.159 132.642L104.181 124.473L37.4377 111.764L27.3257 117.415Z" fill="#7B6A58"/>
<path d="M37.4377 111.764L54.1236 25.2104L46.5776 19.011L27.3257 117.415L37.4377 111.764Z" fill="#716051"/>
<path d="M0.726282 126.185C0.256724 129.199 2.19447 132.12 5.15731 132.854C6.56599 133.204 7.96145 133.019 9.15849 132.444L12.0949 133.006C12.9282 133.905 14.0459 134.559 15.3421 134.803C16.6384 135.048 17.9148 134.856 19.0192 134.321L23.7545 135.22C24.5878 136.119 25.7054 136.773 27.0017 137.018C28.2979 137.262 29.5744 137.07 30.6788 136.535L35.4141 137.434C36.2474 138.333 37.365 138.987 38.6613 139.232C39.9575 139.476 41.2339 139.285 42.3384 138.749L47.0737 139.648C47.907 140.547 49.0246 141.201 50.3209 141.446C51.6171 141.69 52.8935 141.499 53.998 140.963L58.7333 141.862C59.5666 142.761 60.6842 143.415 61.9805 143.66C63.2767 143.904 64.5531 143.713 65.6576 143.177L70.3929 144.076C71.2262 144.975 72.3438 145.629 73.6401 145.874C74.9363 146.118 76.2127 145.927 77.3172 145.391L82.0525 146.29C82.8858 147.189 84.0034 147.843 85.2997 148.088C86.5959 148.332 87.8723 148.141 88.9768 147.605L93.7121 148.504C94.5454 149.403 95.663 150.057 96.9593 150.302C98.2555 150.547 99.5319 150.355 100.636 149.82L105.372 150.718C106.192 151.604 107.283 152.252 108.553 152.503C111.767 153.151 114.941 151.016 115.556 147.797C116.171 144.578 114.055 141.472 110.834 140.857C109.538 140.613 108.262 140.805 107.157 141.34L102.422 140.441C101.589 139.542 100.471 138.888 99.1748 138.643C97.8785 138.399 96.6021 138.591 95.4977 139.126L90.7624 138.227C89.9291 137.328 88.8114 136.674 87.5152 136.429C86.2189 136.185 84.9425 136.376 83.8381 136.912L79.1028 136.013C78.2695 135.114 77.1519 134.46 75.8556 134.215C74.5594 133.971 73.283 134.162 72.1785 134.698L67.4432 133.799C66.6099 132.9 65.4923 132.246 64.196 132.001C62.8998 131.757 61.6234 131.948 60.5189 132.484L55.7836 131.585C54.9503 130.686 53.8327 130.032 52.5364 129.787C51.2402 129.543 49.9638 129.734 48.8593 130.27L44.1241 129.371C43.2907 128.472 42.1731 127.818 40.8768 127.573C39.5806 127.329 38.3042 127.52 37.1997 128.056L32.4644 127.157C31.6311 126.258 30.5135 125.604 29.2172 125.359C27.921 125.114 26.6446 125.306 25.5401 125.841L20.8048 124.943C19.9715 124.044 18.8539 123.389 17.5576 123.145C17.551 123.145 17.551 123.145 17.5444 123.145C16.8037 123.006 16.3077 122.306 16.4466 121.572L38.0529 8.25778L35.9432 7.85462C35.0702 6.43365 33.602 5.38279 31.8031 5.0986C28.8072 4.62935 25.8906 6.53939 25.1367 9.47386C24.5547 11.7342 25.3483 13.9879 26.962 15.4089L26.6512 17.0281C24.7465 17.7155 23.2386 19.3612 22.8286 21.4959C22.4185 23.6307 23.2122 25.7126 24.7333 27.0543L24.4224 28.6735C22.5177 29.3608 21.0099 31.0065 20.5998 33.1413C20.1898 35.2761 20.9834 37.3579 22.5045 38.6996L22.1937 40.3188C20.289 41.0062 18.7811 42.6519 18.3711 44.7866C17.9611 46.9214 18.7547 49.0033 20.2758 50.3449L19.9649 51.9642C18.0603 52.6516 16.5524 54.2972 16.1423 56.432C15.7323 58.5668 16.5259 60.6486 18.047 61.9903L17.7362 63.6096C15.8315 64.2969 14.3236 65.9426 13.9136 68.0773C13.5036 70.2121 14.2972 72.294 15.8183 73.6357L15.5075 75.2549C13.6028 75.9423 12.0949 77.5879 11.6849 79.7227C11.2748 81.8575 12.0684 83.9393 13.5895 85.281L13.2787 86.9003C11.374 87.5876 9.86612 89.2333 9.45609 91.368C9.04605 93.5028 9.83967 95.5847 11.3608 96.9264L11.0499 98.5456C9.14525 99.233 7.63738 100.879 7.22734 103.013C6.8173 105.148 7.61093 107.23 9.13203 108.572L8.8212 110.191C6.91651 110.878 5.40863 112.524 4.9986 114.659C4.58856 116.794 5.38218 118.875 6.90329 120.217L6.73795 121.096C3.86108 121.056 1.20245 123.158 0.726282 126.185Z" fill="#A0928A"/>
<path d="M31.5781 7.38546C32.5966 7.57713 33.4564 8.17195 33.9987 9.05758L34.5277 9.91677L35.3743 10.0754L14.1979 121.136C13.8209 123.105 15.1304 125.015 17.1144 125.392L17.1343 125.399C17.908 125.544 18.5958 125.927 19.1249 126.502L19.6408 127.058L25.8641 128.241L26.5453 127.91C27.2529 127.573 28.0333 127.467 28.8005 127.619C29.5676 127.771 30.262 128.148 30.7911 128.723L31.307 129.278L37.5303 130.461L38.2115 130.131C38.9191 129.794 39.6995 129.688 40.4667 129.84C41.2405 129.985 41.9283 130.369 42.4573 130.944L42.9732 131.499L49.1965 132.682L49.8777 132.352C50.5853 132.014 51.3657 131.909 52.1329 132.061C52.9066 132.206 53.5945 132.589 54.1235 133.164L54.6394 133.72L60.8627 134.903L61.5439 134.572C62.2515 134.235 63.0319 134.129 63.7991 134.281C64.5663 134.433 65.2607 134.81 65.7898 135.385L66.3056 135.94L72.5289 137.123L73.2101 136.793C73.9177 136.456 74.6981 136.35 75.4653 136.502C76.2325 136.654 76.9269 137.031 77.456 137.606L77.9718 138.161L84.1951 139.344L84.8763 139.014C85.5839 138.677 86.3643 138.571 87.1315 138.723C87.8987 138.875 88.5931 139.252 89.1222 139.827L89.638 140.382L95.8613 141.565L96.5425 141.234C97.2502 140.897 98.0306 140.791 98.7977 140.943C99.5715 141.089 100.259 141.472 100.788 142.047L101.304 142.602L107.528 143.785L108.209 143.455C108.916 143.118 109.697 143.012 110.464 143.164C112.435 143.541 113.738 145.451 113.361 147.42C113.182 148.366 112.633 149.185 111.82 149.74C111.006 150.289 110.041 150.494 109.095 150.315L109.055 150.309C108.301 150.157 107.627 149.78 107.104 149.212L106.588 148.656L100.365 147.473L99.6839 147.804C98.9763 148.141 98.1959 148.247 97.4287 148.095C96.6549 147.949 95.9671 147.566 95.4381 146.991L94.9222 146.436L88.6989 145.253L88.0177 145.583C87.3101 145.92 86.5297 146.026 85.7625 145.874C84.9887 145.729 84.3009 145.345 83.7719 144.77L83.256 144.215L77.0327 143.032L76.3515 143.362C75.6439 143.699 74.8635 143.805 74.0963 143.653C73.3291 143.501 72.6347 143.124 72.1056 142.549L71.5898 141.994L65.3665 140.811L64.6853 141.142C63.9776 141.479 63.1973 141.585 62.4301 141.433C61.6629 141.281 60.9685 140.904 60.4394 140.329L59.9236 139.774L53.7003 138.591L53.0191 138.921C52.3115 139.258 51.5311 139.364 50.7639 139.212C49.9901 139.066 49.3023 138.683 48.7732 138.108L48.2574 137.553L42.0341 136.37L41.3529 136.7C40.6452 137.037 39.8648 137.143 39.0977 136.991C38.3239 136.846 37.6361 136.462 37.107 135.887L36.5912 135.332L30.3679 134.149L29.6867 134.48C28.979 134.817 28.1986 134.923 27.4315 134.771C26.6643 134.618 25.9699 134.242 25.4408 133.667L24.925 133.112L18.7017 131.929L18.0205 132.259C17.3128 132.596 16.5324 132.702 15.7653 132.55C14.9981 132.398 14.3037 132.021 13.7746 131.446L13.2587 130.891L8.84093 130.052L8.15974 130.382C7.45209 130.719 6.6717 130.825 5.90453 130.673C5.8384 130.66 5.77226 130.646 5.69952 130.627C3.88742 130.177 2.697 128.379 2.98138 126.535C3.26576 124.711 4.87283 123.383 6.71138 123.456L8.68221 123.528L9.4626 119.431L8.48379 118.565C7.50499 117.706 7.06851 116.43 7.31321 115.155C7.55791 113.879 8.4309 112.855 9.66101 112.412L10.8911 111.969L11.6913 107.779L10.7126 106.913C9.73376 106.054 9.29726 104.771 9.54196 103.496C9.78665 102.22 10.6596 101.196 11.8898 100.753L13.1199 100.31L13.9201 96.1201L12.9413 95.2543C11.9625 94.3951 11.526 93.1195 11.7707 91.8374C12.0154 90.5618 12.8884 89.5374 14.1185 89.0946L15.3486 88.6518L16.1489 84.4615L15.17 83.5957C14.1913 82.7366 13.7548 81.461 13.9995 80.1854C14.2442 78.9099 15.1171 77.8854 16.3472 77.4426L17.5774 76.9998L18.3776 72.8096L17.3988 71.9438C16.42 71.0846 15.9835 69.8024 16.2282 68.5268C16.4729 67.2513 17.3459 66.2269 18.576 65.784L19.8061 65.3412L20.6063 61.151L19.6275 60.2852C18.6487 59.426 18.2123 58.1505 18.457 56.8683C18.7017 55.5927 19.5746 54.5683 20.8047 54.1255L22.0349 53.6827L22.8351 49.4925L21.8563 48.6267C20.8775 47.7675 20.441 46.4919 20.6857 45.2163C20.9304 43.9408 21.8034 42.9163 23.0335 42.4735L24.2636 42.0307L25.0638 37.8405L24.085 36.9747C23.1063 36.1155 22.6697 34.8333 22.9144 33.5578C23.1591 32.2822 24.0321 31.2578 25.2622 30.815L26.4923 30.3721L27.2926 26.1819L26.3138 25.3161C25.335 24.4569 24.8985 23.1814 25.1432 21.8992C25.3879 20.6236 26.2609 19.5992 27.491 19.1564L28.7211 18.7136L29.5213 14.5234L28.5425 13.6576C27.5108 12.7455 27.081 11.351 27.4249 10.0093C27.8878 8.21822 29.6801 7.04178 31.512 7.32598C31.4988 7.36563 31.5385 7.37885 31.5781 7.38546Z" fill="#89817D"/>
<path opacity="0.6" d="M30.5068 8.1124C31.0161 8.21154 31.4327 8.49573 31.7105 8.93855L32.5372 10.2868L11.6716 119.721C11.1094 122.682 13.067 125.551 16.0431 126.119L16.0629 126.126C16.4531 126.198 16.7838 126.383 17.0483 126.674L17.9742 127.672L25.3814 129.08L26.6049 128.492C26.962 128.32 27.3323 128.274 27.7225 128.346C28.1127 128.419 28.4434 128.604 28.7079 128.895L29.6338 129.893L37.041 131.301L38.2645 130.712C38.6216 130.541 38.9919 130.494 39.3821 130.567C39.7723 130.64 40.103 130.825 40.3675 131.116L41.2934 132.114L48.7006 133.521L49.924 132.933C50.2812 132.761 50.6515 132.715 51.0417 132.788C51.4319 132.86 51.7626 133.045 52.0271 133.336L52.953 134.334L60.3601 135.742L61.5836 135.154C61.9408 134.982 62.3111 134.936 62.7013 135.008C63.0915 135.081 63.4222 135.266 63.6867 135.557L64.6126 136.555L72.0197 137.963L73.2432 137.374C73.6004 137.203 73.9707 137.156 74.3609 137.229C74.7511 137.302 75.0818 137.487 75.3463 137.778L76.2722 138.776L83.6793 140.183L84.9028 139.595C85.26 139.423 85.6303 139.377 86.0205 139.45C86.4107 139.522 86.7414 139.707 87.0059 139.998L87.9318 140.996L95.3389 142.404L96.5624 141.816C96.9196 141.644 97.2899 141.598 97.6801 141.67C98.0703 141.743 98.401 141.928 98.6655 142.219L99.5914 143.217L106.999 144.625L108.222 144.036C108.579 143.865 108.949 143.818 109.34 143.891C110.318 144.076 110.967 145.028 110.775 146.006C110.689 146.469 110.411 146.872 110.008 147.149C109.598 147.427 109.121 147.533 108.659 147.44L108.625 147.434C108.262 147.361 107.931 147.176 107.673 146.892L106.747 145.894L99.3401 144.486L98.1166 145.074C97.7661 145.246 97.3891 145.292 96.9989 145.22C96.6087 145.147 96.278 144.962 96.0135 144.671L95.0876 143.673L87.6805 142.265L86.457 142.853C86.1065 143.025 85.7295 143.072 85.3393 142.999C84.9491 142.926 84.6184 142.741 84.3539 142.45L83.428 141.452L76.0209 140.045L74.7974 140.633C74.4469 140.805 74.0699 140.851 73.6797 140.778C73.2895 140.705 72.9589 140.52 72.6943 140.23L71.7684 139.232L64.3613 137.824L63.1378 138.412C62.7873 138.584 62.4103 138.63 62.0201 138.557C61.6299 138.485 61.2993 138.3 61.0347 138.009L60.1088 137.011L52.7017 135.603L51.4782 136.191C51.1277 136.363 50.7507 136.41 50.3605 136.337C49.9703 136.264 49.6397 136.079 49.3751 135.788L48.4492 134.79L41.0421 133.383L39.8186 133.971C39.4681 134.143 39.0911 134.189 38.7009 134.116C38.3107 134.043 37.9801 133.858 37.7155 133.568L36.7896 132.57L29.3825 131.162L28.159 131.75C27.8085 131.922 27.4315 131.968 27.0413 131.895C26.6512 131.823 26.3205 131.638 26.0559 131.347L25.13 130.349L17.7229 128.941L16.4994 129.529C16.1489 129.701 15.7719 129.747 15.3817 129.675C14.9916 129.602 14.6609 129.417 14.3963 129.126L13.4704 128.128L7.86221 127.058L6.6387 127.646C6.28819 127.818 5.91122 127.864 5.52102 127.791C5.48795 127.785 5.44827 127.778 5.4152 127.765C4.53561 127.547 3.93378 126.641 4.07266 125.742C4.21155 124.837 5.01179 124.176 5.91784 124.209L9.46266 124.341L10.7325 117.673L8.96665 116.119C8.47064 115.683 8.259 115.069 8.38466 114.421C8.51031 113.773 8.93359 113.284 9.55526 113.059L11.7642 112.26L12.9546 106.021L11.1888 104.467C10.6928 104.031 10.4811 103.417 10.6068 102.769C10.7325 102.128 11.1557 101.632 11.7708 101.407L13.9863 100.608L15.1767 94.3686L13.4109 92.8155C12.9149 92.3793 12.7033 91.7646 12.8289 91.1169C12.9546 90.4758 13.3779 89.9801 13.9995 89.7554L16.2084 88.9557L17.3989 82.7167L15.6331 81.1635C15.1371 80.7273 14.9254 80.1126 15.0511 79.465C15.1767 78.8239 15.6 78.3282 16.215 78.1035L18.4306 77.3038L19.621 71.0647L17.8552 69.5115C17.3592 69.0753 17.1475 68.4607 17.2732 67.813C17.3989 67.1719 17.8221 66.6762 18.4372 66.4515L20.6527 65.6518L21.8431 59.4127L20.0773 57.8596C19.5813 57.4234 19.3697 56.8087 19.4953 56.161C19.621 55.5199 20.0443 55.0243 20.6659 54.7995L22.8748 53.9998L24.0653 47.7608L22.2995 46.2076C21.8034 45.7714 21.5918 45.1568 21.7175 44.5091C21.8431 43.868 22.2664 43.3723 22.8815 43.1476L25.097 42.3479L26.2874 36.1088L24.5216 34.5557C24.0256 34.1195 23.814 33.5048 23.9396 32.8571C24.0653 32.216 24.4885 31.7203 25.1036 31.4956L27.3191 30.6959L28.5095 24.4569L26.7437 22.9037C26.2477 22.4675 26.0361 21.8529 26.1617 21.2052C26.2874 20.5641 26.7107 20.0684 27.3323 19.8437L29.5412 19.044L30.7317 12.8049L28.9659 11.2518C28.45 10.7957 28.2384 10.1018 28.4103 9.43423C28.6352 8.56182 29.5412 7.967 30.4341 8.10579C30.4671 8.10579 30.487 8.10579 30.5068 8.1124Z" fill="#A0928A"/>
<path d="M31.2344 9.18296C31.7436 9.2821 32.1602 9.56629 32.438 10.0091L33.2647 11.3574L12.3991 120.792C11.837 123.753 13.7946 126.621 16.7706 127.19L16.7905 127.196C17.1807 127.269 17.5113 127.454 17.7759 127.745L18.7018 128.743L26.1089 130.151L27.3324 129.562C27.6895 129.39 28.0599 129.344 28.4501 129.417C28.8403 129.49 29.1709 129.675 29.4355 129.965L30.3614 130.963L37.7685 132.371L38.992 131.783C39.3491 131.611 39.7195 131.565 40.1096 131.638C40.4998 131.71 40.8305 131.895 41.0951 132.186L42.021 133.184L49.4281 134.592L50.6516 134.004C51.0087 133.832 51.3791 133.786 51.7692 133.858C52.1594 133.931 52.4901 134.116 52.7547 134.407L53.6806 135.405L61.0877 136.813L62.3112 136.224C62.6683 136.053 63.0387 136.006 63.4288 136.079C63.819 136.152 64.1497 136.337 64.4142 136.628L65.3401 137.626L72.7473 139.033L73.9708 138.445C74.3279 138.273 74.6982 138.227 75.0884 138.3C75.4786 138.372 75.8093 138.557 76.0739 138.848L76.9997 139.846L84.4069 141.254L85.6304 140.666C85.9875 140.494 86.3578 140.448 86.748 140.52C87.1382 140.593 87.4689 140.778 87.7334 141.069L88.6593 142.067L96.0665 143.475L97.29 142.886C97.6471 142.715 98.0174 142.668 98.4076 142.741C98.7978 142.814 99.1285 142.999 99.393 143.29L100.319 144.288L107.726 145.695L108.95 145.107C109.307 144.935 109.677 144.889 110.067 144.962C111.046 145.147 111.694 146.098 111.502 147.077C111.416 147.539 111.139 147.942 110.735 148.22C110.325 148.498 109.849 148.603 109.386 148.511L109.353 148.504C108.989 148.431 108.659 148.246 108.401 147.962L107.475 146.964L100.068 145.557L98.8441 146.145C98.4936 146.317 98.1166 146.363 97.7264 146.29C97.3362 146.217 97.0056 146.032 96.741 145.742L95.8151 144.744L88.408 143.336L87.1845 143.924C86.834 144.096 86.457 144.142 86.0669 144.069C85.6767 143.997 85.346 143.812 85.0814 143.521L84.1555 142.523L76.7484 141.115L75.5249 141.703C75.1744 141.875 74.7975 141.921 74.4073 141.849C74.0171 141.776 73.6864 141.591 73.4218 141.3L72.4959 140.302L65.0888 138.894L63.8653 139.483C63.5148 139.655 63.1379 139.701 62.7477 139.628C62.3575 139.555 62.0268 139.37 61.7623 139.079L60.8363 138.082L53.4292 136.674L52.2057 137.262C51.8552 137.434 51.4783 137.48 51.0881 137.407C50.6979 137.335 50.3672 137.15 50.1027 136.859L49.1768 135.861L41.7696 134.453L40.5461 135.041C40.1956 135.213 39.8187 135.259 39.4285 135.187C39.0383 135.114 38.7076 134.929 38.4431 134.638L37.5172 133.64L30.11 132.232L28.8865 132.821C28.536 132.992 28.1591 133.039 27.7689 132.966C27.3787 132.893 27.048 132.708 26.7835 132.417L25.8576 131.419L18.4504 130.012L17.2269 130.6C16.8764 130.772 16.4995 130.818 16.1093 130.745C15.7191 130.673 15.3884 130.488 15.1239 130.197L14.198 129.199L8.58972 128.128L7.36624 128.716C7.01573 128.888 6.63876 128.934 6.24856 128.862C6.21549 128.855 6.17581 128.849 6.14274 128.835C5.26315 128.617 4.66132 127.712 4.8002 126.813C4.93909 125.907 5.73931 125.247 6.64535 125.28L10.1902 125.412L11.46 118.743L9.69419 117.19C9.19817 116.754 8.98654 116.139 9.1122 115.491C9.23785 114.844 9.66111 114.355 10.2828 114.13L12.4917 113.33L13.6821 107.091L11.9163 105.538C11.4203 105.102 11.2087 104.487 11.3343 103.839C11.46 103.198 11.8832 102.703 12.4983 102.478L14.7138 101.678L15.9042 95.4392L14.1385 93.886C13.6424 93.4498 13.4308 92.8352 13.5565 92.1875C13.6821 91.5464 14.1054 91.0507 14.727 90.826L16.936 90.0263L18.1264 83.7872L16.3606 82.2341C15.8646 81.7979 15.653 81.1832 15.7786 80.5355C15.9043 79.8944 16.3275 79.3987 16.9426 79.174L19.1581 78.3743L20.3485 72.1353L18.5827 70.5821C18.0867 70.1459 17.8751 69.5313 18.0007 68.8836C18.1264 68.2425 18.5497 67.7468 19.1647 67.5221L21.3802 66.7224L22.5707 60.4833L20.8049 58.9302C20.3088 58.4939 20.0972 57.8793 20.2229 57.2316C20.3485 56.5905 20.7718 56.0948 21.3935 55.8701L23.6024 55.0704L24.7928 48.8313L23.027 47.2782C22.531 46.842 22.3193 46.2273 22.445 45.5796C22.5707 44.9385 22.9939 44.4429 23.609 44.2181L25.8245 43.4184L27.0149 37.1794L25.2491 35.6262C24.7531 35.19 24.5415 34.5754 24.6671 33.9277C24.7928 33.2866 25.2161 32.7909 25.8311 32.5662L28.0466 31.7665L29.2371 25.5274L27.4713 23.9743C26.9753 23.5381 26.7636 22.9234 26.8893 22.2757C27.0149 21.6346 27.4382 21.1389 28.0599 20.9142L30.2688 20.1145L31.4592 13.8755L29.6934 12.3223C29.1775 11.8663 28.9659 11.1723 29.1379 10.5048C29.3627 9.63238 30.2688 9.03756 31.1616 9.17635C31.1947 9.17635 31.2145 9.18296 31.2344 9.18296Z" fill="#A0928A"/>
<path d="M109.313 41.4689L93.6987 122.477L110.795 145.378L137.447 24.9592L109.313 41.4689Z" fill="#7D6B5F"/>
<path d="M138.148 25.0979L35.9297 5.75952L44.8182 29.189L109.313 41.4688L138.148 25.0979Z" fill="#847263"/>
<path d="M119.425 35.8181L41.6372 20.7888L44.8183 29.1891L109.313 41.4689L119.425 35.8181Z" fill="#7B6A58"/>
<path d="M109.313 41.4687L93.6987 122.477L100.464 131.538L119.425 35.8179L109.313 41.4687Z" fill="#716051"/>
<path d="M146.018 27.0476C146.488 24.0338 144.55 21.1126 141.587 20.379C140.178 20.0287 138.783 20.2137 137.586 20.7887L134.649 20.227C133.816 19.3281 132.698 18.6738 131.402 18.4293C130.106 18.1847 128.83 18.3764 127.725 18.9117L122.99 18.0129C122.157 17.114 121.039 16.4597 119.743 16.2152C118.446 15.9707 117.17 16.1623 116.065 16.6977L111.33 15.7988C110.497 14.9 109.379 14.2457 108.083 14.0011C106.787 13.7566 105.51 13.9483 104.406 14.4836L99.6706 13.5847C98.8373 12.6859 97.7196 12.0316 96.4234 11.7871C95.1271 11.5425 93.8507 11.7342 92.7463 12.2695L88.011 11.3707C87.1777 10.4718 86.0601 9.81752 84.7638 9.57299C83.4676 9.32845 82.1912 9.52011 81.0867 10.0555L76.3514 9.15661C75.5181 8.25776 74.4005 7.60346 73.1042 7.35892C71.808 7.11438 70.5316 7.30604 69.4271 7.84138L64.6918 6.94254C63.8585 6.04369 62.7409 5.38939 61.4446 5.14485C60.1484 4.90031 58.872 5.09197 57.7675 5.62731L53.0322 4.72847C52.1989 3.82962 51.0813 3.17531 49.785 2.93077C48.4888 2.68623 47.2124 2.8779 46.1079 3.41324L41.3726 2.5144C40.5526 1.62877 39.4613 0.981072 38.1916 0.729924C34.9774 0.0822253 31.8029 2.21698 31.1879 5.43565C30.5728 8.65431 32.6891 11.7606 35.9099 12.3753C37.2061 12.6198 38.4826 12.4281 39.587 11.8928L44.3223 12.7917C45.1556 13.6905 46.2732 14.3448 47.5695 14.5893C48.8657 14.8339 50.1421 14.6422 51.2466 14.1069L55.9819 15.0057C56.8152 15.9046 57.9328 16.5589 59.2291 16.8034C60.5253 17.048 61.8017 16.8563 62.9062 16.3209L67.6415 17.2198C68.4748 18.1186 69.5924 18.7729 70.8887 19.0175C72.1849 19.262 73.4613 19.0704 74.5658 18.535L79.3011 19.4339C80.1344 20.3327 81.252 20.987 82.5483 21.2316C83.8445 21.4761 85.1209 21.2844 86.2254 20.7491L90.9607 21.6479C91.794 22.5468 92.9116 23.2011 94.2079 23.4456C95.5041 23.6902 96.7805 23.4985 97.885 22.9632L102.62 23.862C103.454 24.7608 104.571 25.4152 105.867 25.6597C107.164 25.9042 108.44 25.7126 109.545 25.1772L114.28 26.0761C115.113 26.9749 116.231 27.6292 117.527 27.8738C118.823 28.1183 120.1 27.9266 121.204 27.3913L125.939 28.2901C126.773 29.189 127.89 29.8433 129.187 30.0878C129.193 30.0878 129.193 30.0878 129.2 30.0878C129.941 30.2266 130.437 30.9272 130.298 31.6608L108.5 142.298L110.801 145.378C111.674 146.799 113.142 147.85 114.941 148.134C117.937 148.603 120.854 146.693 121.608 143.759C122.19 141.499 121.396 139.245 119.782 137.824L120.093 136.205C121.998 135.517 123.506 133.872 123.916 131.737C124.326 129.602 123.532 127.52 122.011 126.178L122.322 124.559C124.227 123.872 125.734 122.226 126.144 120.091C126.554 117.957 125.761 115.875 124.24 114.533L124.551 112.914C126.455 112.227 127.963 110.581 128.373 108.446C128.783 106.311 127.99 104.229 126.469 102.888L126.779 101.269C128.684 100.581 130.192 98.9355 130.602 96.8008C131.012 94.666 130.218 92.5841 128.697 91.2424L129.008 89.6232C130.913 88.9359 132.421 87.2902 132.831 85.1554C133.241 83.0206 132.447 80.9388 130.926 79.5971L131.237 77.9779C133.142 77.2905 134.649 75.6448 135.059 73.5101C135.469 71.3753 134.676 69.2934 133.155 67.9517L133.466 66.3325C135.37 65.6451 136.878 63.9995 137.288 61.8647C137.698 59.7299 136.905 57.6481 135.384 56.3064L135.694 54.6872C137.599 53.9998 139.107 52.3541 139.517 50.2194C139.927 48.0846 139.133 46.0027 137.612 44.661L137.923 43.0418C139.828 42.3545 141.336 40.7088 141.746 38.574C142.156 36.4392 141.362 34.3574 139.841 33.0157L140.006 32.1367C142.89 32.1763 145.548 30.0746 146.018 27.0476Z" fill="#A0928A"/>
<path d="M115.166 145.847C114.148 145.656 113.288 145.061 112.746 144.175L112.217 143.316L111.37 143.157L132.547 32.097C132.923 30.1275 131.614 28.2174 129.63 27.8407L129.61 27.8341C128.836 27.6887 128.149 27.3054 127.619 26.7304L127.104 26.1752L120.88 24.9922L120.199 25.3226C119.491 25.6597 118.711 25.7654 117.944 25.6134C117.17 25.468 116.482 25.0847 115.953 24.5097L115.437 23.9545L109.214 22.7715L108.533 23.1019C107.825 23.439 107.045 23.5448 106.278 23.3927C105.504 23.2473 104.816 22.864 104.287 22.289L103.771 21.7338L97.5479 20.5508L96.8667 20.8813C96.159 21.2183 95.3786 21.3241 94.6115 21.1721C93.8443 21.0201 93.1499 20.6433 92.6208 20.0683L92.105 19.5132L85.8817 18.3301L85.2005 18.6606C84.4928 18.9976 83.7124 19.1034 82.9453 18.9514C82.1781 18.7994 81.4837 18.4226 80.9546 17.8477L80.4652 17.2925L74.2419 16.1094L73.5607 16.4399C72.8531 16.777 72.0727 16.8827 71.3055 16.7307C70.5317 16.5853 69.8439 16.202 69.3149 15.627L68.799 15.0718L62.5757 13.8888L61.8945 14.2192C61.1869 14.5563 60.4065 14.662 59.6393 14.51C58.8655 14.3646 58.1777 13.9813 57.6487 13.4063L57.1328 12.8511L50.9095 11.6681L50.2283 11.9985C49.5207 12.3356 48.7403 12.4414 47.9731 12.2893C47.1993 12.1439 46.5115 11.7606 45.9824 11.1856L45.4666 10.6304L39.2433 9.4474L38.5621 9.77786C37.8544 10.1149 37.074 10.2207 36.3069 10.0687C34.3361 9.69194 33.0332 7.78189 33.4102 5.81236C33.5887 4.86725 34.1377 4.04772 34.9511 3.49255C35.7646 2.94399 36.7302 2.7391 37.6759 2.91755L37.7156 2.92416C38.4695 3.07617 39.1441 3.45289 39.6666 4.02128L40.1824 4.57645L46.4057 5.75949L47.0869 5.42903C47.7945 5.09197 48.5749 4.98622 49.3421 5.13823C50.1093 5.29024 50.8037 5.66696 51.3328 6.24196L51.8486 6.79713L58.0719 7.98017L58.7531 7.64971C59.4607 7.31265 60.2411 7.2069 61.0083 7.35891C61.7821 7.50431 62.4699 7.88764 62.999 8.46264L63.5148 9.01781L69.7381 10.2008L70.4193 9.87039C71.127 9.53332 71.9074 9.42758 72.6745 9.57959C73.4417 9.7316 74.1361 10.1083 74.6652 10.6833L75.181 11.2385L81.4043 12.4215L82.0855 12.0911C82.7932 11.754 83.5736 11.6483 84.3407 11.8003C85.1079 11.9523 85.8023 12.329 86.3314 12.904L86.8472 13.4592L93.0705 14.6422L93.7517 14.3117C94.4594 13.9747 95.2398 13.8689 96.0069 14.0209C96.7807 14.1664 97.4685 14.5497 97.9976 15.1247L98.5134 15.6798L104.737 16.8629L105.418 16.5324C106.126 16.1954 106.906 16.0896 107.673 16.2416C108.44 16.3936 109.135 16.7704 109.664 17.3454L110.18 17.9005L116.403 19.0836L117.084 18.7531C117.792 18.416 118.572 18.3103 119.339 18.4623C120.113 18.6077 120.801 18.991 121.33 19.566L121.846 20.1212L128.069 21.3043L128.75 20.9738C129.458 20.6367 130.238 20.531 131.006 20.683C131.779 20.8284 132.467 21.2117 132.996 21.7867L133.512 22.3419L137.93 23.1813L138.611 22.8508C139.319 22.5137 140.099 22.408 140.866 22.56C140.932 22.5732 140.999 22.5864 141.071 22.6062C142.883 23.0557 144.074 24.8534 143.789 26.6973C143.505 28.5215 141.898 29.8499 140.059 29.7772L138.089 29.7045L137.308 33.8022L138.287 34.668C139.266 35.5272 139.702 36.8027 139.458 38.0783C139.213 39.3539 138.34 40.3783 137.11 40.8211L135.88 41.2639L135.079 45.4541L136.058 46.3199C137.037 47.1791 137.474 48.4613 137.229 49.7369C136.984 51.0124 136.111 52.0369 134.881 52.4797L133.651 52.9225L132.851 57.1127L133.83 57.9785C134.808 58.8377 135.245 60.1133 135 61.3954C134.755 62.671 133.882 63.6954 132.652 64.1383L131.422 64.5811L130.622 68.7713L131.601 69.6371C132.58 70.4963 133.016 71.7718 132.771 73.0474C132.527 74.323 131.654 75.3474 130.424 75.7902L129.193 76.233L128.393 80.4232L129.372 81.289C130.351 82.1482 130.787 83.4304 130.543 84.706C130.298 85.9815 129.425 87.006 128.195 87.4488L126.965 87.8916L126.164 92.0818L127.143 92.9476C128.122 93.8068 128.559 95.0824 128.314 96.3645C128.069 97.6401 127.196 98.6645 125.966 99.1073L124.736 99.5502L123.936 103.74L124.915 104.606C125.893 105.465 126.33 106.741 126.085 108.016C125.84 109.292 124.967 110.316 123.737 110.759L122.507 111.202L121.707 115.392L122.686 116.258C123.665 117.117 124.101 118.399 123.856 119.675C123.612 120.951 122.739 121.975 121.509 122.418L120.278 122.861L119.478 127.051L120.457 127.917C121.436 128.776 121.872 130.051 121.628 131.334C121.383 132.609 120.51 133.634 119.28 134.076L118.05 134.519L117.249 138.709L118.228 139.575C119.26 140.487 119.69 141.882 119.346 143.224C118.883 145.015 117.091 146.191 115.259 145.907C115.246 145.861 115.206 145.854 115.166 145.847Z" fill="#89817D"/>
<path opacity="0.6" d="M116.244 145.12C115.735 145.021 115.318 144.737 115.04 144.294L114.214 142.946L135.079 33.5113C135.641 30.5504 133.684 27.682 130.708 27.1137L130.688 27.1071C130.298 27.0344 129.967 26.8493 129.702 26.5585L128.777 25.5605L121.369 24.1528L120.146 24.741C119.789 24.9128 119.418 24.9591 119.028 24.8864C118.638 24.8137 118.307 24.6286 118.043 24.3378L117.117 23.3398L109.71 21.9321L108.486 22.5203C108.129 22.6921 107.759 22.7384 107.369 22.6657C106.979 22.593 106.648 22.4079 106.383 22.1171L105.457 21.1191L98.0503 19.7114L96.8268 20.2996C96.4697 20.4715 96.0993 20.5177 95.7091 20.445C95.3189 20.3723 94.9882 20.1873 94.7237 19.8965L93.7978 18.8985L86.3907 17.4907L85.1672 18.0789C84.8101 18.2508 84.4397 18.297 84.0495 18.2243C83.6593 18.1516 83.3287 17.9666 83.0641 17.6758L82.1382 16.6778L74.7311 15.27L73.5076 15.8583C73.1505 16.0301 72.7801 16.0764 72.3899 16.0037C71.9997 15.931 71.6691 15.7459 71.4045 15.4551L70.4786 14.4571L63.0715 13.0494L61.848 13.6376C61.4909 13.8094 61.1205 13.8557 60.7303 13.783C60.3401 13.7103 60.0095 13.5252 59.7449 13.2344L58.819 12.2364L51.4119 10.8287L50.1884 11.4169C49.8313 11.5887 49.461 11.635 49.0708 11.5623C48.6806 11.4896 48.3499 11.3045 48.0853 11.0137L47.1594 10.0158L39.7523 8.608L38.5288 9.19622C38.1717 9.36805 37.8014 9.41432 37.4112 9.34162C36.4324 9.15656 35.7842 8.20484 35.976 7.22668C36.062 6.76404 36.3398 6.36088 36.7432 6.0833C37.1532 5.80571 37.6294 5.69997 38.0924 5.79249L38.1254 5.7991C38.4892 5.87181 38.8198 6.05686 39.0778 6.34106L40.0036 7.33904L47.4108 8.74679L48.6343 8.15858C48.9848 7.98674 49.3618 7.94047 49.7519 8.01317C50.1421 8.08587 50.4728 8.27093 50.7374 8.56174L51.6632 9.55972L59.0704 10.9675L60.2939 10.3793C60.6444 10.2074 61.0213 10.1612 61.4115 10.2339C61.8017 10.3066 62.1324 10.4916 62.3969 10.7824L63.3228 11.7804L70.73 13.1882L71.9534 12.5999C72.304 12.4281 72.6809 12.3818 73.0711 12.4545C73.4613 12.5272 73.792 12.7123 74.0565 13.0031L74.9824 14.0011L82.3895 15.4088L83.613 14.8206C83.9635 14.6488 84.3405 14.6025 84.7307 14.6752C85.1209 14.7479 85.4516 14.933 85.7161 15.2238L86.642 16.2218L94.0491 17.6295L95.2726 17.0413C95.6231 16.8695 96.0001 16.8232 96.3903 16.8959C96.7805 16.9686 97.1112 17.1537 97.3757 17.4445L98.3016 18.4424L105.709 19.8502L106.932 19.262C107.283 19.0901 107.66 19.0439 108.05 19.1166C108.44 19.1893 108.771 19.3743 109.035 19.6651L109.961 20.6631L117.368 22.0709L118.592 21.4827C118.942 21.3108 119.319 21.2645 119.709 21.3372C120.1 21.4099 120.43 21.595 120.695 21.8858L121.621 22.8838L129.028 24.2915L130.251 23.7033C130.602 23.5315 130.979 23.4852 131.369 23.5579C131.759 23.6306 132.09 23.8157 132.354 24.1065L133.28 25.1045L138.889 26.1752L140.112 25.5869C140.463 25.4151 140.84 25.3688 141.23 25.4415C141.263 25.4482 141.303 25.4548 141.336 25.468C142.215 25.6861 142.817 26.5915 142.678 27.4904C142.539 28.3958 141.739 29.0568 140.833 29.0237L137.288 28.8915L136.018 35.5602L137.784 37.1133C138.28 37.5495 138.492 38.1642 138.366 38.8119C138.24 39.453 137.817 39.9487 137.196 40.1734L134.987 40.9731L133.796 47.2121L135.562 48.7653C136.058 49.2015 136.27 49.8161 136.144 50.4638C136.018 51.1049 135.595 51.6006 134.98 51.8253L132.765 52.625L131.574 58.8641L133.34 60.4172C133.836 60.8535 134.048 61.4681 133.922 62.1158C133.796 62.7569 133.373 63.2526 132.751 63.4773L130.542 64.277L129.352 70.5161L131.118 72.0692C131.614 72.5054 131.825 73.1201 131.7 73.7678C131.574 74.4088 131.151 74.9045 130.536 75.1292L128.32 75.929L127.13 82.168L128.896 83.7212C129.392 84.1574 129.603 84.772 129.478 85.4197C129.352 86.0608 128.929 86.5565 128.314 86.7812L126.098 87.5809L124.908 93.82L126.673 95.3731C127.17 95.8093 127.381 96.424 127.255 97.0717C127.13 97.7128 126.707 98.2085 126.085 98.4332L123.876 99.2329L122.686 105.472L124.451 107.025C124.947 107.461 125.159 108.076 125.033 108.724C124.908 109.365 124.484 109.86 123.869 110.085L121.654 110.885L120.463 117.124L122.229 118.677C122.725 119.113 122.937 119.728 122.811 120.376C122.686 121.017 122.262 121.512 121.647 121.737L119.432 122.537L118.241 128.776L120.007 130.329C120.503 130.765 120.715 131.38 120.589 132.028C120.463 132.669 120.04 133.164 119.418 133.389L117.21 134.189L116.019 140.428L117.785 141.981C118.301 142.437 118.512 143.131 118.34 143.798C118.116 144.671 117.21 145.266 116.317 145.127C116.284 145.127 116.264 145.12 116.244 145.12Z" fill="#A0928A"/>
<path d="M115.51 144.05C115.001 143.951 114.584 143.666 114.307 143.224L113.48 141.875L134.345 32.4408C134.908 29.4799 132.95 26.6115 129.974 26.0431L129.954 26.0365C129.564 25.9638 129.233 25.7787 128.969 25.4879L128.043 24.4899L120.636 23.0822L119.412 23.6704C119.055 23.8422 118.685 23.8885 118.294 23.8158C117.904 23.7431 117.574 23.5581 117.309 23.2672L116.383 22.2693L108.976 20.8615L107.753 21.4497C107.395 21.6216 107.025 21.6678 106.635 21.5951C106.245 21.5224 105.914 21.3374 105.649 21.0466L104.724 20.0486L97.3164 18.6408L96.0929 19.2291C95.7358 19.4009 95.3655 19.4472 94.9753 19.3745C94.5851 19.3018 94.2544 19.1167 93.9898 18.8259L93.064 17.8279L85.6568 16.4202L84.4334 17.0084C84.0762 17.1802 83.7059 17.2265 83.3157 17.1538C82.9255 17.0811 82.5948 16.896 82.3302 16.6052L81.4044 15.6072L73.9973 14.1995L72.7738 14.7877C72.4166 14.9595 72.0463 15.0058 71.6561 14.9331C71.2659 14.8604 70.9352 14.6753 70.6707 14.3845L69.7448 13.3865L62.3377 11.9788L61.1142 12.567C60.757 12.7389 60.3867 12.7851 59.9965 12.7124C59.6063 12.6397 59.2756 12.4547 59.0111 12.1639L58.0852 11.1659L50.678 9.75812L49.4545 10.3463C49.0974 10.5182 48.7271 10.5644 48.3369 10.4917C47.9467 10.419 47.616 10.234 47.3515 9.94317L46.4256 8.94519L39.0184 7.53744L37.7949 8.12565C37.4378 8.29749 37.0675 8.34376 36.6773 8.27106C35.6985 8.086 35.0504 7.13428 35.2421 6.15613C35.3281 5.69348 35.6059 5.29032 36.0093 5.01274C36.4193 4.73515 36.8955 4.62941 37.3585 4.72194L37.3915 4.72854C37.7553 4.80124 38.0859 4.9863 38.3439 5.2705L39.2698 6.26848L46.6769 7.67623L47.9004 7.08802C48.2509 6.91618 48.6279 6.86991 49.0181 6.94261C49.4083 7.01531 49.7389 7.20037 50.0035 7.49117L50.9294 8.48916L58.3365 9.89691L59.56 9.3087C59.9105 9.13686 60.2875 9.09059 60.6777 9.16329C61.0679 9.23599 61.3985 9.42105 61.6631 9.71185L62.589 10.7098L69.9961 12.1176L71.2196 11.5294C71.5701 11.3575 71.9471 11.3113 72.3373 11.384C72.7275 11.4567 73.0581 11.6417 73.3227 11.9325L74.2486 12.9305L81.6557 14.3383L82.8792 13.7501C83.2297 13.5782 83.6067 13.532 83.9969 13.6047C84.3871 13.6774 84.7177 13.8624 84.9823 14.1532L85.9081 15.1512L93.3153 16.5589L94.5388 15.9707C94.8893 15.7989 95.2663 15.7526 95.6565 15.8253C96.0467 15.898 96.3773 16.0831 96.6419 16.3739L97.5678 17.3719L104.975 18.7796L106.198 18.1914C106.549 18.0196 106.926 17.9733 107.316 18.046C107.706 18.1187 108.037 18.3038 108.301 18.5946L109.227 19.5926L116.634 21.0003L117.858 20.4121C118.208 20.2403 118.585 20.194 118.976 20.2667C119.366 20.3394 119.697 20.5245 119.961 20.8153L120.887 21.8132L128.294 23.221L129.518 22.6328C129.868 22.4609 130.245 22.4147 130.635 22.4874C131.025 22.5601 131.356 22.7451 131.621 23.0359L132.547 24.0339L138.155 25.1046L139.378 24.5164C139.729 24.3445 140.106 24.2983 140.496 24.371C140.529 24.3776 140.569 24.3842 140.602 24.3974C141.481 24.6155 142.083 25.521 141.944 26.4198C141.805 27.3253 141.005 27.9862 140.099 27.9532L136.554 27.821L135.278 34.4764L137.044 36.0296C137.54 36.4658 137.751 37.0804 137.626 37.7281C137.5 38.3692 137.077 38.8649 136.455 39.0896L134.246 39.8893L133.056 46.1284L134.822 47.6815C135.318 48.1177 135.529 48.7324 135.404 49.3801C135.278 50.0212 134.855 50.5168 134.24 50.7416L132.024 51.5413L130.834 57.7803L132.599 59.3335C133.095 59.7697 133.307 60.3843 133.181 61.032C133.056 61.6731 132.633 62.1688 132.011 62.3935L129.802 63.1932L128.612 69.4323L130.377 70.9854C130.873 71.4216 131.085 72.0363 130.959 72.684C130.834 73.3251 130.41 73.8208 129.795 74.0455L127.58 74.8452L126.389 81.0842L128.155 82.6374C128.651 83.0736 128.863 83.6882 128.737 84.3359C128.612 84.977 128.188 85.4727 127.573 85.6974L125.358 86.4971L124.167 92.7362L125.933 94.2893C126.429 94.7255 126.641 95.3402 126.515 95.9879C126.389 96.629 125.966 97.1247 125.344 97.3494L123.136 98.1491L121.945 104.388L123.711 105.941C124.207 106.378 124.419 106.992 124.293 107.64C124.167 108.281 123.744 108.777 123.129 109.001L120.913 109.801L119.723 116.04L121.489 117.593C121.985 118.029 122.196 118.644 122.071 119.292C121.945 119.933 121.522 120.429 120.907 120.653L118.691 121.453L117.501 127.692L119.267 129.245C119.763 129.681 119.974 130.296 119.849 130.944C119.723 131.585 119.3 132.081 118.678 132.305L116.469 133.105L115.279 139.344L117.045 140.897C117.56 141.353 117.772 142.047 117.6 142.715C117.375 143.587 116.469 144.182 115.576 144.043C115.55 144.056 115.53 144.05 115.51 144.05Z" fill="#A0928A"/>
</svg>
