<svg width="539" height="377" viewBox="0 0 539 377" fill="none" xmlns="http://www.w3.org/2000/svg">
<path d="M539 0.277588H0V377H539V0.277588Z" fill="#4C5192"/>
<path d="M260.208 162.473C268.865 162.473 275.882 155.46 275.882 146.809C275.882 138.159 268.865 131.146 260.208 131.146C251.552 131.146 244.534 138.159 244.534 146.809C244.534 155.46 251.552 162.473 260.208 162.473Z" fill="#A368A8"/>
<path d="M26.9302 375.777C26.8376 376.187 26.7649 376.597 26.6987 377H57.6962C56.7703 370.827 52.1871 365.546 45.7324 364.053C37.3002 362.096 28.8812 367.351 26.9302 375.777Z" fill="#A368A8"/>
<path d="M90.3866 344.43C95.4591 345.825 101.219 344.45 105.803 340.762C109.367 337.887 111.775 333.921 112.396 329.883C112.866 326.823 113.124 323.895 113.375 321.06C113.884 315.29 114.367 309.844 116.583 304.372C116.854 303.698 117.257 303.017 117.727 302.237C118.653 300.677 119.81 298.734 120.63 295.701C122.171 290.043 120.617 283.751 116.675 279.687C114.05 276.977 112.456 275.761 111.285 274.869C110.69 274.413 110.3 274.115 109.936 273.752C101.405 265.206 82.1925 240.23 82.0007 239.979L81.8023 239.728C80.0695 237.58 76.9215 237.243 74.7721 238.974L55.421 254.578C53.2782 256.303 52.941 259.456 54.6671 261.597L80.5986 293.91C82.6157 296.408 83.3101 300.717 82.662 306.725C82.1263 311.701 80.711 319.844 79.719 324.325C77.9598 332.282 81.4716 341.978 90.3866 344.43ZM108.646 327.345C108.62 327.55 108.494 327.663 108.422 327.715C108.349 327.768 108.19 327.841 107.985 327.788C104.916 326.995 99.2487 325.634 95.7237 325.382C92.0929 325.131 86.9939 325.567 84.2757 325.845C84.031 325.872 83.8723 325.726 83.8128 325.667C83.7466 325.594 83.6474 325.442 83.6937 325.224L83.7003 325.191C84.7188 320.571 86.1672 312.257 86.7161 307.161C87.4899 299.937 86.5309 294.769 83.7797 291.358L72.1532 276.878L71.8291 273.818C71.8225 273.758 71.8423 273.705 71.8886 273.666C71.9283 273.619 71.9878 273.613 72.0474 273.633L74.5869 274.36C75.3739 274.584 76.2337 274.386 76.8554 273.884L78.3302 272.661C78.9651 272.139 79.2957 271.339 79.223 270.52L78.9915 267.949C78.9849 267.889 79.0047 267.836 79.0577 267.797C79.0973 267.757 79.1569 267.744 79.2164 267.764L81.8353 268.511C82.6223 268.735 83.4689 268.544 84.1038 268.035L85.5786 266.812C86.2135 266.29 86.5441 265.49 86.4714 264.671L86.2531 262.232C86.2399 262.106 86.359 262.014 86.478 262.047L88.806 262.774C89.5996 263.025 90.4659 262.86 91.1141 262.338L92.6153 261.128C92.8203 260.963 92.9989 260.765 93.1378 260.553C98.5675 267.215 102.86 272.212 105.908 275.404C106.047 275.549 106.094 275.761 106.021 275.946C104.804 279.336 103.263 284.359 102.846 289.045C102.595 291.887 103.263 294.716 104.791 297.221C106.239 299.6 108.567 303.01 111.457 305.727C111.609 305.872 111.669 306.077 111.609 306.269C110.174 311.093 109.764 315.746 109.328 320.677C109.136 322.864 108.937 325.092 108.646 327.345ZM78.8063 242.477C78.8196 242.497 82.1329 246.806 86.5706 252.397L86.8351 255.286C86.8484 255.411 86.7293 255.504 86.6103 255.471L84.2823 254.744C83.4887 254.493 82.6289 254.658 81.9742 255.18L80.4729 256.389C79.8248 256.911 79.4809 257.718 79.5603 258.551L79.7918 261.108C79.7984 261.168 79.7785 261.221 79.7256 261.26C79.6793 261.307 79.6264 261.313 79.5669 261.293L76.948 260.54C76.1676 260.315 75.3343 260.487 74.706 260.996C74.6994 261.003 74.6861 261.009 74.6795 261.016L73.1981 262.238C72.5632 262.761 72.2325 263.56 72.3053 264.38L72.5367 266.951C72.5434 267.01 72.5235 267.063 72.4706 267.103C72.4309 267.142 72.3714 267.156 72.3119 267.136L69.6996 266.389C68.9192 266.164 68.0859 266.336 67.4576 266.845C67.4444 266.858 67.4311 266.865 67.4179 266.878L65.9431 268.114C65.7711 268.259 65.619 268.425 65.4934 268.603L57.8349 259.059C57.5109 258.663 57.577 258.081 57.9738 257.757L77.3448 242.153C77.7416 241.836 78.3236 241.895 78.641 242.292L78.8063 242.477ZM92.8005 257.361C92.5955 257.354 92.3839 257.387 92.1788 257.473C91.5373 257.731 91.1537 258.365 91.2133 259.053L91.2265 259.205C91.2331 259.264 91.2066 259.324 91.1604 259.357L89.6591 260.566C89.6128 260.606 89.5533 260.613 89.4938 260.599L87.1658 259.872C86.3722 259.621 85.5124 259.786 84.8577 260.309C84.2096 260.831 83.8657 261.637 83.945 262.47L84.1633 264.909C84.1699 264.968 84.1434 265.021 84.1038 265.061L82.6223 266.283C82.5893 266.303 82.5165 266.336 82.4636 266.316L79.8447 265.569C79.0577 265.345 78.2177 265.53 77.5762 266.045C76.9413 266.567 76.6107 267.367 76.6834 268.187L76.9149 270.758C76.9215 270.817 76.895 270.87 76.8554 270.91L75.3739 272.132C75.3409 272.152 75.2681 272.179 75.2152 272.165L72.6756 271.438C71.8952 271.214 71.0619 271.386 70.4337 271.894C70.4204 271.908 70.4072 271.914 70.394 271.928C69.7591 272.463 69.435 273.269 69.521 274.095L69.812 276.812L65.7844 271.789C65.996 271.795 66.2142 271.762 66.4193 271.676C67.0608 271.412 67.4444 270.771 67.3716 270.077C67.365 269.991 67.3848 269.932 67.4311 269.892L68.9059 268.656C68.9456 268.616 69.0118 268.603 69.0647 268.623L71.677 269.37C72.464 269.594 73.3171 269.403 73.9454 268.894C74.5803 268.372 74.911 267.572 74.8382 266.753L74.6068 264.182C74.6002 264.122 74.6266 264.069 74.6729 264.03L76.1543 262.807C76.2072 262.747 76.2601 262.754 76.3131 262.774L78.932 263.521C79.7124 263.745 80.5457 263.574 81.174 263.065C81.1806 263.058 81.1872 263.051 81.2004 263.045C81.8353 262.523 82.166 261.723 82.0933 260.903L81.8618 258.346C81.8552 258.286 81.8816 258.233 81.9279 258.194L83.4292 256.984C83.4755 256.945 83.535 256.938 83.5879 256.951L85.9159 257.678C86.7095 257.929 87.5758 257.764 88.224 257.242C88.8721 256.72 89.216 255.914 89.1366 255.081L88.9051 252.503C90.1353 254.056 91.4514 255.695 92.8005 257.361ZM114.446 303.506C114.208 304.094 113.99 304.683 113.792 305.264C113.646 304.821 113.395 304.412 113.038 304.074C110.339 301.537 108.137 298.311 106.768 296.051C105.505 293.969 104.943 291.623 105.155 289.277C105.571 284.597 107.244 279.422 108.203 276.752C108.362 276.303 108.402 275.84 108.336 275.391C108.805 275.86 109.288 276.23 109.896 276.693C111.007 277.545 112.529 278.702 115.028 281.286C118.415 284.782 119.744 290.202 118.408 295.086C117.667 297.816 116.602 299.607 115.749 301.047C115.233 301.92 114.79 302.667 114.446 303.506ZM81.6898 326.625C81.7956 326.83 81.9345 327.028 82.0933 327.207C82.7017 327.887 83.6077 328.238 84.5138 328.145C87.1592 327.867 92.1061 327.445 95.5649 327.689C98.8981 327.92 104.414 329.255 107.403 330.022C108.19 330.227 109.037 330.082 109.711 329.626C109.777 329.579 109.843 329.533 109.903 329.487C109.996 329.414 110.075 329.322 110.154 329.242C110.141 329.341 110.128 329.434 110.115 329.533C109.579 333.009 107.476 336.446 104.354 338.964C100.353 342.19 95.3599 343.399 91.0016 342.203C84.0575 340.293 80.9954 333.122 81.6898 326.625Z" fill="#A368A8"/>
<path d="M269.209 0.277605C268.151 1.85059 267.053 3.49627 265.935 5.18821C265.876 4.98994 265.783 4.79827 265.645 4.62644C265.201 4.0977 264.481 3.91926 263.846 4.19023L263.707 4.24971C263.654 4.26954 263.588 4.26954 263.541 4.2365L261.934 3.17242C261.888 3.13937 261.855 3.0865 261.855 3.02702L261.848 0.588236C261.848 0.482489 261.842 0.376743 261.829 0.277605H253.317L254.726 1.18306C255.413 1.62587 256.28 1.70518 257.034 1.38134L259.289 0.436225C259.401 0.389961 259.534 0.47588 259.534 0.594845L259.54 3.03363C259.54 3.86638 259.957 4.63965 260.651 5.09569L262.258 6.15976C262.477 6.30516 262.721 6.41091 262.966 6.48361C258.257 13.6744 254.792 19.2723 252.662 23.1453C252.563 23.3238 252.378 23.4229 252.179 23.4163C248.582 23.2841 243.324 23.337 238.728 24.3614C235.943 24.9827 233.443 26.4763 231.512 28.6838C229.68 30.7855 227.134 34.0306 225.421 37.6062C225.329 37.7912 225.15 37.9102 224.952 37.9168C219.919 38.0093 215.355 39.0271 210.521 40.1044C208.405 40.5737 206.222 41.0628 203.98 41.4659C203.775 41.5056 203.63 41.4197 203.557 41.3602C203.484 41.3073 203.365 41.1817 203.352 40.9702C203.18 37.8111 202.763 31.995 201.937 28.5648C201.077 25.0289 199.119 20.3034 198.028 17.7985C197.929 17.5672 198.015 17.3755 198.061 17.3028C198.114 17.2169 198.226 17.0781 198.451 17.0517L198.491 17.0451C203.206 16.6155 211.573 15.4787 216.599 14.4609C223.722 13.0135 228.358 10.535 230.778 6.88016L235.183 0.270996H230.289L227.385 4.62644C225.613 7.30315 221.711 9.26607 215.785 10.4755C210.878 11.4735 202.684 12.5839 198.107 13.0002C189.986 13.7339 181.805 20.006 182.169 29.2456C182.374 34.4999 185.429 39.5757 190.337 42.8208C194.159 45.3455 198.663 46.436 202.704 45.8081C205.766 45.3323 208.636 44.6912 211.414 44.0699C217.068 42.8076 222.412 41.6179 228.298 42.074C229.026 42.1334 229.793 42.3119 230.679 42.5168C232.445 42.9265 234.647 43.4421 237.788 43.3099C243.655 43.0653 249.177 39.6814 251.869 34.6981C253.654 31.3803 254.335 29.4901 254.838 28.1088C255.089 27.4082 255.255 26.9456 255.493 26.4896C258.753 20.2175 266.273 8.75716 271.987 0.277605H269.209V0.277605ZM202.353 43.528C198.875 44.0699 194.959 43.1116 191.613 40.8975C187.327 38.0622 184.656 33.6737 184.484 29.1597C184.199 21.9689 190.118 16.8798 196.52 15.5778C196.355 15.7431 196.209 15.9281 196.084 16.1396C195.621 16.9261 195.555 17.8976 195.925 18.7304C196.99 21.1626 198.888 25.7493 199.708 29.1134C200.495 32.3651 200.898 38.0159 201.064 41.0958C201.11 41.9087 201.5 42.6688 202.142 43.1711C202.201 43.2173 202.267 43.2702 202.333 43.3099C202.433 43.376 202.538 43.4222 202.644 43.4751C202.545 43.4949 202.446 43.5082 202.353 43.528ZM252.669 27.3223C252.193 28.6375 251.551 30.4352 249.838 33.601C247.53 37.8838 242.762 40.7852 237.696 41.0033C234.865 41.1222 232.835 40.653 231.208 40.2697C230.229 40.0383 229.376 39.8467 228.477 39.774C227.842 39.7277 227.22 39.6947 226.598 39.6814C226.975 39.4105 227.293 39.0404 227.504 38.6042C229.105 35.2665 231.519 32.1933 233.258 30.2039C234.865 28.3666 236.929 27.124 239.23 26.6151C243.82 25.5973 249.263 25.6238 252.093 25.7229C252.57 25.7427 253.019 25.637 253.429 25.4387C253.138 26.0269 252.927 26.6019 252.669 27.3223Z" fill="#A368A8"/>
<path d="M264.672 0.786494C265.367 1.24914 266.24 1.32845 267.007 1.0046L268.733 0.277588H264.117C264.275 0.469254 264.461 0.641092 264.672 0.786494Z" fill="#A368A8"/>
<path d="M479.617 239.543C479.426 234.288 476.39 229.206 471.496 225.941C467.68 223.403 463.176 222.299 459.135 222.914C456.073 223.383 453.196 224.011 450.419 224.619C444.758 225.862 439.414 227.031 433.528 226.556C432.8 226.496 432.033 226.318 431.147 226.106C429.381 225.69 427.185 225.168 424.037 225.293C418.171 225.518 412.636 228.882 409.931 233.859C408.132 237.17 407.444 239.06 406.942 240.441C406.684 241.142 406.518 241.605 406.28 242.061C400.679 252.754 382.584 278.55 382.399 278.808L382.22 279.072C380.693 281.365 381.314 284.472 383.603 285.998L404.303 299.792C406.598 301.318 409.706 300.697 411.234 298.41L434.315 264.01C436.094 261.34 440.002 259.383 445.935 258.2C450.849 257.222 459.049 256.132 463.619 255.735C471.747 255.028 479.955 248.776 479.617 239.543ZM457.846 227.249C458.051 227.216 458.196 227.302 458.269 227.355C458.342 227.415 458.461 227.54 458.467 227.745C458.633 230.904 459.023 236.72 459.843 240.151C460.689 243.686 462.634 248.419 463.718 250.93C463.818 251.161 463.732 251.353 463.685 251.426C463.632 251.512 463.52 251.651 463.295 251.67H463.255C458.54 252.08 450.167 253.19 445.141 254.195C438.012 255.616 433.369 258.081 430.935 261.729L420.592 277.149L417.768 278.378C417.708 278.404 417.655 278.398 417.603 278.365C417.55 278.338 417.523 278.285 417.523 278.219L417.457 275.582C417.437 274.763 416.994 274.003 416.326 273.56L414.719 272.516C414.031 272.066 413.165 271.994 412.411 272.304L410.023 273.296C409.964 273.322 409.911 273.315 409.858 273.282C409.805 273.262 409.779 273.203 409.779 273.137L409.713 270.414C409.693 269.594 409.256 268.848 408.582 268.392L406.975 267.347C406.287 266.898 405.42 266.825 404.666 267.136L402.405 268.074C402.292 268.121 402.16 268.035 402.16 267.916V265.477C402.16 264.644 401.743 263.871 401.056 263.408L399.455 262.338C399.237 262.192 398.992 262.08 398.747 262.014C403.483 254.843 406.968 249.251 409.104 245.392C409.203 245.213 409.389 245.114 409.587 245.121C413.185 245.266 418.442 245.226 423.045 244.222C425.836 243.614 428.336 242.127 430.274 239.919C432.113 237.824 434.672 234.586 436.398 231.017C436.491 230.832 436.669 230.713 436.874 230.706C441.907 230.633 446.477 229.629 451.311 228.571C453.415 228.128 455.604 227.646 457.846 227.249ZM385.752 281.121C385.765 281.101 388.887 276.653 392.901 270.751L395.58 269.634C395.692 269.588 395.824 269.674 395.824 269.793V272.231C395.824 273.064 396.241 273.837 396.929 274.3L398.529 275.371C399.224 275.833 400.097 275.919 400.864 275.595L403.238 274.604C403.297 274.578 403.35 274.584 403.403 274.617C403.463 274.644 403.483 274.697 403.483 274.763L403.549 277.486C403.569 278.299 403.985 279.039 404.653 279.488C404.66 279.495 404.673 279.502 404.68 279.508L406.287 280.552C406.975 280.995 407.841 281.074 408.595 280.764L410.982 279.772C411.042 279.746 411.095 279.753 411.148 279.786C411.201 279.812 411.227 279.865 411.227 279.931L411.293 282.647C411.313 283.46 411.723 284.201 412.398 284.65C412.411 284.657 412.424 284.67 412.444 284.676L414.064 285.708C414.256 285.826 414.454 285.919 414.666 285.985L407.848 296.15C407.563 296.573 406.988 296.692 406.565 296.408L385.864 282.614C385.441 282.33 385.329 281.755 385.606 281.332L385.752 281.121ZM395.771 263.316C395.831 263.514 395.923 263.706 396.062 263.877C396.499 264.406 397.22 264.585 397.861 264.32L398 264.261C398.053 264.241 398.119 264.241 398.165 264.274L399.766 265.345C399.812 265.378 399.845 265.431 399.845 265.49V267.929C399.845 268.762 400.262 269.535 400.95 269.998C401.644 270.46 402.517 270.546 403.284 270.222L405.546 269.284C405.599 269.264 405.659 269.264 405.711 269.297L407.319 270.341C407.345 270.368 407.398 270.427 407.398 270.48L407.464 273.203C407.484 274.023 407.914 274.769 408.595 275.225C409.283 275.675 410.149 275.748 410.903 275.437L413.29 274.446C413.343 274.426 413.403 274.426 413.456 274.459L415.063 275.503C415.089 275.529 415.142 275.589 415.142 275.648L415.208 278.285C415.228 279.098 415.638 279.839 416.313 280.288C416.326 280.295 416.339 280.308 416.359 280.314C417.06 280.757 417.927 280.83 418.687 280.5L421.194 279.409L417.609 284.756C417.55 284.551 417.457 284.359 417.312 284.187C416.868 283.652 416.134 283.48 415.499 283.758C415.42 283.791 415.354 283.791 415.308 283.758L413.687 282.727C413.634 282.7 413.608 282.641 413.608 282.581L413.542 279.865C413.522 279.045 413.079 278.292 412.411 277.843C411.723 277.393 410.857 277.32 410.103 277.631L407.715 278.623C407.662 278.642 407.603 278.642 407.55 278.609L405.943 277.565C405.87 277.525 405.864 277.479 405.864 277.42L405.797 274.697C405.778 273.89 405.368 273.144 404.693 272.694C404.686 272.687 404.673 272.681 404.666 272.674C403.979 272.225 403.112 272.152 402.358 272.463L399.984 273.454C399.931 273.474 399.872 273.474 399.819 273.441L398.218 272.37C398.172 272.337 398.139 272.284 398.139 272.225V269.786C398.139 268.953 397.722 268.18 397.035 267.717C396.34 267.255 395.467 267.169 394.7 267.493L392.306 268.491C393.41 266.845 394.588 265.1 395.771 263.316ZM433.343 228.856C433.978 228.908 434.599 228.935 435.221 228.955C434.844 229.226 434.526 229.589 434.308 230.032C432.695 233.363 430.274 236.43 428.528 238.412C426.914 240.243 424.844 241.479 422.543 241.981C417.953 242.986 412.51 242.94 409.673 242.827C409.197 242.807 408.74 242.913 408.337 243.105C408.641 242.517 408.853 241.948 409.117 241.221C409.594 239.906 410.248 238.108 411.968 234.949C414.289 230.673 419.064 227.785 424.13 227.593C426.961 227.481 428.984 227.963 430.618 228.347C431.597 228.585 432.443 228.783 433.343 228.856ZM465.226 253.171C465.392 253.005 465.537 252.82 465.663 252.609C466.132 251.822 466.192 250.857 465.835 250.018C464.783 247.579 462.892 242.986 462.092 239.622C461.318 236.37 460.934 230.713 460.775 227.633C460.736 226.82 460.346 226.06 459.704 225.551C459.644 225.498 459.578 225.452 459.512 225.412C459.413 225.346 459.307 225.3 459.201 225.247C459.301 225.234 459.393 225.214 459.492 225.201C462.971 224.672 466.88 225.643 470.22 227.871C474.498 230.719 477.15 235.121 477.309 239.635C477.567 246.813 471.635 251.888 465.226 253.171Z" fill="#A368A8"/>
<path d="M431.227 0.277605H422.735L416.512 27.4214C414.501 36.0993 417.325 46.403 425.142 58.9273C430.658 67.7704 440.677 81.6959 446.636 89.2436L446.682 89.3031C446.96 89.6599 446.914 90.0301 446.854 90.2217C446.808 90.387 446.643 90.7835 446.167 90.9553C440.942 92.8456 431.227 96.5665 424.812 100.241C418.588 103.81 409.422 111.325 404.515 115.489C404.191 115.766 403.834 115.76 403.655 115.733C403.47 115.707 403.139 115.608 402.908 115.264C400.381 111.397 398.04 107.491 395.778 103.718C390.613 95.0861 385.732 86.937 378.828 79.3827C378.55 79.0787 378.477 78.6491 378.623 78.2525C381.5 70.7313 382.743 62.4302 383.279 56.7926C383.841 50.8575 382.565 45.0877 379.582 40.111C374.661 31.9025 367.4 24.0772 362.168 18.9551C361.877 18.6643 361.772 18.2479 361.897 17.858C363.372 13.258 365.052 7.36924 366.91 0.270996H358.352C356.468 7.35602 354.636 13.6744 353.009 18.3669C352.665 19.3583 352.215 20.2505 351.534 21.6054C350.191 24.2689 348.346 27.9171 345.952 35.1938C342.348 46.1254 345.079 59 352.916 67.9885C357.116 72.8066 360.945 75.3379 364.02 77.3735C365.568 78.3913 366.904 79.277 368.008 80.2683C376.917 88.3117 382.624 97.8487 388.669 107.954C391.638 112.911 394.707 118.04 398.278 123.221C403 130.055 410.91 135.184 419.984 137.286H419.99C431.643 139.982 443.402 137.391 451.444 130.353C465.59 117.98 463.415 97.1415 453.144 84.1413C447.357 76.8183 437.543 63.177 432.159 54.5455C425.651 44.1294 423.105 35.6234 424.573 29.2654L431.227 0.277605ZM373.921 79.4224C373.034 78.5301 372.122 77.6511 371.163 76.7853C369.8 75.556 368.326 74.5778 366.613 73.4477C363.776 71.5773 360.244 69.2442 356.461 64.902C349.695 57.1362 347.321 46.0461 350.416 36.6544C352.705 29.7148 354.457 26.245 355.734 23.7071C356.435 22.3126 356.99 21.2088 357.44 19.9333C357.718 20.8123 358.2 21.6252 358.888 22.2993C363.008 26.3375 370.654 34.328 375.561 42.5168C378.021 46.6277 379.079 51.4061 378.61 56.3432C378.1 61.69 376.93 69.5417 374.245 76.5672C373.894 77.5057 373.795 78.4839 373.921 79.4224ZM451.371 91.5171C451.504 91.0413 451.576 90.5654 451.59 90.0895C458.613 101.352 459.367 117.194 448.356 126.823C441.444 132.871 431.24 135.072 421.055 132.719H421.048C413.106 130.875 406.214 126.447 402.154 120.564C402.041 120.399 401.935 120.234 401.823 120.069C402.048 120.155 402.273 120.241 402.504 120.3C402.663 120.333 402.822 120.366 402.98 120.393C404.621 120.631 406.287 120.148 407.55 119.077C412.338 115.019 421.247 107.703 427.146 104.326C433.257 100.823 442.688 97.2208 447.767 95.3835C449.513 94.7424 450.862 93.3016 451.371 91.5171Z" fill="#A368A8"/>
<path d="M310.015 250.758C311.278 245.306 307.872 239.847 302.416 238.578L253.145 227.17C247.689 225.908 242.22 229.318 240.956 234.771L240.811 235.405C240.679 236.033 227.683 298.734 219.641 321.919C219.297 322.911 218.847 323.803 218.166 325.158C216.824 327.821 214.979 331.47 212.585 338.746C208.98 349.678 211.712 362.552 219.549 371.541C221.519 373.808 223.411 375.559 225.183 377H233.238C230.401 375.13 226.87 372.797 223.093 368.454C216.328 360.689 213.954 349.599 217.049 340.207C219.337 333.261 221.089 329.797 222.366 327.26C223.067 325.865 223.622 324.761 224.072 323.486C224.35 324.365 224.833 325.178 225.521 325.852C229.641 329.89 237.286 337.88 242.193 346.069C244.653 350.18 245.712 354.959 245.242 359.896C244.812 364.463 243.893 370.847 241.955 376.993H246.862C248.628 370.906 249.494 364.793 249.918 360.338C250.48 354.403 249.203 348.634 246.221 343.657C241.3 335.448 234.039 327.623 228.807 322.501C228.516 322.21 228.411 321.794 228.536 321.404C231.274 312.858 234.7 299.924 238.734 282.925C239.184 283.196 239.68 283.395 240.202 283.52L244.018 284.406C245.665 284.789 247.391 284.32 248.621 283.163L252.232 279.766C252.418 279.594 252.722 279.66 252.808 279.898L254.56 284.551C255.149 286.111 256.465 287.281 258.085 287.677L261.875 288.603C263.489 288.966 265.208 288.57 266.451 287.459L270.578 283.771C270.671 283.685 270.797 283.646 270.902 283.692C271.021 283.718 271.107 283.798 271.154 283.91L273.005 288.821C273.594 290.38 274.91 291.55 276.53 291.947L280.32 292.872C281.907 293.236 283.647 292.839 284.896 291.729L288.898 288.147C288.99 288.061 289.109 288.028 289.222 288.067C289.341 288.1 289.427 288.173 289.466 288.292L291.583 294.174L283.151 330.954C281.14 339.632 283.964 349.936 291.781 362.46C294.354 366.584 297.905 371.812 301.569 376.98H311.747C307.065 370.536 302.105 363.372 298.805 358.078C292.297 347.662 289.751 339.156 291.219 332.798L310.015 250.758ZM248.906 237.137L249.018 236.641C249.25 235.637 250.262 235.002 251.273 235.24L300.544 246.648C301.556 246.879 302.184 247.89 301.946 248.901L296.391 273.137C296.001 272.919 295.584 272.747 295.134 272.635L291.345 271.676C291.312 271.67 291.279 271.657 291.245 271.65C289.645 271.28 287.965 271.71 286.735 272.807L282.615 276.488C282.522 276.574 282.397 276.607 282.291 276.567C282.172 276.534 282.086 276.462 282.039 276.349L280.188 271.439C279.599 269.879 278.283 268.709 276.663 268.312L272.873 267.387C272.853 267.381 272.833 267.381 272.807 267.374C271.207 267.004 269.527 267.433 268.297 268.531L264.17 272.225C264.077 272.311 263.971 272.351 263.846 272.304C263.727 272.278 263.641 272.199 263.594 272.086L261.749 267.195C261.154 265.609 259.812 264.439 258.158 264.056L254.342 263.17C252.689 262.787 250.969 263.25 249.739 264.413L246.128 267.804C245.943 267.975 245.639 267.909 245.553 267.671L243.476 262.159C246.657 248.002 248.899 237.19 248.906 237.137ZM290.359 283.533C290.326 283.527 290.293 283.52 290.26 283.507C288.66 283.137 286.98 283.566 285.75 284.663L281.748 288.246C281.662 288.325 281.504 288.332 281.424 288.325L277.635 287.4C277.522 287.373 277.43 287.287 277.39 287.182L275.538 282.271C274.95 280.711 273.634 279.541 272.013 279.145C270.386 278.768 268.687 279.171 267.443 280.288L263.317 283.976C263.231 284.055 263.072 284.062 262.993 284.055L259.203 283.13C259.091 283.104 258.998 283.018 258.958 282.912L257.206 278.259C256.611 276.673 255.268 275.503 253.615 275.12C251.961 274.737 250.242 275.199 249.012 276.362L245.401 279.753C245.315 279.832 245.196 279.865 245.077 279.839L241.261 278.953C241.142 278.927 241.049 278.841 241.009 278.728L240.904 278.444C240.408 277.136 239.144 276.316 237.742 276.409C237.299 276.435 236.882 276.567 236.506 276.759C237.498 272.509 238.443 268.345 239.329 264.4L241.188 269.324C241.783 270.91 243.126 272.08 244.779 272.463C246.432 272.846 248.152 272.377 249.382 271.22L252.993 267.823C253.079 267.744 253.198 267.711 253.317 267.737L257.133 268.623C257.252 268.649 257.345 268.735 257.384 268.841L259.23 273.732C259.818 275.292 261.134 276.462 262.754 276.858C262.774 276.865 262.794 276.865 262.814 276.871C264.415 277.241 266.094 276.812 267.324 275.715L271.451 272.027C271.537 271.947 271.623 271.895 271.775 271.947L275.565 272.873C275.677 272.899 275.77 272.985 275.816 273.091L277.668 278.001C278.257 279.561 279.573 280.731 281.193 281.128C282.793 281.498 284.52 281.095 285.763 279.984L289.883 276.303C289.969 276.224 290.095 276.191 290.207 276.224L293.997 277.182C294.109 277.208 294.202 277.294 294.268 277.466C294.744 278.795 296.02 279.634 297.429 279.548C297.885 279.522 298.309 279.389 298.692 279.191L295.769 291.947L293.891 286.719C293.309 285.139 291.993 283.943 290.359 283.533Z" fill="#A368A8"/>
<path d="M131.331 0.277588H122.839L118.388 19.6887C117.998 19.4706 117.581 19.2988 117.132 19.1864L113.342 18.2281C113.309 18.2215 113.276 18.2083 113.243 18.2016C111.643 17.8315 109.963 18.2611 108.733 19.3582L104.612 23.0396C104.52 23.1255 104.394 23.1585 104.288 23.1189C104.169 23.0924 104.083 23.0131 104.037 22.9008L102.185 17.9901C101.597 16.4304 100.281 15.2606 98.6602 14.864L94.8707 13.9387C94.8509 13.9321 94.831 13.9321 94.8046 13.9255C93.2041 13.5554 91.5243 13.985 90.2942 15.0821L86.1673 18.77C86.0748 18.856 85.9689 18.8956 85.8433 18.8493C85.7242 18.8163 85.6383 18.7436 85.592 18.6312L83.7468 13.7405C83.1516 12.1543 81.8091 10.9844 80.1557 10.6011L76.3397 9.71548C74.6863 9.33214 72.9668 9.79479 71.7367 10.958L68.1257 14.3485C67.9406 14.5203 67.6363 14.4542 67.5504 14.2163L65.4737 8.70427C66.1417 5.72354 66.7633 2.88821 67.3321 0.277588H58.8801C54.3763 20.8057 46.9361 53.2038 41.6387 68.471C41.2948 69.4623 40.8451 70.3546 40.1639 71.7094C38.8213 74.3729 36.9762 78.0212 34.5821 85.2979C30.9777 96.2294 33.7091 109.104 41.5461 118.093C45.7457 122.911 49.5749 125.442 52.6501 127.478C54.1977 128.495 55.5336 129.381 56.6381 130.372C65.5465 138.416 71.2539 147.953 77.2986 158.058C80.2681 163.015 83.3368 168.144 86.9081 173.325C91.6301 180.159 99.5398 185.288 108.614 187.39H108.62C120.273 190.086 132.032 187.495 140.074 180.457C154.22 168.084 152.044 147.246 141.774 134.245C135.987 126.922 126.172 113.281 120.789 104.65C114.281 94.2335 111.735 85.7275 113.203 79.3695L131.331 0.277588ZM61.3204 10.9514L63.1788 15.8752C63.774 17.4614 65.1166 18.6312 66.77 19.0146C68.4233 19.3979 70.1428 18.9287 71.373 17.772L74.9839 14.3749C75.0699 14.2956 75.1889 14.2626 75.308 14.289L79.124 15.1746C79.243 15.2011 79.3356 15.287 79.3753 15.3927L81.2205 20.2835C81.8091 21.8433 83.1251 23.0131 84.7454 23.4097C84.7653 23.4163 84.7851 23.4163 84.805 23.4229C86.4054 23.793 88.0853 23.3634 89.3154 22.2663L93.4422 18.5784C93.5282 18.4991 93.6141 18.4462 93.7663 18.4991L97.5558 19.4243C97.6682 19.4508 97.7608 19.5367 97.8071 19.6424L99.6589 24.5531C100.247 26.1128 101.564 27.2826 103.184 27.6792C104.784 28.0493 106.51 27.6461 107.754 26.5358L111.874 22.8545C111.96 22.7752 112.086 22.7421 112.198 22.7752L115.988 23.7335C116.1 23.76 116.193 23.8459 116.259 24.0177C116.735 25.3462 118.011 26.1855 119.42 26.0996C119.876 26.0732 120.3 25.941 120.683 25.7427L117.76 38.4984L115.882 33.2705C115.313 31.6843 113.997 30.4947 112.363 30.0783C112.33 30.0717 112.297 30.0585 112.264 30.0519C110.664 29.6818 108.984 30.1114 107.754 31.2085L103.753 34.7906C103.667 34.87 103.508 34.8766 103.429 34.87L99.639 33.9447C99.5266 33.9182 99.434 33.8323 99.3943 33.7266L97.5426 28.816C96.954 27.2562 95.6379 26.0864 94.0176 25.6898C92.3907 25.3131 90.691 25.7229 89.4476 26.8332L85.3208 30.5211C85.2348 30.6004 85.0761 30.607 84.9968 30.6004L81.2072 29.6752C81.0948 29.6487 81.0022 29.5628 80.9625 29.4571L79.21 24.8042C78.6147 23.218 77.2722 22.0482 75.6188 21.6648C73.9654 21.2815 72.2459 21.7442 71.0158 22.9074L67.4049 26.2979C67.3189 26.3772 67.1998 26.4102 67.0808 26.3838L63.2648 25.4982C63.1458 25.4717 63.0532 25.3858 63.0135 25.2735L62.9077 24.9893C62.4117 23.6806 61.1485 22.8611 59.7464 22.9536C59.3033 22.9801 58.8867 23.1123 58.5097 23.3039C59.4885 19.0608 60.4342 14.8971 61.3204 10.9514ZM62.5439 129.526C61.6577 128.634 60.7451 127.755 59.7861 126.889C58.4237 125.66 56.9489 124.682 55.236 123.552C52.3988 121.681 48.8672 119.348 45.0843 115.006C38.3187 107.24 35.9445 96.1501 39.0396 86.7585C41.3278 79.8189 43.0804 76.3491 44.3568 73.8112C45.0579 72.4166 45.6134 71.3129 46.0631 70.0373C46.3409 70.9163 46.8237 71.7293 47.5115 72.4034C51.6317 76.4416 59.2769 84.4321 64.1841 92.6208C66.6443 96.7317 67.7025 101.51 67.2329 106.447C66.7237 111.794 65.5531 119.646 62.868 126.671C62.5109 127.61 62.4183 128.581 62.5439 129.526ZM139.995 141.615C140.127 141.139 140.2 140.663 140.213 140.187C147.236 151.449 147.99 167.291 136.979 176.921C130.068 182.968 119.863 185.169 109.678 182.816H109.672C101.729 180.972 94.8376 176.544 90.777 170.662C90.6645 170.497 90.5587 170.331 90.4463 170.166C90.6711 170.252 90.896 170.338 91.1275 170.397C91.2862 170.431 91.4449 170.464 91.6036 170.49C93.2438 170.728 94.9104 170.245 96.1736 169.175C100.962 165.117 109.87 157.8 115.769 154.423C121.88 150.92 131.311 147.318 136.39 145.481C138.136 144.846 139.479 143.399 139.995 141.615ZM113.759 109.031C119.275 117.874 129.294 131.8 135.253 139.348L135.299 139.407C135.577 139.764 135.524 140.134 135.471 140.326C135.425 140.491 135.266 140.888 134.783 141.059C129.559 142.95 119.843 146.671 113.428 150.345C107.205 153.914 98.0386 161.429 93.1314 165.593C92.8073 165.87 92.4502 165.864 92.2716 165.837C92.0864 165.811 91.7558 165.712 91.5243 165.368C88.9979 161.502 86.6568 157.596 84.3949 153.822C79.2298 145.19 74.349 137.041 67.4445 129.487C67.1668 129.183 67.094 128.753 67.2395 128.357C70.1164 120.835 71.3597 112.534 71.8954 106.897C72.4576 100.962 71.1812 95.1918 68.1985 90.2151C63.278 82.0065 56.0164 74.1813 50.7851 69.0592C50.4941 68.7684 50.3883 68.352 50.514 67.962C53.252 59.4164 56.6778 46.4823 60.712 29.4835C61.1617 29.7545 61.6577 29.9527 62.1802 30.0783L65.9962 30.9639C67.6429 31.3473 69.3691 30.878 70.5992 29.7214L74.2101 26.3243C74.3953 26.1525 74.6995 26.2186 74.7855 26.4565L76.5381 31.1093C77.1267 32.6691 78.4428 33.8389 80.0631 34.2355L83.8526 35.1608C85.4663 35.5243 87.1858 35.1277 88.4292 34.0174L92.556 30.3295C92.6486 30.2435 92.7742 30.2039 92.8801 30.2502C92.9991 30.2766 93.0851 30.3559 93.1314 30.4683L94.9831 35.3789C95.5717 36.9386 96.8878 38.1084 98.5081 38.505L102.298 39.4303C103.885 39.7938 105.624 39.3972 106.874 38.2869L110.875 34.7047C110.968 34.6188 111.087 34.5858 111.199 34.6254C111.318 34.6585 111.404 34.7312 111.444 34.8501L113.56 40.7323L105.128 77.5123C103.124 86.1967 105.942 96.507 113.759 109.031Z" fill="#A368A8"/>
<g opacity="0.33">
<path opacity="0.33" d="M267.503 240.871C276.159 240.871 283.177 233.858 283.177 225.207C283.177 216.556 276.159 209.543 267.503 209.543C258.846 209.543 251.829 216.556 251.829 225.207C251.829 233.858 258.846 240.871 267.503 240.871Z" fill="#CCBF63"/>
<path opacity="0.33" d="M527.406 205.466C524.807 200.899 519.761 197.792 513.908 197.164C509.351 196.675 504.848 197.779 501.548 200.198C499.048 202.029 496.792 203.919 494.617 205.743C490.172 209.464 485.979 212.974 480.536 215.274C479.862 215.558 479.101 215.749 478.215 215.974C476.456 216.424 474.267 216.979 471.535 218.538C466.443 221.453 463.09 226.992 462.997 232.656C462.938 236.423 463.202 238.419 463.394 239.873C463.493 240.613 463.56 241.096 463.56 241.618C463.553 253.686 459.459 284.928 459.413 285.238L459.38 285.555C459.089 288.298 461.073 290.763 463.818 291.054L488.559 293.705C491.297 293.995 493.763 292.013 494.061 289.27L498.585 248.095C498.929 244.902 501.488 241.367 506.197 237.573C510.099 234.434 516.864 229.675 520.733 227.21C527.605 222.834 531.983 213.502 527.406 205.466ZM502.414 204.646C502.579 204.52 502.745 204.527 502.837 204.547C502.923 204.567 503.088 204.62 503.194 204.798C504.801 207.528 507.844 212.498 510.158 215.161C512.546 217.904 516.461 221.202 518.584 222.92C518.776 223.079 518.789 223.29 518.782 223.37C518.776 223.469 518.736 223.647 518.551 223.766L518.518 223.786C514.53 226.331 507.625 231.188 503.631 234.407C497.976 238.967 494.994 243.296 494.531 247.658L492.507 266.111L490.576 268.504C490.536 268.55 490.49 268.576 490.424 268.57C490.364 268.57 490.318 268.537 490.285 268.477L489.002 266.171C488.605 265.45 487.858 264.988 487.064 264.902L485.153 264.723C484.339 264.644 483.532 264.974 483.01 265.609L481.357 267.592C481.317 267.638 481.264 267.658 481.204 267.651C481.152 267.651 481.099 267.618 481.066 267.565L479.743 265.186C479.346 264.466 478.612 264.01 477.805 263.917L475.894 263.739C475.08 263.659 474.274 263.99 473.751 264.624L472.184 266.501C472.104 266.594 471.952 266.58 471.893 266.468L470.762 264.307C470.378 263.567 469.651 263.078 468.824 262.985L466.906 262.78C466.642 262.754 466.377 262.767 466.126 262.82C466.999 254.268 467.495 247.705 467.607 243.29C467.614 243.092 467.726 242.913 467.911 242.827C471.172 241.294 475.808 238.829 479.425 235.808C481.614 233.977 483.142 231.506 483.837 228.65C484.498 225.947 485.265 221.889 485.139 217.924C485.133 217.719 485.239 217.527 485.417 217.428C489.848 215.036 493.433 212.028 497.229 208.856C498.896 207.468 500.615 206.034 502.414 204.646ZM463.46 285.747C463.467 285.721 464.168 280.334 464.995 273.249L466.853 271.022C466.932 270.929 467.085 270.943 467.144 271.055L468.275 273.216C468.659 273.956 469.386 274.445 470.213 274.538L472.131 274.743C472.957 274.829 473.771 274.505 474.307 273.864L475.953 271.888C475.993 271.841 476.046 271.822 476.105 271.828C476.172 271.828 476.211 271.861 476.244 271.914L477.567 274.293C477.957 275.001 478.671 275.47 479.478 275.556C479.492 275.556 479.498 275.556 479.511 275.562L481.423 275.741C482.243 275.82 483.043 275.49 483.565 274.855L485.219 272.872C485.259 272.826 485.311 272.806 485.371 272.813C485.424 272.813 485.477 272.846 485.51 272.899L486.826 275.272C487.216 275.979 487.93 276.448 488.737 276.534C488.757 276.534 488.77 276.541 488.79 276.541L490.708 276.706C490.933 276.726 491.158 276.712 491.369 276.673L490.033 288.834C489.981 289.342 489.524 289.713 489.015 289.653L464.274 287.003C463.765 286.95 463.401 286.494 463.454 285.985L463.46 285.747ZM464.102 265.331C464.247 265.483 464.419 265.609 464.618 265.695C465.253 265.966 465.974 265.787 466.417 265.259L466.516 265.146C466.556 265.1 466.608 265.08 466.668 265.087L468.586 265.292C468.645 265.298 468.698 265.331 468.725 265.384L469.856 267.545C470.239 268.286 470.967 268.775 471.793 268.867C472.62 268.953 473.434 268.629 473.969 267.988L475.537 266.111C475.576 266.065 475.629 266.045 475.689 266.052L477.6 266.23C477.633 266.237 477.706 266.27 477.739 266.316L479.062 268.695C479.458 269.416 480.186 269.878 480.999 269.964C481.819 270.044 482.62 269.713 483.142 269.079L484.796 267.096C484.835 267.05 484.888 267.03 484.948 267.037L486.859 267.215C486.892 267.222 486.965 267.255 486.998 267.308L488.281 269.614C488.678 270.321 489.385 270.791 490.192 270.876C490.212 270.876 490.225 270.883 490.245 270.883C491.072 270.956 491.872 270.612 492.394 269.971L494.114 267.843L493.413 274.241C493.267 274.088 493.089 273.956 492.884 273.87C492.242 273.606 491.515 273.784 491.078 274.326C491.019 274.399 490.966 274.419 490.906 274.412L488.989 274.247C488.929 274.247 488.876 274.207 488.85 274.155L487.534 271.775C487.137 271.055 486.396 270.592 485.596 270.506C484.776 270.427 483.975 270.757 483.453 271.392L481.8 273.375C481.76 273.421 481.707 273.441 481.648 273.434L479.736 273.256C479.657 273.256 479.624 273.216 479.597 273.163L478.275 270.784C477.884 270.077 477.17 269.607 476.363 269.522C476.35 269.522 476.344 269.522 476.33 269.515C475.51 269.436 474.71 269.766 474.188 270.401L472.541 272.377C472.501 272.423 472.448 272.443 472.389 272.436L470.471 272.231C470.411 272.225 470.365 272.192 470.332 272.139L469.201 269.978C468.817 269.237 468.09 268.748 467.263 268.656C466.437 268.57 465.623 268.894 465.087 269.535L463.427 271.524C463.639 269.555 463.87 267.459 464.102 265.331ZM481.443 217.402C482.024 217.157 482.593 216.893 483.149 216.622C482.937 217.038 482.825 217.507 482.838 217.997C482.95 221.698 482.23 225.531 481.601 228.102C481.019 230.468 479.756 232.523 477.951 234.037C474.346 237.051 469.505 239.529 466.933 240.739C466.503 240.944 466.145 241.241 465.874 241.604C465.874 240.944 465.795 240.335 465.689 239.575C465.504 238.188 465.253 236.297 465.312 232.702C465.392 227.838 468.288 223.066 472.686 220.554C475.146 219.147 477.164 218.631 478.784 218.221C479.763 217.97 480.609 217.752 481.443 217.402ZM520.965 224.203C521.038 223.978 521.077 223.747 521.09 223.502C521.143 222.59 520.747 221.704 520.039 221.129C517.975 219.457 514.173 216.258 511.904 213.648C509.709 211.123 506.752 206.285 505.185 203.628C504.768 202.928 504.074 202.432 503.274 202.28C503.194 202.267 503.115 202.253 503.036 202.247C502.917 202.234 502.798 202.24 502.678 202.24C502.758 202.181 502.831 202.121 502.91 202.062C505.747 199.98 509.669 199.035 513.657 199.464C518.769 200.013 523.16 202.683 525.389 206.609C528.96 212.861 526.051 220.105 520.965 224.203Z" fill="#CCBF63"/>
<path opacity="0.33" d="M239.494 363.478C243.066 359.618 244.494 353.874 243.324 348.111C242.411 343.624 239.99 339.671 236.69 337.259C234.19 335.435 231.704 333.855 229.303 332.335C224.409 329.229 219.793 326.294 215.95 321.813C215.474 321.258 215.058 320.591 214.575 319.817C213.616 318.277 212.419 316.361 210.104 314.233C205.785 310.261 199.483 308.747 194.053 310.373C190.442 311.457 188.623 312.309 187.294 312.937C186.62 313.254 186.176 313.466 185.68 313.618C174.166 317.26 143.136 322.818 142.825 322.871L142.514 322.93C139.809 323.479 138.063 326.123 138.612 328.819L143.572 353.187C144.121 355.884 146.767 357.635 149.465 357.086L190.098 348.931C193.246 348.29 197.393 349.658 202.439 352.995C206.619 355.758 213.199 360.761 216.724 363.702C222.994 368.923 233.218 370.265 239.494 363.478ZM232.716 339.42C232.888 339.539 232.927 339.704 232.94 339.79C232.954 339.883 232.947 340.055 232.808 340.207C230.692 342.566 226.869 346.968 225.031 349.982C223.139 353.088 221.175 357.813 220.176 360.358C220.084 360.589 219.885 360.662 219.806 360.682C219.713 360.708 219.528 360.728 219.356 360.583L219.33 360.556C215.692 357.529 208.973 352.42 204.694 349.592C198.636 345.58 193.597 344.06 189.305 344.932L171.091 348.587L168.227 347.47C168.168 347.45 168.135 347.404 168.122 347.345C168.102 347.285 168.122 347.232 168.168 347.186L169.98 345.269C170.542 344.674 170.76 343.822 170.602 343.035L170.198 341.165C170.026 340.365 169.464 339.698 168.71 339.394L166.316 338.416C166.257 338.396 166.223 338.349 166.21 338.29C166.19 338.237 166.21 338.178 166.257 338.131L168.128 336.149C168.69 335.554 168.909 334.714 168.75 333.915L168.346 332.044C168.174 331.245 167.612 330.577 166.858 330.273L164.59 329.348C164.478 329.302 164.444 329.15 164.53 329.064L166.25 327.339C166.839 326.75 167.09 325.911 166.924 325.091L166.541 323.208C166.488 322.95 166.395 322.706 166.27 322.481C174.689 320.723 181.097 319.216 185.343 317.98C185.535 317.927 185.74 317.98 185.879 318.132C188.332 320.769 192.082 324.444 196.057 326.968C198.464 328.502 201.288 329.202 204.218 329.004C207.002 328.819 211.103 328.317 214.839 327.002C215.038 326.935 215.249 326.975 215.395 327.114C219.019 330.604 222.967 333.115 227.147 335.765C228.952 336.928 230.844 338.125 232.716 339.42ZM143.579 326.869C143.605 326.863 148.956 325.911 155.966 324.543L158.651 325.64C158.763 325.686 158.797 325.838 158.711 325.924L156.991 327.649C156.402 328.237 156.151 329.077 156.316 329.896L156.7 331.78C156.865 332.593 157.428 333.274 158.195 333.584L160.576 334.556C160.635 334.576 160.668 334.622 160.681 334.681C160.701 334.741 160.681 334.794 160.635 334.84L158.763 336.823C158.208 337.411 157.976 338.231 158.135 339.024C158.135 339.037 158.142 339.043 158.142 339.057L158.545 340.927C158.717 341.727 159.279 342.394 160.033 342.705L162.427 343.676C162.487 343.696 162.52 343.743 162.533 343.802C162.553 343.855 162.533 343.914 162.487 343.961L160.622 345.937C160.066 346.525 159.828 347.345 159.994 348.138C160 348.157 160 348.171 160.007 348.191L160.43 350.068C160.476 350.286 160.556 350.497 160.662 350.689L148.658 353.095C148.155 353.194 147.666 352.876 147.567 352.374L142.607 328.006C142.507 327.51 142.832 327.021 143.328 326.916L143.579 326.869ZM163.241 321.298C163.142 321.483 163.075 321.681 163.056 321.899C162.989 322.587 163.38 323.221 164.015 323.479L164.153 323.538C164.206 323.558 164.246 323.611 164.259 323.664L164.643 325.548C164.656 325.607 164.636 325.666 164.597 325.706L162.877 327.431C162.288 328.019 162.037 328.859 162.202 329.678C162.368 330.491 162.93 331.172 163.697 331.483L165.966 332.408C166.018 332.428 166.058 332.474 166.071 332.533L166.475 334.41C166.475 334.443 166.468 334.523 166.428 334.569L164.557 336.552C163.995 337.147 163.77 337.979 163.935 338.786C164.107 339.585 164.669 340.253 165.423 340.564L167.817 341.542C167.87 341.562 167.91 341.608 167.923 341.667L168.327 343.544C168.327 343.584 168.32 343.657 168.28 343.703L166.468 345.62C165.913 346.208 165.675 347.027 165.84 347.82C165.846 347.84 165.846 347.853 165.853 347.873C166.032 348.68 166.607 349.341 167.374 349.645L169.92 350.636L163.605 351.905C163.704 351.72 163.776 351.515 163.796 351.29C163.856 350.596 163.459 349.962 162.811 349.711C162.725 349.678 162.685 349.631 162.672 349.572L162.249 347.695C162.236 347.642 162.255 347.576 162.295 347.536L164.16 345.56C164.722 344.965 164.94 344.119 164.782 343.326C164.61 342.526 164.048 341.859 163.294 341.548L160.9 340.57C160.847 340.55 160.807 340.504 160.794 340.445L160.39 338.574C160.364 338.501 160.397 338.455 160.437 338.416L162.308 336.439C162.864 335.851 163.095 335.032 162.937 334.239C162.937 334.225 162.93 334.219 162.93 334.206C162.758 333.406 162.196 332.738 161.442 332.428L159.061 331.456C159.008 331.436 158.968 331.383 158.955 331.331L158.572 329.447C158.558 329.387 158.578 329.328 158.618 329.288L160.337 327.557C160.926 326.968 161.177 326.129 161.012 325.31C160.847 324.497 160.285 323.816 159.517 323.505L157.117 322.527C159.081 322.137 161.138 321.727 163.241 321.298ZM214.198 323.307C214.608 323.789 215.031 324.252 215.461 324.695C214.998 324.622 214.515 324.655 214.052 324.821C210.554 326.05 206.678 326.519 204.039 326.698C201.606 326.863 199.265 326.281 197.274 325.012C193.312 322.494 189.477 318.628 187.545 316.552C187.221 316.202 186.825 315.958 186.401 315.806C187.036 315.601 187.585 315.343 188.279 315.019C189.543 314.424 191.275 313.611 194.721 312.574C199.384 311.179 204.807 312.488 208.543 315.918C210.626 317.835 211.731 319.599 212.611 321.02C213.153 321.879 213.609 322.62 214.198 323.307ZM219.68 363.015C219.912 363.015 220.15 362.988 220.381 362.922C221.268 362.698 221.995 362.05 222.326 361.204C223.298 358.732 225.196 354.145 227.001 351.191C228.741 348.336 232.464 344.053 234.521 341.76C235.063 341.152 235.321 340.339 235.229 339.532C235.222 339.453 235.209 339.374 235.189 339.295C235.163 339.176 235.123 339.07 235.083 338.957C235.163 339.017 235.242 339.07 235.321 339.129C238.165 341.205 240.255 344.648 241.055 348.58C242.08 353.617 240.863 358.607 237.795 361.918C232.914 367.192 225.13 366.61 219.68 363.015Z" fill="#CCBF63"/>
<path opacity="0.33" d="M177.969 4.58665C174.385 8.43319 172.936 14.1766 174.087 19.9397C174.986 24.4274 177.387 28.3929 180.681 30.8184C183.174 32.6492 185.654 34.2354 188.048 35.7687C192.929 38.8882 197.538 41.8425 201.361 46.3368C201.831 46.8919 202.247 47.5594 202.73 48.3393C203.682 49.8859 204.873 51.8025 207.181 53.9373C211.486 57.9226 217.782 59.4559 223.219 57.8499C226.836 56.7792 228.655 55.9267 229.991 55.312C230.665 54.9948 231.115 54.7899 231.605 54.6379C243.132 51.0293 274.182 45.5833 274.493 45.5238L274.804 45.4643C277.509 44.9224 279.268 42.2919 278.726 39.5888L273.852 15.201C273.309 12.4978 270.677 10.7464 267.972 11.2817L227.306 19.3053C224.158 19.9331 220.011 18.5518 214.978 15.201C210.812 12.4251 204.245 7.39555 200.726 4.44125C194.49 -0.799817 184.265 -2.18113 177.969 4.58665ZM184.669 28.6638C184.503 28.5449 184.457 28.3796 184.45 28.2937C184.444 28.2012 184.444 28.0294 184.583 27.8774C186.706 25.5245 190.541 21.136 192.387 18.1288C194.291 15.0291 196.269 10.3102 197.274 7.77227C197.367 7.54095 197.565 7.46825 197.644 7.44842C197.737 7.42199 197.922 7.40877 198.094 7.54756L198.12 7.574C201.745 10.6142 208.451 15.7429 212.716 18.5915C218.761 22.6231 223.794 24.163 228.093 23.3038L246.32 19.7084L249.183 20.832C249.243 20.8518 249.276 20.8981 249.289 20.9576C249.309 21.017 249.289 21.0699 249.243 21.1162L247.424 23.0328C246.855 23.6277 246.637 24.4736 246.796 25.2601L247.193 27.1371C247.365 27.9368 247.92 28.6044 248.681 28.915L251.068 29.8998C251.128 29.9262 251.161 29.9658 251.174 30.0253C251.194 30.0782 251.174 30.1377 251.128 30.1839L249.249 32.1601C248.681 32.7549 248.462 33.5943 248.621 34.3874L249.018 36.2644C249.19 37.0641 249.745 37.7316 250.506 38.0422L252.768 38.9741C252.88 39.0204 252.913 39.1724 252.827 39.2583L251.101 40.9767C250.513 41.5649 250.255 42.4043 250.42 43.2238L250.797 45.1141C250.85 45.3718 250.942 45.623 251.068 45.8477C242.643 47.5727 236.227 49.0663 231.982 50.2824C231.79 50.3353 231.585 50.2824 231.446 50.1304C229.005 47.4867 225.262 43.7988 221.294 41.2543C218.887 39.7144 216.069 39.0006 213.14 39.1856C210.355 39.3641 206.255 39.8532 202.512 41.1552C202.313 41.2213 202.102 41.1816 201.956 41.0362C198.345 37.5333 194.404 35.0086 190.237 32.3451C188.418 31.1753 186.534 29.9658 184.669 28.6638ZM273.759 41.5187C273.733 41.5253 268.376 42.4638 261.365 43.7988L258.68 42.6951C258.568 42.6488 258.535 42.4968 258.621 42.4109L260.347 40.6859C260.935 40.0977 261.193 39.2583 261.028 38.4388L260.651 36.5486C260.486 35.7356 259.93 35.0549 259.163 34.7377L256.782 33.7595C256.723 33.7331 256.69 33.6934 256.676 33.6339C256.656 33.5745 256.676 33.5216 256.723 33.4753L258.601 31.4992C259.156 30.911 259.394 30.0914 259.236 29.2983C259.236 29.2851 259.229 29.2785 259.229 29.2653L258.832 27.3883C258.66 26.5886 258.105 25.921 257.351 25.6104L254.963 24.6256C254.904 24.5992 254.871 24.5596 254.858 24.5001C254.838 24.4472 254.858 24.3877 254.904 24.3414L256.776 22.3719C257.338 21.7837 257.569 20.9642 257.41 20.1711C257.404 20.1512 257.404 20.138 257.397 20.1182L256.981 18.2412C256.934 18.0231 256.855 17.8116 256.749 17.6199L268.759 15.2538C269.262 15.1547 269.751 15.4786 269.85 15.9742L274.725 40.3555C274.824 40.8578 274.5 41.3402 273.997 41.4394L273.759 41.5187ZM254.077 47.0241C254.176 46.8391 254.249 46.6408 254.269 46.4227C254.335 45.7353 253.952 45.1008 253.317 44.8365L253.178 44.777C253.125 44.7572 253.085 44.7043 253.072 44.6514L252.695 42.7612C252.682 42.7017 252.702 42.6422 252.741 42.6026L254.467 40.8776C255.056 40.2894 255.314 39.45 255.149 38.6305C254.983 37.8109 254.428 37.1368 253.661 36.8196L251.399 35.8877C251.346 35.8678 251.306 35.8216 251.293 35.7621L250.896 33.8851C250.896 33.852 250.903 33.7727 250.942 33.7265L252.821 31.7503C253.389 31.1555 253.614 30.3227 253.449 29.523C253.277 28.7233 252.721 28.0558 251.961 27.7452L249.573 26.7604C249.521 26.7406 249.481 26.6943 249.468 26.6348L249.071 24.7578C249.071 24.7182 249.077 24.6455 249.117 24.5992L250.936 22.6825C251.498 22.0943 251.729 21.2748 251.571 20.4817C251.564 20.4619 251.564 20.4487 251.557 20.4288C251.379 19.6225 250.81 18.955 250.043 18.651L247.497 17.653L253.819 16.4038C253.714 16.5889 253.647 16.7938 253.628 17.0185C253.568 17.7125 253.958 18.3469 254.606 18.6047C254.692 18.6377 254.732 18.684 254.745 18.7435L255.162 20.6205C255.175 20.6734 255.155 20.7395 255.116 20.7791L253.244 22.7486C252.675 23.3435 252.457 24.1894 252.616 24.9759C252.788 25.7756 253.343 26.4432 254.104 26.7538L256.491 27.7386C256.544 27.7584 256.584 27.8047 256.597 27.8641L256.994 29.7411C257.02 29.8138 256.987 29.8601 256.947 29.8998L255.069 31.8759C254.514 32.4641 254.276 33.2837 254.434 34.0768C254.434 34.09 254.441 34.0966 254.441 34.1098C254.613 34.9095 255.168 35.577 255.929 35.8877L258.31 36.8658C258.363 36.8856 258.402 36.9385 258.416 36.9914L258.793 38.8816C258.806 38.9411 258.786 39.0006 258.746 39.0402L257.02 40.7652C256.432 41.3534 256.174 42.1928 256.339 43.0123C256.504 43.8319 257.06 44.506 257.834 44.8233L260.228 45.808C258.244 46.198 256.18 46.6011 254.077 47.0241ZM203.127 44.8431C202.717 44.3606 202.294 43.898 201.87 43.4485C202.333 43.5212 202.816 43.4948 203.279 43.3296C206.778 42.1135 210.66 41.6575 213.298 41.4856C215.732 41.327 218.067 41.9218 220.057 43.1908C224.012 45.7221 227.828 49.6017 229.753 51.6836C230.077 52.0339 230.467 52.2784 230.897 52.4304C230.262 52.6287 229.713 52.8864 229.019 53.2103C227.749 53.7985 226.016 54.6114 222.571 55.6292C217.901 57.0106 212.485 55.6755 208.762 52.2387C206.685 50.3155 205.587 48.5442 204.707 47.1232C204.172 46.2707 203.715 45.5304 203.127 44.8431ZM197.783 5.122C197.552 5.122 197.314 5.14843 197.076 5.20791C196.189 5.43263 195.462 6.07372 195.125 6.91969C194.146 9.38491 192.228 13.9717 190.416 16.9194C188.663 19.7679 184.933 24.0374 182.863 26.3242C182.314 26.9322 182.056 27.7386 182.149 28.5515C182.155 28.6308 182.169 28.7101 182.189 28.7894C182.215 28.9084 182.255 29.0141 182.288 29.1265C182.208 29.067 182.129 29.0141 182.05 28.9546C179.212 26.8728 177.136 23.4162 176.349 19.4837C175.344 14.4409 176.58 9.46422 179.656 6.15303C184.563 0.892129 192.347 1.50017 197.783 5.122Z" fill="#CCBF63"/>
<path opacity="0.33" d="M147.779 119.024C141.449 108.886 131.298 102.409 120.63 101.702C101.874 100.459 88.6671 116.731 86.7294 133.175C85.6382 142.441 82.9266 159.023 80.6317 168.93C77.8607 180.893 73.6479 188.711 68.1058 192.161L0 234.857V261.3L20.2638 293.764C23.2266 298.509 29.5028 299.963 34.2579 297.003L34.8068 296.659C35.3425 296.302 88.8986 261.154 110.994 250.448C111.94 249.992 112.886 249.674 114.328 249.205C117.165 248.273 121.047 246.991 127.892 243.541C138.176 238.359 145.351 227.322 146.172 215.432C146.615 209.054 145.695 204.567 144.955 200.951C144.584 199.134 144.26 197.568 144.187 196.087C143.579 184.105 146.297 173.325 149.167 161.905C150.576 156.3 152.038 150.504 153.175 144.318C154.676 136.135 152.706 126.922 147.779 119.024ZM54.2637 270.473L51.83 275.84C39.5818 283.619 30.3493 289.68 30.303 289.713L29.8666 289.984C28.987 290.532 27.8296 290.261 27.2807 289.382L0.522466 246.502C-0.026454 245.623 0.244699 244.466 1.12429 243.911L22.2015 230.699C22.3206 231.129 22.4991 231.545 22.7306 231.942L24.7279 235.299C24.7477 235.332 24.7609 235.359 24.7808 235.385C25.6538 236.78 27.1418 237.665 28.7885 237.751L34.3042 238.055C34.4299 238.062 34.5423 238.121 34.5886 238.227C34.6547 238.333 34.6613 238.445 34.6084 238.558L32.4458 243.336C31.758 244.856 31.8638 246.614 32.7302 248.035L34.7539 251.366C34.7672 251.386 34.7738 251.406 34.787 251.419C35.6534 252.814 37.148 253.699 38.7948 253.792L44.3237 254.096C44.4493 254.102 44.5485 254.149 44.608 254.268C44.6742 254.373 44.6808 254.486 44.6279 254.598L42.4719 259.357C41.7775 260.897 41.8899 262.674 42.7893 264.109L44.8593 267.426C45.7588 268.861 47.2997 269.753 48.9928 269.799L53.9463 269.951C54.2042 269.978 54.3696 270.242 54.2637 270.473ZM56.3734 277.201L58.5427 272.403C59.2437 270.863 59.1247 269.085 58.2252 267.645C57.3258 266.21 55.7848 265.318 54.0918 265.272L49.1383 265.12C49.0192 265.113 48.9134 265.054 48.8473 264.955L46.7773 261.637C46.7111 261.538 46.7045 261.412 46.7574 261.3L48.9134 256.541C49.6012 255.021 49.4954 253.263 48.629 251.842C48.6158 251.822 48.6092 251.809 48.596 251.789C47.723 250.395 46.235 249.509 44.5882 249.423L39.0593 249.119C38.9403 249.112 38.8411 249.093 38.7749 248.947L36.7512 245.616C36.6917 245.517 36.6851 245.392 36.7314 245.286L38.894 240.507C39.5818 238.987 39.476 237.229 38.6096 235.808C37.7432 234.42 36.2353 233.475 34.5687 233.383L29.0531 233.079C28.934 233.072 28.8216 233.013 28.7687 232.907L26.7714 229.549C26.7119 229.45 26.7053 229.325 26.7847 229.159C27.3865 227.877 27.0823 226.39 26.0241 225.452C25.6802 225.148 25.29 224.943 24.88 224.811L35.9708 217.858L33.6032 222.881C32.8823 224.401 32.9683 226.172 33.8346 227.619C33.8545 227.646 33.8677 227.679 33.8876 227.712C34.7605 229.107 36.2486 229.992 37.8953 230.078L43.2589 230.376C43.3779 230.382 43.497 230.488 43.5433 230.547L45.567 233.878C45.6265 233.978 45.6331 234.103 45.5868 234.209L43.4242 238.987C42.7364 240.507 42.8422 242.265 43.7086 243.686C44.5948 245.101 46.0828 246.019 47.7494 246.112L53.2783 246.423C53.3974 246.429 53.5164 246.535 53.5627 246.594L55.5864 249.925C55.646 250.025 55.6526 250.15 55.6063 250.256L53.5561 254.79C52.8551 256.33 52.9741 258.108 53.8735 259.542C54.773 260.976 56.3139 261.868 58.007 261.914L62.9605 262.066C63.0795 262.066 63.192 262.133 63.2515 262.232L65.3215 265.549C65.3876 265.649 65.3943 265.774 65.3413 265.887L65.2157 266.164C64.6403 267.44 64.9578 268.914 66.0093 269.839C66.3466 270.136 66.7302 270.335 67.1336 270.467C63.4168 272.767 59.7926 275.04 56.3734 277.201ZM141.483 215.095C140.775 225.372 134.604 234.89 125.769 239.338C119.235 242.629 115.544 243.845 112.846 244.737C111.365 245.226 110.187 245.616 108.971 246.198C109.394 245.378 109.632 244.46 109.619 243.501C109.559 237.738 109.81 226.681 112.132 217.428C113.296 212.782 115.935 208.658 119.757 205.499C123.897 202.075 130.279 197.35 137.157 194.283C138.07 193.873 138.824 193.252 139.406 192.498C139.406 193.754 139.426 195.023 139.492 196.312C139.584 198.149 139.942 199.874 140.352 201.883C141.033 205.214 141.879 209.358 141.483 215.095ZM144.273 146.664C143.328 151.184 142.217 155.599 141.145 159.862C138.692 169.617 136.37 178.831 135.907 189.048C135.888 189.458 135.636 189.822 135.253 189.994C127.892 193.278 121.146 198.268 116.775 201.877C112.178 205.677 108.997 210.66 107.588 216.285C105.26 225.564 104.857 236.231 104.93 243.548C104.936 243.957 104.711 244.327 104.348 244.519C96.3653 248.623 84.7916 255.352 69.9113 264.518C69.7856 264.01 69.5806 263.52 69.2962 263.064L67.2262 259.747C66.3334 258.312 64.7858 257.427 63.0928 257.374L58.1393 257.222C57.8879 257.215 57.7226 256.951 57.8284 256.72L59.8786 252.186C60.5664 250.666 60.4606 248.908 59.5942 247.487L57.5705 244.156C56.6909 242.761 55.1962 241.823 53.5296 241.73L48.0008 241.426C47.8751 241.419 47.7627 241.36 47.7164 241.254C47.6502 241.148 47.6436 241.036 47.6965 240.924L49.8592 236.145C50.547 234.625 50.4411 232.867 49.5748 231.446L47.551 228.115C46.6847 226.734 45.1768 225.782 43.5102 225.69L38.1466 225.392C38.021 225.386 37.9152 225.333 37.8623 225.22C37.7961 225.115 37.7895 225.002 37.849 224.89L40.5143 219.239L72.4972 199.187C80.063 194.475 85.3538 185.189 88.6936 170.807C91.048 160.655 93.8191 143.729 94.95 134.179L94.9566 134.106C95.0095 133.657 95.3071 133.432 95.4857 133.333C95.6378 133.247 96.0346 133.082 96.4909 133.3C101.517 135.653 111.021 139.889 118.163 141.826C125.088 143.703 136.886 144.86 143.308 145.388C143.731 145.421 143.982 145.672 144.088 145.824C144.194 145.957 144.359 146.254 144.273 146.664ZM148.552 143.458C148.519 143.657 148.473 143.848 148.433 144.04C148.334 143.822 148.242 143.604 148.109 143.399C148.023 143.26 147.931 143.128 147.838 142.996C146.846 141.667 145.325 140.828 143.678 140.696C137.422 140.187 125.947 139.057 119.387 137.285C112.588 135.441 103.369 131.324 98.4816 129.037C96.8018 128.251 94.8309 128.323 93.204 129.222C92.7741 129.46 92.3839 129.751 92.04 130.075C95.0426 117.147 105.717 105.416 120.319 106.388C129.486 106.996 138.262 112.653 143.797 121.516C148.109 128.429 149.842 136.426 148.552 143.458Z" fill="#CCBF63"/>
<path opacity="0.33" d="M452.885 1.11695C457.204 8.03675 458.937 16.0338 457.647 23.066C457.614 23.2643 457.568 23.4559 457.528 23.6476C457.429 23.4295 457.336 23.2114 457.204 23.0065C457.118 22.8677 457.026 22.7355 456.933 22.6034C455.941 21.2749 454.42 20.4355 452.773 20.3034C446.517 19.7945 435.042 18.6709 428.482 16.893C421.683 15.0491 412.464 10.9316 407.576 8.64479C405.897 7.8583 403.926 7.931 402.299 8.82985C401.869 9.06778 401.479 9.35858 401.135 9.68243C401.895 6.41089 403.152 3.21206 404.832 0.277588H399.534C397.603 4.22987 396.327 8.49939 395.824 12.7821C394.733 22.0482 392.021 38.6306 389.727 48.5377C386.956 60.5003 382.743 68.319 377.201 71.7689L305.834 116.506C301.086 119.467 299.631 125.739 302.594 130.491L329.359 173.372C332.321 178.117 338.598 179.571 343.353 176.61L343.902 176.266C344.437 175.91 397.993 140.762 420.089 130.055C421.035 129.599 421.981 129.282 423.422 128.813C426.26 127.881 430.142 126.599 436.987 123.149C447.271 117.967 454.446 106.93 455.266 95.0398C455.709 88.662 454.79 84.1743 454.049 80.5591C453.679 78.7416 453.355 77.1752 453.282 75.6948C452.674 63.7124 455.392 52.9328 458.262 41.5122C459.671 35.9076 461.133 30.1114 462.27 23.9252C463.665 16.318 462.052 7.80543 457.846 0.290806H452.337C452.515 0.555173 452.707 0.832758 452.885 1.11695ZM363.359 150.081L360.925 155.448C348.677 163.227 339.444 169.287 339.398 169.32L338.961 169.591C338.082 170.14 336.924 169.869 336.376 168.99L309.611 126.11C309.062 125.23 309.333 124.074 310.213 123.519L331.29 110.307C331.409 110.737 331.587 111.153 331.819 111.55L333.816 114.907C333.836 114.94 333.849 114.966 333.869 114.993C334.742 116.387 336.23 117.273 337.877 117.359L343.392 117.663C343.518 117.67 343.63 117.729 343.677 117.835C343.743 117.941 343.75 118.053 343.697 118.165L341.534 122.944C340.846 124.464 340.952 126.222 341.818 127.643L343.842 130.974C343.855 130.994 343.862 131.014 343.875 131.027C344.742 132.421 346.236 133.307 347.883 133.393L353.412 133.697C353.538 133.703 353.637 133.75 353.696 133.869C353.762 133.974 353.769 134.087 353.716 134.199L351.56 138.958C350.866 140.498 350.978 142.276 351.878 143.71L353.948 147.028C354.847 148.462 356.388 149.354 358.081 149.4L363.035 149.552C363.299 149.585 363.464 149.85 363.359 150.081ZM365.468 156.816L367.638 152.017C368.339 150.477 368.219 148.7 367.32 147.259C366.421 145.825 364.88 144.932 363.187 144.886L358.233 144.734C358.114 144.728 358.008 144.668 357.942 144.569L355.872 141.251C355.806 141.152 355.799 141.026 355.852 140.914L358.008 136.155C358.696 134.635 358.59 132.877 357.724 131.456C357.711 131.436 357.704 131.423 357.691 131.403C356.818 130.009 355.33 129.123 353.683 129.037L348.154 128.733C348.035 128.727 347.936 128.707 347.87 128.562L345.846 125.23C345.787 125.131 345.78 125.006 345.826 124.9L347.989 120.122C348.677 118.601 348.571 116.843 347.704 115.422C346.838 114.035 345.33 113.089 343.664 112.997L338.148 112.693C338.029 112.686 337.916 112.627 337.864 112.521L335.866 109.164C335.807 109.064 335.8 108.939 335.879 108.774C336.481 107.491 336.177 106.004 335.119 105.066C334.775 104.762 334.385 104.557 333.975 104.425L345.066 97.472L342.698 102.495C341.977 104.015 342.063 105.786 342.93 107.234C342.949 107.26 342.963 107.293 342.982 107.32C343.855 108.714 345.343 109.6 346.99 109.686L352.354 109.983C352.473 109.99 352.592 110.095 352.638 110.155L354.662 113.486C354.721 113.585 354.728 113.711 354.682 113.816L352.519 118.595C351.831 120.115 351.937 121.873 352.803 123.294C353.69 124.708 355.178 125.627 356.844 125.72L362.373 126.024C362.492 126.03 362.611 126.136 362.658 126.195L364.681 129.526C364.741 129.626 364.747 129.751 364.701 129.857L362.651 134.391C361.95 135.931 362.069 137.709 362.968 139.143C363.868 140.577 365.409 141.469 367.102 141.515L372.055 141.667C372.174 141.667 372.287 141.734 372.346 141.833L374.416 145.151C374.482 145.25 374.489 145.375 374.436 145.488L374.311 145.765C373.735 147.041 374.053 148.515 375.104 149.44C375.441 149.737 375.825 149.936 376.228 150.068C372.505 152.374 368.887 154.648 365.468 156.816ZM450.577 94.7027C449.87 104.98 443.699 114.497 434.864 118.945C428.33 122.237 424.639 123.453 421.941 124.345C420.46 124.834 419.282 125.224 418.065 125.805C418.489 124.986 418.727 124.067 418.714 123.109C418.654 117.346 418.905 106.289 421.227 97.0358C422.391 92.3895 425.029 88.2654 428.852 85.1062C432.992 81.6827 439.374 76.9571 446.252 73.8905C447.165 73.4873 447.919 72.8595 448.501 72.106C448.501 73.3617 448.521 74.6307 448.587 75.9195C448.679 77.7568 449.036 79.4818 449.447 81.491C450.128 84.822 450.974 88.966 450.577 94.7027ZM453.368 26.2714C452.423 30.7921 451.311 35.207 450.24 39.4699C447.786 49.2251 445.465 58.4383 445.002 68.656C444.982 69.0658 444.731 69.4293 444.347 69.6011C436.987 72.8859 430.241 77.8758 425.869 81.4844C421.273 85.2847 418.092 90.268 416.683 95.8924C414.355 105.172 413.952 115.839 414.025 123.155C414.031 123.565 413.806 123.935 413.443 124.127C405.46 128.231 393.887 134.959 379.006 144.126C378.88 143.617 378.675 143.128 378.391 142.672L376.321 139.354C375.428 137.92 373.881 137.034 372.188 136.982L367.234 136.83C366.983 136.823 366.817 136.559 366.923 136.327L368.973 131.793C369.661 130.273 369.555 128.515 368.689 127.094L366.665 123.763C365.786 122.369 364.291 121.43 362.624 121.338L357.096 121.034C356.97 121.027 356.858 120.968 356.811 120.862C356.745 120.756 356.738 120.644 356.791 120.531L358.954 115.753C359.642 114.233 359.536 112.475 358.67 111.054L356.646 107.723C355.78 106.341 354.272 105.39 352.605 105.297L347.241 105C347.116 104.993 347.01 104.94 346.957 104.828C346.891 104.722 346.884 104.61 346.944 104.498L349.609 98.8467L381.592 78.7945C389.158 74.0821 394.449 64.7963 397.788 50.4147C400.143 40.263 402.914 23.337 404.045 13.7867L404.051 13.714C404.104 13.2646 404.402 13.0399 404.581 12.9408C404.733 12.8548 405.129 12.6896 405.586 12.9077C410.612 15.2606 420.116 19.497 427.258 21.4335C434.183 23.3105 445.981 24.4671 452.403 24.9959C452.826 25.0289 453.077 25.2801 453.183 25.4321C453.289 25.5643 453.454 25.8683 453.368 26.2714Z" fill="#CCBF63"/>
<path opacity="0.33" d="M403.403 303.632C397.074 293.493 386.922 287.016 376.255 286.309C357.499 285.067 344.292 301.338 342.354 317.782C341.263 327.048 338.551 343.63 336.256 353.537C333.485 365.5 329.273 373.319 323.73 376.769L323.367 377H335.331C339.199 371.825 342.169 364.681 344.318 355.401C346.673 345.25 349.444 328.324 350.575 318.773L350.581 318.701C350.634 318.251 350.932 318.026 351.11 317.927C351.262 317.841 351.659 317.676 352.116 317.894C357.142 320.247 366.645 324.484 373.788 326.42C380.712 328.297 392.511 329.454 398.933 329.982C399.356 330.015 399.607 330.267 399.713 330.419C399.825 330.564 399.991 330.868 399.905 331.278C398.959 335.798 397.848 340.213 396.777 344.476C394.323 354.231 392.002 363.445 391.539 373.662C391.519 374.072 391.267 374.436 390.884 374.607C389.257 375.335 387.663 376.147 386.116 377.007H399.746C399.786 366.472 402.226 356.743 404.805 346.505C406.214 340.901 407.676 335.105 408.813 328.918C410.301 320.743 408.337 311.53 403.403 303.632ZM404.184 328.066C404.151 328.264 404.104 328.456 404.065 328.647C403.965 328.429 403.873 328.211 403.741 328.006C403.655 327.868 403.562 327.735 403.469 327.603C402.477 326.275 400.956 325.435 399.31 325.303C393.053 324.794 381.579 323.671 375.018 321.893C368.219 320.049 359 315.931 354.113 313.645C352.433 312.858 350.462 312.931 348.835 313.83C348.405 314.068 348.015 314.358 347.671 314.682C350.674 301.755 361.348 290.023 375.951 290.995C385.117 291.603 393.893 297.26 399.429 306.123C403.741 313.037 405.473 321.034 404.184 328.066Z" fill="#CCBF63"/>
</g>
<path opacity="0.7" d="M539 0.277588H0V377H539V0.277588Z" fill="#4C5192"/>
</svg>
