<svg width="130" height="120" viewBox="0 0 130 120" fill="none" xmlns="http://www.w3.org/2000/svg">
<g opacity="0.43">
<path opacity="0.43" d="M0.384192 55.7388C0.847137 59.777 1.64737 63.716 2.84441 67.5031C4.04146 71.2835 5.59563 74.9186 7.4937 78.3223C11.2766 85.1495 16.369 91.111 22.3212 95.9423L23.4322 96.8478C23.8092 97.1452 24.1994 97.4162 24.583 97.707L25.7403 98.5595C26.1305 98.8371 26.534 99.0949 26.9308 99.3593L28.1212 100.159C28.5246 100.417 28.9347 100.661 29.3381 100.912L30.555 101.659C30.9716 101.897 31.3883 102.122 31.8049 102.353C35.1514 104.184 38.63 105.757 42.2344 106.986C49.4233 109.478 57.0222 110.694 64.6277 110.714L67.4781 110.654C68.4305 110.615 69.3762 110.529 70.3219 110.476C70.7981 110.456 71.2676 110.39 71.7372 110.344L73.1525 110.185L73.8601 110.106L74.5612 109.993L75.9699 109.775C79.7197 109.174 83.4167 108.216 87.0078 106.98C90.6121 105.75 94.0908 104.177 97.4307 102.347C97.8473 102.115 98.2706 101.891 98.6806 101.653L99.8975 100.906C100.301 100.655 100.718 100.41 101.114 100.152L102.298 99.3526C102.695 99.0883 103.098 98.8305 103.489 98.5529L104.646 97.7004C105.03 97.4162 105.42 97.1386 105.797 96.8412L106.908 95.9357C112.853 91.1044 117.946 85.1429 121.735 78.3223C123.633 74.9119 125.194 71.2835 126.385 67.5031C127.575 63.716 128.382 59.777 128.851 55.7388C129.784 63.8218 128.534 72.2683 125.445 80.0605C122.357 87.8659 117.417 94.984 111.253 100.84L110.089 101.93C109.699 102.287 109.282 102.624 108.885 102.974L107.668 104.012C107.258 104.349 106.828 104.666 106.412 104.997L105.142 105.968C104.712 106.279 104.269 106.576 103.833 106.887L102.516 107.799C102.067 108.09 101.617 108.368 101.161 108.652C97.5563 110.939 93.7006 112.829 89.7127 114.382C85.7247 115.928 81.5781 117.065 77.3719 117.858C75.2688 118.248 73.1393 118.519 71.0097 118.731C69.945 118.803 68.8736 118.896 67.8088 118.949L64.6012 119.028C60.3223 119.015 56.0434 118.632 51.8306 117.852C50.7724 117.686 49.7341 117.415 48.6892 117.191C47.6376 116.973 46.6125 116.675 45.5808 116.391L44.8071 116.18C44.5491 116.113 44.2912 116.041 44.0399 115.948L42.5122 115.453C42.0029 115.281 41.4937 115.135 40.9911 114.937L39.4898 114.362C35.5019 112.809 31.6528 110.919 28.0418 108.632C27.5921 108.348 27.1358 108.07 26.6861 107.779L25.37 106.867C24.9335 106.563 24.4904 106.266 24.0605 105.949L22.7907 104.97C22.3741 104.64 21.9442 104.323 21.5342 103.986L20.3173 102.948C19.9139 102.598 19.5038 102.261 19.1136 101.904L17.9496 100.813C11.7925 94.9575 6.8522 87.8395 3.75708 80.034C0.708258 72.2683 -0.541697 63.8218 0.384192 55.7388Z" fill="#72635B"/>
<path opacity="0.43" d="M27.4136 68.3622C25.6808 66.4191 24.2192 64.1919 23.0553 61.7927C21.8847 59.3936 21.0249 56.816 20.4628 54.1525C19.3451 48.8189 19.5303 43.1681 20.8464 37.775C22.1691 32.3753 24.6425 27.24 28.0022 22.759C31.3552 18.2714 35.6011 14.4447 40.376 11.5102C45.1576 8.58893 50.4947 6.5401 56.0236 5.58838C61.5458 4.63005 67.2466 4.74901 72.6631 6.02457C78.0663 7.30014 83.1918 9.69928 87.4442 13.1162C89.5672 14.8214 91.4719 16.7645 93.0789 18.8926C94.6926 21.0208 96.0153 23.334 96.9544 25.7595C95.2151 23.8165 93.3765 22.0518 91.4123 20.5119C89.4415 18.9719 87.3649 17.6369 85.1957 16.5332C80.8638 14.3191 76.2145 12.9708 71.5255 12.4817C66.8366 11.9794 62.108 12.2835 57.5777 13.3409C53.0409 14.3918 48.709 16.1895 44.7343 18.6084C40.7728 21.0472 37.2015 24.0874 34.199 27.6498C31.2031 31.2055 28.7759 35.2767 27.1027 39.6851C25.4163 44.0868 24.5103 48.8388 24.5169 53.7031C24.5169 56.1353 24.7682 58.5939 25.2443 61.0459C25.7271 63.4979 26.4678 65.9367 27.4136 68.3622Z" fill="#72635B"/>
<path opacity="0.43" d="M52.4922 37.8544C52.684 36.6846 53.1139 35.5544 53.7091 34.4903C54.3043 33.4262 55.0715 32.4349 55.9775 31.5492C57.783 29.7846 60.1043 28.476 62.6174 27.7556C65.1306 27.0286 67.8355 26.8832 70.461 27.2995C73.0866 27.7093 75.6328 28.6809 77.8748 30.0952C80.1167 31.5096 82.0942 33.3866 83.5954 35.5808C85.0967 37.7685 86.135 40.2733 86.5583 42.8575C86.9948 45.4351 86.8096 48.0986 85.9829 50.4845C85.5729 51.6808 85.0041 52.7977 84.2965 53.7957C83.5888 54.7871 82.7555 55.6661 81.7767 56.3336C82.6034 51.7138 81.8362 47.8937 80.2556 44.6883C78.6684 41.4894 76.2942 38.9647 73.4239 37.134C70.547 35.3231 67.2403 34.2656 63.6624 34.2061C60.0911 34.1599 56.3016 35.1182 52.4922 37.8544Z" fill="#72635B"/>
</g>
<path d="M0.384192 51.1917C0.847137 55.2299 1.64737 59.1689 2.84441 62.956C4.04146 66.7364 5.59563 70.3714 7.4937 73.7752C11.2766 80.6024 16.369 86.5639 22.3212 91.3952L23.4322 92.3006C23.8092 92.5981 24.1994 92.869 24.583 93.1598L25.7403 94.0124C26.1305 94.29 26.534 94.5478 26.9308 94.8121L28.1212 95.6118C28.5246 95.8696 28.9347 96.1142 29.3381 96.3653L30.555 97.1121C30.9716 97.35 31.3883 97.5748 31.8049 97.8061C35.1514 99.6368 38.63 101.21 42.2344 102.439C49.4233 104.931 57.0222 106.147 64.6277 106.167L67.4781 106.107C68.4305 106.068 69.3762 105.982 70.3219 105.929C70.7981 105.909 71.2676 105.843 71.7372 105.797L73.1525 105.638L73.8601 105.559L74.5612 105.446L75.9699 105.228C79.7197 104.627 83.4167 103.668 87.0078 102.433C90.6121 101.203 94.0908 99.6302 97.4307 97.7995C97.8473 97.5682 98.2706 97.3435 98.6806 97.1055L99.8975 96.3587C100.301 96.1075 100.718 95.863 101.114 95.6052L102.298 94.8055C102.695 94.5412 103.098 94.2834 103.489 94.0058L104.646 93.1532C105.03 92.869 105.42 92.5915 105.797 92.294L106.908 91.3886C112.853 86.5573 117.946 80.5958 121.735 73.7752C123.633 70.3648 125.194 66.7364 126.385 62.956C127.575 59.1689 128.382 55.2299 128.851 51.1917C129.784 59.2747 128.534 67.7212 125.445 75.5134C122.357 83.3188 117.417 90.4369 111.253 96.2926L110.089 97.3831C109.699 97.74 109.282 98.0771 108.885 98.4274L107.668 99.465C107.258 99.8021 106.828 100.119 106.412 100.45L105.142 101.421C104.712 101.732 104.269 102.029 103.833 102.34L102.516 103.252C102.067 103.543 101.617 103.82 101.161 104.105C97.5563 106.391 93.7006 108.282 89.7127 109.835C85.7247 111.381 81.5781 112.518 77.3719 113.311C75.2688 113.701 73.1393 113.972 71.0097 114.184C69.945 114.256 68.8736 114.349 67.8088 114.402L64.6012 114.481C60.3223 114.468 56.0434 114.084 51.8306 113.305C50.7724 113.139 49.7341 112.868 48.6892 112.644C47.6376 112.426 46.6125 112.128 45.5808 111.844L44.8071 111.632C44.5491 111.566 44.2912 111.494 44.0399 111.401L42.5122 110.905C42.0029 110.734 41.4937 110.588 40.9911 110.39L39.4898 109.815C35.5019 108.262 31.6528 106.372 28.0418 104.085C27.5921 103.801 27.1358 103.523 26.6861 103.232L25.37 102.32C24.9335 102.016 24.4904 101.719 24.0605 101.401L22.7907 100.423C22.3741 100.093 21.9442 99.7756 21.5342 99.4386L20.3173 98.4009C19.9139 98.0506 19.5038 97.7136 19.1136 97.3567L17.9496 96.2661C11.7925 90.4104 6.8522 83.2924 3.75708 75.4869C0.708258 67.7212 -0.541697 59.2747 0.384192 51.1917Z" fill="#4E7FC0"/>
<path d="M27.4136 63.8151C25.6808 61.872 24.2192 59.6447 23.0553 57.2456C21.8847 54.8465 21.0249 52.2689 20.4628 49.6054C19.3451 44.2718 19.5303 38.621 20.8464 33.2279C22.1691 27.8282 24.6425 22.6929 28.0022 18.2119C31.3552 13.7242 35.6011 9.89753 40.376 6.96306C45.1576 4.04181 50.4947 1.99297 56.0236 1.04125C61.5458 0.0829244 67.2466 0.201892 72.6631 1.47746C78.0663 2.75303 83.1918 5.15216 87.4442 8.56909C89.5672 10.2743 91.4719 12.2174 93.0789 14.3455C94.6926 16.4737 96.0153 18.7869 96.9544 21.2124C95.2151 19.2693 93.3765 17.5047 91.4123 15.9648C89.4415 14.4248 87.3649 13.0898 85.1957 11.986C80.8638 9.77196 76.2145 8.42369 71.5255 7.93461C66.8366 7.43231 62.108 7.73634 57.5777 8.7938C53.0409 9.84466 48.709 11.6424 44.7343 14.0613C40.7728 16.5001 37.2015 19.5403 34.199 23.1027C31.2031 26.6584 28.7759 30.7296 27.1027 35.1379C25.4163 39.5397 24.5103 44.2916 24.5169 49.156C24.5169 51.5882 24.7682 54.0468 25.2443 56.4988C25.7271 58.9508 26.4678 61.3896 27.4136 63.8151Z" fill="#4798BC"/>
<path d="M52.4917 33.3073C52.6835 32.1374 53.1134 31.0073 53.7086 29.9432C54.3038 28.8791 55.071 27.8878 55.977 27.0021C57.7825 25.2375 60.1038 23.9289 62.617 23.2085C65.1301 22.4814 67.835 22.3361 70.4605 22.7524C73.0861 23.1622 75.6323 24.1337 77.8743 25.5481C80.1163 26.9625 82.0937 28.8395 83.5949 31.0337C85.0962 33.2214 86.1345 35.7262 86.5578 38.3104C86.9943 40.888 86.8091 43.5515 85.9824 45.9374C85.5724 47.1336 85.0036 48.2506 84.296 49.2486C83.5884 50.24 82.755 51.119 81.7762 51.7865C82.6029 47.1667 81.8357 43.3466 80.2551 40.1411C78.6679 36.9423 76.2937 34.4176 73.4234 32.5869C70.5465 30.776 67.2398 29.7185 63.6619 29.659C60.0906 29.6127 56.3011 30.5711 52.4917 33.3073Z" fill="#6DC6D3"/>
</svg>
