<svg width="102" height="108" viewBox="0 0 102 108" fill="none" xmlns="http://www.w3.org/2000/svg">
<path d="M57.1935 18.3513L18.3408 34.9114L41.5328 89.2525L80.3856 72.6925L57.1935 18.3513Z" fill="#6E8083"/>
<path d="M44.5233 49.6737L48.5245 48.1404C48.5245 48.1404 50.2969 54.7694 49.1065 56.8645C47.916 58.9596 47.8102 63.6389 40.2179 66.005C32.6256 68.3711 32.9828 69.1972 32.9828 69.1972L27.4473 56.2168L44.5233 49.6737Z" fill="#827668"/>
<path d="M49.4903 43.6726C49.4903 43.6726 48.042 39.945 48.9414 36.9577C49.8408 33.9703 49.9003 37.8499 50.5683 37.7111C51.2363 37.5723 53.0219 36.6669 53.0947 35.4772C53.1674 34.2876 54.1661 32.2189 54.3843 33.7456C54.6025 35.2723 55.6805 36.1117 55.793 34.3272C55.8988 32.5427 56.7189 33.7853 56.8974 34.8692C57.0694 35.9531 56.9966 39.1717 59.1857 38.524C61.3747 37.883 63.5308 37.2154 63.081 36.4818C62.6379 35.7482 61.1764 31.7959 62.5057 30.7649L69.6019 47.3936L53.9412 54.0688L49.4903 43.6726Z" fill="#6F5B73"/>
<path d="M23.6182 47.1756C23.6182 47.1756 26.4421 48.7221 27.6524 47.4796C28.8627 46.2371 29.9539 44.3072 31.2435 44.9946C32.5331 45.6885 33.5053 48.167 35.6812 47.3871C37.8504 46.6072 42.4799 50.6652 44.5234 49.6739C46.567 48.6825 44.3713 51.0089 41.5606 53.2494C38.7498 55.4899 45.9387 51.6236 44.1134 53.4543C42.2881 55.285 39.2723 55.2652 36.6666 57.6842C34.0609 60.0965 39.2988 56.283 39.9006 57.2546C40.5024 58.2261 32.2488 59.5876 31.6007 61.8083C30.9525 64.029 31.9908 66.7718 31.9908 66.7718L23.6182 47.1756Z" fill="#6F5B73"/>
<path d="M37.89 66.2098C37.89 66.2098 39.3582 62.5351 40.0724 60.3872C40.7867 58.2392 42.4864 59.68 43.657 58.8604C44.8275 58.0409 44.1265 60.5127 46.1569 59.7989C48.1872 59.0785 46.6859 57.9682 50.3101 56.0317C53.9343 54.0952 61.401 55.2188 61.7647 56.5274C62.1285 57.836 54.351 57.532 55.4753 59.6205C56.6062 61.709 55.5017 68.1926 55.5017 68.1926C55.5017 68.1926 43.4387 75.6543 39.841 74.8678C36.2432 74.0747 35.9192 69.7589 37.2948 68.9064C38.6704 68.0472 37.89 66.2098 37.89 66.2098Z" fill="#4F586B"/>
<path d="M29.9404 62.0924C29.9404 62.0924 34.1665 64.6171 36.1108 64.0751C38.0486 63.5332 40.694 66.3156 42.3077 66.7122C43.9214 67.1087 42.1093 68.9659 39.7946 70.1688C37.4864 71.3716 38.1081 73.4932 44.6555 72.2242C51.2094 70.9553 62.1151 64.7823 62.1151 64.7823L56.1431 56.5539C56.1431 56.5539 62.9286 56.9108 63.9933 55.9855C65.0647 55.0602 71.3608 53.6789 73.2192 55.926L75.805 61.9866C75.805 61.9866 52.1287 79.2432 36.091 76.5268L29.9404 62.0924Z" fill="#615675"/>
<path d="M36.0977 76.5201C36.0977 76.5201 49.0535 76.5201 57.3204 72.4423C65.5873 68.3644 75.8183 61.98 75.8183 61.98L80.3949 72.7L41.5406 89.256L36.0977 76.5201Z" fill="#466059"/>
<path d="M44.4772 49.5613C44.4772 49.5613 46.2364 50.2751 45.5288 52.02C44.8211 53.7714 42.7974 55.4699 43.2273 57.1619C43.6572 58.8538 45.9454 60.8167 49.3117 59.3759C52.6846 57.9417 56.9701 56.111 57.3603 53.6326C57.7505 51.1542 51.5867 49.0326 48.8752 44.3137C46.1637 39.5947 44.4772 49.5613 44.4772 49.5613Z" fill="#BFC361"/>
<path d="M35.6346 39.8657C35.6346 39.8657 34.2061 40.7844 35.1783 43.4082C36.1504 46.0321 34.8013 46.4617 35.6743 47.3936C36.5473 48.3255 37.7046 48.4312 38.4453 50.2752C39.186 52.1191 41.3156 52.5289 41.8248 53.9697C42.3274 55.4105 42.7904 55.4766 43.2269 57.1685C43.6568 58.8605 43.7031 60.2947 44.4901 62.1651C44.4901 62.1651 43.4782 58.5499 44.9001 57.5783C46.322 56.6068 45.621 54.5645 44.867 54.0093C44.1131 53.4542 47.5786 52.7668 46.0509 51.2203C44.5231 49.6737 44.576 47.7637 44.576 47.7637L35.6346 39.8657Z" fill="#5B1D40"/>
<path d="M45.2375 49.3168C45.2375 49.3168 46.2626 49.33 47.1422 47.8297C48.0218 46.3294 49.1857 45.4966 48.9212 42.3242C48.6567 39.1518 46.0047 34.6907 43.6172 34.1884C41.2231 33.6861 45.2375 49.3168 45.2375 49.3168Z" fill="#708E2E"/>
<path d="M46.8184 37.4138C45.4891 34.3009 41.8913 32.8535 38.7764 34.182C35.6614 35.5104 34.2131 39.1058 35.5424 42.2187C36.8717 45.3316 40.2578 49.925 44.4772 49.5681C46.5671 49.383 49.854 44.5253 46.8184 37.4138Z" fill="#BFC361"/>
<path d="M43.2271 57.1685C43.2271 57.1685 43.4916 62.8788 47.3671 66.8708C51.2426 70.8627 46.7124 87.0551 46.7124 87.0551L67.7896 78.0733C67.7896 78.0733 62.9485 59.951 56.8839 51.9274C55.7729 50.4536 54.1922 48.1007 54.4303 49.9315C55.2173 55.9326 48.4848 62.4228 43.2271 57.1685Z" fill="#3A4159"/>
<path d="M55.6739 51.716C55.6739 51.716 54.2652 55.536 55.5416 62.9515C56.8247 70.367 48.8091 86.1629 48.8091 86.1629L60.9581 80.9813C60.9581 80.9813 62.1088 67.8225 59.5825 62.2444C57.0561 56.6662 56.9503 53.5864 58.445 52.5553C59.9396 51.5243 66.5663 62.4492 67.1549 65.9653C67.7435 69.4814 70.4749 76.9299 70.4749 76.9299L76.3874 74.4118C76.3874 74.4118 63.5043 50.4734 60.2967 49.8918C51.3024 48.2594 57.1553 51.1938 55.6739 51.716Z" fill="#40384F"/>
<path d="M57.3599 74.1541C57.3599 74.1541 56.0703 75.0727 55.4288 76.6986C54.7873 78.3244 54.2053 79.9767 54.6351 81.2589C55.065 82.5411 56.6258 78.4632 57.4525 77.9609C58.2792 77.4586 59.377 76.0046 59.377 76.0046L57.3599 74.1541Z" fill="#BFC361"/>
<path d="M58.3322 60.3277C58.3322 60.3277 59.7011 67.5978 61.414 69.911C63.1269 72.2242 65.2102 69.0188 67.6439 71.3056C70.0843 73.5923 62.9219 76.1633 62.9219 76.1633C62.9219 76.1633 71.2747 74.7622 70.1835 71.4906C69.0923 68.2257 63.742 55.8732 62.0026 54.8884C60.2633 53.9036 58.9274 51.0551 57.8361 52.1324C56.7515 53.2229 56.5201 55.4171 58.3322 60.3277Z" fill="#324443"/>
<path d="M43.558 55.2981C43.558 55.2981 41.3822 59.1446 42.1097 62.4558C42.8371 65.7604 44.1665 69.8052 42.976 72.4951C41.7856 75.185 40.7539 77.1678 41.5938 79.1505C42.4403 81.1333 39.9404 85.4359 39.9404 85.4359L41.5343 89.2692L46.7126 87.0617C46.7126 87.0617 49.9003 79.8974 52.063 78.873C54.2256 77.8485 50.9651 76.4937 50.3699 73.9954C49.7747 71.4971 42.6652 63.8239 44.0937 57.9285L43.558 55.2981Z" fill="#40384F"/>
<path d="M62.7699 70.7769C62.7699 70.7769 58.0412 74.0419 56.6127 74.4715C55.1776 74.9011 57.8362 75.8396 57.7238 77.0755C57.6114 78.318 62.922 76.1634 62.922 76.1634C62.922 76.1634 69.8595 75.0002 67.644 71.3057C65.4285 67.6045 62.7699 70.7769 62.7699 70.7769Z" fill="#3B675B"/>
<path d="M54.8137 73.513C54.8137 73.513 55.9711 73.7773 58.5504 72.1317C61.123 70.486 62.3068 71.246 63.7949 71.4113C65.2763 71.5765 67.1479 72.2308 66.6453 72.9181C66.1427 73.6055 64.9059 74.0153 64.0263 74.5043C63.1468 74.9934 60.7659 75.0066 59.3175 74.9273C57.8692 74.848 54.0334 77.604 54.0334 77.604C54.0334 77.604 53.0149 78.417 52.8562 76.8109C52.6974 75.2049 54.8137 73.513 54.8137 73.513Z" fill="#BFC361"/>
<path d="M44.1396 61.5901C44.1396 61.5901 45.2573 65.4565 48.9014 67.8093C52.5454 70.1622 50.2505 71.7219 51.2029 73.1958C52.1552 74.6696 54.8205 73.513 54.8205 73.513C54.8205 73.513 53.0216 76.1104 54.0335 77.5975C55.0453 79.0846 49.1924 79.1176 47.4596 77.6834C45.7269 76.2492 45.9121 74.1872 46.0576 73.2354C46.2097 72.2837 44.5563 69.8053 45.1978 69.0915C45.8459 68.3909 44.8804 65.3044 44.1396 61.5901Z" fill="#3B675B"/>
<path d="M38.1614 34.4859C38.1614 34.4859 37.9233 36.4488 38.5714 37.189C39.2195 37.9293 39.9602 35.583 44.4508 36.277C48.9414 36.9643 42.5792 31.3135 38.1614 34.4859Z" fill="#7D316E"/>
<path d="M37.89 34.6445C37.89 34.6445 37.427 35.9862 38.0553 36.9511C38.6836 37.9161 35.7141 37.9491 35.2181 41.2471C35.1255 41.8485 33.7896 36.7463 37.89 34.6445Z" fill="#7D316E"/>
<path d="M44.4176 34.6115C44.4176 34.6115 45.6543 37.46 46.7654 39.1916C47.8765 40.9232 49.5629 42.4235 48.8751 44.3137C48.1873 46.2106 48.7164 46.7525 50.4954 48.3057C52.2811 49.8588 52.8895 50.6123 52.572 51.9077C52.2546 53.2031 53.3524 55.1197 53.3524 55.1197C53.3524 55.1197 53.4384 56.4548 53.4649 57.4593C53.4913 58.4639 55.4754 56.5275 55.3299 53.1237C55.1844 49.72 56.3814 48.114 55.482 46.7591C54.5826 45.4042 54.0601 45.2126 53.24 43.9634C52.4199 42.7077 52.8895 40.7712 51.3023 39.423C49.715 38.0747 47.3209 35.8672 46.9638 35.0278C46.6067 34.1885 44.7946 33.5937 43.7232 33.706C42.6584 33.8184 44.4176 34.6115 44.4176 34.6115Z" fill="#5B1D40"/>
<path opacity="0.43" d="M68.8347 1.37402C67.9816 1.68465 67.3136 2.26626 66.897 2.98666L65.1775 3.72026C64.4301 3.54182 63.6233 3.5947 62.8627 3.91855C62.1022 4.2424 61.507 4.79095 61.1168 5.45186L58.3391 6.63491C57.5918 6.45646 56.7849 6.50933 56.0244 6.83318C55.2638 7.15702 54.6686 7.70559 54.2784 8.36651L51.5008 9.55617C50.7534 9.37772 49.9466 9.43059 49.186 9.75444C48.4255 10.0783 47.8303 10.6269 47.4401 11.2878L44.6624 12.4774C43.9151 12.299 43.1082 12.3518 42.3477 12.6757C41.5871 12.9995 40.9919 13.5481 40.6017 14.209L37.8241 15.3987C37.0767 15.2202 36.2699 15.2731 35.5093 15.5969C34.7488 15.9208 34.1535 16.4694 33.7634 17.1303L30.9857 18.3199C30.2384 18.1415 29.4315 18.1943 28.671 18.5182C27.9104 18.842 27.3152 19.3906 26.925 20.0515L24.1473 21.2412C23.4 21.0627 22.5932 21.1156 21.8326 21.4394C21.0721 21.7633 20.4768 22.3119 20.0866 22.9728L17.309 24.1624C16.5617 23.984 15.7548 24.0368 14.9943 24.3607C14.2337 24.6845 13.6385 25.2331 13.2483 25.894L10.4706 27.0837C9.73653 26.9118 8.93629 26.9581 8.18897 27.2687C6.36364 28.0288 5.45759 30.1173 6.11894 31.9546C4.60445 32.8403 3.8968 34.7173 4.49202 36.396C4.98142 37.7773 6.18508 38.6695 7.51439 38.848L7.92442 39.7997C7.17048 40.8241 6.96547 42.2054 7.50116 43.4612C8.03685 44.7169 9.18099 45.5232 10.4376 45.6885L10.8476 46.6402C10.0936 47.6646 9.88863 49.0459 10.4243 50.3017C10.96 51.5574 12.1042 52.3637 13.3607 52.529L13.7708 53.4807C13.0168 54.5051 12.8118 55.8864 13.3475 57.1422C13.8832 58.3979 15.0273 59.2042 16.2839 59.3695L16.6939 60.3212C15.94 61.3456 15.735 62.7269 16.2707 63.9826C16.8064 65.2384 17.9505 66.0447 19.207 66.2099L19.6171 67.1617C18.8632 68.1861 18.6581 69.5674 19.1938 70.8231C19.7295 72.0789 20.8737 72.8852 22.1302 73.0504L22.5403 74.0021C21.7863 75.0266 21.5813 76.4079 22.117 77.6636C22.6527 78.9194 23.7968 79.7257 25.0534 79.8909L25.4634 80.8426C24.7095 81.8671 24.5045 83.2484 25.0401 84.5041C25.5758 85.7598 26.72 86.5662 27.9765 86.7314L28.3866 87.6831C27.6327 88.7075 27.4276 90.0889 27.9633 91.3446C28.499 92.6003 29.6432 93.4067 30.8997 93.5719L31.3098 94.5236C30.5558 95.548 30.3508 96.9293 30.8865 98.1851C31.4222 99.4408 32.5663 100.247 33.8229 100.412L34.0411 100.928C32.4671 101.899 31.819 103.922 32.6325 105.66C33.4393 107.392 35.4763 108.231 37.2685 107.577C38.1217 107.266 38.7896 106.684 39.2063 105.964L40.9258 105.23C41.6731 105.409 42.48 105.356 43.2405 105.032C44.0011 104.708 44.5963 104.16 44.9865 103.499L47.7641 102.316C48.5115 102.494 49.3183 102.441 50.0789 102.118C50.8394 101.794 51.4346 101.245 51.8248 100.584L54.6025 99.3946C55.3498 99.573 56.1567 99.5201 56.9172 99.1963C57.6778 98.8724 58.273 98.3239 58.6632 97.663L61.4408 96.4733C62.1882 96.6517 62.995 96.5989 63.7556 96.275C64.5161 95.9512 65.1113 95.4026 65.5015 94.7417L68.2792 93.5521C69.0265 93.7305 69.8334 93.6776 70.5939 93.3538C71.3545 93.0299 71.9497 92.4814 72.3399 91.8205L75.1175 90.6308C75.8649 90.8092 76.6717 90.7564 77.4323 90.4325C78.1928 90.1087 78.788 89.5601 79.1782 88.8992L81.9559 87.7096C82.7032 87.888 83.5101 87.8351 84.2706 87.5113C85.0312 87.1874 85.6264 86.6389 86.0166 85.9779L88.7943 84.7883C89.5416 84.9668 90.3484 84.9139 91.109 84.59C91.8695 84.2662 92.4648 83.7176 92.8549 83.0567L95.6326 81.8671C96.3667 82.0389 97.1669 81.9926 97.9143 81.682C99.7396 80.9219 100.646 78.8334 99.9843 76.9961C101.499 76.1105 102.206 74.2335 101.611 72.5547C101.122 71.1734 99.9182 70.2812 98.5889 70.1027L98.1788 69.151C98.9328 68.1266 99.1378 66.7453 98.6021 65.4895C98.0664 64.2338 96.9222 63.4275 95.6657 63.2622L95.2557 62.3105C96.0096 61.2861 96.2146 59.9048 95.6789 58.6491C95.1432 57.3933 93.9991 56.587 92.7425 56.4218L92.3325 55.47C93.0864 54.4456 93.2914 53.0643 92.7558 51.8086C92.2201 50.5528 91.0759 49.7465 89.8194 49.5813L89.4093 48.6296C90.1633 47.6051 90.3683 46.2238 89.8326 44.9681C89.2969 43.7123 88.1528 42.906 86.8962 42.7408L86.4862 41.7891C87.2401 40.7646 87.4451 39.3833 86.9094 38.1276C86.3737 36.8718 85.2296 36.0655 83.973 35.9003L83.563 34.9486C84.3169 33.9242 84.5219 32.5428 83.9863 31.2871C83.4506 30.0313 82.3064 29.225 81.0499 29.0598L80.6398 28.1081C81.3938 27.0837 81.5988 25.7024 81.0631 24.4466C80.5274 23.1909 79.3833 22.3846 78.1267 22.2193L77.7167 21.2676C78.4706 20.2432 78.6756 18.8619 78.1399 17.6061C77.6042 16.3504 76.4601 15.5441 75.2035 15.3788L74.7935 14.4271C75.5474 13.4027 75.7525 12.0214 75.2168 10.7656C74.6811 9.5099 73.5369 8.70358 72.2804 8.53835L72.0621 8.02284C73.6361 7.05129 74.2843 5.02888 73.4708 3.29067C72.6639 1.56568 70.6336 0.719711 68.8347 1.37402ZM26.4224 37.7244L59.4303 23.6271L79.661 71.2197L46.6531 85.317L26.4224 37.7244ZM12.5076 33.3558L12.2232 33.3293C12.2563 33.2963 12.2893 33.2632 12.3224 33.2236L12.5076 33.3558Z" fill="#72635B"/>
<path d="M43.0618 84.6097L21.4423 33.7588L3.39404 32.166L33.7103 103.076L43.0618 84.6097Z" fill="#7D6B5F"/>
<path d="M33.7104 103.076L93.0071 77.7562L82.2205 67.8887L43.0619 84.6099L33.7104 103.076Z" fill="#847263"/>
<path d="M39.7812 91.0868L86.1088 71.4444L82.2201 67.8887L43.0615 84.6099L39.7812 91.0868Z" fill="#7B6A58"/>
<path d="M43.0616 84.6098L21.4421 33.7589L15.3511 33.1772L39.7813 91.0867L43.0616 84.6098Z" fill="#716051"/>
<path d="M29.0147 104.94C29.8215 106.671 31.8585 107.511 33.6508 106.856C34.5039 106.546 35.1719 105.964 35.5885 105.244L37.308 104.51C38.0553 104.688 38.8622 104.636 39.6227 104.312C40.3833 103.988 40.9785 103.439 41.3687 102.778L44.1464 101.589C44.8937 101.767 45.7005 101.714 46.4611 101.39C47.2216 101.067 47.8169 100.518 48.2071 99.8571L50.9847 98.6741C51.732 98.8526 52.5389 98.7997 53.2994 98.4758C54.06 98.152 54.6552 97.6034 55.0454 96.9425L57.8231 95.7529C58.5704 95.9313 59.3772 95.8784 60.1378 95.5546C60.8984 95.2307 61.4936 94.6822 61.8838 94.0213L64.6614 92.8316C65.4088 93.0101 66.2156 92.9572 66.9762 92.6333C67.7367 92.3095 68.3319 91.7609 68.7221 91.1L71.4998 89.9104C72.2471 90.0888 73.054 90.0359 73.8145 89.7121C74.5751 89.3882 75.1703 88.8397 75.5605 88.1788L78.3382 86.9891C79.0855 87.1676 79.8923 87.1147 80.6529 86.7908C81.4134 86.467 82.0086 85.9184 82.3988 85.2575L85.1765 84.0679C85.9238 84.2463 86.7307 84.1934 87.4912 83.8696C88.2518 83.5457 88.847 82.9972 89.2372 82.3363L92.0149 81.1466C92.749 81.3184 93.5426 81.2722 94.2965 80.9615C96.1946 80.1751 97.1006 77.9544 96.2938 76.0642C95.4869 74.1739 93.2979 73.3015 91.413 74.1078C90.6525 74.4317 90.0573 74.9803 89.6671 75.6412L86.8894 76.8308C86.1421 76.6524 85.3352 76.7053 84.5747 77.0291C83.8141 77.353 83.2189 77.9015 82.8287 78.5624L80.051 79.7521C79.3037 79.5736 78.4969 79.6265 77.7363 79.9503C76.9758 80.2742 76.3805 80.8228 75.9903 81.4837L73.2127 82.6733C72.4654 82.4949 71.6585 82.5478 70.898 82.8716C70.1374 83.1954 69.5422 83.744 69.152 84.4049L66.3743 85.5946C65.627 85.4161 64.8202 85.469 64.0596 85.7928C63.299 86.1167 62.7038 86.6653 62.3136 87.3262L59.536 88.5092C58.7886 88.3308 57.9818 88.3836 57.2212 88.7075C56.4607 89.0313 55.8655 89.5799 55.4753 90.2408L52.6976 91.4305C51.9503 91.252 51.1434 91.3049 50.3829 91.6287C49.6223 91.9526 49.0271 92.5012 48.6369 93.1621L45.8593 94.3517C45.1119 94.1733 44.3051 94.2261 43.5445 94.55C42.784 94.8738 42.1888 95.4224 41.7986 96.0833L39.0209 97.273C38.2736 97.0945 37.4667 97.1474 36.7062 97.4712C36.7062 97.4712 36.6996 97.4712 36.6996 97.4779C36.2631 97.6629 35.7671 97.4779 35.5819 97.0416L7.15709 30.5535L5.92036 31.0822C4.96801 30.646 3.83711 30.613 2.80541 31.0954C1.07928 31.8951 0.23275 33.9109 0.867645 35.702C1.35704 37.0833 2.56071 37.9756 3.89002 38.154L4.30005 39.1057C3.54611 40.1301 3.3411 41.5115 3.87679 42.7672C4.41248 44.0229 5.55662 44.8293 6.81318 44.9945L7.22322 45.9462C6.46928 46.9706 6.26426 48.3519 6.79995 49.6077C7.33565 50.8634 8.47978 51.6698 9.73635 51.835L10.1464 52.7867C9.39244 53.8111 9.18742 55.1924 9.72312 56.4482C10.2588 57.7039 11.4029 58.5102 12.6595 58.6754L13.0695 59.6272C12.3156 60.6516 12.1106 62.0329 12.6463 63.2887C13.182 64.5444 14.3261 65.3507 15.5827 65.5159L15.9927 66.4677C15.2388 67.4921 15.0338 68.8734 15.5694 70.1291C16.1051 71.3849 17.2493 72.1912 18.5058 72.3564L18.9159 73.3081C18.1619 74.3326 17.9569 75.7139 18.4926 76.9696C19.0283 78.2254 20.1724 79.0317 21.429 79.1969L21.839 80.1486C21.0851 81.173 20.8801 82.5544 21.4158 83.8101C21.9515 85.0658 23.0956 85.8722 24.3522 86.0374L24.7622 86.9891C24.0083 88.0135 23.8032 89.3948 24.3389 90.6506C24.8746 91.9063 26.0188 92.7126 27.2753 92.8779L27.6854 93.8296C26.9314 94.854 26.7264 96.2353 27.2621 97.4911C27.7978 98.7468 28.9419 99.5531 30.1985 99.7184L30.4167 100.234C28.8493 101.179 28.2078 103.201 29.0147 104.94Z" fill="#A0928A"/>
<path d="M3.48012 32.3709C4.07533 32.1131 4.73007 32.1264 5.32529 32.3907L5.90066 32.6551L6.39667 32.4436L34.2593 97.61C34.7553 98.7666 36.1045 99.3019 37.2619 98.8062L37.2751 98.7996C37.7248 98.608 38.2208 98.5617 38.697 98.674L39.1599 98.7864L42.8106 97.2266L43.0487 96.8169C43.3 96.3939 43.6703 96.07 44.1201 95.8784C44.5698 95.6867 45.0658 95.6404 45.542 95.7528L46.0049 95.8651L49.6555 94.3054L49.8936 93.8956C50.145 93.4726 50.5153 93.1488 50.965 92.9571C51.4147 92.7655 51.9108 92.7192 52.3869 92.8315L52.8499 92.9439L56.5005 91.3841L56.7386 90.9744C56.9899 90.5514 57.3603 90.2275 57.81 90.0359C58.2597 89.8442 58.7557 89.7979 59.2319 89.9103L59.6948 90.0226L63.3455 88.4629L63.5836 88.0531C63.8349 87.6301 64.2053 87.3063 64.655 87.1146C65.1047 86.9229 65.6007 86.8767 66.0769 86.989L66.5398 87.1014L70.1905 85.5416L70.4285 85.1319C70.6799 84.7089 71.0502 84.385 71.4999 84.1934C71.9496 84.0017 72.4457 83.9554 72.9218 84.0678L73.3848 84.1801L77.0354 82.6204L77.2735 82.2106C77.5248 81.7876 77.8952 81.4638 78.3449 81.2721C78.7946 81.0804 79.2906 81.0342 79.7668 81.1465L80.2298 81.2589L83.8804 79.6991L84.1185 79.2893C84.3698 78.8664 84.7402 78.5425 85.1899 78.3509C85.6396 78.1592 86.1356 78.1129 86.6118 78.2253L87.0747 78.3376L90.7254 76.7779L90.9635 76.3681C91.2148 75.9451 91.5851 75.6213 92.0348 75.4296C93.1922 74.9339 94.5347 75.4759 95.0308 76.6325C95.2688 77.1876 95.2688 77.8023 95.044 78.3773C94.8125 78.9457 94.3826 79.3951 93.8271 79.6264L93.8073 79.633C93.3642 79.8181 92.8748 79.8577 92.4118 79.7454L91.9489 79.633L88.2982 81.1928L88.0601 81.6026C87.8088 82.0255 87.4451 82.3494 86.9887 82.5411C86.539 82.7327 86.043 82.779 85.5668 82.66L85.1039 82.5477L81.4532 84.1074L81.2152 84.5172C80.9705 84.9402 80.6001 85.264 80.1438 85.4557C79.6941 85.6474 79.198 85.6936 78.7219 85.5747L78.2589 85.4623L74.6083 87.0221L74.3702 87.4318C74.1189 87.8548 73.7551 88.1787 73.2988 88.3704C72.8425 88.562 72.3531 88.6083 71.8769 88.4893L71.414 88.377L67.7633 89.9367L67.5252 90.3465C67.2739 90.7695 66.9102 91.0933 66.4538 91.285C66.0041 91.4767 65.5081 91.5229 65.0319 91.404L64.569 91.2916L60.9183 92.8514L60.6803 93.2611C60.4289 93.6841 60.0652 94.008 59.6089 94.1996C59.1592 94.3913 58.6631 94.4376 58.187 94.3186L57.724 94.2062L54.0734 95.766L53.8353 96.1758C53.584 96.5988 53.2202 96.9226 52.7639 97.1143C52.3076 97.3059 51.8182 97.3522 51.342 97.2332L50.879 97.1209L47.2284 98.6806L46.9903 99.0904C46.739 99.5134 46.3753 99.8372 45.9189 100.029C45.4692 100.221 44.9732 100.267 44.497 100.148L44.0341 100.036L40.3834 101.595L40.1454 102.005C39.894 102.428 39.5303 102.752 39.074 102.944C38.6242 103.135 38.1282 103.181 37.6521 103.063L37.1891 102.95L34.5966 104.054L34.3585 104.464C34.1072 104.887 33.7435 105.211 33.2871 105.402C33.2475 105.422 33.2078 105.435 33.1681 105.448C32.0703 105.852 30.8203 105.329 30.3243 104.272C29.8349 103.221 30.2053 101.972 31.1841 101.364L32.2356 100.716L31.2105 98.3105L30.397 98.2048C29.5902 98.099 28.9156 97.5901 28.5916 96.8367C28.2741 96.0899 28.3667 95.2505 28.8495 94.5896L29.3323 93.9287L28.2807 91.4701L27.4673 91.3643C26.6604 91.2586 25.9858 90.7496 25.6618 89.9962C25.3443 89.2494 25.4369 88.41 25.9197 87.7491L26.4025 87.0882L25.3509 84.6296L24.5375 84.5238C23.7307 84.4181 23.0561 83.9092 22.732 83.1557C22.4146 82.4089 22.5071 81.5695 22.9899 80.9086L23.4727 80.2477L22.4212 77.7891L21.6077 77.6833C20.8009 77.5776 20.1263 77.0687 19.8022 76.3152C19.4848 75.5684 19.5774 74.729 20.0602 74.0681L20.5429 73.4072L19.4914 70.9486L18.6779 70.8428C17.8711 70.7371 17.1965 70.2282 16.8724 69.4748C16.555 68.7279 16.6476 67.8885 17.1304 67.2276L17.6132 66.5667L16.5616 64.1081L15.7482 64.0023C14.9413 63.8966 14.2667 63.3877 13.9427 62.6343C13.6252 61.8874 13.7178 61.0481 14.2006 60.3872L14.6834 59.7262L13.6318 57.2676L12.8184 57.1619C12.0115 57.0561 11.3369 56.5472 11.0129 55.7938C10.6954 55.0469 10.788 54.2076 11.2708 53.5467L11.7536 52.8857L10.7021 50.4271L9.8886 50.3214C9.08175 50.2156 8.40717 49.7067 8.08311 48.9533C7.75905 48.1998 7.85825 47.3671 8.34104 46.7062L8.82382 46.0453L7.77228 43.5866L6.95882 43.4809C6.15197 43.3752 5.47739 42.8662 5.15333 42.1128C4.83588 41.366 4.92847 40.5266 5.41125 39.8657L5.89405 39.2048L4.8425 36.7462L4.02904 36.6404C3.16928 36.5281 2.46164 35.9531 2.17065 35.1335C1.78045 34.043 2.30292 32.8005 3.35447 32.3114C3.43383 32.3907 3.45366 32.3775 3.48012 32.3709Z" fill="#89817D"/>
<path opacity="0.6" d="M3.17565 33.1243C3.47326 32.9988 3.7907 32.9988 4.08831 33.1375L4.98774 33.5473L32.4404 97.762C33.1811 99.5002 35.2114 100.306 36.9574 99.5596L36.9706 99.553C37.1955 99.4539 37.4336 99.4341 37.6716 99.4936L38.4983 99.6918L42.8434 97.8346L43.2733 97.101C43.3989 96.8895 43.5775 96.7309 43.8024 96.6318C44.0272 96.5327 44.2653 96.5128 44.5034 96.5723L45.3301 96.7706L49.6751 94.9134L50.105 94.1798C50.2307 93.9683 50.4092 93.8097 50.6341 93.7105C50.859 93.6114 51.097 93.5916 51.3351 93.6511L52.1618 93.8493L56.5069 91.9921L56.9368 91.2585C57.0624 91.047 57.241 90.8884 57.4659 90.7893C57.6907 90.6902 57.9288 90.6703 58.1669 90.7298L58.9936 90.9281L63.3386 89.0709L63.7685 88.3373C63.8942 88.1258 64.0727 87.9672 64.2976 87.868C64.5224 87.7689 64.7605 87.7491 64.9986 87.8086L65.8253 88.0068L70.1704 86.1496L70.6003 85.416C70.7259 85.2045 70.9045 85.0459 71.1293 84.9468C71.3542 84.8476 71.5923 84.8278 71.8304 84.8873L72.657 85.0856L77.0021 83.2284L77.432 82.4948C77.5576 82.2833 77.7362 82.1247 77.9611 82.0255C78.1859 81.9264 78.424 81.9066 78.6621 81.9661L79.4888 82.1643L83.8339 80.3071L84.2637 79.5735C84.3894 79.362 84.5679 79.2034 84.7928 79.1043C85.0177 79.0051 85.2558 78.9853 85.4938 79.0448L86.3205 79.2431L90.6656 77.3859L91.0955 76.6523C91.2211 76.4408 91.3997 76.2822 91.6246 76.183C92.1999 75.9385 92.8679 76.2029 93.1126 76.7779C93.2316 77.0488 93.2316 77.3529 93.1126 77.6437C93.0002 77.9278 92.7819 78.1526 92.5108 78.2649L92.4909 78.2715C92.2793 78.3575 92.0346 78.3773 91.8031 78.3244L90.9764 78.1261L86.6314 79.9833L86.2015 80.7169C86.0758 80.9284 85.8973 81.087 85.6724 81.1862C85.4476 81.2853 85.2095 81.3051 84.9714 81.2457L84.1447 81.0474L79.7996 82.9045L79.3698 83.6382C79.2441 83.8497 79.0655 84.0083 78.8407 84.1074C78.6158 84.2066 78.3777 84.2264 78.1396 84.1669L77.313 83.9686L72.9679 85.8258L72.538 86.5594C72.4123 86.7709 72.2338 86.9295 72.0089 87.0287C71.7841 87.1278 71.546 87.1476 71.3079 87.0882L70.4812 86.8899L66.1361 88.747L65.7063 89.4807C65.5806 89.6922 65.402 89.8508 65.1772 89.9499C64.9523 90.0491 64.7142 90.0689 64.4761 90.0094L63.6495 89.8111L59.3044 91.6683L58.8745 92.4019C58.7489 92.6134 58.5703 92.772 58.3454 92.8712C58.1206 92.9703 57.8825 92.9901 57.6444 92.9307L56.8177 92.7324L52.4727 94.5896L52.0428 95.3232C51.9171 95.5347 51.7386 95.6933 51.5137 95.7924C51.2888 95.8916 51.0507 95.9114 50.8127 95.8519L49.986 95.6536L45.6409 97.5108L45.211 98.2444C45.0854 98.4559 44.9068 98.6145 44.682 98.7137C44.4571 98.8128 44.219 98.8326 43.9809 98.7732L43.1542 98.5749L38.8092 100.432L38.3793 101.166C38.2536 101.377 38.0751 101.536 37.8502 101.635C37.6254 101.734 37.3873 101.754 37.1492 101.694L36.3225 101.496L33.0356 102.904L32.6057 103.637C32.48 103.849 32.3015 104.008 32.0766 104.1C32.0568 104.107 32.0369 104.12 32.0105 104.127C31.4748 104.318 30.8465 104.06 30.6018 103.545C30.3571 103.023 30.5423 102.402 31.0251 102.104L32.9165 100.934L31.2433 97.0217L29.7817 96.8301C29.3717 96.7772 29.0477 96.526 28.8823 96.1493C28.7236 95.7726 28.7699 95.3628 29.0146 95.0324L29.8876 93.8427L28.3202 90.1812L26.8586 89.9896C26.4485 89.9367 26.1245 89.6855 25.9591 89.3088C25.8004 88.9321 25.8467 88.5223 26.0914 88.1919L26.9644 87.0022L25.397 83.3408L23.9354 83.1491C23.5254 83.0962 23.2013 82.8451 23.036 82.4683C22.8773 82.0916 22.9235 81.6818 23.1682 81.3514L24.0412 80.1617L22.4738 76.5003L21.0123 76.3086C20.6022 76.2557 20.2782 76.0046 20.1128 75.6279C19.9541 75.2511 20.0004 74.8414 20.2451 74.5109L21.1181 73.3213L19.5507 69.6598L18.0891 69.4681C17.6791 69.4152 17.355 69.1641 17.1897 68.7874C17.0309 68.4107 17.0772 68.0009 17.3219 67.6704L18.1949 66.4808L16.6275 62.8193L15.1659 62.6276C14.7559 62.5748 14.4318 62.3236 14.2665 61.9469C14.1078 61.5702 14.1541 61.1604 14.3988 60.8299L15.2717 59.6403L13.7043 55.9788L12.2428 55.7871C11.8327 55.7343 11.5087 55.4831 11.3433 55.1064C11.1846 54.7297 11.2309 54.3199 11.4756 53.9894L12.3486 52.7998L10.7812 49.1383L9.31959 48.9467C8.90955 48.8938 8.58549 48.6426 8.42015 48.2659C8.26143 47.8892 8.30772 47.4794 8.55242 47.149L9.4254 45.9593L7.85801 42.2978L6.39642 42.1062C5.98638 42.0533 5.66232 41.8022 5.49698 41.4254C5.33826 41.0487 5.38455 40.6389 5.62925 40.3085L6.50224 39.1188L4.93484 35.4574L3.47326 35.2657C3.04999 35.2062 2.69287 34.922 2.54737 34.5122C2.35558 33.9835 2.62012 33.3556 3.13597 33.1177C3.15581 33.1375 3.16242 33.1309 3.17565 33.1243Z" fill="#A0928A"/>
<path d="M3.92956 33.4285C4.22716 33.303 4.54462 33.3029 4.84222 33.4417L5.74165 33.8515L33.1943 98.0662C33.935 99.8044 35.9653 100.611 37.7113 99.8639L37.7245 99.8572C37.9494 99.7581 38.1875 99.7383 38.4256 99.7978L39.2523 99.996L43.5973 98.1389L44.0272 97.4052C44.1529 97.1938 44.3314 97.0351 44.5563 96.936C44.7811 96.8369 45.0192 96.817 45.2573 96.8765L46.084 97.0748L50.4291 95.2176L50.8589 94.484C50.9846 94.2725 51.1632 94.1139 51.388 94.0147C51.6129 93.9156 51.851 93.8958 52.0891 93.9553L52.9157 94.1535L57.2608 92.2964L57.6907 91.5627C57.8163 91.3513 57.9949 91.1926 58.2198 91.0935C58.4446 90.9944 58.6827 90.9745 58.9208 91.034L59.7475 91.2323L64.0925 89.3751L64.5224 88.6415C64.6481 88.43 64.8266 88.2714 65.0515 88.1722C65.2763 88.0731 65.5145 88.0533 65.7525 88.1128L66.5792 88.311L70.9243 86.4539L71.3542 85.7202C71.4798 85.5088 71.6584 85.3501 71.8832 85.251C72.1081 85.1519 72.3462 85.132 72.5843 85.1915L73.411 85.3898L77.756 83.5326L78.1859 82.799C78.3116 82.5875 78.4901 82.4289 78.715 82.3297C78.9398 82.2306 79.1779 82.2108 79.416 82.2703L80.2427 82.4685L84.5878 80.6114L85.0176 79.8777C85.1433 79.6663 85.3219 79.5076 85.5467 79.4085C85.7716 79.3094 86.0097 79.2895 86.2478 79.349L87.0744 79.5473L91.4195 77.6901L91.8494 76.9565C91.9751 76.745 92.1536 76.5864 92.3785 76.4872C92.9538 76.2427 93.6218 76.5071 93.8665 77.0821C93.9855 77.353 93.9855 77.6571 93.8665 77.9479C93.7541 78.2321 93.5358 78.4568 93.2647 78.5691L93.2448 78.5757C93.0332 78.6617 92.7885 78.6815 92.557 78.6286L91.7304 78.4303L87.3853 80.2875L86.9554 81.0211C86.8298 81.2326 86.6512 81.3912 86.4263 81.4904C86.2015 81.5895 85.9634 81.6093 85.7253 81.5499L84.8986 81.3516L80.5535 83.2088L80.1237 83.9424C79.998 84.1539 79.8194 84.3125 79.5946 84.4116C79.3697 84.5108 79.1316 84.5306 78.8936 84.4711L78.0669 84.2728L73.7218 86.13L73.2919 86.8636C73.1663 87.0751 72.9877 87.2337 72.7628 87.3329C72.538 87.432 72.2999 87.4518 72.0618 87.3924L71.2351 87.1941L66.8901 89.0513L66.4602 89.7849C66.3345 89.9964 66.156 90.155 65.9311 90.2541C65.7062 90.3533 65.4682 90.3731 65.2301 90.3136L64.4034 90.1153L60.0583 91.9725L59.6284 92.7061C59.5028 92.9176 59.3242 93.0762 59.0993 93.1754C58.8745 93.2745 58.6364 93.2943 58.3983 93.2349L57.5716 93.0366L53.2266 94.8938L52.7967 95.6274C52.671 95.8389 52.4925 95.9975 52.2676 96.0966C52.0428 96.1958 51.8047 96.2156 51.5666 96.1561L50.7399 95.9578L46.3948 97.815L45.9649 98.5486C45.8393 98.7601 45.6607 98.9187 45.4359 99.0179C45.211 99.117 44.9729 99.1368 44.7348 99.0774L43.9082 98.8791L39.5631 100.736L39.1332 101.47C39.0076 101.681 38.829 101.84 38.6041 101.939C38.3793 102.038 38.1412 102.058 37.9031 101.999L37.0764 101.8L33.7895 103.208L33.3596 103.942C33.234 104.153 33.0554 104.312 32.8306 104.404C32.8107 104.411 32.7909 104.424 32.7644 104.431C32.2287 104.622 31.6004 104.365 31.3557 103.849C31.111 103.327 31.2962 102.706 31.779 102.408L33.6705 101.239L31.9972 97.3259L30.5357 97.1343C30.1256 97.0814 29.8016 96.8302 29.6362 96.4535C29.4775 96.0768 29.5238 95.667 29.7685 95.3366L30.6415 94.1469L29.0741 90.4855L27.6125 90.2938C27.2025 90.2409 26.8784 89.9898 26.7131 89.613C26.5543 89.2363 26.6006 88.8266 26.8453 88.4961L27.7183 87.3064L26.1509 83.645L24.6893 83.4533C24.2793 83.4004 23.9552 83.1493 23.7899 82.7726C23.6312 82.3958 23.6775 81.9861 23.9222 81.6556L24.7951 80.466L23.2277 76.8045L21.7662 76.6128C21.3561 76.5599 21.0321 76.3088 20.8667 75.9321C20.708 75.5554 20.7543 75.1456 20.999 74.8151L21.872 73.6255L20.3046 69.964L18.843 69.7723C18.433 69.7195 18.1089 69.4683 17.9436 69.0916C17.7848 68.7149 17.8311 68.3051 18.0758 67.9746L18.9488 66.785L17.3814 63.1235L15.9198 62.9318C15.5098 62.879 15.1857 62.6278 15.0204 62.2511C14.8617 61.8744 14.908 61.4646 15.1527 61.1341L16.0256 59.9445L14.4582 56.283L12.9967 56.0914C12.5866 56.0385 12.2626 55.7873 12.0972 55.4106C11.9385 55.0339 11.9848 54.6241 12.2295 54.2937L13.1025 53.104L11.5351 49.4425L10.0735 49.2509C9.66346 49.198 9.33939 48.9469 9.17406 48.5701C9.01533 48.1934 9.06164 47.7836 9.30633 47.4532L10.1793 46.2635L8.61192 42.6021L7.15033 42.4104C6.74029 42.3575 6.41623 42.1064 6.25089 41.7296C6.09217 41.3529 6.13846 40.9431 6.38316 40.6127L7.25615 39.423L5.68875 35.7616L4.22716 35.5699C3.8039 35.5104 3.44677 35.2262 3.30128 34.8165C3.10949 34.2877 3.37403 33.6598 3.88988 33.4219C3.90972 33.4351 3.91633 33.4351 3.92956 33.4285Z" fill="#A0928A"/>
<path d="M55.8389 22.9266L76.0696 70.5126L92.9803 76.4476L64.6943 4.50684L55.8389 22.9266Z" fill="#7D6B5F"/>
<path d="M65.1044 4.32837L5.17285 30.005L17.9964 39.086L55.8388 22.9265L65.1044 4.32837Z" fill="#847263"/>
<path d="M59.1195 16.4495L13.4004 35.8275L17.9968 39.0858L55.8392 22.9264L59.1195 16.4495Z" fill="#7B6A58"/>
<path d="M55.8389 22.9264L76.0696 70.5124L82.7624 72.8653L59.1192 16.4495L55.8389 22.9264Z" fill="#716051"/>
<path d="M69.8795 2.59006C69.0727 0.858458 67.0357 0.0190979 65.2434 0.673405C64.3903 0.984036 63.7223 1.56564 63.3057 2.28604L61.5862 3.01965C60.8389 2.8412 60.032 2.89409 59.2715 3.21794C58.5109 3.54179 57.9157 4.09033 57.5255 4.75125L54.7478 5.94091C54.0005 5.76246 53.1937 5.81533 52.4331 6.13918C51.6726 6.46303 51.0774 7.01159 50.6872 7.67251L47.9095 8.86215C47.1622 8.6837 46.3553 8.73659 45.5948 9.06044C44.8342 9.38429 44.239 9.93283 43.8488 10.5938L41.0711 11.7834C40.3238 11.605 39.517 11.6578 38.7564 11.9817C37.9959 12.3055 37.4006 12.8541 37.0104 13.515L34.2328 14.7047C33.4855 14.5262 32.6786 14.5791 31.9181 14.9029C31.1575 15.2268 30.5623 15.7754 30.1721 16.4363L27.3944 17.6259C26.6471 17.4475 25.8403 17.5003 25.0797 17.8242C24.3191 18.148 23.7239 18.6966 23.3337 19.3575L20.5561 20.5472C19.8087 20.3687 19.0019 20.4216 18.2413 20.7454C17.4808 21.0693 16.8856 21.6179 16.4954 22.2788L13.7177 23.4618C12.9704 23.2833 12.1635 23.3362 11.403 23.6601C10.6424 23.9839 10.0472 24.5325 9.65702 25.1934L6.87935 26.3831C6.14525 26.2112 5.35163 26.2575 4.59769 26.5681C2.69962 27.3546 1.79357 29.5753 2.60042 31.4655C3.40726 33.3557 5.59633 34.2281 7.48118 33.4218C8.24173 33.098 8.83695 32.5494 9.22714 31.8885L12.0048 30.6988C12.7521 30.8773 13.559 30.8244 14.3195 30.5006C15.0801 30.1767 15.6753 29.6282 16.0655 28.9672L18.8432 27.7776C19.5905 27.956 20.3973 27.9032 21.1579 27.5793C21.9184 27.2555 22.5137 26.7069 22.9039 26.046L25.6815 24.8563C26.4288 25.0348 27.2357 24.9819 27.9962 24.6581C28.7568 24.3342 29.352 23.7857 29.7422 23.1247L32.5199 21.9351C33.2672 22.1135 34.0741 22.0607 34.8346 21.7368C35.5952 21.413 36.1904 20.8644 36.5806 20.2035L39.3582 19.0138C40.1056 19.1923 40.9124 19.1394 41.673 18.8156C42.4335 18.4917 43.0287 17.9432 43.4189 17.2822L46.1966 16.0926C46.9439 16.271 47.7508 16.2182 48.5113 15.8943C49.2719 15.5705 49.8671 15.0219 50.2573 14.361L53.0349 13.1713C53.7823 13.3498 54.5891 13.2969 55.3497 12.9731C56.1102 12.6492 56.7054 12.1006 57.0956 11.4397L59.8733 10.2567C60.6206 10.4351 61.4275 10.3823 62.188 10.0584C62.188 10.0584 62.1946 10.0584 62.1946 10.0518C62.6311 9.86676 63.1271 10.0518 63.3123 10.488L90.6988 75.6478L92.9738 76.4475C93.9262 76.8837 95.0571 76.9167 96.0888 76.4343C97.8149 75.6346 98.6614 73.6188 98.0266 71.8277C97.5371 70.4464 96.3335 69.5541 95.0042 69.3757L94.5941 68.424C95.3481 67.3995 95.5531 66.0182 95.0174 64.7625C94.4817 63.5067 93.3376 62.7004 92.081 62.5352L91.671 61.5835C92.4249 60.5591 92.6299 59.1777 92.0942 57.922C91.5585 56.6663 90.4144 55.8599 89.1579 55.6947L88.7478 54.743C89.5018 53.7186 89.7068 52.3372 89.1711 51.0815C88.6354 49.8258 87.4913 49.0195 86.2347 48.8542L85.8246 47.9025C86.5786 46.8781 86.7836 45.4968 86.2479 44.241C85.7122 42.9853 84.5681 42.179 83.3115 42.0137L82.9015 41.062C83.6554 40.0376 83.8604 38.6563 83.3247 37.4005C82.789 36.1448 81.6449 35.3385 80.3883 35.1732L79.9783 34.2215C80.7322 33.1971 80.9373 31.8158 80.4016 30.5601C79.8659 29.3043 78.7218 28.498 77.4652 28.3328L77.0552 27.381C77.8091 26.3566 78.0141 24.9753 77.4784 23.7196C76.9427 22.4638 75.7986 21.6575 74.542 21.4923L74.132 20.5406C74.8859 19.5161 75.091 18.1348 74.5553 16.8791C74.0196 15.6233 72.8754 14.817 71.6189 14.6518L71.2088 13.7001C71.9628 12.6756 72.1678 11.2943 71.6321 10.0386C71.0964 8.78284 69.9523 7.97653 68.6957 7.8113L68.4775 7.29578C70.0449 6.35728 70.693 4.33488 69.8795 2.59006Z" fill="#A0928A"/>
<path d="M95.4208 75.1653C94.8256 75.4231 94.1709 75.4099 93.5757 75.1455L93.0003 74.8811L92.5043 75.0926L64.6416 9.92623C64.1456 8.76962 62.7965 8.23428 61.6391 8.72997L61.6259 8.73657C61.1761 8.92823 60.6801 8.9745 60.204 8.86214L59.741 8.7498L56.0904 10.3096L55.8523 10.7193C55.601 11.1423 55.2306 11.4662 54.7809 11.6578C54.3312 11.8495 53.8352 11.8958 53.359 11.7834L52.8961 11.671L49.2454 13.2308L49.0073 13.6406C48.756 14.0636 48.3857 14.3874 47.9359 14.5791C47.4862 14.7707 46.9902 14.817 46.514 14.7046L46.0511 14.5923L42.4004 16.1521L42.1623 16.5618C41.911 16.9848 41.5407 17.3087 41.091 17.5003C40.6412 17.692 40.1452 17.7383 39.6691 17.6259L39.2061 17.5135L35.5555 19.0733L35.3174 19.4831C35.0661 19.9061 34.6957 20.2299 34.246 20.4216C33.7963 20.6133 33.3003 20.6595 32.8241 20.5471L32.3611 20.4348L28.7105 21.9946L28.4724 22.4043C28.2211 22.8273 27.8507 23.1512 27.401 23.3428C26.9513 23.5345 26.4553 23.5808 25.9791 23.4684L25.5162 23.356L21.8655 24.9158L21.6274 25.3256C21.3761 25.7486 21.0058 26.0724 20.556 26.2641C20.1063 26.4558 19.6103 26.502 19.1341 26.3897L18.6712 26.2773L15.0206 27.8371L14.7825 28.2468C14.5312 28.6698 14.1608 28.9937 13.7111 29.1853C13.2614 29.377 12.7653 29.4233 12.2892 29.3109L11.8262 29.1986L8.17558 30.7583L7.93749 31.1681C7.68618 31.5911 7.31583 31.9149 6.86611 32.1066C5.70875 32.6023 4.36621 32.0603 3.8702 30.9037C3.63211 30.3485 3.63211 29.7339 3.85697 29.1589C4.08844 28.5905 4.51831 28.1411 5.07385 27.9098L5.09369 27.9032C5.53679 27.7181 6.02619 27.6784 6.48914 27.7908L6.95208 27.9032L10.6027 26.3434L10.8408 25.9336C11.0921 25.5106 11.4559 25.1868 11.9122 24.9951C12.3619 24.8035 12.8579 24.7572 13.3341 24.8762L13.7971 24.9885L17.4477 23.4288L17.6858 23.019C17.9305 22.596 18.3008 22.2721 18.7572 22.0805C19.2069 21.8888 19.7029 21.8426 20.1791 21.9615L20.642 22.0739L24.2927 20.5141L24.5308 20.1043C24.7821 19.6814 25.1458 19.3575 25.6021 19.1658C26.0585 18.9742 26.5479 18.9279 27.024 19.0469L27.487 19.1592L31.1376 17.5995L31.3757 17.1897C31.627 16.7667 31.9908 16.4429 32.4471 16.2512C32.8968 16.0595 33.3928 16.0133 33.869 16.1322L34.332 16.2446L37.9826 14.6848L38.2207 14.2751C38.472 13.8521 38.8358 13.5282 39.2921 13.3366C39.7418 13.1449 40.2378 13.0986 40.714 13.2176L41.1769 13.3299L44.8276 11.7702L45.0657 11.3604C45.317 10.9374 45.6807 10.6136 46.1371 10.4219C46.5934 10.2302 47.0828 10.184 47.559 10.3029L48.0219 10.4153L51.6726 8.85555L51.9106 8.44576C52.1619 8.02277 52.5257 7.69894 52.982 7.50727C53.4317 7.3156 53.9278 7.26935 54.4039 7.38831L54.8669 7.50065L58.5175 5.9409L58.7556 5.53114C59.0069 5.10815 59.3707 4.78429 59.827 4.59263C60.2833 4.40096 60.7727 4.3547 61.2489 4.47366L61.7118 4.58601L64.3043 3.48229L64.5424 3.07252C64.7937 2.64954 65.1575 2.32568 65.6138 2.13401C65.6535 2.11419 65.6932 2.10096 65.7329 2.08775C66.8307 1.68459 68.0807 2.20671 68.5767 3.26418C69.0661 4.31503 68.6957 5.56416 67.7169 6.17221L66.6653 6.81991L67.6905 9.22566L68.5039 9.33141C69.3107 9.43715 69.9853 9.94604 70.3094 10.6995C70.6335 11.4529 70.5343 12.2857 70.0515 12.9466L69.5687 13.6075L70.6202 16.0661L71.4337 16.1719C72.2405 16.2776 72.9151 16.7865 73.2392 17.54C73.5566 18.2868 73.464 19.1262 72.9813 19.7871L72.4985 20.448L73.55 22.9066L74.3635 23.0124C75.1703 23.1181 75.8449 23.627 76.169 24.3805C76.4864 25.1273 76.3938 25.9667 75.911 26.6276L75.4282 27.2885L76.4798 29.7471L77.2932 29.8529C78.1001 29.9586 78.7747 30.4675 79.0987 31.221C79.4162 31.9678 79.3236 32.8072 78.8408 33.4681L78.358 34.129L79.4096 36.5876L80.223 36.6934C81.0299 36.7991 81.7045 37.308 82.0285 38.0614C82.3526 38.8149 82.2534 39.6477 81.7706 40.3086L81.2878 40.9695L82.3393 43.4281L83.1528 43.5338C83.9597 43.6396 84.6342 44.1485 84.9583 44.9019C85.2757 45.6488 85.1832 46.4881 84.7004 47.149L84.2176 47.81L85.2691 50.2686L86.0826 50.3743C86.8894 50.4801 87.564 50.989 87.8881 51.7424C88.2055 52.4893 88.1129 53.3286 87.6301 53.9895L87.1474 54.6505L88.1989 57.1091L89.0124 57.2148C89.8192 57.3206 90.4938 57.8295 90.8179 58.5829C91.1353 59.3298 91.0427 60.1691 90.5599 60.83L90.0771 61.4909L91.1287 63.9496L91.9421 64.0553C92.749 64.1611 93.4236 64.67 93.7476 65.4234C94.0651 66.1702 93.9725 67.0096 93.4897 67.6705L93.0069 68.3314L94.0585 70.79L94.8719 70.8958C95.7317 71.0082 96.4393 71.5832 96.7303 72.4027C97.1205 73.4932 96.5981 74.7357 95.5465 75.2248C95.4671 75.1455 95.4407 75.1521 95.4208 75.1653Z" fill="#89817D"/>
<path opacity="0.6" d="M95.7249 74.4117C95.4273 74.5373 95.1099 74.5373 94.8123 74.3985L93.9128 73.9888L66.4602 9.77412C65.7195 8.03591 63.6892 7.22959 61.9432 7.97643L61.93 7.98304C61.7051 8.08218 61.467 8.10201 61.2289 8.04252L60.4023 7.84426L56.0572 9.70143L55.6273 10.435C55.5017 10.6465 55.3231 10.8051 55.0982 10.9043C54.8734 11.0034 54.6353 11.0232 54.3972 10.9638L53.5705 10.7655L49.2255 12.6227L48.7956 13.3563C48.6699 13.5678 48.4914 13.7264 48.2665 13.8255C48.0416 13.9247 47.8036 13.9445 47.5655 13.885L46.7388 13.6868L42.3937 15.5439L41.9638 16.2775C41.8382 16.489 41.6596 16.6476 41.4348 16.7468C41.2099 16.8459 40.9718 16.8658 40.7337 16.8063L39.907 16.608L35.562 18.4652L35.1321 19.1988C35.0064 19.4103 34.8279 19.5689 34.603 19.668C34.3782 19.7672 34.1401 19.787 33.902 19.7275L33.0753 19.5293L28.7302 21.3864L28.3004 22.12C28.1747 22.3315 27.9961 22.4902 27.7713 22.5893C27.5464 22.6884 27.3083 22.7083 27.0702 22.6488L26.2436 22.4505L21.8985 24.3077L21.4686 25.0413C21.343 25.2528 21.1644 25.4114 20.9395 25.5105C20.7147 25.6097 20.4766 25.6295 20.2385 25.57L19.4118 25.3718L15.0667 27.2289L14.6369 27.9625C14.5112 28.174 14.3327 28.3327 14.1078 28.4318C13.8829 28.5309 13.6448 28.5508 13.4068 28.4913L12.5801 28.293L8.235 30.1502L7.80513 30.8838C7.67947 31.0953 7.50091 31.2539 7.27605 31.353C6.70068 31.5976 6.03271 31.3332 5.78801 30.7582C5.66897 30.4872 5.66897 30.1832 5.78801 29.8924C5.90044 29.6082 6.11869 29.3835 6.38984 29.2712L6.40968 29.2645C6.62131 29.1786 6.86601 29.1588 7.09748 29.2117L7.92417 29.4099L12.2692 27.5528L12.6991 26.8192C12.8248 26.6077 13.0033 26.4491 13.2282 26.3499C13.4531 26.2508 13.6911 26.2309 13.9292 26.2904L14.7559 26.4887L19.101 24.6315L19.5309 23.8979C19.6565 23.6864 19.8351 23.5278 20.0599 23.4287C20.2848 23.3295 20.5229 23.3097 20.761 23.3692L21.5877 23.5674L25.9327 21.7103L26.3626 20.9767C26.4882 20.7652 26.6668 20.6065 26.8917 20.5074C27.1165 20.4083 27.3546 20.3884 27.5927 20.4479L28.4194 20.6462L32.7645 18.789L33.1943 18.0554C33.32 17.8439 33.4986 17.6853 33.7234 17.5862C33.9483 17.487 34.1864 17.4672 34.4244 17.5267L35.2511 17.7249L39.5962 15.8678L40.0261 15.1342C40.1517 14.9227 40.3303 14.764 40.5552 14.6649C40.78 14.5658 41.0181 14.5459 41.2562 14.6054L42.0829 14.8037L46.428 12.9465L46.8578 12.2129C46.9835 12.0014 47.162 11.8428 47.3869 11.7437C47.6118 11.6445 47.8498 11.6247 48.0879 11.6842L48.9146 11.8824L53.2597 10.0253L53.6896 9.29165C53.8152 9.08015 53.9938 8.92154 54.2187 8.8224C54.4435 8.72326 54.6816 8.70344 54.9197 8.76292L55.7464 8.96119L60.0914 7.10401L60.5213 6.37041C60.647 6.15891 60.8255 6.0003 61.0504 5.90116C61.2752 5.80202 61.5133 5.78218 61.7514 5.84166L62.5781 6.03995L65.865 4.63219L66.2949 3.89859C66.4205 3.68709 66.5991 3.52846 66.824 3.43594C66.8438 3.42933 66.8637 3.4161 66.8901 3.40949C67.4258 3.21783 68.0541 3.47559 68.2988 3.9911C68.5435 4.51323 68.3583 5.13448 67.8755 5.4319L65.9841 6.60173L67.6573 10.5143L69.1189 10.706C69.5289 10.7589 69.853 11.01 70.0183 11.3868C70.177 11.7635 70.1307 12.1733 69.886 12.5037L69.013 13.6934L70.5804 17.3548L72.042 17.5465C72.4521 17.5994 72.7761 17.8505 72.9415 18.2272C73.1002 18.604 73.0539 19.0137 72.8092 19.3442L71.9362 20.5338L73.5036 24.1953L74.9652 24.387C75.3752 24.4399 75.6993 24.691 75.8646 25.0677C76.0233 25.4445 75.9771 25.8542 75.7324 26.1847L74.8594 27.3743L76.4268 31.0358L77.8883 31.2275C78.2984 31.2803 78.6225 31.5315 78.7878 31.9082C78.9465 32.2849 78.9002 32.6947 78.6555 33.0252L77.7825 34.2148L79.3499 37.8763L80.8115 38.068C81.2216 38.1208 81.5456 38.372 81.7109 38.7487C81.8697 39.1254 81.8234 39.5352 81.5787 39.8656L80.7057 41.0553L82.2731 44.7168L83.7347 44.9084C84.1447 44.9613 84.4688 45.2125 84.6341 45.5892C84.7928 45.9659 84.7465 46.3757 84.5018 46.7061L83.6289 47.8958L85.1963 51.5573L86.6579 51.7489C87.0679 51.8018 87.392 52.053 87.5573 52.4297C87.716 52.8064 87.6697 53.2162 87.425 53.5466L86.552 54.7363L88.1194 58.3978L89.581 58.5894C89.9911 58.6423 90.3151 58.8934 90.4804 59.2702C90.6392 59.6469 90.5929 60.0567 90.3482 60.3871L89.4752 61.5768L91.0426 65.2382L92.5042 65.4299C92.9142 65.4828 93.2383 65.7339 93.4036 66.1106C93.5623 66.4874 93.516 66.8971 93.2713 67.2276L92.3984 68.4172L93.9658 72.0787L95.4273 72.2704C95.8506 72.3299 96.2077 72.6141 96.3532 73.0238C96.545 73.5526 96.2805 74.1804 95.7646 74.4184C95.7448 74.3985 95.7316 74.4051 95.7249 74.4117Z" fill="#A0928A"/>
<path d="M94.9647 74.1078C94.6671 74.2334 94.3496 74.2334 94.052 74.0946L93.1526 73.6848L65.7 9.47017C64.9593 7.73196 62.9289 6.92564 61.183 7.67247L61.1697 7.67909C60.9449 7.77823 60.7068 7.79805 60.4687 7.73857L59.642 7.54028L55.2969 9.39746L54.8671 10.1311C54.7414 10.3426 54.5629 10.5012 54.338 10.6003C54.1131 10.6995 53.8751 10.7193 53.637 10.6598L52.8103 10.4615L48.4652 12.3187L48.0353 13.0523C47.9097 13.2638 47.7311 13.4225 47.5062 13.5216C47.2814 13.6207 47.0433 13.6406 46.8052 13.5811L45.9785 13.3828L41.6335 15.24L41.2036 15.9736C41.0779 16.1851 40.8994 16.3437 40.6745 16.4428C40.4496 16.542 40.2116 16.5618 39.9735 16.5023L39.1468 16.304L34.8017 18.1612L34.3718 18.8948C34.2462 19.1063 34.0676 19.265 33.8428 19.3641C33.6179 19.4632 33.3798 19.4831 33.1417 19.4236L32.315 19.2253L27.97 21.0825L27.5401 21.8161C27.4145 22.0276 27.2359 22.1862 27.011 22.2853C26.7862 22.3845 26.5481 22.4043 26.31 22.3448L25.4833 22.1465L21.1382 24.0037L20.7084 24.7373C20.5827 24.9488 20.4041 25.1075 20.1793 25.2066C19.9544 25.3057 19.7163 25.3256 19.4782 25.2661L18.6516 25.0678L14.3065 26.925L13.8766 27.6586C13.751 27.8701 13.5724 28.0287 13.3475 28.1278C13.1227 28.227 12.8846 28.2468 12.6465 28.1873L11.8198 27.989L7.47475 29.8462L7.04487 30.5798C6.91921 30.7913 6.74065 30.95 6.5158 31.0491C5.94042 31.2936 5.27246 31.0293 5.02776 30.4543C4.90872 30.1833 4.90872 29.8793 5.02776 29.5885C5.14019 29.3043 5.35843 29.0796 5.62958 28.9672L5.64942 28.9606C5.86105 28.8747 6.10576 28.8549 6.33723 28.9077L7.16392 29.106L11.509 27.2488L11.9389 26.5152C12.0645 26.3037 12.2431 26.1451 12.4679 26.0459C12.6928 25.9468 12.9309 25.927 13.169 25.9865L13.9957 26.1848L18.3407 24.3276L18.7706 23.594C18.8963 23.3825 19.0748 23.2238 19.2997 23.1247C19.5245 23.0256 19.7626 23.0057 20.0007 23.0652L20.8274 23.2635L25.1725 21.4063L25.6023 20.6727C25.728 20.4612 25.9066 20.3026 26.1314 20.2034C26.3563 20.1043 26.5944 20.0845 26.8325 20.144L27.6591 20.3422L32.0042 18.4851L32.4341 17.7515C32.5597 17.54 32.7383 17.3813 32.9632 17.2822C33.188 17.1831 33.4261 17.1632 33.6642 17.2227L34.4909 17.421L38.836 15.5638L39.2658 14.8302C39.3915 14.6187 39.5701 14.4601 39.7949 14.3609C40.0198 14.2618 40.2579 14.242 40.4959 14.3015L41.3226 14.4997L45.6677 12.6426L46.0976 11.909C46.2232 11.6975 46.4018 11.5388 46.6267 11.4397C46.8515 11.3405 47.0896 11.3207 47.3277 11.3802L48.1544 11.5785L52.4994 9.72132L52.9293 8.98769C53.055 8.7762 53.2335 8.61758 53.4584 8.51845C53.6833 8.41931 53.9214 8.39948 54.1594 8.45897L54.9861 8.65723L59.3312 6.80006L59.7611 6.06645C59.8867 5.85496 60.0653 5.69632 60.2901 5.59719C60.515 5.49805 60.7531 5.47822 60.9912 5.53771L61.8179 5.73599L65.1048 4.32824L65.5346 3.59461C65.6603 3.38312 65.8389 3.22451 66.0637 3.13198C66.0836 3.12537 66.1034 3.11215 66.1299 3.10554C66.6656 2.91387 67.2938 3.17163 67.5385 3.68715C67.7832 4.20927 67.5981 4.83053 67.1153 5.12794L65.2238 6.29776L66.897 10.2104L68.3586 10.4021C68.7686 10.4549 69.0927 10.7061 69.258 11.0828C69.4168 11.4595 69.3705 11.8693 69.1258 12.1998L68.2528 13.3894L69.8202 17.0509L71.2818 17.2425C71.6918 17.2954 72.0159 17.5466 72.1812 17.9233C72.3399 18.3 72.2936 18.7098 72.0489 19.0402L71.176 20.2299L72.7434 23.8914L74.2049 24.083C74.615 24.1359 74.939 24.387 75.1044 24.7638C75.2631 25.1405 75.2168 25.5503 74.9721 25.8807L74.0991 27.0704L75.6665 30.7318L77.1281 30.9235C77.5381 30.9764 77.8622 31.2275 78.0275 31.6043C78.1863 31.981 78.14 32.3908 77.8953 32.7212L77.0223 33.9109L78.5897 37.5723L80.0513 37.764C80.4613 37.8169 80.7854 38.068 80.9507 38.4447C81.1094 38.8215 81.0631 39.2312 80.8185 39.5617L79.9455 40.7513L81.5129 44.4128L82.9744 44.6045C83.3845 44.6574 83.7085 44.9085 83.8739 45.2852C84.0326 45.662 83.9863 46.0717 83.7416 46.4022L82.8686 47.5918L84.436 51.2533L85.8976 51.445C86.3076 51.4978 86.6317 51.749 86.797 52.1257C86.9558 52.5025 86.9095 52.9122 86.6648 53.2427L85.7918 54.4323L87.3592 58.0938L88.8208 58.2855C89.2308 58.3383 89.5549 58.5895 89.7202 58.9662C89.8789 59.3429 89.8326 59.7527 89.5879 60.0831L88.715 61.2728L90.2824 64.9343L91.7439 65.1259C92.154 65.1788 92.478 65.43 92.6434 65.8067C92.8021 66.1834 92.7558 66.5932 92.5111 66.9236L91.6381 68.1133L93.2055 71.7748L94.6671 71.9664C95.0904 72.0259 95.4475 72.3101 95.593 72.7199C95.7848 73.2486 95.5202 73.8765 95.0044 74.1144C94.9912 74.1012 94.9779 74.1012 94.9647 74.1078Z" fill="#A0928A"/>
</svg>
