<svg width="109" height="69" viewBox="0 0 109 69" fill="none" xmlns="http://www.w3.org/2000/svg">
<path opacity="0.43" d="M107.41 65.5294C109.685 61.7423 106.96 56.7061 101.749 55.0472L74.8519 46.4818C83.1981 46.8849 94.9767 49.0725 97.7346 45.1203C98.6803 43.7654 99.3681 41.4125 98.9647 38.9936C101.002 37.6982 102.106 36.4953 101.577 35.6229C99.626 32.4108 96.6963 28.8882 88.8328 25.9008C89.4677 24.6186 89.6992 23.5942 89.3553 23.0324C87.3844 19.7807 84.4216 16.2184 76.3531 13.2112C74.8519 12.6494 73.3176 13.2773 71.8031 14.6652C71.36 14.4868 70.9102 14.3083 70.4341 14.1299C69.1709 13.6606 68.0664 14.0175 67.1141 14.9626C66.876 13.6408 66.1882 12.7089 64.8853 12.3652C63.6751 12.0414 62.5574 11.8035 61.5058 11.6184C61.0495 9.64888 60.1501 8.27417 58.6158 7.87101C50.296 5.65694 45.8186 6.85319 42.3267 8.36008C41.7513 8.61123 41.3678 9.47704 41.1495 10.7592C33.339 8.82934 29.027 9.98594 25.6475 11.4466C24.7216 11.8497 24.9068 13.4425 25.7996 15.6434C24.1131 17.375 23.3328 19.6552 23.3195 21.281C23.2799 25.9207 33.3654 30.7585 40.3956 35.1206C40.7328 35.3783 41.0635 35.6163 41.381 35.8212L15.1585 27.4672C9.94705 25.8083 4.80836 28.3462 4.47107 32.7479L4.06104 38.1212C37.77 48.2794 71.7634 58.5303 105.505 68.7018L107.41 65.5294ZM48.9799 38.2401L48.8278 38.1939C48.8278 38.1939 48.8344 38.1212 48.8344 38.022C48.9733 38.1278 49.1188 38.2467 49.2643 38.3393L48.9799 38.2401ZM60.203 37.8568C58.834 39.7933 58.0007 41.1151 58.0007 41.1151C58.0007 41.1151 58.0668 39.8858 58.0867 37.9493C59.1316 36.1979 60.58 33.6996 62.0085 30.937C61.8762 31.8887 61.7572 32.8206 61.6513 33.7129C61.0826 35.2594 60.5998 36.6738 60.203 37.8568ZM67.1736 44.0364L67.0215 43.9901L66.499 43.8249C66.6313 43.8315 66.7768 43.8183 66.9091 43.8183L67.2464 43.924C67.2067 43.9901 67.1736 44.0364 67.1736 44.0364Z" fill="#72635B"/>
<path d="M104.454 59.819C106.729 56.032 104.004 50.9958 98.7929 49.3369L12.2024 21.7568C6.99098 20.0979 1.85229 22.6358 1.515 27.0376L0.741211 37.1232C33.736 47.0699 67.0151 57.1026 100.096 67.0759L104.454 59.819Z" fill="#A56278"/>
<path d="M64.072 38.2732L46.0237 32.5232L40.7197 49.1651C46.7645 50.9892 52.8092 52.8067 58.8539 54.6308L64.072 38.2732Z" fill="#E5A8C6"/>
<path d="M64.2178 38.3259C64.2178 38.3259 77.5506 17.084 85.619 20.0912C93.6809 23.0983 96.6503 26.6607 98.6211 29.9124C100.592 33.1641 80.0174 41.1017 71.6712 40.6985L64.2178 38.3259Z" fill="#CE99B5"/>
<path d="M45.8715 32.4768C45.8715 32.4768 47.2934 7.44126 38.9736 5.2338C30.6538 3.01973 26.1765 4.21599 22.6846 5.72288C19.1926 7.22978 31.3813 25.6099 38.4247 30.1041L45.8715 32.4768Z" fill="#CE99B5"/>
<path d="M53.5633 34.7899C53.5633 34.7899 70.2359 8.86218 61.9227 6.64811C53.6096 4.43404 49.1256 5.6303 45.6337 7.13719C42.1417 8.64408 39.0797 27.9164 46.1165 32.4172L53.5633 34.7899Z" fill="#E197C1"/>
<path d="M57.9941 36.2043C57.9941 36.2043 59.4094 5.41222 67.4713 8.41939C75.5331 11.4266 78.5026 14.9889 80.4734 18.2406C82.4442 21.4923 73.7872 38.9802 65.4409 38.577L57.9941 36.2043Z" fill="#E197C1"/>
<path d="M56.0962 35.7351C56.0962 35.7351 65.322 4.49354 73.3905 7.4941C81.4523 10.5013 84.4218 14.0636 86.3926 17.3153C88.3635 20.567 71.8958 38.5109 63.5496 38.1078L56.0962 35.7351Z" fill="#CE99B5"/>
<path d="M53.755 34.9883C53.755 34.9883 63.9662 4.36145 55.653 2.14738C47.3333 -0.0666949 42.8559 1.12957 39.364 2.63646C35.8721 4.14335 39.2648 28.1148 46.3082 32.6156L53.755 34.9883Z" fill="#CE99B5"/>
<path d="M45.6801 32.2787C45.6801 32.2787 40.429 10.138 32.1092 7.92388C23.7894 5.70981 20.3901 12.1207 20.357 15.5641C20.3174 20.3822 31.1899 25.4051 38.2267 29.906L45.6801 32.2787Z" fill="#E197C1"/>
<path d="M64.4492 38.3987C64.4492 38.3987 81.5517 23.3761 89.6136 26.3833C97.6754 29.3905 96.7429 36.5878 94.7721 39.4099C92.0143 43.3622 80.2422 41.1746 71.8894 40.7714L64.4492 38.3987Z" fill="#E197C1"/>
<path opacity="0.43" d="M55.0845 35.2725C55.0845 35.2725 69.5813 12.9534 78.6616 16.3042C87.7419 19.6551 91.128 23.5082 93.3965 26.9979C95.6649 30.4875 72.802 38.5308 63.4572 37.936L55.0845 35.2725Z" fill="#72635B"/>
<path opacity="0.43" d="M55.0841 35.2726C55.0841 35.2726 56.1819 8.68386 46.8305 6.17238C37.4856 3.65428 32.4924 4.83732 28.6169 6.37726C24.7414 7.91719 38.7355 27.6918 46.7048 32.6091L55.0841 35.2726Z" fill="#72635B"/>
<path d="M55.0444 35.4047C55.0444 35.4047 68.3772 14.1629 76.4457 17.17C84.5076 20.1772 87.477 23.7395 89.4478 26.9912C91.4187 30.243 70.8441 38.1806 62.4978 37.7774L55.0444 35.4047Z" fill="#E5A8C6"/>
<path d="M55.0448 35.4046C55.0448 35.4046 56.4667 10.3691 48.147 8.16161C39.8272 5.95414 35.3498 7.14379 31.8579 8.65068C28.366 10.1576 40.5547 28.5377 47.598 33.0319L55.0448 35.4046Z" fill="#E5A8C6"/>
</svg>
