<svg width="111" height="69" viewBox="0 0 111 69" fill="none" xmlns="http://www.w3.org/2000/svg">
<path opacity="0.43" d="M4.23291 1.70403L18.6305 62.5348C19.4109 65.8262 23.0152 68.2121 27.2082 68.2121H47.0685H66.0096H86.8157C91.0152 68.2121 94.613 65.8262 95.3934 62.5348L110.175 0.0583496C74.9378 0.61352 39.4366 1.15547 4.23291 1.70403Z" fill="#72635B"/>
<path d="M0.773926 1.76352L14.0803 57.9943C14.8607 61.2857 18.465 63.6716 22.658 63.6716H82.2654C86.465 63.6716 90.0627 61.2857 90.8431 57.9943L104.533 0.150879C69.9908 0.686221 35.2302 1.22157 0.773926 1.76352Z" fill="#A56278"/>
<path d="M42.5181 1.10916V63.6715H61.4591V0.818359C55.1432 0.917497 48.8273 1.01664 42.5181 1.10916Z" fill="#E5A8C6"/>
</svg>
