<svg width="117" height="113" viewBox="0 0 117 113" fill="none" xmlns="http://www.w3.org/2000/svg">
<path d="M94.6216 49.1713L64.6641 17.9575L20.9485 59.8587L50.906 91.0725L94.6216 49.1713Z" fill="#85D0F1"/>
<path d="M59.9922 48.3803L62.9153 51.6518C62.9153 51.6518 57.2013 55.7495 54.7543 55.3662C52.3073 54.9828 47.7836 56.5823 42.764 50.1648C37.7444 43.7539 37.083 44.3883 37.083 44.3883L47.5257 34.3821L59.9922 48.3803Z" fill="#219982"/>
<path d="M67.5514 50.9643C67.5514 50.9643 70.6002 48.2281 73.7945 48.01C76.9822 47.7853 73.2853 49.2525 73.6557 49.8408C74.0326 50.429 75.5471 51.8103 76.7111 51.4468C77.8751 51.0833 80.2228 51.2948 78.8406 52.0548C77.4584 52.8149 77.0417 54.1566 78.7943 53.6146C80.5403 53.0727 79.6475 54.3086 78.6687 54.8637C77.6899 55.4255 74.5815 56.516 75.9902 58.3798C77.3989 60.2436 78.8208 62.0677 79.3631 61.3738C79.9054 60.6798 83.1658 57.8511 84.634 58.7499L71.255 71.5717L59.1787 58.9879L67.5514 50.9643Z" fill="#64B053"/>
<path d="M54.8203 27.449C54.8203 27.449 54.3573 30.7139 55.9843 31.4211C57.6112 32.1283 59.8664 32.4785 59.668 33.9656C59.4696 35.4527 57.4459 37.2834 58.9802 39.0811C60.5145 40.8788 58.3056 46.7808 59.992 48.3736C61.6785 49.9664 58.6561 48.7107 55.4883 46.8271C52.3204 44.9501 58.6363 50.4291 56.2157 49.3452C53.7952 48.2612 52.7238 45.3664 49.4634 43.7472C46.2029 42.1213 51.7582 45.7564 51.0506 46.6883C50.3429 47.6202 46.0442 40.2047 43.6765 40.3897C41.3155 40.5748 39.0537 42.5575 39.0537 42.5575L54.8203 27.449Z" fill="#64B053"/>
<path d="M41.7387 48.0166C41.7387 48.0166 45.7928 48.0893 48.1141 47.9968C50.4289 47.9043 49.6683 50.0522 50.8786 50.8784C52.0889 51.7045 49.4633 51.9226 50.8852 53.608C52.3137 55.2933 52.8362 53.4494 56.004 56.2186C59.1719 58.9879 60.8054 66.5487 59.6745 67.3683C58.5436 68.1878 56.0239 60.6269 54.43 62.4709C52.8362 64.3082 46.2161 65.6036 46.2161 65.6036C46.2161 65.6036 34.6887 56.7539 34.1398 53.0264C33.5975 49.2922 37.6185 47.4218 38.9346 48.4264C40.2573 49.431 41.7387 48.0166 41.7387 48.0166Z" fill="#AF7045"/>
<path d="M42.8035 38.9092C42.8035 38.9092 41.9106 43.8727 43.1341 45.5382C44.3576 47.2037 42.6447 50.7396 42.8498 52.4315C43.0548 54.1235 40.6144 53.0594 38.6237 51.2815C36.6331 49.5037 34.821 50.8718 38.4187 56.6812C42.0165 62.4907 51.8838 70.7059 51.8838 70.7059L57.6111 62.0016C57.6111 62.0016 59.7274 68.6306 61.0038 69.3179C62.2802 70.0053 65.8846 75.5438 64.4032 78.1346L59.529 82.8073C59.529 82.8073 34.4043 66.3835 31.1968 50.0324L42.8035 38.9092Z" fill="#CA8454"/>
<path d="M31.1967 50.0391C31.1967 50.0391 35.8923 62.4445 42.7968 68.8884C49.7013 75.3323 59.529 82.8139 59.529 82.8139L50.905 91.0753L20.9458 59.8603L31.1967 50.0391Z" fill="#8D542E"/>
<path d="M60.0846 48.2943C60.0846 48.2943 60.0383 50.2374 58.1071 50.1911C56.176 50.1449 53.8084 48.823 52.3402 49.8541C50.872 50.8851 49.8205 53.7799 52.4195 56.4897C55.0186 59.1994 58.3254 62.6428 60.8451 62.1141C63.3648 61.5919 63.1665 54.9233 66.7047 50.6075C70.2561 46.2917 60.0846 48.2943 60.0846 48.2943Z" fill="#FFE730"/>
<path d="M66.189 36.3117C66.189 36.3117 64.787 35.2741 62.6244 37.1577C60.4618 39.0413 59.5557 37.9046 58.9803 39.081C58.405 40.2574 58.7158 41.4008 57.2145 42.7755C55.7133 44.1502 56.0902 46.3445 54.8932 47.3491C53.6962 48.3536 53.802 48.8229 52.3338 49.8473C50.8656 50.8717 49.5032 51.4335 48.002 52.8677C48.002 52.8677 51.1037 50.5875 52.5454 51.5987C53.9938 52.6099 55.6934 51.1956 55.9514 50.2703C56.2093 49.345 58.1272 52.4183 59.0531 50.3959C59.9856 48.3735 61.8374 47.7258 61.8374 47.7258L66.189 36.3117Z" fill="#1E3D5B"/>
<path d="M60.5938 48.9287C60.5938 48.9287 60.9509 49.9135 62.7101 50.2109C64.4693 50.5083 65.6927 51.3279 68.6291 49.9201C71.5655 48.5124 74.8921 44.3618 74.5085 41.89C74.1315 39.4248 60.5938 48.9287 60.5938 48.9287Z" fill="#C5AE30"/>
<path d="M72.5906 46.1332C75.0971 43.734 75.1765 39.762 72.7758 37.2571C70.3751 34.7522 66.4004 34.6729 63.8938 37.072C61.3873 39.4711 58.2128 44.3817 60.0845 48.2944C61.0104 50.2308 66.8633 51.6188 72.5906 46.1332Z" fill="#FFE730"/>
<path d="M52.3401 49.854C52.3401 49.854 46.9568 52.1738 44.5362 57.3356C42.1091 62.4973 24.9404 64.0174 24.9404 64.0174L41.1898 80.9501C41.1898 80.9501 56.8109 69.7476 62.3133 61.0367C63.3185 59.4373 65.005 57.0712 63.3384 57.9634C57.869 60.8847 49.1987 56.787 52.3401 49.854Z" fill="#593A54"/>
<path d="M62.0821 59.8008C62.0821 59.8008 57.9024 59.8338 51.2558 63.7464C44.6093 67.6591 26.561 65.7028 26.561 65.7028L35.9324 75.4645C35.9324 75.4645 48.9676 71.803 53.4052 67.3617C57.8429 62.9203 60.7528 61.7042 62.2805 62.7617C63.8083 63.8192 55.7332 74.1295 52.5785 75.9602C49.4239 77.7975 43.2667 83.1113 43.2667 83.1113L47.8234 87.8567C47.8234 87.8567 66.1098 66.8462 65.5079 63.568C63.8083 54.3614 63.1138 61.0235 62.0821 59.8008Z" fill="#4F384B"/>
<path d="M41.17 69.5427C41.17 69.5427 39.8208 68.6438 38.0286 68.6174C36.2363 68.5909 34.4441 68.6306 33.3661 69.5162C32.2881 70.3953 36.772 70.4085 37.5524 71.0231C38.3328 71.6312 40.1251 72.1599 40.1251 72.1599L41.17 69.5427Z" fill="#FFE730"/>
<path d="M54.7804 65.4648C54.7804 65.4648 48.3058 69.4105 46.7054 71.8889C45.1115 74.3673 48.9341 75.2001 47.6246 78.3659C46.3152 81.5316 41.2559 75.6032 41.2559 75.6032C41.2559 75.6032 45.6274 83.0914 48.3654 80.8641C51.1033 78.6368 61.0103 69.0337 61.3212 67.0113C61.632 64.9889 63.8872 62.6757 62.4521 62.028C61.0236 61.3737 58.8345 61.9487 54.7804 65.4648Z" fill="#443241"/>
<path d="M54.2516 49.4906C54.2516 49.4906 49.7676 48.7966 46.8643 50.6935C43.9544 52.5903 40.5616 55.3265 37.5525 55.1613C34.5434 54.996 32.2683 54.7251 30.6745 56.2518C29.0806 57.7785 24.0477 56.9391 24.0477 56.9391L20.9526 59.8538L24.9472 64.0109C24.9472 64.0109 32.976 64.4736 34.7418 66.1722C36.501 67.8707 36.6266 64.2555 38.8091 62.7817C40.9849 61.3078 45.7731 51.7179 51.9435 50.9512L54.2516 49.4906Z" fill="#4F384B"/>
<path d="M46.3683 73.5017C46.3683 73.5017 41.5272 70.1575 40.5947 68.9414C39.6622 67.7253 39.7284 70.6069 38.4983 70.9506C37.2682 71.2942 41.2561 75.5968 41.2561 75.5968C41.2561 75.5968 44.8803 81.8226 47.6249 78.3594C50.3695 74.8962 46.3683 73.5017 46.3683 73.5017Z" fill="#673A5F"/>
<path d="M40.8591 66.8726C40.8591 66.8726 41.0311 68.0755 43.5376 69.9459C46.0441 71.8162 45.7465 73.224 46.1235 74.7045C46.5005 76.1849 46.5468 78.2139 45.7135 77.976C44.8802 77.7381 44.027 76.707 43.2466 76.0395C42.4662 75.372 41.58 73.0984 41.1369 71.6841C40.6872 70.2697 36.653 67.593 36.653 67.593C36.653 67.593 35.5022 66.9122 36.9903 66.1786C38.4717 65.4582 40.8591 66.8726 40.8591 66.8726Z" fill="#FFE730"/>
<path d="M48.4252 52.3259C48.4252 52.3259 45.1251 54.7978 44.186 59.14C43.2469 63.4822 40.9256 61.8497 39.8542 63.2971C38.7828 64.7446 40.8594 66.8727 40.8594 66.8727C40.8594 66.8727 37.7114 66.0928 36.6533 67.5997C35.5951 69.1066 33.4391 63.5086 34.1864 61.3342C34.9337 59.1598 36.9773 58.5848 37.9429 58.3799C38.9085 58.175 40.6875 55.6966 41.6067 56.0601C42.526 56.4236 45.1383 54.3814 48.4252 52.3259Z" fill="#673A5F"/>
<path d="M72.26 36.781C72.26 36.781 70.2892 37.2635 69.8196 38.1491C69.35 39.0347 71.8632 38.8959 72.8287 43.4497C73.7877 48.0034 76.8961 39.8609 72.26 36.781Z" fill="#1E567D"/>
<path d="M72.0091 36.5829C72.0091 36.5829 70.5541 36.6225 69.8597 37.5742C69.1653 38.5259 68.0542 35.6906 64.7143 36.411C64.0927 36.5432 68.5039 33.4105 72.0091 36.5829Z" fill="#1E567D"/>
<path d="M74.403 42.8152C74.403 42.8152 72.1147 45.0358 70.8582 46.7212C69.6016 48.4131 68.7749 50.5743 66.7115 50.6008C64.6481 50.6272 64.3174 51.3344 63.4709 53.6013C62.6244 55.8749 62.1217 56.7275 60.766 56.8927C59.4102 57.0579 57.9685 58.8027 57.9685 58.8027C57.9685 58.8027 56.7185 59.3711 55.7662 59.7544C54.8138 60.1444 57.3865 61.3406 60.6006 59.9659C63.8148 58.5912 65.7923 59.1596 66.7578 57.8047C67.73 56.4499 67.7234 55.8881 68.6294 54.6456C69.5355 53.403 71.5658 53.1519 72.2801 51.1427C73.0009 49.1335 74.2509 46.047 74.9255 45.3993C75.6001 44.7516 75.5141 42.8019 75.0247 41.8172C74.5221 40.8456 74.403 42.8152 74.403 42.8152Z" fill="#1E3D5B"/>
<path opacity="0.43" d="M115.122 54.1698C114.514 53.4626 113.714 53.0396 112.874 52.8942L111.544 51.5129C111.445 50.733 111.101 49.9796 110.513 49.3649C109.924 48.7569 109.183 48.3802 108.41 48.248L106.267 46.0141C106.168 45.2342 105.824 44.4808 105.235 43.8661C104.647 43.2515 103.906 42.8813 103.132 42.7492L100.989 40.5153C100.89 39.7354 100.546 38.9819 99.9576 38.3673C99.369 37.7592 98.6283 37.3825 97.8545 37.2503L95.7117 35.0164C95.6125 34.2365 95.2686 33.4831 94.68 32.8684C94.0914 32.2604 93.3507 31.8837 92.577 31.7515L90.4342 29.5176C90.335 28.7377 89.9911 27.9843 89.4025 27.3696C88.8139 26.7616 88.0732 26.3848 87.2994 26.2527L85.1566 24.0188C85.0574 23.2389 84.7135 22.4855 84.1249 21.8708C83.5363 21.2628 82.7956 20.886 82.0218 20.7539L79.879 18.5199C79.7798 17.7401 79.4359 16.9866 78.8473 16.372C78.2587 15.7639 77.518 15.3872 76.7442 15.255L74.6015 13.0211C74.5023 12.2412 74.1584 11.4878 73.5698 10.8731C72.9812 10.2651 72.2405 9.88837 71.4667 9.75619L69.3239 7.52229C69.2247 6.75562 68.894 6.00879 68.3187 5.40075C66.9298 3.9269 64.6019 3.81455 63.0742 5.11656C61.6721 3.98639 59.6219 3.98638 58.2265 5.16942C57.0823 6.14097 56.6591 7.61482 56.9765 8.95648L56.2093 9.69009C54.9528 9.33981 53.5507 9.64384 52.5455 10.6088C51.5402 11.5737 51.1765 12.9616 51.4741 14.2306L50.7069 14.9642C49.4503 14.6139 48.0483 14.918 47.043 15.8829C46.0378 16.8478 45.674 18.2357 45.9716 19.5047L45.2045 20.2383C43.9479 19.8881 42.5459 20.1921 41.5406 21.157C40.5354 22.1219 40.1716 23.5099 40.4692 24.7788L39.702 25.5124C38.4455 25.1622 37.0434 25.4662 36.0382 26.4377C35.0329 27.4027 34.6692 28.7906 34.9668 30.0595L34.1996 30.7932C32.9431 30.4429 31.541 30.7469 30.5358 31.7118C29.5305 32.6768 29.1668 34.0647 29.4644 35.3337L28.6972 36.0673C27.4406 35.717 26.0386 36.021 25.0333 36.986C24.0281 37.9509 23.6643 39.3388 23.9619 40.6078L23.1948 41.3414C21.9382 40.9911 20.5361 41.2951 19.5309 42.2601C18.5256 43.225 18.1619 44.6129 18.4595 45.8819L17.6923 46.6155C16.4358 46.2652 15.0337 46.5692 14.0285 47.5342C13.0232 48.4991 12.6595 49.8871 12.9571 51.156L12.1899 51.8896C10.9334 51.5393 9.53129 51.8434 8.52604 52.8083C7.52079 53.7732 7.15705 55.1612 7.45466 56.4301L7.038 56.8267C5.53674 55.6767 3.36089 55.789 1.98528 57.1968C0.61629 58.5979 0.550162 60.8517 1.82657 62.3321C2.43501 63.0393 3.23524 63.4623 4.07515 63.6077L5.40447 64.989C5.50367 65.7689 5.84757 66.5223 6.43617 67.137C7.02477 67.745 7.76548 68.1217 8.53926 68.2539L10.682 70.4878C10.7812 71.2677 11.1251 72.0212 11.7137 72.6358C12.3024 73.2439 13.0431 73.6206 13.8168 73.7528L15.9596 75.9866C16.0588 76.7665 16.4027 77.52 16.9913 78.1346C17.5799 78.7427 18.3206 79.1194 19.0944 79.2516L21.2372 81.4855C21.3364 82.2654 21.6803 83.0188 22.2689 83.6335C22.8575 84.2415 23.5982 84.6182 24.372 84.7504L26.5148 86.9843C26.614 87.7642 26.9579 88.5176 27.5465 89.1323C28.1351 89.7469 28.8758 90.1171 29.6495 90.2492L31.7923 92.4831C31.8915 93.263 32.2354 94.0165 32.824 94.6311C33.4126 95.2392 34.1533 95.6159 34.9271 95.7481L37.0699 97.982C37.1691 98.7619 37.513 99.5153 38.1016 100.13C38.6902 100.738 39.4309 101.115 40.2047 101.247L42.3474 103.481C42.4466 104.261 42.7906 105.014 43.3792 105.629C43.9678 106.237 44.7085 106.614 45.4823 106.746L47.625 108.98C47.7242 109.746 48.0549 110.493 48.6303 111.101C50.0191 112.575 52.3471 112.687 53.8748 111.385C55.2768 112.516 57.327 112.516 58.7225 111.332C59.8666 110.361 60.2899 108.887 59.9724 107.545L60.7396 106.812C61.9962 107.162 63.3982 106.858 64.4035 105.893C65.4087 104.928 65.7725 103.54 65.4749 102.271L66.242 101.538C67.4986 101.888 68.9007 101.584 69.9059 100.619C70.9112 99.6541 71.2749 98.2662 70.9773 96.9972L71.7444 96.2636C73.001 96.6139 74.4031 96.3098 75.4083 95.3449C76.4136 94.38 76.7773 92.9921 76.4797 91.7231L77.2469 90.9895C78.5034 91.3398 79.9055 91.0357 80.9107 90.0642C81.916 89.0992 82.2797 87.7113 81.9821 86.4424L82.7493 85.7087C84.0059 86.059 85.4079 85.755 86.4132 84.7901C87.4184 83.8251 87.7822 82.4372 87.4846 81.1682L88.2517 80.4346C89.5083 80.7849 90.9104 80.4809 91.9156 79.516C92.9209 78.551 93.2846 77.1631 92.987 75.8941L93.7542 75.1605C95.0107 75.5108 96.4128 75.2068 97.418 74.2418C98.4233 73.2769 98.787 71.889 98.4894 70.62L99.2566 69.8864C100.513 70.2367 101.915 69.9326 102.92 68.9677C103.926 68.0028 104.289 66.6149 103.992 65.3459L104.759 64.6123C106.016 64.9626 107.418 64.6585 108.423 63.6936C109.428 62.7287 109.792 61.3407 109.494 60.0718L109.911 59.6752C111.412 60.8252 113.588 60.7129 114.964 59.3051C116.333 57.904 116.405 55.6502 115.122 54.1698ZM64.8995 26.7087L90.3746 53.2181L52.0627 89.8395L26.5875 63.3301L64.8995 26.7087ZM64.0463 11.7984L63.967 11.5208C64.0133 11.5407 64.0596 11.5605 64.1059 11.5803L64.0463 11.7984Z" fill="#72635B"/>
<path d="M25.9589 59.6356L66.8964 20.5094L61.8834 2.63818L4.86182 57.3687L25.9589 59.6356Z" fill="#7D6B5F"/>
<path d="M4.86182 57.3687L50.6272 104.988L56.1826 91.082L25.9589 59.6356L4.86182 57.3687Z" fill="#847263"/>
<path d="M18.5649 58.8359L54.1786 96.0984L56.1825 91.0821L25.9588 59.6356L18.5649 58.8359Z" fill="#7B6A58"/>
<path d="M25.9588 59.6355L66.8964 20.5093L65.2496 14.4553L18.5649 58.8358L25.9588 59.6355Z" fill="#716051"/>
<path d="M1.37005 53.5485C0.00105593 54.9496 -0.0650725 57.2033 1.21133 58.6838C1.81977 59.3909 2.62 59.8139 3.45991 59.9593L4.78923 61.3407C4.88843 62.1205 5.23233 62.874 5.82094 63.4886C6.40954 64.0967 7.15024 64.4734 7.92402 64.6056L10.0668 66.8395C10.166 67.6194 10.5099 68.3728 11.0985 68.9875C11.6871 69.5955 12.4278 69.9722 13.2016 70.1044L15.3444 72.3383C15.4436 73.1182 15.7875 73.8716 16.3761 74.4863C16.9647 75.0943 17.7054 75.4711 18.4791 75.6032L20.6219 77.8371C20.7211 78.617 21.065 79.3705 21.6536 79.9851C22.2422 80.5932 22.9829 80.9699 23.7567 81.1021L25.8995 83.336C25.9987 84.1159 26.3426 84.8693 26.9312 85.4839C27.5198 86.092 28.2605 86.4687 29.0343 86.6009L31.1771 88.8348C31.2763 89.6147 31.6202 90.3681 32.2088 90.9828C32.7974 91.5908 33.5381 91.9675 34.3118 92.0997L36.4546 94.3336C36.5538 95.1135 36.8977 95.8669 37.4863 96.4816C38.0749 97.0896 38.8156 97.4664 39.5894 97.5985L41.7322 99.8324C41.8314 100.612 42.1753 101.366 42.7639 101.98C43.3525 102.588 44.0932 102.965 44.867 103.097L47.0098 105.331C47.109 106.098 47.4396 106.845 48.015 107.453C49.4567 108.986 51.917 109.046 53.4315 107.592C54.9526 106.138 54.9989 103.725 53.5373 102.205C52.9487 101.597 52.208 101.22 51.4342 101.088L49.2914 98.8543C49.1922 98.0744 48.8483 97.321 48.2597 96.7063C47.6711 96.0983 46.9304 95.7215 46.1566 95.5893L44.0138 93.3555C43.9146 92.5756 43.5707 91.8221 42.9821 91.2075C42.3935 90.5994 41.6528 90.2227 40.8791 90.0905L38.7363 87.8566C38.6371 87.0768 38.2932 86.3233 37.7046 85.7087C37.116 85.1006 36.3753 84.7239 35.6015 84.5917L33.4587 82.3578C33.3595 81.5779 33.0156 80.8245 32.427 80.2098C31.8384 79.6018 31.0977 79.2251 30.3239 79.0929L28.1811 76.859C28.0819 76.0791 27.738 75.3256 27.1494 74.711C26.5608 74.103 25.8201 73.7262 25.0464 73.594L22.9036 71.3601C22.8044 70.5803 22.4605 69.8268 21.8719 69.2122C21.2833 68.6041 20.5426 68.2274 19.7688 68.0952L17.626 65.8613C17.5268 65.0815 17.1829 64.328 16.5943 63.7134C16.0057 63.1053 15.265 62.7286 14.4912 62.5964L12.3484 60.3625C12.2492 59.5826 11.9053 58.8292 11.3167 58.2145L11.3101 58.2079C10.9728 57.8576 10.9728 57.3091 11.3234 56.9786L64.7868 5.66504L63.8345 4.67367C63.9072 3.60298 63.5236 2.50587 62.6903 1.69295C61.2949 0.331459 59.0595 0.252149 57.5715 1.50789C56.4274 2.47944 56.0041 3.95327 56.3215 5.29493L55.5544 6.02856C54.2978 5.67827 52.8958 5.98228 51.8905 6.94722C50.8853 7.91216 50.5215 9.30009 50.8191 10.5691L50.052 11.3027C48.7954 10.9524 47.3933 11.2564 46.3881 12.2213C45.3828 13.1863 45.0191 14.5742 45.3167 15.8432L44.5495 16.5768C43.293 16.2265 41.8909 16.5305 40.8857 17.4954C39.8804 18.4604 39.5167 19.8483 39.8143 21.1173L39.0471 21.8509C37.7905 21.5006 36.3885 21.8046 35.3832 22.7696C34.378 23.7345 34.0142 25.1224 34.3118 26.3914L33.5447 27.125C32.2881 26.7747 30.8861 27.0787 29.8808 28.0437C28.8756 29.0086 28.5118 30.3965 28.8094 31.6655L28.0423 32.3991C26.7857 32.0488 25.3836 32.3528 24.3784 33.3178C23.3731 34.2827 23.0094 35.6707 23.307 36.9396L22.5398 37.6732C21.2833 37.323 19.8812 37.627 18.876 38.5919C17.8707 39.5568 17.507 40.9448 17.8046 42.2137L17.0374 42.9473C15.7808 42.5971 14.3788 42.9011 13.3735 43.866C12.3683 44.831 12.0045 46.2189 12.3021 47.4878L11.535 48.2215C10.2784 47.8712 8.87637 48.1752 7.87112 49.1401C6.86587 50.1051 6.50211 51.493 6.79972 52.762L6.38309 53.1585C4.9215 52.0283 2.74565 52.1407 1.37005 53.5485Z" fill="#A0928A"/>
<path d="M61.7183 2.79666C62.1812 3.27913 62.4061 3.907 62.3664 4.56791L62.3267 5.21562L62.7103 5.61217L10.305 55.9079C9.37913 56.8002 9.35266 58.2872 10.2521 59.2191L10.2587 59.2257C10.6092 59.5892 10.8275 60.0452 10.8936 60.5409L10.9531 61.0234L13.7705 63.9513L14.2467 64.0306C14.7427 64.1165 15.1858 64.3544 15.5363 64.7179C15.8868 65.0814 16.105 65.5375 16.1712 66.0331L16.2307 66.5156L19.0481 69.4435L19.5242 69.5228C20.0202 69.6087 20.4633 69.8466 20.8138 70.2101C21.1644 70.5736 21.3826 71.0297 21.4488 71.5254L21.5083 72.0078L24.3256 74.9357L24.8018 75.015C25.2978 75.1009 25.7409 75.3389 26.0914 75.7024C26.4419 76.0659 26.6602 76.5219 26.7263 77.0176L26.7858 77.5001L29.6032 80.4279L30.0793 80.5072C30.5754 80.5932 31.0185 80.8311 31.369 81.1946C31.7195 81.5581 31.9377 82.0141 32.0039 82.5098L32.0634 82.9923L34.8807 85.9201L35.3569 85.9995C35.8529 86.0854 36.296 86.3233 36.6465 86.6868C36.9971 87.0503 37.2153 87.5063 37.2814 88.002L37.341 88.4845L40.1583 91.4124L40.6345 91.4917C41.1305 91.5776 41.5736 91.8155 41.9241 92.179C42.2746 92.5425 42.4929 92.9986 42.559 93.4942L42.6185 93.9767L45.4359 96.9046L45.912 96.9839C46.4081 97.0698 46.8512 97.3077 47.2017 97.6712C47.5522 98.0347 47.7704 98.4908 47.8366 98.9865L47.8961 99.4689L50.7134 102.397L51.1896 102.476C51.6856 102.562 52.1287 102.8 52.4792 103.163C53.3721 104.095 53.3456 105.576 52.4131 106.468C51.97 106.898 51.3748 107.122 50.7465 107.109C50.1182 107.096 49.5362 106.845 49.1064 106.402L49.0865 106.382C48.7492 106.025 48.5376 105.576 48.4715 105.087L48.4119 104.604L45.5946 101.676L45.1184 101.597C44.6224 101.511 44.1793 101.273 43.8288 100.91C43.4783 100.546 43.26 100.09 43.1939 99.5945L43.1344 99.112L40.317 96.1776L39.8409 96.0983C39.3449 96.0123 38.9017 95.7744 38.5512 95.4109C38.2007 95.0474 37.9825 94.5914 37.9163 94.0957L37.8568 93.6132L35.0395 90.6787L34.5633 90.5994C34.0673 90.5135 33.6242 90.2756 33.2737 89.9121C32.9232 89.5486 32.7049 89.0925 32.6388 88.5968L32.5792 88.1144L29.7619 85.1865L29.2857 85.1072C28.7897 85.0213 28.3466 84.7834 27.9961 84.4199C27.6456 84.0563 27.4273 83.6003 27.3612 83.1046L27.3017 82.6222L24.4843 79.6943L24.0082 79.615C23.5122 79.5291 23.069 79.2911 22.7185 78.9276C22.368 78.5641 22.1498 78.1081 22.0836 77.6124L22.0241 77.1299L19.2068 74.2021L18.7306 74.1228C18.2346 74.0369 17.7915 73.7989 17.441 73.4354C17.0905 73.0719 16.8722 72.6159 16.8061 72.1202L16.7466 71.6377L13.9292 68.7099L13.453 68.6306C12.957 68.5446 12.5139 68.3067 12.1634 67.9432C11.8129 67.5797 11.5947 67.1237 11.5285 66.628L11.469 66.1455L8.65165 63.2177L8.17547 63.1384C7.67946 63.0524 7.23635 62.8145 6.88583 62.451C6.53532 62.0875 6.31708 61.6315 6.25095 61.1358L6.19143 60.6533L4.18754 58.5714L3.71137 58.4921C3.21536 58.4062 2.77224 58.1683 2.42173 57.8047C2.38866 57.7717 2.36222 57.7387 2.32915 57.7056C1.54876 56.8002 1.58844 55.4122 2.42835 54.553C3.25504 53.7004 4.59096 53.6079 5.53008 54.3217L6.53532 55.095L8.46647 53.2378L8.27467 52.4183C8.08288 51.6054 8.32757 50.7726 8.9294 50.1976C9.53123 49.6226 10.3712 49.4111 11.178 49.6292L11.9848 49.8539L13.9623 47.9571L13.7705 47.1375C13.5787 46.3246 13.8234 45.4919 14.4252 44.9169C15.0271 44.3419 15.867 44.1304 16.6738 44.3485L17.4807 44.5732L19.4581 42.6764L19.2663 41.8568C19.0745 41.0439 19.3192 40.2111 19.921 39.6361C20.5229 39.0611 21.3628 38.8497 22.1696 39.0678L22.9765 39.2925L24.9539 37.3956L24.7621 36.5761C24.5703 35.7632 24.815 34.9304 25.4168 34.3554C26.0187 33.7804 26.8586 33.5689 27.6654 33.787L28.4723 34.0118L30.4497 32.1149L30.2579 31.2954C30.0661 30.4825 30.3108 29.6497 30.9127 29.0747C31.5145 28.4997 32.3544 28.2882 33.1612 28.5063L33.9681 28.731L35.9455 26.8342L35.7537 26.0147C35.5619 25.2017 35.8066 24.369 36.4085 23.794C37.0103 23.219 37.8502 23.0075 38.657 23.2256L39.4639 23.4503L41.4413 21.5535L41.2495 20.7339C41.0578 19.921 41.3024 19.0883 41.9043 18.5133C42.5061 17.9383 43.346 17.7268 44.1529 17.9449L44.9597 18.1696L46.9371 16.2728L46.7454 15.4532C46.5536 14.6403 46.7983 13.8075 47.4001 13.2325C48.0019 12.6575 48.8418 12.446 49.6487 12.6641L50.4555 12.8889L52.4329 10.992L52.2412 10.1725C52.0494 9.35957 52.2941 8.52682 52.8959 7.95182C53.4977 7.37683 54.3376 7.16532 55.1445 7.38342L55.9513 7.60813L57.9288 5.71131L57.737 4.89178C57.532 4.03259 57.8296 3.14034 58.5041 2.56534C59.4102 1.79867 60.7924 1.84495 61.6389 2.6777C61.6852 2.76362 61.7051 2.77684 61.7183 2.79666Z" fill="#89817D"/>
<path opacity="0.6" d="M60.885 2.78364C61.1165 3.02818 61.2289 3.3322 61.2091 3.66266L61.1429 4.67386L9.50473 54.2294C8.10928 55.571 8.06959 57.8049 9.41213 59.2061L9.41875 59.2127C9.59732 59.3978 9.70314 59.6159 9.72959 59.867L9.84201 60.7328L13.1951 64.2224L14.0548 64.3678C14.3061 64.4075 14.5177 64.5265 14.6963 64.7049C14.8749 64.89 14.9807 65.1081 15.0071 65.3592L15.1196 66.225L18.4726 69.7147L19.3324 69.8601C19.5837 69.8997 19.7953 70.0187 19.9739 70.1971C20.1525 70.3822 20.2583 70.6003 20.2847 70.8514L20.3972 71.7172L23.7502 75.2069L24.61 75.3523C24.8613 75.3919 25.0729 75.5109 25.2515 75.6893C25.43 75.8744 25.5359 76.0925 25.5623 76.3436L25.6747 77.2094L29.0278 80.6991L29.8875 80.8445C30.1388 80.8841 30.3505 81.0031 30.529 81.1816C30.7076 81.3666 30.8134 81.5847 30.8399 81.8359L30.9523 82.7017L34.3054 86.1913L35.1651 86.3367C35.4164 86.3764 35.628 86.4953 35.8066 86.6738C35.9852 86.8588 36.091 87.0769 36.1174 87.3281L36.2299 88.1939L39.5829 91.6835L40.4427 91.8289C40.694 91.8686 40.9056 91.9875 41.0842 92.166C41.2628 92.351 41.3686 92.5691 41.395 92.8203L41.5074 93.6861L44.8605 97.1758L45.7202 97.3212C45.9716 97.3608 46.1832 97.4798 46.3618 97.6582C46.5403 97.8433 46.6461 98.0614 46.6726 98.3125L46.785 99.1783L50.1381 102.668L50.9978 102.813C51.2491 102.853 51.4608 102.972 51.6393 103.15C52.0824 103.613 52.0692 104.347 51.6063 104.789C51.388 105.001 51.097 105.107 50.7796 105.107C50.4621 105.1 50.1711 104.975 49.9661 104.756L49.9529 104.743C49.7875 104.571 49.6817 104.347 49.6553 104.109L49.5428 103.243L46.1898 99.7533L45.3301 99.6079C45.0787 99.5683 44.8671 99.4493 44.6885 99.2708C44.51 99.0858 44.4108 98.8677 44.3777 98.6165L44.2653 97.7507L40.9122 94.2611L40.0525 94.1157C39.8012 94.076 39.5895 93.9571 39.411 93.7786C39.2324 93.5936 39.1266 93.3755 39.1001 93.1243L38.9877 92.2585L35.6347 88.7689L34.7749 88.6235C34.5236 88.5838 34.312 88.4649 34.1334 88.2864C33.9548 88.1014 33.849 87.8833 33.8226 87.6321L33.7101 86.7663L30.3571 83.2767L29.4973 83.1313C29.246 83.0916 29.0344 82.9726 28.8558 82.7942C28.6773 82.6091 28.5781 82.391 28.545 82.1399L28.4326 81.2741L25.0795 77.7844L24.2198 77.639C23.9685 77.5994 23.7568 77.4804 23.5783 77.302C23.3997 77.1169 23.2939 76.8988 23.2674 76.6477L23.155 75.7819L19.8019 72.2922L18.9422 72.1468C18.6909 72.1072 18.4792 71.9882 18.3007 71.8098C18.1221 71.6313 18.0163 71.4066 17.9898 71.1554L17.8774 70.2896L14.5244 66.8L13.6646 66.6546C13.4133 66.615 13.2017 66.496 13.0231 66.3176C12.8445 66.1325 12.7453 65.9144 12.7123 65.6632L12.5998 64.7974L9.2468 61.3078L8.38705 61.1624C8.13574 61.1227 7.9241 61.0038 7.74554 60.8253C7.56698 60.6403 7.46116 60.4222 7.4347 60.171L7.32227 59.3052L4.78268 56.6615L3.92294 56.5161C3.67162 56.4765 3.45999 56.3575 3.28143 56.1791C3.2682 56.1593 3.24836 56.146 3.23513 56.1262C2.85816 55.6834 2.87799 54.9828 3.28803 54.5665C3.69806 54.1435 4.35942 54.0972 4.82236 54.4475L6.62786 55.8354L9.77587 52.815L9.43197 51.3478C9.33277 50.938 9.45181 50.5349 9.75603 50.2441C10.0603 49.9533 10.4637 49.8541 10.8737 49.9665L12.3287 50.3696L15.2717 47.5409L14.9278 46.0737C14.8286 45.6639 14.9476 45.2607 15.2519 44.9699C15.5561 44.6791 15.9595 44.58 16.3695 44.6924L17.8245 45.0955L20.7675 42.2668L20.4236 40.7996C20.3244 40.3898 20.4435 39.9866 20.7477 39.6958C21.0519 39.405 21.4553 39.3059 21.8654 39.4182L23.3203 39.8214L26.2633 36.9927L25.9194 35.5255C25.8202 35.1157 25.9393 34.7125 26.2435 34.4217C26.5477 34.1309 26.9511 34.0318 27.3612 34.1441L28.8161 34.5473L31.7592 31.7186L31.4152 30.2513C31.316 29.8416 31.4351 29.4384 31.7393 29.1476C32.0435 28.8568 32.447 28.7577 32.857 28.87L34.312 29.2732L37.255 26.4444L36.9111 24.9772C36.8119 24.5674 36.9309 24.1643 37.2351 23.8735C37.5394 23.5827 37.9428 23.4835 38.3528 23.5959L39.8078 23.9991L42.7508 21.1703L42.4069 19.7031C42.3077 19.2933 42.4267 18.8902 42.7309 18.5994C43.0352 18.3086 43.4386 18.2094 43.8486 18.3218L45.3036 18.7249L48.2466 15.8962L47.9027 14.429C47.8035 14.0192 47.9225 13.6161 48.2268 13.3253C48.531 13.0344 48.9344 12.9353 49.3444 13.0477L50.7994 13.4508L53.7424 10.6221L53.3985 9.15487C53.2993 8.7451 53.4184 8.34195 53.7226 8.05115C54.0268 7.76035 54.4302 7.6612 54.8403 7.77356L56.2952 8.17673L59.2382 5.348L58.8943 3.88077C58.7951 3.45117 58.9406 3.00836 59.2779 2.72416C59.721 2.35405 60.4154 2.37388 60.8321 2.78364C60.8718 2.76382 60.8784 2.77043 60.885 2.78364Z" fill="#A0928A"/>
<path d="M60.8718 3.61641C61.1032 3.86095 61.2157 4.16498 61.1958 4.49544L61.1297 5.50664L9.49152 55.0622C8.09608 56.4038 8.05641 58.6377 9.39895 60.0389L9.40555 60.0455C9.58411 60.2305 9.68993 60.4486 9.71638 60.6998L9.82882 61.5656L13.1819 65.0552L14.0416 65.2006C14.2929 65.2403 14.5046 65.3592 14.6831 65.5377C14.8617 65.7227 14.9675 65.9408 14.994 66.192L15.1064 67.0578L18.4594 70.5474L19.3192 70.6928C19.5705 70.7325 19.7821 70.8514 19.9607 71.0299C20.1393 71.215 20.2451 71.4331 20.2715 71.6842L20.384 72.55L23.737 76.0396L24.5967 76.1851C24.8481 76.2247 25.0597 76.3437 25.2383 76.5221C25.4168 76.7072 25.5226 76.9253 25.5491 77.1764L25.6615 78.0422L29.0146 81.5319L29.8743 81.6773C30.1256 81.7169 30.3373 81.8359 30.5158 82.0143C30.6944 82.1994 30.8002 82.4175 30.8267 82.6686L30.9391 83.5344L34.2921 87.0241L35.1519 87.1695C35.4032 87.2091 35.6148 87.3281 35.7934 87.5066C35.972 87.6916 36.0778 87.9097 36.1042 88.1609L36.2167 89.0267L39.5697 92.5163L40.4295 92.6617C40.6808 92.7014 40.8924 92.8203 41.071 92.9988C41.2495 93.1838 41.3553 93.4019 41.3818 93.6531L41.4942 94.5189L44.8473 98.0085L45.707 98.1539C45.9583 98.1936 46.17 98.3125 46.3485 98.491C46.5271 98.676 46.6329 98.8941 46.6594 99.1453L46.7718 100.011L50.1248 103.501L50.9846 103.646C51.2359 103.686 51.4476 103.805 51.6261 103.983C52.0692 104.446 52.056 105.179 51.593 105.622C51.3748 105.834 51.0838 105.94 50.7663 105.94C50.4489 105.933 50.1579 105.807 49.9529 105.589L49.9397 105.576C49.7743 105.404 49.6685 105.179 49.6421 104.942L49.5296 104.076L46.1766 100.586L45.3168 100.441C45.0655 100.401 44.8539 100.282 44.6753 100.104C44.4968 99.9186 44.3909 99.7005 44.3645 99.4493L44.252 98.5835L40.899 95.0939L40.0393 94.9485C39.7879 94.9088 39.5763 94.7899 39.3977 94.6114C39.2192 94.4264 39.1134 94.2082 39.0869 93.9571L38.9745 93.0913L35.6214 89.6017L34.7617 89.4563C34.5104 89.4166 34.2988 89.2976 34.1202 89.1192C33.9416 88.9341 33.8358 88.716 33.8094 88.4649L33.6969 87.5991L30.3439 84.1094L29.4841 83.964C29.2328 83.9244 29.0212 83.8054 28.8426 83.627C28.6641 83.4419 28.5648 83.2238 28.5318 82.9727L28.4193 82.1069L25.0663 78.6172L24.2065 78.4718C23.9552 78.4322 23.7436 78.3132 23.565 78.1347C23.3865 77.9497 23.2807 77.7316 23.2542 77.4804L23.1418 76.6146L19.7887 73.125L18.929 72.9796C18.6777 72.9399 18.466 72.821 18.2875 72.6425C18.1089 72.4575 18.0031 72.2394 17.9766 71.9882L17.8642 71.1224L14.5112 67.6328L13.6514 67.4874C13.4001 67.4477 13.1885 67.3288 13.0099 67.1503C12.8313 66.9653 12.7321 66.7472 12.6991 66.496L12.5866 65.6302L9.23361 62.1406L8.37384 61.9952C8.12253 61.9555 7.9109 61.8365 7.73233 61.6581C7.55377 61.473 7.44795 61.2549 7.4215 61.0038L7.30908 60.138L4.7695 57.4943L3.90973 57.3489C3.65842 57.3093 3.44679 57.1903 3.26822 57.0119C3.255 56.992 3.23517 56.9788 3.22194 56.959C2.84498 56.5162 2.86481 55.8156 3.27484 55.3992C3.68488 54.9762 4.34623 54.93 4.80918 55.2803L6.61465 56.6682L9.76268 53.6478L9.41879 52.1806C9.31958 51.7708 9.43862 51.3676 9.74284 51.0768C10.0471 50.786 10.4505 50.6869 10.8605 50.7992L12.3155 51.2024L15.2585 48.3737L14.9146 46.9064C14.8154 46.4967 14.9344 46.0935 15.2387 45.8027C15.5429 45.5119 15.9463 45.4128 16.3563 45.5251L17.8113 45.9283L20.7543 43.0996L20.4104 41.6323C20.3112 41.2226 20.4302 40.8194 20.7345 40.5286C21.0387 40.2378 21.4421 40.1387 21.8521 40.251L23.3071 40.6542L26.2501 37.8255L25.9062 36.3582C25.807 35.9485 25.9261 35.5453 26.2303 35.2545C26.5345 34.9637 26.9379 34.8645 27.348 34.9769L28.8029 35.3801L31.7459 32.5514L31.402 31.0841C31.3028 30.6744 31.4219 30.2712 31.7261 29.9804C32.0303 29.6896 32.4337 29.5904 32.8438 29.7028L34.2987 30.106L37.2418 27.2772L36.8978 25.81C36.7986 25.4002 36.9177 24.9971 37.2219 24.7063C37.5261 24.4155 37.9295 24.3163 38.3396 24.4287L39.7946 24.8318L42.7376 22.0031L42.3937 20.5359C42.2945 20.1261 42.4135 19.723 42.7177 19.4322C43.022 19.1414 43.4254 19.0422 43.8354 19.1546L45.2904 19.5577L48.2334 16.729L47.8895 15.2618C47.7903 14.852 47.9093 14.4488 48.2136 14.158C48.5178 13.8672 48.9212 13.7681 49.3312 13.8805L50.7862 14.2836L53.7292 11.4549L53.3853 9.98765C53.2861 9.57789 53.4051 9.17472 53.7094 8.88391C54.0136 8.59311 54.417 8.49398 54.827 8.60634L56.282 9.00949L59.225 6.18077L58.8811 4.71353C58.7819 4.28394 58.9274 3.84112 59.2647 3.55693C59.7078 3.18682 60.4022 3.20664 60.8189 3.61641C60.8519 3.59658 60.8652 3.60319 60.8718 3.61641Z" fill="#A0928A"/>
<path d="M89.7463 49.5234L51.4409 86.1448L51.8708 104.492L110.619 51.3343L89.7463 49.5234Z" fill="#7D6B5F"/>
<path d="M110.943 51.665L64.6017 3.56348L60.541 19.1347L89.7463 49.5236L110.943 51.665Z" fill="#847263"/>
<path d="M97.1467 50.3232L61.996 13.5564L60.541 19.1345L89.7462 49.5235L97.1467 50.3232Z" fill="#7B6A58"/>
<path d="M89.7463 49.5234L51.4409 86.1448L51.6129 93.4083L97.1468 50.3231L89.7463 49.5234Z" fill="#716051"/>
<path d="M114.335 55.6106C115.704 54.2095 115.77 51.9557 114.494 50.4753C113.885 49.7681 113.085 49.3451 112.245 49.1997L110.916 47.8184C110.817 47.0385 110.473 46.2851 109.884 45.6704C109.296 45.0624 108.555 44.6857 107.781 44.5535L105.638 42.3196C105.539 41.5397 105.195 40.7863 104.607 40.1716C104.018 39.5636 103.277 39.1868 102.503 39.0547L100.361 36.8208C100.262 36.0409 99.9176 35.2874 99.329 34.6728C98.7404 34.0581 97.9997 33.688 97.2259 33.5558L95.0831 31.3219C94.9839 30.542 94.64 29.7886 94.0514 29.1739C93.4628 28.5593 92.7221 28.1892 91.9483 28.057L89.8056 25.8231C89.7064 25.0432 89.3625 24.2898 88.7739 23.6751C88.1853 23.0671 87.4445 22.6904 86.6708 22.5582L84.528 20.3243C84.4288 19.5444 84.0849 18.791 83.4963 18.1763C82.9077 17.5683 82.167 17.1915 81.3932 17.0594L79.2504 14.8255C79.1512 14.0456 78.8073 13.2921 78.2187 12.6775C77.6301 12.0694 76.8894 11.6927 76.1156 11.5605L73.9728 9.32663C73.8736 8.54675 73.5297 7.7933 72.9411 7.17865C72.3525 6.57061 71.6118 6.19388 70.8381 6.0617L68.6953 3.8278C68.5961 3.06113 68.2654 2.3143 67.69 1.70626C66.2483 0.172935 63.7881 0.113458 62.2736 1.56747C60.7525 3.02149 60.7062 5.43383 62.1678 6.95394C62.7564 7.56198 63.4971 7.93871 64.2709 8.07089L66.4136 10.3048C66.5128 11.0847 66.8567 11.8381 67.4453 12.4528C68.0339 13.0608 68.7746 13.4375 69.5484 13.5697L71.6912 15.8036C71.7904 16.5835 72.1343 17.3369 72.7229 17.9516C73.3115 18.5596 74.0522 18.9363 74.826 19.0685L76.9688 21.3024C77.068 22.0823 77.4119 22.8358 78.0005 23.4504C78.5891 24.0585 79.3298 24.4352 80.1036 24.5674L82.2463 26.8013C82.3455 27.5811 82.6894 28.3346 83.278 28.9492C83.8666 29.5573 84.6073 29.934 85.3811 30.0662L87.5239 32.3001C87.6231 33.08 87.967 33.8334 88.5556 34.4481C89.1442 35.0561 89.8849 35.4328 90.6587 35.565L92.8015 37.7989C92.9007 38.5788 93.2446 39.3322 93.8332 39.9469C94.4218 40.5549 95.1625 40.9316 95.9363 41.0638L98.079 43.2977C98.1782 44.0776 98.5221 44.8311 99.1108 45.4457C99.6994 46.0538 100.44 46.4305 101.214 46.5627L103.357 48.7966C103.456 49.5764 103.8 50.3299 104.388 50.9445L104.395 50.9512C104.732 51.3014 104.732 51.85 104.382 52.1805L51.811 102.02L51.8706 104.485C51.7978 105.556 52.1814 106.653 53.0147 107.466C54.4101 108.828 56.6455 108.907 58.1335 107.651C59.2777 106.68 59.7009 105.206 59.3835 103.864L60.1506 103.131C61.4072 103.481 62.8093 103.177 63.8145 102.212C64.8198 101.247 65.1835 99.859 64.8859 98.59L65.6531 97.8564C66.9096 98.2067 68.3117 97.9027 69.317 96.9377C70.3222 95.9728 70.6859 94.5848 70.3883 93.3159L71.1555 92.5823C72.4121 92.9326 73.8141 92.6285 74.8194 91.6636C75.8246 90.6987 76.1884 89.3108 75.8908 88.0418L76.6579 87.3082C77.9145 87.6584 79.3166 87.3544 80.3218 86.3895C81.3271 85.4246 81.6908 84.0366 81.3932 82.7677L82.1604 82.0341C83.4169 82.3843 84.819 82.0803 85.8242 81.1154C86.8295 80.1504 87.1932 78.7625 86.8956 77.4936L87.6628 76.7599C88.9194 77.1102 90.3214 76.8062 91.3267 75.8413C92.3319 74.8763 92.6956 73.4884 92.398 72.2194L93.1652 71.4858C94.4218 71.8361 95.8238 71.5321 96.8291 70.5672C97.8343 69.6022 98.1981 68.2143 97.9005 66.9453L98.6677 66.2117C99.9242 66.562 101.326 66.258 102.332 65.293C103.337 64.3281 103.701 62.9402 103.403 61.6712L104.17 60.9376C105.427 61.2879 106.829 60.9839 107.834 60.0189C108.839 59.054 109.203 57.6661 108.905 56.3971L109.322 56.0005C110.79 57.1307 112.959 57.0184 114.335 55.6106Z" fill="#A0928A"/>
<path d="M53.9871 106.362C53.5242 105.88 53.2994 105.252 53.339 104.591L53.3787 103.943L52.9951 103.547L105.4 53.2511C106.326 52.3588 106.353 50.8718 105.453 49.9399L105.447 49.9333C105.096 49.5698 104.878 49.1137 104.812 48.6181L104.752 48.1356L101.935 45.2077L101.459 45.1284C100.963 45.0425 100.52 44.8046 100.169 44.4411C99.8186 44.0776 99.6004 43.6215 99.5343 43.1258L99.4748 42.6434L96.6574 39.7155L96.1812 39.6362C95.6852 39.5503 95.2421 39.3124 94.8916 38.9488C94.5411 38.5853 94.3228 38.1293 94.2567 37.6336L94.1972 37.1512L91.3798 34.2233L90.9037 34.144C90.4077 34.0581 89.9646 33.8201 89.6141 33.4566C89.2635 33.0931 89.0453 32.6371 88.9791 32.1414L88.9196 31.6589L86.1023 28.7311L85.6261 28.6518C85.1301 28.5658 84.687 28.3279 84.3365 27.9644C83.9859 27.6009 83.7677 27.1449 83.7016 26.6492L83.642 26.1667L80.8247 23.2388L80.3485 23.1595C79.8525 23.0736 79.4094 22.8357 79.0589 22.4722C78.7084 22.1087 78.4901 21.6527 78.424 21.157L78.3645 20.6745L75.5471 17.7466L75.071 17.6673C74.575 17.5814 74.1319 17.3435 73.7813 16.98C73.4308 16.6165 73.2126 16.1604 73.1464 15.6648L73.0869 15.1823L70.2696 12.2544L69.7934 12.1751C69.2974 12.0892 68.8543 11.8513 68.5037 11.4878C68.1532 11.1243 67.935 10.6682 67.8689 10.1725L67.8093 9.69006L64.992 6.76221L64.5158 6.6829C64.0198 6.59698 63.5767 6.35904 63.2262 5.99554C62.3334 5.06365 62.3598 3.58319 63.2924 2.69096C63.7355 2.26136 64.3306 2.03665 64.9589 2.04987C65.5872 2.06309 66.1692 2.31424 66.5991 2.75705L66.6189 2.77688C66.9562 3.13377 67.1678 3.58319 67.234 4.07227L67.2935 4.55475L70.1109 7.4826L70.587 7.56191C71.083 7.64783 71.5261 7.88576 71.8767 8.24927C72.2272 8.61277 72.4454 9.0688 72.5115 9.56449L72.5711 10.047L75.3884 12.9814L75.8646 13.0607C76.3606 13.1467 76.8037 13.3846 77.1542 13.7481C77.5047 14.1116 77.723 14.5676 77.7891 15.0633L77.8486 15.5458L80.666 18.4803L81.1422 18.5596C81.6382 18.6455 82.0813 18.8834 82.4318 19.2469C82.7823 19.6104 83.0005 20.0665 83.0667 20.5621L83.1262 21.0446L85.9436 23.9725L86.4197 24.0518C86.9157 24.1377 87.3588 24.3756 87.7094 24.7391C88.0599 25.1026 88.2781 25.5587 88.3442 26.0544L88.4038 26.5368L91.2211 29.4647L91.6973 29.544C92.1933 29.6299 92.6364 29.8679 92.9869 30.2314C93.3374 30.5949 93.5557 31.0509 93.6218 31.5466L93.6813 32.0291L96.4987 34.9569L96.9749 35.0362C97.4709 35.1221 97.914 35.3601 98.2645 35.7236C98.615 36.0871 98.8332 36.5431 98.8994 37.0388L98.9589 37.5213L101.776 40.4491L102.252 40.5284C102.748 40.6143 103.192 40.8523 103.542 41.2158C103.893 41.5793 104.111 42.0353 104.177 42.531L104.236 43.0135L107.054 45.9413L107.53 46.0206C108.026 46.1066 108.469 46.3445 108.82 46.708C109.17 47.0715 109.388 47.5275 109.455 48.0232L109.514 48.5057L111.518 50.5876L111.994 50.6669C112.49 50.7528 112.933 50.9907 113.284 51.3542C113.317 51.3873 113.343 51.4203 113.376 51.4534C114.157 52.3588 114.117 53.7468 113.277 54.606C112.45 55.4585 111.114 55.5511 110.175 54.8373L109.17 54.064L107.239 55.9212L107.431 56.7407C107.623 57.5536 107.378 58.3864 106.776 58.9614C106.174 59.5364 105.334 59.7479 104.527 59.5298L103.721 59.3051L101.743 61.2019L101.935 62.0214C102.127 62.8344 101.882 63.6671 101.28 64.2421C100.678 64.8171 99.8385 65.0286 99.0317 64.8105L98.2248 64.5858L96.2474 66.4826L96.4392 67.3022C96.631 68.1151 96.3862 68.9478 95.7844 69.5228C95.1826 70.0978 94.3427 70.3093 93.5358 70.0912L92.729 69.8665L90.7516 71.7633L90.9434 72.5829C91.1352 73.3958 90.8904 74.2286 90.2886 74.8036C89.6868 75.3786 88.8469 75.59 88.04 75.3719L87.2332 75.1472L85.2557 77.0441L85.4476 77.8636C85.6394 78.6765 85.3946 79.5093 84.7928 80.0843C84.191 80.6593 83.3511 80.8708 82.5442 80.6527L81.7374 80.428L79.7599 82.3248L79.9517 83.1443C80.1435 83.9573 79.8988 84.79 79.297 85.365C78.6951 85.94 77.8553 86.1515 77.0484 85.9334L76.2415 85.7087L74.2641 87.6055L74.4559 88.425C74.6477 89.238 74.403 90.0707 73.8012 90.6457C73.1993 91.2207 72.3594 91.4322 71.5526 91.2141L70.7457 90.9894L68.7683 92.8862L68.9601 93.7058C69.1519 94.5187 68.9072 95.3515 68.3054 95.9265C67.7035 96.5015 66.8636 96.713 66.0568 96.4949L65.2499 96.2701L63.2725 98.167L63.4643 98.9865C63.6561 99.7994 63.4114 100.632 62.8095 101.207C62.2077 101.782 61.3678 101.994 60.561 101.776L59.7541 101.551L57.7767 103.448L57.9685 104.267C58.1735 105.126 57.8759 106.019 57.2013 106.594C56.2953 107.36 54.913 107.314 54.0665 106.481C54.0268 106.395 54.007 106.382 53.9871 106.362Z" fill="#89817D"/>
<path opacity="0.6" d="M54.8204 106.376C54.589 106.131 54.4765 105.827 54.4964 105.497L54.5625 104.485L106.201 54.9298C107.596 53.5882 107.636 51.3543 106.293 49.9531L106.287 49.9465C106.108 49.7615 106.002 49.5434 105.976 49.2922L105.863 48.4264L102.51 44.9368L101.651 44.7914C101.399 44.7517 101.188 44.6328 101.009 44.4543C100.831 44.2693 100.725 44.0512 100.698 43.8L100.586 42.9342L97.2328 39.4446L96.373 39.2992C96.1217 39.2595 95.9101 39.1405 95.7315 38.9621C95.553 38.777 95.4471 38.5589 95.4207 38.3078L95.3082 37.442L91.9552 33.9524L91.0954 33.807C90.8441 33.7673 90.6325 33.6483 90.4539 33.4699C90.2754 33.2914 90.1696 33.0667 90.1431 32.8156L90.0307 31.9498L86.6776 28.4601L85.8179 28.3147C85.5666 28.2751 85.3549 28.1561 85.1764 27.9777C84.9978 27.7926 84.892 27.5745 84.8655 27.3234L84.7531 26.4576L81.4 22.9679L80.5403 22.8225C80.289 22.7829 80.0774 22.6639 79.8988 22.4855C79.7202 22.3004 79.6144 22.0823 79.588 21.8312L79.4755 20.9653L76.1225 17.4757L75.2627 17.3303C75.0114 17.2906 74.7998 17.1717 74.6212 16.9932C74.4426 16.8148 74.3369 16.5901 74.3104 16.3389L74.198 15.4731L70.8449 11.9835L69.9852 11.8381C69.7339 11.7984 69.5222 11.6795 69.3437 11.501C69.1651 11.316 69.0593 11.0979 69.0328 10.8467L68.9204 9.98091L65.5673 6.49127L64.7076 6.34587C64.4563 6.30622 64.2447 6.18726 64.0661 6.00882C63.623 5.54618 63.6362 4.81255 64.0992 4.36974C64.3174 4.15824 64.6084 4.05249 64.9259 4.05249C65.2433 4.0591 65.5343 4.18467 65.7393 4.40278L65.7525 4.41601C65.9179 4.58784 66.0237 4.81255 66.0502 5.05048L66.1626 5.91628L69.5156 9.40592L70.3754 9.55132C70.6267 9.59097 70.8383 9.70995 71.0169 9.88839C71.1955 10.0735 71.2946 10.2915 71.3277 10.5427L71.4401 11.4085L74.7932 14.8981L75.6529 15.0435C75.9042 15.0832 76.1159 15.2022 76.2944 15.3806C76.473 15.5657 76.5788 15.7838 76.6053 16.0349L76.7177 16.9007L80.0708 20.3903L80.9305 20.5357C81.1818 20.5754 81.3934 20.6944 81.572 20.8728C81.7506 21.0579 81.8498 21.276 81.8829 21.5271L81.9953 22.3929L85.3483 25.8826L86.2081 26.028C86.4594 26.0676 86.671 26.1866 86.8496 26.365C87.0282 26.5501 87.1273 26.7682 87.1604 27.0193L87.2728 27.8851L90.6259 31.3748L91.4856 31.5202C91.7369 31.5598 91.9486 31.6788 92.1272 31.8573C92.3057 32.0423 92.4115 32.2604 92.438 32.5116L92.5504 33.3774L95.9035 36.867L96.7632 37.0124C97.0145 37.0521 97.2261 37.171 97.4047 37.3495C97.5833 37.5345 97.6825 37.7526 97.7156 38.0038L97.828 38.8696L101.181 42.3592L102.041 42.5046C102.292 42.5443 102.504 42.6632 102.682 42.8417C102.861 43.0267 102.96 43.2449 102.993 43.496L103.106 44.3618L106.459 47.8514L107.318 47.9968C107.57 48.0365 107.781 48.1554 107.96 48.3339C108.138 48.5189 108.244 48.7371 108.271 48.9882L108.383 49.854L110.923 52.4977L111.782 52.6431C112.034 52.6827 112.245 52.8017 112.424 52.9801C112.437 53 112.457 53.0132 112.47 53.033C112.847 53.4758 112.827 54.1764 112.417 54.5928C112.007 55.0158 111.346 55.062 110.883 54.7118L109.078 53.3238L105.93 56.3442L106.273 57.8114C106.373 58.2212 106.254 58.6244 105.949 58.9152C105.645 59.206 105.242 59.3051 104.832 59.1928L103.377 58.7896L100.434 61.6183L100.778 63.0856C100.877 63.4953 100.758 63.8985 100.454 64.1893C100.149 64.4801 99.7459 64.5792 99.3359 64.4669L97.8809 64.0637L94.9379 66.8924L95.2818 68.3597C95.381 68.7694 95.2619 69.1726 94.9577 69.4634C94.6535 69.7542 94.2501 69.8533 93.84 69.741L92.3851 69.3378L89.4421 72.1665L89.786 73.6338C89.8852 74.0435 89.7661 74.4467 89.4619 74.7375C89.1577 75.0283 88.7542 75.1275 88.3442 75.0151L86.8893 74.6119L83.9463 77.4407L84.2902 78.9079C84.3894 79.3177 84.2703 79.7208 83.9661 80.0116C83.6619 80.3024 83.2584 80.4016 82.8484 80.2892L81.3935 79.8861L78.4505 82.7148L78.7943 84.182C78.8935 84.5918 78.7745 84.9949 78.4703 85.2857C78.1661 85.5765 77.7626 85.6757 77.3526 85.5633L75.8977 85.1602L72.9546 87.9889L73.2985 89.4561C73.3977 89.8659 73.2787 90.2691 72.9745 90.5599C72.6702 90.8507 72.2668 90.9498 71.8568 90.8374L70.4018 90.4343L67.4588 93.263L67.8027 94.7302C67.9019 95.14 67.7829 95.5432 67.4786 95.834C67.1744 96.1248 66.771 96.2239 66.361 96.1115L64.906 95.7084L61.963 98.5371L62.3069 100.004C62.4061 100.414 62.2871 100.817 61.9828 101.108C61.6786 101.399 61.2752 101.498 60.8652 101.386L59.4102 100.982L56.4672 103.811L56.8111 105.278C56.9103 105.708 56.7648 106.151 56.4275 106.435C55.9844 106.805 55.29 106.785 54.8733 106.376C54.8403 106.395 54.8337 106.389 54.8204 106.376Z" fill="#A0928A"/>
<path d="M54.84 105.543C54.6085 105.298 54.4961 104.994 54.5159 104.664L54.582 103.653L106.22 54.0971C107.616 52.7554 107.655 50.5215 106.313 49.1204L106.306 49.1138C106.128 48.9287 106.022 48.7106 105.995 48.4595L105.883 47.5937L102.53 44.104L101.67 43.9586C101.419 43.919 101.207 43.8 101.029 43.6216C100.85 43.4365 100.744 43.2184 100.718 42.9673L100.605 42.1015L97.2523 38.6118L96.3925 38.4664C96.1412 38.4268 95.9296 38.3078 95.751 38.1293C95.5724 37.9443 95.4666 37.7262 95.4402 37.475L95.3277 36.6092L91.9747 33.1196L91.1149 32.9742C90.8636 32.9345 90.652 32.8156 90.4734 32.6371C90.2949 32.4587 90.189 32.234 90.1626 31.9828L90.0502 31.117L86.6971 27.6274L85.8374 27.482C85.5861 27.4423 85.3745 27.3234 85.1959 27.1449C85.0173 26.9598 84.9115 26.7418 84.885 26.4906L84.7726 25.6248L81.4196 22.1352L80.5598 21.9898C80.3085 21.9501 80.0969 21.8311 79.9183 21.6527C79.7397 21.4676 79.6339 21.2495 79.6075 20.9984L79.4951 20.1326L76.142 16.6429L75.2822 16.4975C75.0309 16.4579 74.8193 16.3389 74.6408 16.1605C74.4622 15.9754 74.3564 15.7573 74.3299 15.5062L74.2175 14.6404L70.8644 11.1507L70.0047 11.0053C69.7534 10.9657 69.5418 10.8467 69.3632 10.6683C69.1846 10.4832 69.0788 10.2651 69.0523 10.014L68.9399 9.14815L65.5869 5.65851L64.7271 5.51311C64.4758 5.47345 64.2642 5.35448 64.0856 5.17603C63.6425 4.71339 63.6558 3.97977 64.1187 3.53695C64.337 3.32546 64.6279 3.21973 64.9454 3.21973C65.2628 3.22634 65.5538 3.35191 65.7588 3.57001L65.7721 3.58322C65.9374 3.75506 66.0432 3.97977 66.0697 4.2177L66.1821 5.0835L69.5351 8.57314L70.3949 8.71854C70.6462 8.75819 70.8578 8.87717 71.0364 9.05561C71.215 9.24067 71.3142 9.45877 71.3472 9.70991L71.4597 10.5757L74.8127 14.0654L75.6725 14.2108C75.9238 14.2504 76.1354 14.3694 76.3139 14.5478C76.4925 14.7329 76.5983 14.951 76.6248 15.2022L76.7372 16.068L80.0903 19.5576L80.95 19.703C81.2013 19.7426 81.413 19.8616 81.5915 20.04C81.7701 20.2251 81.8693 20.4432 81.9024 20.6944L82.0148 21.5602L85.3678 25.0498L86.2276 25.1952C86.4789 25.2349 86.6905 25.3538 86.8691 25.5323C87.0477 25.7173 87.1469 25.9354 87.1799 26.1866L87.2924 27.0524L90.6454 30.542L91.5052 30.6874C91.7565 30.7271 91.9681 30.846 92.1466 31.0245C92.3252 31.2095 92.431 31.4277 92.4575 31.6788L92.5699 32.5446L95.923 36.0342L96.7827 36.1796C97.034 36.2193 97.2457 36.3383 97.4242 36.5167C97.6028 36.7018 97.702 36.9199 97.7351 37.171L97.8475 38.0368L101.201 41.5265L102.06 41.6719C102.312 41.7115 102.523 41.8305 102.702 42.0089C102.88 42.194 102.98 42.4121 103.013 42.6632L103.125 43.529L106.478 47.0187L107.338 47.1641C107.589 47.2037 107.801 47.3227 107.979 47.5012C108.158 47.6862 108.264 47.9043 108.29 48.1555L108.403 49.0213L110.942 51.6649L111.802 51.8103C112.053 51.85 112.265 51.9689 112.443 52.1474C112.457 52.1672 112.477 52.1804 112.49 52.2003C112.867 52.6431 112.847 53.3437 112.437 53.76C112.027 54.183 111.365 54.2293 110.903 53.879L109.097 52.4911L105.949 55.5115L106.293 56.9787C106.392 57.3885 106.273 57.7916 105.969 58.0824C105.665 58.3732 105.261 58.4724 104.851 58.36L103.396 57.9568L100.453 60.7856L100.797 62.2528C100.896 62.6626 100.777 63.0657 100.473 63.3565C100.169 63.6473 99.7654 63.7465 99.3554 63.6341L97.9004 63.231L94.9574 66.0597L95.3013 67.5269C95.4005 67.9367 95.2815 68.3399 94.9772 68.6307C94.673 68.9215 94.2696 69.0206 93.8596 68.9082L92.4046 68.5051L89.4616 71.3338L89.8055 72.801C89.9047 73.2108 89.7856 73.614 89.4814 73.9048C89.1772 74.1956 88.7738 74.2947 88.3637 74.1824L86.9088 73.7792L83.9658 76.6079L84.3097 78.0751C84.4089 78.4849 84.2898 78.8881 83.9856 79.1789C83.6814 79.4697 83.278 79.5688 82.8679 79.4565L81.413 79.0533L78.47 81.882L78.8139 83.3493C78.9131 83.759 78.794 84.1622 78.4898 84.453C78.1856 84.7438 77.7822 84.8429 77.3721 84.7306L75.9172 84.3274L72.9741 87.1562L73.3181 88.6234C73.4173 89.0332 73.2982 89.4363 72.994 89.7271C72.6898 90.0179 72.2864 90.1171 71.8763 90.0047L70.4213 89.6015L67.4783 92.4303L67.8222 93.8975C67.9215 94.3073 67.8024 94.7104 67.4982 95.0012C67.194 95.292 66.7905 95.3912 66.3805 95.2788L64.9255 94.8757L61.9825 97.7044L62.3264 99.1716C62.4256 99.5814 62.3066 99.9845 62.0024 100.275C61.6981 100.566 61.2947 100.665 60.8847 100.553L59.4297 100.15L56.4867 102.979L56.8306 104.446C56.9298 104.875 56.7843 105.318 56.447 105.602C56.0039 105.972 55.3095 105.953 54.8929 105.543C54.8532 105.563 54.8466 105.556 54.84 105.543Z" fill="#A0928A"/>
</svg>
