<svg width="135" height="142" viewBox="0 0 135 142" fill="none" xmlns="http://www.w3.org/2000/svg">
<g opacity="0.43">
<path opacity="0.43" d="M134.058 68.669C133.595 64.6308 132.795 60.6917 131.598 56.9047C130.401 53.1242 128.847 49.4892 126.949 46.0855C123.166 39.2582 118.073 33.2967 112.121 28.4654L111.01 27.56C110.633 27.2626 110.243 26.9916 109.859 26.7008L108.702 25.8482C108.312 25.5706 107.908 25.3129 107.511 25.0485L106.321 24.2488C105.918 23.991 105.508 23.7465 105.104 23.4954L103.887 22.7485C103.471 22.5106 103.054 22.2859 102.637 22.0546C99.2909 20.2238 95.8122 18.6508 92.2078 17.4215C85.0189 14.9299 77.42 13.7138 69.8145 13.694L66.9641 13.7535C66.0117 13.7931 65.066 13.879 64.1203 13.9319C63.6441 13.9517 63.1745 14.0178 62.705 14.0641L61.2897 14.2227L60.5821 14.302L59.881 14.4144L58.4724 14.6325C54.7225 15.2339 51.0256 16.1922 47.4344 17.4282C43.8301 18.6575 40.3514 20.2304 37.0116 22.0612C36.5949 22.2925 36.1716 22.5172 35.7616 22.7551L34.5447 23.502C34.1413 23.7531 33.7247 23.9977 33.3278 24.2554L32.144 25.0551C31.7472 25.3195 31.3438 25.5773 30.9536 25.8548L29.7962 26.7074C29.4127 26.9916 29.0224 27.2692 28.6455 27.5666L27.5344 28.4721C21.5889 33.3034 16.4965 39.2648 12.707 46.0855C10.8089 49.4958 9.24811 53.1242 8.05768 56.9047C6.86725 60.6917 6.0604 64.6308 5.59084 68.669C4.65834 60.586 5.90828 52.1395 8.99679 44.3473C12.0853 36.5418 17.0256 29.4238 23.1893 23.5681L24.3533 22.4775C24.7435 22.1206 25.1602 21.7836 25.557 21.4333L26.7739 20.3957C27.1839 20.0586 27.6138 19.7414 28.0304 19.4109L29.3002 18.4394C29.7301 18.1287 30.1732 17.8313 30.6097 17.5207L31.9258 16.6086C32.3755 16.3178 32.8252 16.0402 33.2815 15.756C36.8859 13.4693 40.7416 11.579 44.7295 10.0259C48.7174 8.47934 52.8641 7.34255 57.0703 6.54945C59.1734 6.15951 61.3029 5.88855 63.4325 5.67706C64.4972 5.60436 65.5686 5.51182 66.6334 5.45895L69.841 5.37964C74.1199 5.39286 78.3988 5.77619 82.6116 6.55607C83.6698 6.7213 84.7081 6.99227 85.753 7.21699C86.8046 7.43509 87.8297 7.73249 88.8614 8.01669L89.6351 8.22819C89.8931 8.29428 90.151 8.36698 90.4023 8.45951L91.93 8.9552C92.4393 9.12704 92.9485 9.27244 93.4511 9.47071L94.9524 10.0457C98.9403 11.5989 102.789 13.4891 106.4 15.7759C106.85 16.0601 107.306 16.3376 107.756 16.6284L109.072 17.5405C109.509 17.8445 109.952 18.1419 110.382 18.4592L111.651 19.4373C112.068 19.7678 112.498 20.085 112.908 20.4221L114.125 21.4597C114.528 21.81 114.938 22.1471 115.329 22.504L116.493 23.5945C122.65 29.4502 127.59 36.5683 130.685 44.3737C133.734 52.1395 134.984 60.586 134.058 68.669Z" fill="#72635B"/>
<path opacity="0.43" d="M5.56437 78.0408C6.02731 82.079 6.82755 86.018 8.02459 89.8051C9.22163 93.5855 10.7758 97.2206 12.6739 100.624C16.4568 107.452 21.5492 113.413 27.5014 118.244L28.6124 119.15C28.9894 119.447 29.3796 119.718 29.7632 120.009L30.9205 120.862C31.3107 121.139 31.7141 121.397 32.111 121.661L33.3014 122.461C33.7048 122.719 34.1148 122.963 34.5183 123.214L35.7351 123.961C36.1518 124.199 36.5685 124.424 36.9851 124.655C40.3315 126.486 43.8102 128.059 47.4146 129.288C54.6035 131.78 62.2024 132.996 69.8079 133.016L72.6583 132.956C73.6107 132.917 74.5564 132.831 75.5021 132.778C75.9783 132.758 76.4478 132.692 76.9174 132.646L78.3327 132.487L79.0403 132.408L79.7414 132.295L81.15 132.077C84.8999 131.476 88.5968 130.518 92.188 129.282C95.7923 128.052 99.271 126.479 102.611 124.649C103.027 124.417 103.451 124.193 103.861 123.955L105.078 123.208C105.481 122.957 105.898 122.712 106.295 122.454L107.478 121.655C107.875 121.39 108.279 121.133 108.669 120.855L109.826 120.002C110.21 119.718 110.6 119.441 110.977 119.143L112.088 118.238C118.034 113.406 123.126 107.445 126.915 100.624C128.814 97.2139 130.374 93.5855 131.565 89.8051C132.755 86.018 133.562 82.079 134.032 78.0408C134.964 86.1238 133.714 94.5703 130.626 102.362C127.537 110.168 122.597 117.286 116.433 123.142L115.269 124.232C114.879 124.589 114.462 124.926 114.065 125.276L112.849 126.314C112.438 126.651 112.009 126.968 111.592 127.299L110.322 128.27C109.892 128.581 109.449 128.878 109.013 129.189L107.697 130.101C107.247 130.392 106.797 130.67 106.341 130.954C102.736 133.241 98.8808 135.131 94.8929 136.684C90.9049 138.23 86.7583 139.367 82.5521 140.16C80.449 140.55 78.3195 140.821 76.1899 141.033C75.1251 141.105 74.0538 141.198 72.989 141.251L69.7814 141.33C65.5025 141.317 61.2236 140.934 57.0108 140.154C55.9526 139.988 54.9143 139.717 53.8694 139.493C52.8178 139.275 51.7927 138.977 50.761 138.693L49.9872 138.482C49.7293 138.415 49.4714 138.343 49.2201 138.25L47.6924 137.755C47.1831 137.583 46.6739 137.437 46.1712 137.239L44.67 136.664C40.682 135.111 36.833 133.221 33.222 130.934C32.7723 130.65 32.316 130.372 31.8663 130.081L30.5502 129.169C30.1137 128.865 29.6706 128.568 29.2407 128.251L27.9709 127.272C27.5543 126.942 27.1244 126.625 26.7143 126.288L25.4975 125.25C25.094 124.9 24.684 124.563 24.2938 124.206L23.1298 123.115C16.9726 117.26 12.0324 110.141 8.93726 102.336C5.88843 94.5703 4.63848 86.1238 5.56437 78.0408Z" fill="#72635B"/>
</g>
<path d="M129.508 64.1219C129.045 60.0837 128.245 56.1446 127.048 52.3576C125.851 48.5771 124.296 44.9421 122.398 41.5384C118.615 34.7111 113.523 28.7496 107.571 23.9183L106.46 23.0129C106.083 22.7155 105.693 22.4445 105.309 22.1537L104.152 21.3011C103.761 21.0235 103.358 20.7658 102.961 20.5014L101.771 19.7017C101.367 19.4439 100.957 19.1994 100.554 18.9482L99.337 18.2014C98.9203 17.9635 98.5037 17.7388 98.087 17.5074C94.7406 15.6767 91.2619 14.1037 87.6576 12.8744C80.4687 10.3828 72.8698 9.16669 65.2643 9.14686L62.4138 9.20634C61.4615 9.24599 60.5158 9.33191 59.57 9.38478C59.0938 9.40461 58.6243 9.47071 58.1547 9.51697L56.7394 9.67558L56.0318 9.75489L55.3308 9.86726L53.9221 10.0854C50.1722 10.6868 46.4753 11.6451 42.8842 12.881C39.2798 14.1103 35.8011 15.6833 32.4613 17.514C32.0446 17.7454 31.6214 17.9701 31.2113 18.208L29.9944 18.9549C29.591 19.206 29.1744 19.4505 28.7776 19.7083L27.5937 20.508C27.1969 20.7724 26.7935 21.0301 26.4033 21.3077L25.246 22.1603C24.8624 22.4445 24.4722 22.7221 24.0952 23.0195L22.9841 23.9249C17.0386 28.7562 11.9462 34.7177 8.15668 41.5384C6.25861 44.9487 4.69782 48.5771 3.50739 52.3576C2.31696 56.1446 1.51011 60.0837 1.04055 64.1219C0.108044 56.0389 1.35799 47.5924 4.4465 39.8001C7.535 31.9947 12.4753 24.8767 18.6391 19.021L19.803 17.9304C20.1932 17.5735 20.6099 17.2365 21.0067 16.8862L22.2236 15.8485C22.6336 15.5115 23.0635 15.1942 23.4801 14.8638L24.7499 13.8922C25.1798 13.5816 25.6229 13.2842 26.0594 12.9736L27.3755 12.0615C27.8252 11.7707 28.2749 11.4931 28.7313 11.2089C32.3356 8.92214 36.1913 7.03191 40.1792 5.47876C44.1672 3.93222 48.3138 2.79545 52.52 2.00235C54.6231 1.61241 56.7527 1.34143 58.8822 1.12994C59.947 1.05724 61.0184 0.9647 62.0831 0.911826L65.2907 0.83252C69.5696 0.845738 73.8486 1.22907 78.0614 2.00895C79.1195 2.17418 80.1578 2.44515 81.2028 2.66987C82.2543 2.88797 83.2794 3.18538 84.3111 3.46957L85.0849 3.68107C85.3428 3.74716 85.6007 3.81986 85.8521 3.91239L87.3798 4.40808C87.889 4.57992 88.3983 4.72532 88.9009 4.92359L90.4022 5.49859C94.3901 7.05174 98.2391 8.94197 101.85 11.2287C102.3 11.5129 102.756 11.7905 103.206 12.0813L104.522 12.9934C104.958 13.2974 105.402 13.5948 105.831 13.9121L107.101 14.8902C107.518 15.2207 107.948 15.5379 108.358 15.875L109.575 16.9126C109.978 17.2629 110.388 17.6 110.778 17.9569L111.942 19.0474C118.099 24.9031 123.04 32.0212 126.135 39.8266C129.184 47.5924 130.434 56.0389 129.508 64.1219Z" fill="#4E7FC0"/>
<path d="M1.01408 73.4937C1.47702 77.5319 2.27725 81.4709 3.4743 85.258C4.67134 89.0384 6.22551 92.6735 8.12358 96.0772C11.9065 102.904 16.9989 108.866 22.9511 113.697L24.0621 114.603C24.4391 114.9 24.8293 115.171 25.2129 115.462L26.3702 116.314C26.7604 116.592 27.1639 116.85 27.5607 117.114L28.7511 117.914C29.1545 118.172 29.5645 118.416 29.968 118.667L31.1848 119.414C31.6015 119.652 32.0182 119.877 32.4348 120.108C35.7812 121.939 39.2599 123.512 42.8643 124.741C50.0532 127.233 57.6521 128.449 65.2576 128.469L68.108 128.409C69.0604 128.37 70.0061 128.284 70.9518 128.231C71.428 128.211 71.8975 128.145 72.3671 128.099L73.7824 127.94L74.49 127.861L75.1911 127.748L76.5997 127.53C80.3496 126.929 84.0465 125.97 87.6377 124.735C91.242 123.505 94.7207 121.932 98.0605 120.101C98.4772 119.87 98.9005 119.645 99.3105 119.408L100.527 118.661C100.931 118.41 101.347 118.165 101.744 117.907L102.928 117.108C103.325 116.843 103.728 116.585 104.119 116.308L105.276 115.455C105.659 115.171 106.05 114.893 106.427 114.596L107.538 113.691C113.483 108.859 118.576 102.898 122.365 96.0772C124.263 92.6668 125.824 89.0384 127.014 85.258C128.205 81.4709 129.012 77.5319 129.481 73.4937C130.414 81.5767 129.164 90.0232 126.075 97.8154C122.987 105.621 118.047 112.739 111.883 118.595L110.719 119.685C110.329 120.042 109.912 120.379 109.515 120.729L108.298 121.767C107.888 122.104 107.458 122.421 107.042 122.752L105.772 123.723C105.342 124.034 104.899 124.331 104.462 124.642L103.146 125.554C102.697 125.845 102.247 126.122 101.791 126.407C98.1862 128.693 94.3305 130.584 90.3426 132.137C86.3546 133.683 82.208 134.82 78.0018 135.613C75.8987 136.003 73.7692 136.274 71.6396 136.486C70.5748 136.558 69.5035 136.651 68.4387 136.704L65.2311 136.783C60.9522 136.77 56.6733 136.386 52.4605 135.607C51.4023 135.441 50.364 135.17 49.3191 134.946C48.2675 134.728 47.2424 134.43 46.2107 134.146L45.4369 133.934C45.179 133.868 44.9211 133.796 44.6698 133.703L43.1421 133.207C42.6328 133.036 42.1236 132.89 41.621 132.692L40.1197 132.117C36.1317 130.564 32.2827 128.674 28.6717 126.387C28.222 126.103 27.7657 125.825 27.316 125.534L25.9999 124.622C25.5634 124.318 25.1203 124.021 24.6904 123.703L23.4206 122.725C23.004 122.395 22.5741 122.078 22.164 121.741L20.9472 120.703C20.5437 120.353 20.1337 120.016 19.7435 119.659L18.5795 118.568C12.4224 112.712 7.48208 105.594 4.38696 97.7889C1.33814 90.0232 0.0881855 81.5767 1.01408 73.4937Z" fill="#4E7FC0"/>
</svg>
