<svg width="123" height="126" viewBox="0 0 123 126" fill="none" xmlns="http://www.w3.org/2000/svg">
<path opacity="0.43" d="M112.777 38.7119H82.1497C90.9126 36.3788 103.802 34.7662 105.35 29.7697C105.879 28.0579 105.833 25.3878 104.609 23.0217C106.289 21.0191 107.023 19.4131 106.19 18.6861C103.114 16.0094 98.9281 13.3327 89.8081 12.837C90.0396 11.297 89.9404 10.1669 89.3981 9.69763C86.2897 6.98787 82.0505 4.27812 72.7254 3.82869C70.9927 3.74278 69.6039 4.89937 68.4994 6.82925C67.9836 6.7896 67.4545 6.74994 66.9056 6.7235C65.444 6.6508 64.4255 7.38442 63.7443 8.6732C63.0631 7.38442 62.0447 6.6508 60.5831 6.7235C59.2273 6.78959 57.9906 6.90856 56.8398 7.06058C55.7221 5.17696 54.3333 4.0534 52.6204 4.13271C43.2954 4.58213 39.0561 7.29189 35.9478 10.0017C35.4385 10.4511 35.3261 11.4689 35.5245 12.87C26.8145 13.445 22.734 16.0623 19.7315 18.6861C18.9048 19.4065 19.6191 20.9861 21.2658 22.9688C20.0886 25.3151 20.0489 27.9389 20.5714 29.6243C22.0594 34.4357 34.0762 36.1145 42.7861 38.3087C43.216 38.4607 43.6393 38.5995 44.0361 38.7052H14.1761C8.23723 38.7052 3.76651 43.021 4.87096 47.6805L21.8346 119.37C22.6811 122.946 26.5897 125.53 31.1398 125.53H52.6866H73.2347H95.8132C100.363 125.53 104.278 122.939 105.118 119.37L122.082 47.6805C123.186 43.0276 118.716 38.7119 112.777 38.7119ZM52.6866 38.7119H52.5146C52.5146 38.7119 52.4948 38.6458 52.4683 38.5268C52.6535 38.5929 52.832 38.6656 53.0106 38.7119H52.6866ZM62.0116 35.4139C62.5208 33.2593 63.1822 30.1993 63.7509 26.8748C63.9229 27.8993 64.1081 28.9039 64.2999 29.8622C64.2205 31.6467 64.1874 33.2659 64.1676 34.6274C63.3872 37.0794 62.9705 38.7185 62.9705 38.7185C62.9705 38.7185 62.6266 37.4165 62.0116 35.4139ZM73.2347 38.7119H72.6395C72.7783 38.6722 72.9239 38.6193 73.0627 38.5665H73.4463C73.4199 38.659 73.4066 38.7119 73.4066 38.7119H73.2347Z" fill="#72635B"/>
<path d="M108.967 34.9048H10.3666C4.42766 34.9048 -0.0430648 39.2206 1.06139 43.88L18.025 115.57C18.8715 119.145 22.7801 121.729 27.3302 121.729H92.0036C96.5537 121.729 100.469 119.139 101.309 115.57L118.272 43.88C119.377 39.2206 114.906 34.9048 108.967 34.9048Z" fill="#6274A4"/>
<path d="M69.4251 34.9048H48.877V121.736H69.4251V34.9048Z" fill="#A8B7DF"/>
<path d="M69.5972 34.9048C69.5972 34.9048 76.3826 8.56066 85.7077 9.01008C95.0327 9.4595 99.272 12.1693 102.38 14.879C105.489 17.5888 86.8386 32.5718 78.0757 34.9048H69.5972Z" fill="#9AA7CC"/>
<path d="M48.7048 34.9048C48.7048 34.9048 41.9194 8.56066 32.5944 9.01008C23.2693 9.4595 19.0301 12.1693 15.9217 14.879C12.8134 17.5888 31.4635 32.5718 40.2264 34.9048H48.7048Z" fill="#9AA7CC"/>
<path d="M57.4218 34.7595C57.4218 34.7595 66.1119 2.46709 56.7869 2.91651C47.4618 3.36594 43.2226 6.0757 40.1142 8.78545C37.0059 11.4952 40.187 32.4264 48.9499 34.7529H57.4218V34.7595Z" fill="#9AB2DD"/>
<path d="M62.4679 34.7595C62.4679 34.7595 53.7778 2.46709 63.1028 2.91651C72.4279 3.36594 76.6671 6.0757 79.7754 8.78545C82.8838 11.4952 79.7027 32.4264 70.9398 34.7529H62.4679V34.7595Z" fill="#9AB2DD"/>
<path d="M60.3514 34.9049C60.3514 34.9049 59.5908 -0.434323 68.9159 0.0217099C78.2409 0.471133 82.4802 3.1809 85.5885 5.89065C88.6968 8.60041 77.5862 32.5719 68.8233 34.9049H60.3514Z" fill="#9AA7CC"/>
<path d="M57.6796 34.905C57.6796 34.905 58.1425 -0.117009 48.8109 0.332414C39.4858 0.781837 35.2466 3.4916 32.1383 6.20136C29.0299 8.91111 40.4382 32.5719 49.2011 34.905H57.6796Z" fill="#9AA7CC"/>
<path d="M48.4469 34.7595C48.4469 34.7595 35.7226 13.6035 26.3909 14.053C17.0659 14.5024 15.6572 22.2483 16.7617 25.8173C18.3092 30.8072 31.2055 32.4264 39.9618 34.7595H48.4469Z" fill="#9AB2DD"/>
<path d="M69.8618 34.905C69.8618 34.905 82.5862 13.749 91.9178 14.1985C101.243 14.6479 102.652 22.3938 101.547 25.9628C99.9995 30.9527 87.1032 32.5719 78.3469 34.905H69.8618Z" fill="#9AB2DD"/>
<path opacity="0.43" d="M59.1543 34.905C59.1543 34.905 66.6805 7.11343 77.0306 7.58929C87.3807 8.06515 92.0829 10.9269 95.5351 13.7821C98.9874 16.6372 78.2871 32.4464 68.5653 34.905H59.1543Z" fill="#72635B"/>
<path opacity="0.43" d="M59.1545 34.905C59.1545 34.905 51.6284 7.11343 41.2782 7.58929C30.9281 8.06515 26.2259 10.9269 22.7737 13.7821C19.3214 16.6372 40.0217 32.4464 49.7435 34.905H59.1545Z" fill="#72635B"/>
<path d="M59.1543 34.9048C59.1543 34.9048 65.9397 8.56066 75.2648 9.01008C84.5898 9.4595 88.829 12.1693 91.9374 14.879C95.0457 17.5888 76.3957 32.5718 67.6328 34.9048H59.1543Z" fill="#A8B7DF"/>
<path d="M59.1546 34.9048C59.1546 34.9048 52.3691 8.56066 43.0441 9.01008C33.719 9.4595 29.4798 12.1693 26.3715 14.879C23.2631 17.5888 41.9132 32.5718 50.6761 34.9048H59.1546Z" fill="#A8B7DF"/>
</svg>
