<svg width="130" height="93" viewBox="0 0 130 93" fill="none" xmlns="http://www.w3.org/2000/svg">
<path d="M129.634 63.7188C129.171 59.6806 128.371 55.7415 127.174 51.9545C125.977 48.174 124.423 44.539 122.525 41.1353C118.742 34.308 113.649 28.3465 107.697 23.5152L106.586 22.6098C106.209 22.3124 105.819 22.0414 105.435 21.7506L104.278 20.898C103.888 20.6204 103.484 20.3627 103.087 20.0983L101.897 19.2986C101.494 19.0408 101.084 18.7963 100.68 18.5451L99.4632 17.7983C99.0466 17.5604 98.6299 17.3357 98.2133 17.1044C94.8669 15.2736 91.3882 13.7006 87.7838 12.4713C80.5949 9.97967 72.996 8.76358 65.3905 8.74376L62.5401 8.80324C61.5877 8.84289 60.642 8.92881 59.6963 8.98169C59.2201 9.00151 58.7505 9.0676 58.281 9.11387L56.8657 9.27249L56.1581 9.3518L55.4372 9.47076L54.0285 9.68887C50.2787 10.2903 46.5817 11.2486 42.9906 12.4845C39.3862 13.7139 35.9075 15.2868 32.5677 17.1176C32.1511 17.3489 31.7278 17.5736 31.3178 17.8115L30.1009 18.5584C29.6975 18.8095 29.2808 19.0541 28.884 19.3118L27.7002 20.1115C27.3034 20.3759 26.8999 20.6336 26.5097 20.9112L25.3524 21.7638C24.9688 22.048 24.5786 22.3256 24.2016 22.623L23.0906 23.5285C17.145 28.3598 12.0526 34.3212 8.26311 41.1419C6.36504 44.5522 4.80425 48.1806 3.61382 51.9611C2.4234 55.7481 1.61655 59.6872 1.14699 63.7254C0.21449 55.6424 1.46444 47.1959 4.55294 39.4037C7.64144 31.5982 12.5817 24.4802 18.7455 18.6245L19.9095 17.5339C20.2997 17.1771 20.7163 16.84 21.1131 16.4897L22.33 15.4521C22.7401 15.115 23.1699 14.7978 23.5866 14.4673L24.8564 13.4957C25.2863 13.1851 25.7294 12.8877 26.1659 12.5771L27.4819 11.665C27.9316 11.3742 28.3814 11.0966 28.8377 10.8124C32.4421 8.52565 36.2977 6.63543 40.2857 5.08228C44.2736 3.53573 48.4203 2.39895 52.6265 1.60586C54.7295 1.21591 56.8591 0.944939 58.9886 0.733446C60.0534 0.660745 61.1248 0.56822 62.1896 0.515347L65.3971 0.436035C69.676 0.449253 73.955 0.832584 78.1678 1.61247C79.2259 1.77769 80.2643 2.04867 81.3092 2.27338C82.3607 2.49148 83.3858 2.7889 84.4175 3.07309L85.1913 3.28458C85.4492 3.35068 85.7072 3.42338 85.9585 3.5159L87.4862 4.01159C87.9954 4.18343 88.5047 4.32883 89.0073 4.52711L90.5086 5.1021C94.4965 6.65526 98.3456 8.54548 101.957 10.8323C102.406 11.1164 102.863 11.394 103.312 11.6848L104.628 12.5969C105.065 12.9009 105.508 13.1983 105.938 13.5156L107.208 14.4937C107.624 14.8242 108.054 15.1414 108.464 15.4785L109.681 16.5161C110.085 16.8664 110.495 17.2035 110.885 17.5604L112.049 18.6509C118.206 24.5066 123.146 31.6247 126.241 39.4301C129.31 47.1893 130.553 55.6358 129.634 63.7188Z" fill="#4E7FC0"/>
<path d="M28.1631 85.714C26.4303 83.7709 24.9688 81.5436 23.8048 79.1445C22.6342 76.7454 21.7744 74.1678 21.2123 71.5043C20.0946 66.1707 20.2798 60.5199 21.5959 55.1268C22.9186 49.7271 25.392 44.5918 28.7517 40.1108C32.1047 35.6232 36.3506 31.7965 41.1255 28.862C45.9071 25.9407 51.2442 23.8919 56.7731 22.9402C62.2953 21.9819 67.9962 22.1008 73.4126 23.3764C78.8159 24.652 83.9413 27.0511 88.1938 30.468C90.3167 32.1732 92.2214 34.1163 93.8285 36.2444C95.4422 38.3726 96.7649 40.6858 97.704 43.1113C95.9647 41.1683 94.1261 39.4036 92.1619 37.8637C90.1911 36.3237 88.1145 34.9887 85.9452 33.885C81.6134 31.6709 76.9641 30.3226 72.2751 29.8335C67.5861 29.3312 62.8575 29.6353 58.3273 30.6927C53.7904 31.7436 49.4586 33.5413 45.4838 35.9602C41.5224 38.399 37.9511 41.4392 34.9485 45.0016C31.9526 48.5573 29.5255 52.6285 27.8522 57.0369C26.1658 61.4386 25.2598 66.1905 25.2664 71.0549C25.2664 73.4871 25.5177 75.9457 25.9939 78.3977C26.4766 80.8497 27.2174 83.2819 28.1631 85.714Z" fill="#4798BC"/>
<path d="M77.5197 81.6033C77.3279 82.7731 76.898 83.9032 76.3028 84.9673C75.7076 86.0314 74.9405 87.0228 74.0344 87.9084C72.2289 89.673 69.9076 90.9817 67.3945 91.7021C64.8813 92.4291 62.1764 92.5745 59.5509 92.1581C56.9253 91.7483 54.3791 90.7768 52.1371 89.3624C49.8952 87.948 47.9177 86.071 46.4164 83.8768C44.9152 81.6892 43.8769 79.1843 43.4536 76.6001C43.0171 74.0225 43.2023 71.359 44.029 68.9731C44.439 67.7769 45.0078 66.6599 45.7154 65.6619C46.4231 64.6706 47.2564 63.7915 48.2352 63.124C47.4085 67.7438 48.1756 71.5639 49.7563 74.7694C51.3435 77.9682 53.7177 80.4929 56.588 82.3237C59.4649 84.1346 62.7716 85.192 66.3495 85.2515C69.9274 85.2978 73.7104 84.3394 77.5197 81.6033Z" fill="#6DC6D3"/>
</svg>
