<svg width="53" height="83" viewBox="0 0 53 83" fill="none" xmlns="http://www.w3.org/2000/svg">
<path fill-rule="evenodd" clip-rule="evenodd" d="M3.31873 23.9178C1.33623 23.9178 -0.26932 22.2786 0.0378284 20.3419C1.95751 8.57667 11.0044 0 26.7039 0C42.4104 0 53 9.40667 53 22.2371C53 31.5331 48.3579 38.0624 40.5046 42.8003C32.8259 47.3584 30.634 50.5332 30.634 56.7028V56.9103C30.634 57.8275 30.2663 58.7072 29.6117 59.3557C28.9571 60.0043 28.0694 60.3687 27.1437 60.3687H21.7686C20.8489 60.3687 19.9664 60.0091 19.3128 59.368C18.6592 58.7269 18.2875 57.8561 18.2783 56.9449L18.2573 55.5616C17.9571 47.1163 21.5871 41.7213 29.7405 36.8036C36.9305 32.4323 39.4924 28.9532 39.4924 22.7766C39.4924 16.0052 34.2011 11.0321 26.0477 11.0321C19.0042 11.0321 14.1108 14.691 12.5192 20.7293C12.0585 22.4861 10.5786 23.9178 8.74967 23.9178H3.32571H3.31873ZM24.4073 83C28.7492 83 32.0511 79.7215 32.0511 75.4608C32.0511 71.1863 28.7492 67.9078 24.4073 67.9078C20.177 67.9078 16.8193 71.1863 16.8193 75.4539C16.8193 79.7215 20.177 83 24.4073 83Z" fill="#DDDDDD"/>
</svg>
